<?xml version="1.0" encoding="utf-8"?>
<!-- Generator: Adobe Illustrator 26.5.3, SVG Export Plug-In . SVG Version: 6.00 Build 0)  -->
<svg version="1.1" id="Layer_1" xmlns="http://www.w3.org/2000/svg" xmlns:xlink="http://www.w3.org/1999/xlink" x="0px" y="0px"
	 viewBox="0 0 202.5 62.5" style="enable-background:new 0 0 202.5 62.5;" xml:space="preserve">
<style type="text/css">
	.st0{clip-path:url(#SVGID_00000134226909174287409470000001492242409915888571_);}
</style>
<g>
	<defs>
		<rect id="SVGID_1_" width="202.5" height="62.5"/>
	</defs>
	<clipPath id="SVGID_00000087405738548706485330000012247664014841896588_">
		<use xlink:href="#SVGID_1_"  style="overflow:visible;"/>
	</clipPath>
	<path style="clip-path:url(#SVGID_00000087405738548706485330000012247664014841896588_);" d="M75.3,30c1.5,0,2.8-0.4,3.9-1.1
		c1.1-0.7,1.9-1.8,2.4-3.1c0.5-1.3,0.8-2.9,0.8-4.6c0-1.8-0.3-3.3-0.8-4.7c-0.5-1.3-1.4-2.4-2.4-3.1s-2.4-1.1-3.9-1.1h-0.4
		c-1.5,0-2.8,0.4-3.9,1.1c-1,0.7-1.8,1.8-2.4,3.1c-0.5,1.3-0.8,2.9-0.8,4.7c0,2.7,0.6,4.9,1.8,6.4c1.2,1.6,2.9,2.4,5.2,2.4H75.3z
		 M63.5,21.1c0-2.7,0.5-5,1.5-6.9c1-1.9,2.3-3.3,3.9-4.2c1.6-0.9,3.3-1.4,5.2-1.4c1.4,0,2.6,0.2,3.8,0.7c1.2,0.5,2.2,1.2,3.1,2.1
		c0.9,0.9,1.6,2.2,2.1,3.6l0.2,0.5l0.6-0.1c-0.1-0.4-0.2-0.9-0.3-1.3c-0.1-0.4-0.3-0.8-0.4-1.2c-0.2-0.6-0.3-1.1-0.5-1.7
		c-0.2-0.6-0.3-1.1-0.4-1.7c0-0.3,0-0.7,0-1.2V0h4.2v33h-4.2v-0.7c0-0.6,0.1-1.1,0.2-1.6c0.1-0.5,0.4-1.3,0.7-2.3c0,0,0-0.1,0-0.1
		c0-0.1,0-0.1,0-0.1l-0.6-0.2l-0.1,0.3c-0.4,1-1,2-1.8,2.8c-0.8,0.8-1.8,1.4-2.9,1.9s-2.3,0.7-3.7,0.7c-1.9,0-3.6-0.5-5.2-1.4
		C67.2,31.2,66,29.8,65,28C64,26.1,63.5,23.8,63.5,21.1"/>
	<path style="clip-path:url(#SVGID_00000087405738548706485330000012247664014841896588_);" d="M111.5,9.2l-9,23.7h-5.6L88.1,9.2
		h4.4L96.9,21c0.1,0.1,0.1,0.3,0.2,0.4c0,0.1,0.1,0.3,0.1,0.4c0.6,1.7,1.1,3.3,1.5,4.6c0.4,1.3,0.6,2.7,0.8,4.1h0.6
		c0.1-1.5,0.4-3,0.8-4.4c0.4-1.5,1-3,1.6-4.7l0.2-0.5L107,9.2H111.5z"/>
	<path style="clip-path:url(#SVGID_00000087405738548706485330000012247664014841896588_);" d="M117.7,33h-4.2V9.2h4.2V33z
		 M113.6,4.7c-0.5-0.5-0.8-1.2-0.8-2c0-0.8,0.3-1.4,0.8-1.9c0.5-0.5,1.2-0.8,2-0.8c0.8,0,1.4,0.3,1.9,0.8c0.5,0.5,0.8,1.2,0.8,1.9
		c0,0.8-0.3,1.5-0.8,2c-0.5,0.5-1.2,0.8-1.9,0.8C114.8,5.5,114.1,5.3,113.6,4.7"/>
	<path style="clip-path:url(#SVGID_00000087405738548706485330000012247664014841896588_);" d="M124.8,27.5c0.5,0.8,1.2,1.4,2.1,1.8
		c0.9,0.4,1.9,0.7,3,0.7c1,0,1.9-0.1,2.7-0.4c0.8-0.3,1.4-0.7,1.9-1.2c0.5-0.5,0.7-1.1,0.7-1.9c0-0.9-0.3-1.7-1-2.2
		c-0.7-0.5-1.7-1-3.1-1.3l-4.7-1.1c-2-0.5-3.4-1.2-4.3-2.3c-0.9-1.1-1.4-2.4-1.4-4.1c0-1.4,0.4-2.6,1.2-3.7c0.8-1,1.9-1.8,3.2-2.4
		c1.4-0.5,3-0.8,4.7-0.8c1.8,0,3.4,0.3,4.9,1c1.4,0.7,2.6,1.7,3.4,2.9c0.8,1.2,1.3,2.7,1.3,4.4H135c-0.1-1.1-0.4-2-0.9-2.8
		c-0.5-0.7-1.2-1.3-2-1.6c-0.8-0.3-1.6-0.5-2.5-0.5c-1.4,0-2.5,0.3-3.3,0.9c-0.8,0.6-1.2,1.3-1.2,2.3c0,0.7,0.2,1.4,0.7,1.9
		c0.5,0.5,1.2,0.9,2.3,1.2l4.9,1.1c2.1,0.5,3.7,1.3,4.8,2.3c1.2,1.1,1.7,2.5,1.7,4.3c0,1.5-0.4,2.8-1.1,3.9
		c-0.8,1.1-1.9,1.9-3.3,2.5c-1.4,0.6-3.2,0.9-5.1,0.9c-2.3,0-4.2-0.4-5.7-1.3c-1.5-0.8-2.7-1.9-3.4-3.3c-0.7-1.3-1.1-2.8-1.2-4.3
		h4.4C124,25.8,124.3,26.7,124.8,27.5"/>
	<path style="clip-path:url(#SVGID_00000087405738548706485330000012247664014841896588_);" d="M156.6,28.8c1-0.8,1.8-1.9,2.3-3.2
		c0.5-1.4,0.7-2.9,0.7-4.6c0-1.6-0.3-3.1-0.8-4.5c-0.5-1.3-1.3-2.4-2.3-3.2c-1-0.8-2.3-1.2-3.8-1.2h-0.5c-1.5,0-2.8,0.4-3.8,1.2
		c-1,0.8-1.8,1.9-2.3,3.2c-0.5,1.3-0.8,2.8-0.8,4.4c0,2.5,0.6,4.6,1.7,6.4c1.2,1.8,2.9,2.6,5.1,2.6h0.5
		C154.2,30,155.5,29.6,156.6,28.8 M146.4,31.9c-1.7-1.1-3.1-2.5-4-4.4c-0.9-1.9-1.4-4.1-1.4-6.5s0.5-4.6,1.4-6.5
		c0.9-1.8,2.3-3.3,4-4.3c1.7-1,3.8-1.5,6.1-1.5c2.3,0,4.3,0.5,6.1,1.5c1.7,1,3.1,2.5,4,4.3c0.9,1.9,1.4,4,1.4,6.4
		c0,2.5-0.5,4.6-1.4,6.5c-0.9,1.9-2.3,3.4-4,4.4c-1.8,1.1-3.8,1.6-6.1,1.6C150.2,33.5,148.1,33,146.4,31.9"/>
	<path style="clip-path:url(#SVGID_00000087405738548706485330000012247664014841896588_);" d="M176.8,13.5c-1.8,0-3.3,0.5-4.5,1.5
		c-1.2,1-1.7,2.5-1.7,4.6V33h-4.2V9.2h4.2v0.1c0,0.8-0.1,1.6-0.3,2.3c-0.2,0.7-0.6,1.7-1.1,3l-0.3,0.9l0.6,0.2
		c0.1-0.3,0.2-0.5,0.3-0.7c0.1-0.2,0.2-0.4,0.4-0.7c0.8-1.5,1.8-2.6,2.8-3.3c1.1-0.7,2.1-1.2,3.2-1.4c1.1-0.2,2.4-0.3,3.8-0.3h0.8
		l0,4.6c-0.7-0.1-1.4-0.1-2.2-0.2C177.8,13.6,177.2,13.5,176.8,13.5"/>
	<path style="clip-path:url(#SVGID_00000087405738548706485330000012247664014841896588_);" d="M202.5,9.2v22.9c0,3.4-1,6.1-2.9,7.9
		c-2,1.8-4.6,2.7-8,2.7c-3.4,0-5.9-0.8-7.5-2.3c-1.7-1.5-2.6-3.6-2.9-6.3h4.3l0,0.2c0.2,1.6,0.8,2.8,1.8,3.6c1,0.8,2.3,1.2,4.1,1.2
		h0.3c1.8,0,3.2-0.4,4.4-1.3c1.2-0.9,1.9-2.2,2.1-3.9c0-0.2,0.1-0.4,0.1-0.7c0-0.2,0-0.4,0-0.7c0-0.9,0.1-1.5,0.2-2.1
		c0-0.1,0-0.2,0-0.3c0-0.1,0-0.2,0.1-0.2c0.1-0.5,0.3-0.9,0.4-1.4c0.1-0.4,0.3-0.9,0.5-1.2c0.1-0.3,0.3-0.7,0.4-1
		c0.1-0.3,0.2-0.7,0.3-1l-0.6-0.2c-0.6,1.9-1.8,3.5-3.4,4.7c-1.6,1.2-3.4,1.8-5.4,1.8c-1.4,0-2.8-0.3-4-0.8c-1.2-0.5-2.2-1.4-3-2.6
		c-0.8-1.2-1.1-2.8-1.1-4.8V9.2h4.2v13.9c0,1.7,0.5,2.9,1.4,3.8c0.9,0.8,2.2,1.3,3.9,1.3h0.1c1.7,0,3.2-0.5,4.3-1.6
		c1.2-1.1,1.7-2.5,1.7-4.1V9.2H202.5z"/>
	<path style="clip-path:url(#SVGID_00000087405738548706485330000012247664014841896588_);" d="M42.1,54.6c-0.5,1.4-1.3,2.4-2.3,3.2
		c-1,0.8-2.3,1.2-3.8,1.2h-0.5c-2.3,0-4-0.9-5.1-2.6c-1.2-1.8-1.7-3.9-1.7-6.4c0-1.6,0.3-3,0.8-4.4c0.5-1.3,1.3-2.4,2.3-3.2
		c1-0.8,2.3-1.2,3.8-1.2H36c1.5,0,2.8,0.4,3.8,1.2c1,0.8,1.8,1.8,2.3,3.2c0.5,1.3,0.8,2.8,0.8,4.5C42.9,51.7,42.6,53.2,42.1,54.6
		 M41.8,39.2c-1.7-1-3.8-1.5-6.1-1.5c-2.3,0-4.4,0.5-6.1,1.5c-1.7,1-3.1,2.5-4,4.3c-0.9,1.8-1.4,4-1.4,6.5s0.5,4.6,1.4,6.5
		c0.9,1.9,2.3,3.4,4,4.4c1.7,1.1,3.8,1.6,6.1,1.6c2.3,0,4.3-0.5,6.1-1.6c1.8-1.1,3.1-2.5,4-4.4c0.9-1.9,1.4-4.1,1.4-6.5
		c0-2.4-0.5-4.6-1.4-6.4C44.9,41.7,43.6,40.3,41.8,39.2"/>
	<path style="clip-path:url(#SVGID_00000087405738548706485330000012247664014841896588_);" d="M65,51.6c0,1.8-0.4,3.3-1.1,4.4
		c-0.8,1.1-1.7,1.9-2.8,2.3c-1.1,0.5-2.3,0.7-3.4,0.7c-1.4,0-2.5-0.3-3.3-1c-0.7-0.6-1.1-1.4-1.1-2.4c0-1.1,0.4-2,1.1-2.6
		c0.4-0.3,0.9-0.6,1.5-0.8c0.6-0.2,1.3-0.4,2.1-0.5l2.1-0.4c1.2-0.2,2.2-0.6,3.1-1c0.9-0.5,1.5-1.1,1.9-1.9V51.6z M69.4,58.1
		c-0.1-0.2-0.2-0.8-0.2-1.5v-11c0-2.8-0.8-4.7-2.4-6c-1.6-1.2-4-1.8-7.1-1.8c-2,0-3.7,0.3-5.2,1c-1.5,0.7-2.6,1.7-3.4,2.9
		s-1.2,2.7-1.3,4.4H54c0.1-1,0.4-1.9,0.9-2.6c0.5-0.7,1.2-1.3,2-1.7c0.8-0.4,1.8-0.6,2.8-0.6c1.6,0,2.9,0.3,3.8,0.9
		c0.9,0.6,1.4,1.4,1.4,2.5c0,0.7-0.2,1.3-0.6,1.8c-0.4,0.4-1,0.8-1.7,1s-1.7,0.4-3,0.6l-2.3,0.3c-2.4,0.3-4.3,0.9-5.6,1.8
		c-1.8,1.3-2.8,3.1-2.8,5.5c0,1.1,0.2,2.1,0.7,3c0.4,0.9,1.1,1.7,1.9,2.3c1.4,1.1,3.1,1.7,5.2,1.7c2.3,0,4.2-0.5,5.8-1.6
		c1.6-1.1,2.7-2.6,3.2-4.6l0.6,0.1c0,0.1-0.1,0.2-0.1,0.3c0,0.1,0,0.2-0.1,0.3c-0.2,0.5-0.3,1-0.4,1.4c-0.1,0.5-0.1,0.9-0.1,1.4
		c0,0.8,0.3,1.4,0.8,1.8c0.5,0.4,1.4,0.6,2.6,0.6c0.8,0,1.6-0.1,2.6-0.2v-3.6c-0.3,0.1-0.7,0.1-1,0.1C69.9,58.4,69.5,58.3,69.4,58.1
		"/>
	<path style="clip-path:url(#SVGID_00000087405738548706485330000012247664014841896588_);" d="M89,38.3h-0.8
		c-1.5,0-2.7,0.1-3.8,0.3c-1.1,0.2-2.2,0.7-3.2,1.4c-1.1,0.7-2,1.8-2.8,3.3c-0.1,0.2-0.2,0.4-0.4,0.7c-0.1,0.2-0.2,0.5-0.3,0.7
		L77,44.5l0.3-0.9c0.5-1.2,0.8-2.2,1-3c0.2-0.7,0.3-1.5,0.3-2.3v-0.1h-4.2V62h4.2V48.6c0-2.1,0.6-3.7,1.7-4.6c1.2-1,2.6-1.5,4.5-1.5
		c0.4,0,1,0,1.8,0.1c0.8,0.1,1.5,0.1,2.2,0.2L89,38.3z"/>
	<path style="clip-path:url(#SVGID_00000087405738548706485330000012247664014841896588_);" d="M106.3,54.8
		c-0.5,1.3-1.4,2.4-2.4,3.1c-1.1,0.7-2.4,1.1-3.9,1.1h-0.4c-2.3,0-4-0.8-5.2-2.4c-1.2-1.6-1.8-3.7-1.8-6.4c0-1.8,0.3-3.4,0.8-4.7
		c0.5-1.3,1.3-2.4,2.4-3.1c1.1-0.7,2.3-1.1,3.9-1.1h0.4c1.5,0,2.8,0.4,3.9,1.1c1.1,0.7,1.9,1.8,2.4,3.1c0.5,1.3,0.8,2.9,0.8,4.7
		C107.2,51.9,106.9,53.5,106.3,54.8 M106.8,29v8.3c0,0.6,0,1,0,1.2c0.1,0.5,0.2,1.1,0.4,1.7c0.2,0.6,0.3,1.2,0.5,1.7
		c0.2,0.4,0.3,0.8,0.4,1.2c0.1,0.4,0.2,0.8,0.3,1.3l-0.6,0.1l-0.2-0.5c-0.5-1.5-1.2-2.7-2.1-3.6c-0.9-0.9-1.9-1.7-3.1-2.1
		c-1.2-0.5-2.4-0.7-3.8-0.7c-1.9,0-3.6,0.5-5.2,1.4c-1.6,0.9-2.9,2.3-3.9,4.2c-1,1.9-1.5,4.2-1.5,6.9s0.5,5,1.5,6.8
		c1,1.9,2.3,3.3,3.9,4.2c1.6,0.9,3.3,1.4,5.2,1.4c1.3,0,2.5-0.2,3.7-0.7c1.1-0.5,2.1-1.1,2.9-1.9c0.8-0.8,1.4-1.7,1.8-2.8l0.1-0.3
		l0.6,0.2c0,0,0,0.1,0,0.1c0,0.1,0,0.1,0,0.1c-0.4,1-0.6,1.8-0.7,2.3c-0.1,0.5-0.2,1.1-0.2,1.6V62h4.2V29H106.8z"/>
	<path style="clip-path:url(#SVGID_00000087405738548706485330000012247664014841896588_);" d="M48.9,30c-1.4,0-2.5-0.3-3.3-1
		c-0.7-0.6-1.1-1.4-1.1-2.4c0-1.1,0.3-2,1.1-2.6c0.4-0.3,0.9-0.6,1.5-0.8c0.6-0.2,1.3-0.4,2.1-0.5l2.1-0.4c1.2-0.2,2.2-0.6,3.1-1
		c0.9-0.5,1.5-1.1,1.9-1.9v3.3c0,1.8-0.4,3.3-1.1,4.4c-0.8,1.1-1.7,1.9-2.8,2.3C51.1,29.7,50,30,48.9,30 M4.7,45.5
		c0.5-1.3,1.4-2.4,2.4-3.1c1.1-0.7,2.4-1.1,3.9-1.1h0.4c1.5,0,2.8,0.4,3.9,1.1c1.1,0.7,1.8,1.8,2.4,3.1c0.5,1.3,0.8,2.9,0.8,4.7
		c0,1.8-0.3,3.4-0.8,4.7c-0.5,1.3-1.3,2.3-2.4,3.1c-1.1,0.7-2.3,1.1-3.9,1.1H11c-1.5,0-2.8-0.4-3.9-1.1c-1.1-0.7-1.9-1.8-2.4-3.1
		c-0.5-1.3-0.8-2.9-0.8-4.6C3.9,48.4,4.1,46.8,4.7,45.5 M56.9,27.3l0.6,0.1c0,0.1-0.1,0.2-0.1,0.3c0,0.1,0,0.2-0.1,0.3
		c-0.2,0.5-0.3,1-0.4,1.4c-0.1,0.5-0.1,0.9-0.1,1.4c0,0.8,0.3,1.4,0.8,1.8c0.5,0.4,1.4,0.6,2.6,0.6c0.8,0,1.6-0.1,2.6-0.2v-3.6
		c-0.3,0.1-0.7,0.1-1,0.1c-0.7,0-1.1-0.1-1.2-0.4c-0.1-0.2-0.2-0.8-0.2-1.5v-11c0-2.8-0.8-4.7-2.4-6c-1.6-1.2-4-1.8-7.1-1.8
		c-2,0-3.7,0.3-5.2,1c-1.5,0.7-2.6,1.7-3.4,2.9c-0.1,0.1-0.1,0.2-0.2,0.3l-5.8,0v0c-1.6-0.1-3.2-0.4-4.6-1c-1.7-0.7-3.5-1.7-5.3-3
		c-0.3-0.2-0.6-0.5-1-0.7c-0.3-0.2-0.6-0.5-1-0.7c-1.3-0.9-2.4-1.7-3.2-2.3c-0.9-0.6-1.8-1-2.8-1.4c-1-0.4-2.1-0.6-3.2-0.6
		c-1.7,0-2.9,0.4-3.8,1.2c-0.9,0.8-1.3,1.9-1.3,3.1c0,1,0.3,2.2,0.8,3.3c0.6,1.2,1.4,2.6,2.5,4.3c0.1,0.2,0.2,0.3,0.3,0.5
		c0.1,0.2,0.2,0.4,0.3,0.5l0.5,0.9c0.8,1.3,1.4,2.3,1.7,3.1c0.4,0.7,0.5,1.4,0.5,2.1c0,0.7-0.3,1.2-0.9,1.6
		c-0.6,0.3-1.4,0.4-2.4,0.5c-0.6,0.1-1.3,0.1-2.1,0.1v0H0v4.1V29v33h4.2v-0.7c0-0.6-0.1-1.1-0.2-1.6c-0.1-0.5-0.4-1.3-0.7-2.3
		c0,0,0-0.1,0-0.1c0-0.1,0-0.1,0-0.1l0.6-0.2c0.4,1.1,1,2.1,1.8,2.9c0.8,0.9,1.8,1.5,3,2c1.2,0.5,2.4,0.7,3.7,0.7
		c1.9,0,3.6-0.5,5.2-1.4c1.6-0.9,2.9-2.3,3.9-4.2c1-1.9,1.5-4.1,1.5-6.8c0-2.7-0.5-5-1.5-6.9c-1-1.9-2.3-3.3-3.9-4.2
		c-1.6-0.9-3.3-1.4-5.2-1.4c-1.4,0-2.6,0.2-3.8,0.7s-2.2,1.2-3.1,2.1c-0.9,0.9-1.6,2.1-2.1,3.6l-0.2,0.5l-0.6-0.1
		c0.1-0.4,0.2-0.9,0.3-1.3C3,42.8,3.1,42.4,3.3,42c0.2-0.6,0.3-1.1,0.5-1.7c0.2-0.6,0.3-1.1,0.4-1.7c0-0.3,0-0.7,0-1.2V29h7.3
		c0.8,0,1.7-0.1,2.5-0.1c2.7-0.2,4.1-0.9,5.3-1.8s1.7-2.4,1.7-4c0-0.9-0.2-1.9-0.7-3.1c-0.5-1.2-1.1-2.4-1.9-3.8
		c-0.2-0.2-0.3-0.5-0.5-0.7c-0.1-0.2-0.3-0.5-0.4-0.7l-0.5-0.9c-0.9-1.4-1.6-2.6-2-3.4c-0.5-0.9-0.7-1.6-0.7-2.2
		c0-0.3,0.1-0.6,0.3-0.8c0.2-0.2,0.5-0.3,0.9-0.3c1,0,2.1,0.3,3.1,0.9s2.4,1.5,4.2,2.7c0.3,0.2,0.5,0.4,0.8,0.6
		c0.3,0.2,0.6,0.4,0.9,0.6c2.1,1.5,4.2,2.8,6.2,3.7c1.8,0.8,3.7,1.2,5.9,1.3l4.4,0h4.3c0.1-1,0.4-1.9,0.9-2.6c0.5-0.7,1.2-1.3,2-1.7
		c0.8-0.4,1.8-0.6,2.8-0.6c1.6,0,2.9,0.3,3.8,0.9c0.9,0.6,1.4,1.4,1.4,2.5c0,0.7-0.2,1.3-0.6,1.8c-0.4,0.4-1,0.8-1.7,1
		c-0.7,0.2-1.7,0.4-3,0.6l-2.3,0.3c-2.4,0.3-4.3,0.9-5.6,1.8c-1.8,1.3-2.8,3.1-2.8,5.5c0,1.1,0.2,2.1,0.7,3c0.4,0.9,1.1,1.7,1.9,2.3
		c1.4,1.1,3.1,1.7,5.3,1.7c2.3,0,4.2-0.5,5.8-1.6C55.3,30.8,56.4,29.3,56.9,27.3"/>
</g>
</svg>
