<?xml version="1.0" encoding="utf-8"?>
<!-- Generator: Adobe Illustrator 26.5.3, SVG Export Plug-In . SVG Version: 6.00 Build 0)  -->
<svg version="1.1" id="Layer_1" xmlns="http://www.w3.org/2000/svg" xmlns:xlink="http://www.w3.org/1999/xlink" x="0px" y="0px"
	 viewBox="0 0 141.7 25.3" style="enable-background:new 0 0 141.7 25.3;" xml:space="preserve">
<style type="text/css">
	.st0{clip-path:url(#SVGID_00000066494828071715998030000008336897582387450263_);}
</style>
<g>
	<defs>
		<rect id="SVGID_1_" width="141.7" height="25.3"/>
	</defs>
	<clipPath id="SVGID_00000002376661604752313930000006971184277738778036_">
		<use xlink:href="#SVGID_1_"  style="overflow:visible;"/>
	</clipPath>
	<path style="clip-path:url(#SVGID_00000002376661604752313930000006971184277738778036_);" d="M6.7,13.3l-1.3,0.2
		c-0.5,0.1-0.9,0.2-1.3,0.3c-0.4,0.1-0.6,0.3-0.9,0.5c-0.4,0.4-0.6,0.9-0.6,1.6c0,0.6,0.2,1.1,0.6,1.4c0.5,0.4,1.1,0.6,2,0.6
		c0.7,0,1.3-0.1,2-0.4c0.7-0.3,1.2-0.7,1.7-1.4c0.5-0.7,0.7-1.5,0.7-2.6v-2C9.4,12,9,12.4,8.5,12.7C8,13,7.4,13.2,6.7,13.3
		 M12.2,9.9v6.6c0,0.5,0,0.8,0.1,0.9c0.1,0.1,0.3,0.2,0.7,0.2c0.2,0,0.4,0,0.6-0.1v2.1c-0.6,0.1-1.1,0.1-1.6,0.1
		c-0.7,0-1.2-0.1-1.6-0.3c-0.3-0.2-0.5-0.6-0.5-1.1c0-0.2,0-0.5,0.1-0.8c0.1-0.3,0.1-0.6,0.2-0.9c0-0.1,0-0.1,0-0.2c0,0,0-0.1,0-0.2
		l-0.3-0.1c-0.3,1.2-1,2.1-1.9,2.8c-1,0.6-2.1,1-3.5,1c-1.3,0-2.3-0.3-3.2-1c-0.5-0.4-0.9-0.8-1.1-1.4C0.1,17.2,0,16.6,0,15.9
		c0-1.5,0.6-2.6,1.7-3.3c0.8-0.5,2-0.9,3.4-1.1l1.4-0.2c0.7-0.1,1.3-0.2,1.8-0.4c0.4-0.1,0.8-0.3,1-0.6c0.2-0.3,0.4-0.6,0.4-1.1
		c0-0.6-0.3-1.1-0.8-1.5C8.2,7.5,7.5,7.3,6.5,7.3c-0.6,0-1.2,0.1-1.7,0.3c-0.5,0.2-0.9,0.6-1.2,1c-0.3,0.4-0.5,1-0.5,1.6H0.5
		c0-1,0.3-1.9,0.8-2.6c0.5-0.7,1.2-1.3,2-1.7c0.9-0.4,1.9-0.6,3.1-0.6c1.9,0,3.3,0.4,4.3,1.1C11.7,7,12.2,8.2,12.2,9.9"/>
	<path style="clip-path:url(#SVGID_00000002376661604752313930000006971184277738778036_);" d="M21.1,8.1c-1.1,0-2,0.3-2.7,0.9
		c-0.7,0.6-1,1.5-1,2.8v8h-2.5V5.5h2.5v0.1c0,0.5-0.1,0.9-0.2,1.4c-0.1,0.4-0.3,1-0.6,1.8l-0.2,0.5l0.3,0.1c0.1-0.2,0.1-0.3,0.2-0.4
		C16.9,8.8,17,8.7,17,8.6c0.5-0.9,1.1-1.6,1.7-2c0.6-0.4,1.3-0.7,1.9-0.8c0.7-0.1,1.4-0.2,2.3-0.2h0.5l0,2.8c-0.4,0-0.9-0.1-1.3-0.1
		C21.7,8.1,21.3,8.1,21.1,8.1"/>
	<path style="clip-path:url(#SVGID_00000002376661604752313930000006971184277738778036_);" d="M34.8,19.7h-2.5V5.5h2.5V19.7z
		 M32.4,4.1c-0.3-0.3-0.5-0.7-0.5-1.2c0-0.5,0.2-0.8,0.5-1.2c0.3-0.3,0.7-0.5,1.2-0.5c0.5,0,0.8,0.2,1.2,0.5
		c0.3,0.3,0.5,0.7,0.5,1.2c0,0.5-0.2,0.9-0.5,1.2c-0.3,0.3-0.7,0.5-1.2,0.5C33.1,4.6,32.7,4.4,32.4,4.1"/>
	<path style="clip-path:url(#SVGID_00000002376661604752313930000006971184277738778036_);" d="M39.1,16.5c0.3,0.5,0.7,0.8,1.2,1.1
		c0.5,0.3,1.1,0.4,1.8,0.4c0.6,0,1.1-0.1,1.6-0.2c0.5-0.2,0.9-0.4,1.1-0.7c0.3-0.3,0.4-0.7,0.4-1.1c0-0.6-0.2-1-0.6-1.3
		c-0.4-0.3-1-0.6-1.9-0.8L40,13.1c-1.2-0.3-2-0.7-2.6-1.4c-0.5-0.6-0.8-1.5-0.8-2.4c0-0.8,0.2-1.6,0.7-2.2c0.5-0.6,1.1-1.1,2-1.4
		c0.8-0.3,1.8-0.5,2.8-0.5c1.1,0,2.1,0.2,2.9,0.6c0.9,0.4,1.6,1,2.1,1.7c0.5,0.7,0.8,1.6,0.8,2.6h-2.7c0-0.7-0.2-1.2-0.5-1.6
		c-0.3-0.4-0.7-0.8-1.2-1c-0.5-0.2-1-0.3-1.5-0.3c-0.8,0-1.5,0.2-2,0.5c-0.5,0.3-0.7,0.8-0.7,1.4c0,0.4,0.1,0.8,0.4,1.1
		c0.3,0.3,0.7,0.6,1.4,0.7l3,0.7c1.2,0.3,2.2,0.8,2.9,1.4c0.7,0.7,1,1.5,1,2.6c0,0.9-0.2,1.7-0.7,2.3c-0.5,0.7-1.1,1.2-2,1.5
		c-0.9,0.3-1.9,0.5-3.1,0.5c-1.4,0-2.5-0.3-3.4-0.8c-0.9-0.5-1.6-1.2-2.1-2c-0.4-0.8-0.7-1.7-0.7-2.6h2.6
		C38.6,15.4,38.8,16,39.1,16.5"/>
	<path style="clip-path:url(#SVGID_00000002376661604752313930000006971184277738778036_);" d="M93.2,7.3c-0.9,0-1.7,0.2-2.4,0.7
		c-0.6,0.4-1.1,1.1-1.5,1.8c-0.3,0.8-0.5,1.7-0.5,2.8s0.2,2,0.5,2.8c0.3,0.8,0.8,1.4,1.5,1.9c0.6,0.4,1.4,0.7,2.4,0.7h0.2
		c0.9,0,1.7-0.2,2.3-0.7c0.6-0.4,1.1-1.1,1.4-1.8c0.3-0.8,0.5-1.7,0.5-2.8c0-1.6-0.4-2.9-1.1-3.9c-0.7-0.9-1.8-1.4-3.1-1.4H93.2z
		 M100.3,12.6c0,1.6-0.3,3-0.9,4.1c-0.6,1.1-1.4,2-2.3,2.5c-1,0.6-2,0.8-3.1,0.8c-0.8,0-1.6-0.1-2.3-0.4c-0.7-0.3-1.3-0.7-1.8-1.3
		c-0.5-0.6-1-1.3-1.3-2.2l-0.1-0.3L88.1,16c0.1,0.3,0.1,0.5,0.2,0.8c0.1,0.2,0.2,0.5,0.3,0.7c0.1,0.3,0.2,0.7,0.3,1
		c0.1,0.4,0.2,0.7,0.2,1c0,0.2,0,0.4,0,0.7v5h-2.5V5.5h2.5v0.4c0,0.3,0,0.7-0.1,1c-0.1,0.3-0.2,0.8-0.4,1.4c0,0,0,0,0,0.1
		c0,0,0,0.1,0,0.1l0.3,0.1l0.1-0.2c0.2-0.6,0.6-1.2,1.1-1.7c0.5-0.5,1.1-0.9,1.7-1.1c0.7-0.3,1.4-0.4,2.2-0.4c1.1,0,2.2,0.3,3.1,0.8
		c1,0.5,1.7,1.4,2.3,2.5C100,9.6,100.3,11,100.3,12.6"/>
	<path style="clip-path:url(#SVGID_00000002376661604752313930000006971184277738778036_);" d="M107.8,8.1c-1.1,0-2,0.3-2.7,0.9
		c-0.7,0.6-1,1.5-1,2.8v8h-2.5V5.5h2.5v0.1c0,0.5-0.1,0.9-0.2,1.4c-0.1,0.4-0.3,1-0.6,1.8L103,9.3l0.3,0.1c0.1-0.2,0.1-0.3,0.2-0.4
		c0.1-0.1,0.1-0.3,0.2-0.4c0.5-0.9,1.1-1.6,1.7-2c0.6-0.4,1.3-0.7,1.9-0.8c0.7-0.1,1.4-0.2,2.3-0.2h0.5l0,2.8
		c-0.4,0-0.9-0.1-1.3-0.1C108.4,8.1,108,8.1,107.8,8.1"/>
	<path style="clip-path:url(#SVGID_00000002376661604752313930000006971184277738778036_);" d="M114,19.7h-2.5V5.5h2.5V19.7z
		 M111.5,2.8c-0.3-0.3-0.5-0.7-0.5-1.2c0-0.5,0.2-0.8,0.5-1.2c0.3-0.3,0.7-0.5,1.2-0.5c0.5,0,0.8,0.2,1.2,0.5
		c0.3,0.3,0.5,0.7,0.5,1.2c0,0.5-0.2,0.9-0.5,1.2c-0.3,0.3-0.7,0.5-1.2,0.5C112.2,3.3,111.8,3.2,111.5,2.8"/>
	<path style="clip-path:url(#SVGID_00000002376661604752313930000006971184277738778036_);" d="M138.8,11.2c-0.1-0.7-0.3-1.4-0.6-2
		c-0.3-0.6-0.8-1.1-1.3-1.4c-0.6-0.3-1.2-0.5-2-0.5h-0.3c-1.1,0-2,0.4-2.7,1.1c-0.7,0.7-1.1,1.7-1.2,2.7H138.8z M128.1,12.6
		c0-1.5,0.3-2.8,0.8-3.9c0.6-1.1,1.4-2,2.4-2.6c1-0.6,2.2-0.9,3.5-0.9c1.4,0,2.5,0.3,3.5,0.9c1,0.6,1.8,1.4,2.3,2.5s0.8,2.4,0.8,4
		v0.7l-10.8,0.1c0,0.9,0.2,1.7,0.6,2.4c0.4,0.7,0.9,1.2,1.5,1.6c0.6,0.4,1.3,0.6,2.1,0.6h0.2c1,0,1.9-0.3,2.7-0.9
		c0.8-0.6,1.2-1.4,1.4-2.3h2.6c-0.2,1-0.6,1.9-1.2,2.7c-0.6,0.8-1.4,1.4-2.4,1.9c-1,0.5-2.1,0.7-3.3,0.7c-1.4,0-2.7-0.3-3.7-0.9
		c-1-0.6-1.8-1.5-2.3-2.6C128.4,15.4,128.1,14.1,128.1,12.6"/>
	<path style="clip-path:url(#SVGID_00000002376661604752313930000006971184277738778036_);" d="M30.7,17.4c-0.2,0.1-0.5,0.1-1,0.2
		c-0.4,0.1-0.8,0.1-1.1,0.1c-0.6,0-0.9-0.2-1.1-0.5c-0.2-0.3-0.3-0.8-0.3-1.4V7.6h3.5V5.5h-3.5v-4h-2.5v2.2v1.8v2.1v0.9v6.9
		c0,1.5,0.3,2.6,0.8,3.3c0.5,0.7,1.5,1.1,2.8,1.1c0.6,0,1.4-0.1,2.4-0.3c0,0,0,0,0,0c0,0,0,0,0,0L30.7,17.4L30.7,17.4z"/>
	<path style="clip-path:url(#SVGID_00000002376661604752313930000006971184277738778036_);" d="M86.6,8.9c0,0.7-0.1,1.2-0.4,1.7
		c-0.3,0.5-0.6,0.9-1.1,1.2c-0.5,0.3-1,0.4-1.6,0.4v0l-7.1,0c-1.3,0.1-2.5,0.3-3.5,0.8c-1.2,0.5-2.4,1.3-3.7,2.2
		c-0.2,0.1-0.3,0.2-0.5,0.4c-0.2,0.1-0.3,0.2-0.5,0.4c-1,0.7-1.9,1.3-2.5,1.6c-0.6,0.3-1.3,0.5-1.9,0.5c-0.2,0-0.4-0.1-0.5-0.2
		c-0.1-0.1-0.2-0.3-0.2-0.5c0-0.3,0.1-0.8,0.4-1.3c0.3-0.5,0.7-1.2,1.2-2.1l0.3-0.5c0.1-0.1,0.2-0.3,0.2-0.4
		c0.1-0.1,0.2-0.3,0.3-0.4c0.5-0.8,0.9-1.6,1.1-2.3c0.3-0.7,0.4-1.3,0.4-1.8c0-0.9-0.4-1.7-1.1-2.2c-0.7-0.5-1.8-0.8-3.1-0.9
		c-1.3-0.1-6.7,0-6.7,0h-3.4v-4h-2.5v4h-2.4v2.1h2.4v7.8c0,1.5,0.3,2.6,0.8,3.3c0.5,0.7,1.5,1.1,2.8,1.1c0.6,0,1.4-0.1,2.4-0.3
		c0,0,0,0,0,0c0,0,0,0,0,0v-2.2h0c-0.2,0.1-0.5,0.1-1,0.2c-0.4,0.1-0.8,0.1-1.1,0.1c-0.6,0-0.9-0.2-1.1-0.5
		c-0.2-0.3-0.3-0.8-0.3-1.4V7.6h3.4c4.3,0,5.3,0,6.3,0.1c0.6,0.1,1.1,0.1,1.5,0.3c0.4,0.2,0.5,0.6,0.5,1c0,0.4-0.1,0.8-0.3,1.3
		c-0.2,0.4-0.6,1.1-1,1.8L63,12.6c-0.1,0.1-0.1,0.2-0.2,0.3c-0.1,0.1-0.1,0.2-0.2,0.3c-0.6,1-1.1,1.9-1.5,2.6
		c-0.3,0.7-0.5,1.4-0.5,2c0,0.8,0.3,1.4,0.8,1.9c0.5,0.5,1.3,0.7,2.3,0.7c0.7,0,1.3-0.1,1.9-0.3c0.6-0.2,1.2-0.5,1.7-0.8
		c0.5-0.3,1.2-0.8,1.9-1.3c0.2-0.1,0.4-0.3,0.6-0.4c0.2-0.1,0.4-0.3,0.6-0.4c1.1-0.8,2.2-1.4,3.2-1.8c0.9-0.3,1.8-0.5,2.8-0.6v0
		l7.2,0v0c1,0,1.9-0.2,2.6-0.7c0.8-0.5,1.4-1.2,1.8-2.1c0.4-0.9,0.7-1.9,0.7-3.1H86.6z"/>
	<path style="clip-path:url(#SVGID_00000002376661604752313930000006971184277738778036_);" d="M115.8,17.4v2.4h12.1v-2.5l-6.5,0
		c-0.5,0-0.9,0-1.3,0c-0.4,0-0.9,0.1-1.4,0.1l-0.1-0.4c0.7-0.3,1.2-0.6,1.6-0.9c0.4-0.3,0.8-0.7,1.2-1.2l0.3-0.3l5.8-6.8V5.6h-11.2
		v2.6l4.9-0.1h0.3c0.5,0,0.9-0.1,1.4-0.3c0.4-0.2,0.9-0.4,1.4-0.7l0.3,0.3c-0.1,0.1-0.1,0.1-0.2,0.2c-0.1,0.1-0.1,0.1-0.2,0.2
		c-0.3,0.3-0.7,0.7-1.1,1.2c-0.4,0.4-0.8,0.9-1.3,1.4L115.8,17.4z"/>
</g>
</svg>
