<?xml version="1.0" encoding="utf-8"?>
<!-- Generator: Adobe Illustrator 26.5.3, SVG Export Plug-In . SVG Version: 6.00 Build 0)  -->
<svg version="1.1" id="Layer_1" xmlns="http://www.w3.org/2000/svg" xmlns:xlink="http://www.w3.org/1999/xlink" x="0px" y="0px"
	 viewBox="0 0 141.7 141.7" style="enable-background:new 0 0 141.7 141.7;" xml:space="preserve">
<style type="text/css">
	.st0{clip-path:url(#SVGID_00000031197669056420381260000004400879410095447170_);fill:none;stroke:#000000;stroke-width:2;}
</style>
<g>
	<path d="M70.1,81.5c1-2.7,2.9-4.9,5.6-6.6c2.7-1.6,5.6-2.5,8.8-2.7v3.9c-2.6,0.1-5,0.7-7,1.9c-2.1,1.2-3.8,2.8-5.1,4.8
		c-1.3,2-2.1,4.3-2.4,6.8h-3.2c-0.3-2.5-1.1-4.8-2.4-6.8c-1.3-2-3-3.6-5-4.8c-2.1-1.2-4.4-1.9-7.1-2v-3.9c2.1,0.1,4.1,0.6,6.1,1.3
		c1.9,0.8,3.6,1.8,5.1,3.2c1.5,1.4,2.5,2.9,3.1,4.8V51.2h3.5V81.5z"/>
</g>
<g>
	<defs>
		<rect id="SVGID_1_" x="33.9" y="25" width="69" height="92"/>
	</defs>
	<clipPath id="SVGID_00000173869845021646038740000013736856684203337380_">
		<use xlink:href="#SVGID_1_"  style="overflow:visible;"/>
	</clipPath>
	
		<rect x="34.9" y="26" style="clip-path:url(#SVGID_00000173869845021646038740000013736856684203337380_);fill:none;stroke:#000000;stroke-width:2;" width="67" height="90"/>
</g>
</svg>
