<?xml version="1.0" encoding="utf-8"?>
<!-- Generator: Adobe Illustrator 26.5.3, SVG Export Plug-In . SVG Version: 6.00 Build 0)  -->
<svg version="1.1" id="Layer_1" xmlns="http://www.w3.org/2000/svg" xmlns:xlink="http://www.w3.org/1999/xlink" x="0px" y="0px"
	 viewBox="0 0 46.3 61.8" style="enable-background:new 0 0 46.3 61.8;" xml:space="preserve">
<style type="text/css">
	.st0{clip-path:url(#SVGID_00000152943356335575314780000007256808356447770781_);fill:none;stroke:#000000;stroke-width:1.3429;}
</style>
<g>
	<path d="M24.3,37.9c0.7-1.8,1.9-3.3,3.8-4.4c1.8-1.1,3.8-1.7,5.9-1.8v2.6c-1.7,0.1-3.4,0.5-4.7,1.3c-1.4,0.8-2.6,1.9-3.4,3.2
		c-0.9,1.3-1.4,2.9-1.6,4.6h-2.1c-0.2-1.7-0.7-3.2-1.6-4.6c-0.9-1.3-2-2.4-3.4-3.2c-1.4-0.8-3-1.3-4.8-1.3v-2.6
		c1.4,0.1,2.8,0.4,4.1,0.9c1.3,0.5,2.4,1.2,3.4,2.1s1.7,1.9,2.1,3.2V17.6h2.4C24.3,17.6,24.3,37.9,24.3,37.9z"/>
</g>
<g>
	<g>
		<g>
			<defs>
				<rect id="SVGID_1_" y="0" width="46.3" height="61.8"/>
			</defs>
			<clipPath id="SVGID_00000034811836859649210030000013970903499791141536_">
				<use xlink:href="#SVGID_1_"  style="overflow:visible;"/>
			</clipPath>
			
				<rect x="0.7" y="0.7" style="clip-path:url(#SVGID_00000034811836859649210030000013970903499791141536_);fill:none;stroke:#000000;stroke-width:1.3429;" width="45" height="60.4"/>
		</g>
	</g>
</g>
</svg>
