<?xml version="1.0" encoding="utf-8"?>
<!-- Generator: Adobe Illustrator 26.5.3, SVG Export Plug-In . SVG Version: 6.00 Build 0)  -->
<svg version="1.1" id="Layer_1" xmlns="http://www.w3.org/2000/svg" xmlns:xlink="http://www.w3.org/1999/xlink" x="0px" y="0px"
	 viewBox="0 0 141.7 141.7" style="enable-background:new 0 0 141.7 141.7;" xml:space="preserve">
<style type="text/css">
	.st0{clip-path:url(#SVGID_00000036209815920384645070000014251584852376018873_);fill:none;stroke:#000000;stroke-width:2;}
</style>
<g>
	<path d="M78.7,62.1c-2.7,1.2-5.5,1.4-8.6,0.7c-3-0.7-5.8-2.1-8.1-4.3l2.7-2.7c1.9,1.8,4,3,6.3,3.6c2.3,0.6,4.6,0.7,7,0.2
		c2.3-0.5,4.5-1.6,6.5-3.1l2.3,2.3c-1.6,2-2.6,4.1-3.1,6.5c-0.5,2.3-0.4,4.6,0.2,6.9c0.6,2.3,1.8,4.5,3.6,6.4l-2.7,2.7
		c-1.4-1.6-2.5-3.3-3.3-5.2c-0.8-1.9-1.3-3.9-1.4-5.9c-0.1-2,0.3-3.9,1.1-5.6L59.7,86l-2.5-2.5L78.7,62.1z"/>
</g>
<g>
	<defs>
		<rect id="SVGID_1_" x="25.2" y="36.4" width="92" height="69"/>
	</defs>
	<clipPath id="SVGID_00000036219629470367826690000016220246435213701256_">
		<use xlink:href="#SVGID_1_"  style="overflow:visible;"/>
	</clipPath>
	
		<rect x="26.2" y="37.4" style="clip-path:url(#SVGID_00000036219629470367826690000016220246435213701256_);fill:none;stroke:#000000;stroke-width:2;" width="90" height="67"/>
</g>
</svg>
