<?xml version="1.0" encoding="utf-8"?>
<!-- Generator: Adobe Illustrator 26.5.3, SVG Export Plug-In . SVG Version: 6.00 Build 0)  -->
<svg version="1.1" id="Layer_1" xmlns="http://www.w3.org/2000/svg" xmlns:xlink="http://www.w3.org/1999/xlink" x="0px" y="0px"
	 viewBox="0 0 194 185" style="enable-background:new 0 0 194 185;" xml:space="preserve">
<style type="text/css">
	.st0{fill:#231F20;}
</style>
<g>
	<path class="st0" d="M13.1,20.2c0.7-1.8,1.9-3.3,3.7-4.4c1.8-1.1,3.7-1.7,5.9-1.8v2.6c-1.7,0.1-3.3,0.5-4.7,1.3
		c-1.4,0.8-2.5,1.9-3.4,3.2c-0.9,1.4-1.4,2.9-1.6,4.5h-2.1c-0.2-1.7-0.7-3.2-1.6-4.5s-2-2.4-3.4-3.2c-1.4-0.8-3-1.2-4.7-1.3V14
		c1.4,0.1,2.7,0.4,4,0.9c1.3,0.5,2.4,1.2,3.4,2.1c1,0.9,1.7,2,2.1,3.2V0h2.3V20.2z"/>
</g>
<g>
	<path class="st0" d="M14,69.1c-0.7,0.9-1.5,1.6-2.5,2.1c-1,0.5-2.2,0.8-3.4,0.8c-1.5,0-2.7-0.3-3.8-1c-1.1-0.7-1.9-1.6-2.5-2.8
		C1.2,67,0.9,65.6,0.9,64c0-1.6,0.3-2.9,0.9-4.1c0.6-1.2,1.4-2.1,2.5-2.7c1.1-0.7,2.4-1,3.8-1c1.2,0,2.3,0.2,3.2,0.6s1.8,1,2.5,1.8
		c0.7,0.8,1.1,1.9,1.4,3.2h-2.8c-0.2-1-0.7-1.8-1.4-2.4c-0.8-0.6-1.7-1-2.7-1H8c-0.9,0-1.7,0.3-2.4,0.8c-0.7,0.5-1.1,1.2-1.5,2
		C3.8,62.1,3.6,63,3.6,64c0,1,0.2,2,0.5,2.8c0.3,0.9,0.8,1.6,1.4,2.1C6.2,69.5,7,69.7,8,69.7h0.3c0.8,0,1.5-0.2,2.1-0.5
		c0.6-0.3,1.1-0.8,1.4-1.3c0.3-0.5,0.6-1.1,0.7-1.8h2.7C15.1,67.2,14.7,68.2,14,69.1z"/>
	<path class="st0" d="M29.3,61.2v7c0,0.5,0,0.8,0.1,1c0.1,0.1,0.3,0.2,0.8,0.2c0.2,0,0.4,0,0.6-0.1v2.2c-0.6,0.1-1.2,0.1-1.6,0.1
		c-0.8,0-1.4-0.2-1.8-0.6c-0.3-0.4-0.5-1-0.5-1.8v-0.2L26.6,69c-0.4,1-1.1,1.7-2.1,2.2c-1,0.5-2,0.8-3,0.8c-1.1,0-2.2-0.3-3-0.8
		c-0.6-0.4-1-0.9-1.4-1.5c-0.3-0.6-0.5-1.3-0.5-2.1c0-1.5,0.6-2.7,1.8-3.5c0.8-0.5,1.9-0.9,3.4-1.1l1.6-0.2c0.8-0.1,1.4-0.3,1.9-0.4
		c0.5-0.1,0.8-0.4,1.1-0.6c0.2-0.3,0.4-0.6,0.4-1.1c0-0.7-0.3-1.2-0.9-1.6c-0.6-0.4-1.4-0.6-2.4-0.6c-0.7,0-1.3,0.1-1.8,0.4
		c-0.5,0.2-0.9,0.6-1.2,1c-0.3,0.5-0.5,1-0.6,1.7h-2.7c0-1.1,0.3-2,0.8-2.8c0.5-0.8,1.2-1.4,2.1-1.8c0.9-0.4,2-0.7,3.2-0.7
		c2,0,3.4,0.4,4.5,1.2C28.8,58.2,29.3,59.4,29.3,61.2z M23.6,64.8l-1.4,0.3c-0.5,0.1-1,0.2-1.3,0.3c-0.3,0.1-0.6,0.2-0.8,0.4
		c-0.5,0.4-0.8,1-0.8,1.8c0,0.6,0.2,1.1,0.7,1.5c0.5,0.4,1.2,0.6,2,0.6c0.7,0,1.4-0.1,2.1-0.4c0.7-0.3,1.3-0.8,1.8-1.5
		s0.7-1.6,0.7-2.8v-2c-0.3,0.5-0.7,0.9-1.1,1.2S24.4,64.6,23.6,64.8z"/>
	<path class="st0" d="M35.7,50.8v20.8h-2.6V50.8H35.7z"/>
	<path class="st0" d="M41.9,50.8v20.8h-2.6V50.8H41.9z"/>
	<path class="st0" d="M58.6,50.4c0.4,0,0.8,0,1.2,0.1c0.4,0.1,0.7,0.1,0.9,0.2v2.4c-0.8-0.2-1.4-0.3-1.9-0.3c-0.7,0-1.2,0.2-1.6,0.5
		c-0.4,0.3-0.6,0.8-0.6,1.6v1.8h4.1v2.2h-4.1v12.8H54V58.8h-2.6v-2.2H54v-2c0-1.4,0.4-2.4,1.2-3.1C56,50.8,57.1,50.4,58.6,50.4z"/>
	<path class="st0" d="M64.2,71c-1.1-0.7-1.9-1.6-2.5-2.8c-0.6-1.2-0.9-2.6-0.9-4.1c0-1.6,0.3-2.9,0.9-4.1c0.6-1.2,1.4-2.1,2.5-2.7
		c1.1-0.7,2.4-1,3.8-1c1.5,0,2.7,0.3,3.8,1c1.1,0.7,1.9,1.6,2.5,2.7c0.6,1.2,0.9,2.5,0.9,4.1c0,1.6-0.3,2.9-0.9,4.1
		c-0.6,1.2-1.4,2.1-2.5,2.8c-1.1,0.7-2.4,1-3.8,1C66.6,72,65.3,71.6,64.2,71z M70.6,69c0.6-0.5,1.1-1.2,1.4-2.1
		c0.3-0.9,0.5-1.8,0.5-2.9c0-1-0.2-2-0.5-2.8c-0.3-0.8-0.8-1.5-1.4-2c-0.6-0.5-1.4-0.8-2.4-0.8h-0.3c-0.9,0-1.7,0.3-2.4,0.8
		c-0.7,0.5-1.1,1.2-1.5,2c-0.3,0.9-0.5,1.8-0.5,2.8c0,1.6,0.4,2.9,1.1,4c0.7,1.1,1.8,1.7,3.2,1.7h0.3C69.2,69.7,70,69.5,70.6,69z"/>
	<path class="st0" d="M86.4,59.5c-1-0.1-1.8-0.2-2.4-0.2c-1.2,0-2.2,0.4-2.9,1s-1,1.7-1,3.1v8.1h-2.6v-15h2.6v0.8c0,0.3,0,0.6,0,0.9
		c0,0.2-0.1,0.5-0.2,0.8l-0.1,0.3l0.4,0.1c0.3-0.8,0.7-1.3,1.2-1.7c0.6-0.4,1.2-0.7,1.9-0.8c0.7-0.1,1.5-0.2,2.4-0.2h0.8l0,2.9h-0.1
		C86.5,59.5,86.4,59.5,86.4,59.5z"/>
</g>
<g>
	<path class="st0" d="M7.9,105.6h0.2c1.2,0,2.3-0.3,3-1c0.8-0.7,1.2-1.7,1.2-3.1V101c0-1.2,0.1-2.1,0.2-2.6l-0.4-0.1
		c-0.3,0.8-0.9,1.4-1.7,1.9c-0.8,0.5-1.8,0.7-3.1,0.7c-1.3,0-2.4-0.3-3.3-1c-0.9-0.6-1.6-1.5-2.1-2.6c-0.5-1.1-0.7-2.4-0.7-3.8
		c0-1.4,0.2-2.7,0.7-3.8s1.2-2,2.1-2.6c0.9-0.6,2.1-0.9,3.4-0.9c0.9,0,1.6,0.1,2.2,0.4s1.1,0.6,1.5,0.9c0.4,0.4,0.7,0.8,0.9,1.3
		l0.4-0.1c-0.2-0.4-0.3-0.7-0.3-0.9c-0.1-0.2-0.1-0.6-0.1-1v-0.2h2.7v14.5c0,1.5-0.3,2.7-0.8,3.7c-0.6,1-1.4,1.8-2.4,2.3
		c-1,0.5-2.3,0.8-3.7,0.8c-2.3,0-4-0.5-5-1.6c-1-1-1.6-2.4-1.8-4.1h2.7c0.1,1.2,0.5,2.1,1.2,2.6C5.8,105.3,6.8,105.6,7.9,105.6z
		 M8.5,98.7c0.9,0,1.7-0.2,2.3-0.6c0.6-0.4,1.1-1,1.4-1.7c0.3-0.8,0.5-1.6,0.5-2.6c0-1.6-0.3-2.9-1-3.8c-0.7-0.9-1.7-1.4-3.1-1.4
		H8.2c-0.9,0-1.7,0.2-2.3,0.6c-0.6,0.4-1.1,1-1.4,1.8C4.2,91.7,4,92.6,4,93.6c0,1.6,0.4,2.8,1.1,3.7c0.7,0.9,1.8,1.4,3.1,1.4H8.5z"
		/>
	<path class="st0" d="M30,91.2v7c0,0.5,0,0.8,0.1,1c0.1,0.1,0.3,0.2,0.8,0.2c0.2,0,0.4,0,0.6-0.1v2.2c-0.6,0.1-1.2,0.1-1.6,0.1
		c-0.8,0-1.4-0.2-1.8-0.6c-0.3-0.4-0.5-1-0.5-1.8v-0.2L27.2,99c-0.4,1-1.1,1.7-2.1,2.2c-1,0.5-2,0.8-3,0.8c-1.1,0-2.2-0.3-3-0.8
		c-0.6-0.4-1-0.9-1.4-1.5c-0.3-0.6-0.5-1.3-0.5-2.1c0-1.5,0.6-2.7,1.8-3.5c0.8-0.5,1.9-0.9,3.4-1.1l1.6-0.2c0.8-0.1,1.4-0.3,1.9-0.4
		c0.5-0.1,0.8-0.4,1.1-0.6c0.2-0.3,0.4-0.6,0.4-1.1c0-0.7-0.3-1.2-0.9-1.6c-0.6-0.4-1.4-0.6-2.4-0.6c-0.7,0-1.3,0.1-1.8,0.4
		c-0.5,0.2-0.9,0.6-1.2,1c-0.3,0.5-0.5,1-0.6,1.7h-2.7c0-1.1,0.3-2,0.8-2.8c0.5-0.8,1.2-1.4,2.1-1.8c0.9-0.4,2-0.7,3.2-0.7
		c2,0,3.4,0.4,4.5,1.2C29.4,88.2,30,89.4,30,91.2z M24.3,94.8l-1.4,0.3c-0.5,0.1-1,0.2-1.3,0.3c-0.3,0.1-0.6,0.2-0.8,0.4
		c-0.5,0.4-0.8,1-0.8,1.8c0,0.6,0.2,1.1,0.7,1.5c0.5,0.4,1.2,0.6,2,0.6c0.7,0,1.4-0.1,2.1-0.4c0.7-0.3,1.3-0.8,1.8-1.5
		s0.7-1.6,0.7-2.8v-2c-0.3,0.5-0.7,0.9-1.1,1.2S25.1,94.6,24.3,94.8z"/>
	<path class="st0" d="M36.4,80.8v20.8h-2.6V80.8H36.4z"/>
	<path class="st0" d="M42.6,80.8v20.8H40V80.8H42.6z"/>
	<path class="st0" d="M45.1,94.1c0-1.6,0.3-2.9,0.9-4.1c0.6-1.2,1.4-2.1,2.5-2.8c1.1-0.7,2.3-1,3.7-1c1.4,0,2.6,0.3,3.7,0.9
		c1,0.6,1.8,1.5,2.4,2.7C58.8,91,59,92.4,59,94v0.7l-11.3,0.1c0,1,0.2,1.8,0.6,2.6c0.4,0.7,0.9,1.3,1.6,1.7s1.4,0.6,2.2,0.6h0.2
		c1.1,0,2-0.3,2.8-0.9c0.8-0.6,1.3-1.4,1.5-2.4h2.7c-0.2,1.1-0.6,2-1.2,2.9c-0.6,0.8-1.5,1.5-2.5,2c-1,0.5-2.2,0.7-3.4,0.7
		c-1.5,0-2.8-0.3-3.9-1c-1.1-0.6-1.9-1.6-2.4-2.7C45.4,97.1,45.1,95.7,45.1,94.1z M56.3,92.5c-0.1-0.8-0.3-1.5-0.6-2.1
		s-0.8-1.1-1.4-1.5c-0.6-0.4-1.3-0.5-2.1-0.5h-0.3c-1.1,0-2.1,0.4-2.8,1.2c-0.7,0.8-1.2,1.8-1.3,2.9H56.3z"/>
	<path class="st0" d="M70.4,89.5c-1-0.1-1.8-0.2-2.4-0.2c-1.2,0-2.2,0.4-2.9,1s-1,1.7-1,3.1v8.1h-2.6v-15h2.6v0.8c0,0.3,0,0.6,0,0.9
		c0,0.2-0.1,0.5-0.2,0.8l-0.1,0.3l0.4,0.1c0.3-0.8,0.7-1.3,1.2-1.7c0.6-0.4,1.2-0.7,1.9-0.8c0.7-0.1,1.5-0.2,2.4-0.2h0.8l0,2.9h-0.1
		C70.5,89.5,70.4,89.5,70.4,89.5z"/>
	<path class="st0" d="M72.4,83.8c-0.3-0.3-0.5-0.8-0.5-1.3c0-0.5,0.2-0.9,0.5-1.2c0.3-0.3,0.8-0.5,1.3-0.5c0.5,0,0.9,0.2,1.2,0.5
		c0.3,0.3,0.5,0.8,0.5,1.2c0,0.5-0.2,0.9-0.5,1.3c-0.3,0.3-0.7,0.5-1.2,0.5C73.1,84.3,72.7,84.1,72.4,83.8z M74.9,86.6v15h-2.6v-15
		H74.9z"/>
	<path class="st0" d="M77.4,94.1c0-1.6,0.3-2.9,0.9-4.1c0.6-1.2,1.4-2.1,2.5-2.8c1.1-0.7,2.3-1,3.7-1c1.4,0,2.6,0.3,3.7,0.9
		c1,0.6,1.8,1.5,2.4,2.7c0.5,1.2,0.8,2.6,0.8,4.2v0.7l-11.3,0.1c0,1,0.2,1.8,0.6,2.6c0.4,0.7,0.9,1.3,1.6,1.7s1.4,0.6,2.2,0.6h0.2
		c1.1,0,2-0.3,2.8-0.9c0.8-0.6,1.3-1.4,1.5-2.4h2.7c-0.2,1.1-0.6,2-1.2,2.9c-0.6,0.8-1.5,1.5-2.5,2c-1,0.5-2.2,0.7-3.4,0.7
		c-1.5,0-2.8-0.3-3.9-1c-1.1-0.6-1.9-1.6-2.4-2.7C77.7,97.1,77.4,95.7,77.4,94.1z M88.6,92.5c-0.1-0.8-0.3-1.5-0.6-2.1
		s-0.8-1.1-1.4-1.5c-0.6-0.4-1.3-0.5-2.1-0.5h-0.3c-1.1,0-2.1,0.4-2.8,1.2c-0.7,0.8-1.2,1.8-1.3,2.9H88.6z"/>
	<path class="st0" d="M96.2,98.1c0.3,0.5,0.8,0.9,1.3,1.2c0.5,0.3,1.2,0.4,1.9,0.4c0.6,0,1.2-0.1,1.7-0.3s0.9-0.4,1.2-0.8
		s0.4-0.7,0.4-1.2c0-0.6-0.2-1.1-0.6-1.4s-1.1-0.6-2-0.8l-2.9-0.7c-1.2-0.3-2.1-0.8-2.7-1.5c-0.6-0.7-0.9-1.5-0.9-2.6
		c0-0.9,0.2-1.7,0.7-2.3c0.5-0.7,1.2-1.2,2-1.5c0.9-0.3,1.9-0.5,3-0.5c1.1,0,2.2,0.2,3.1,0.7c0.9,0.4,1.6,1.1,2.2,1.8
		c0.5,0.8,0.8,1.7,0.8,2.8h-2.8c0-0.7-0.2-1.3-0.6-1.7c-0.3-0.5-0.8-0.8-1.2-1s-1-0.3-1.6-0.3c-0.9,0-1.6,0.2-2.1,0.5
		c-0.5,0.4-0.8,0.8-0.8,1.5c0,0.5,0.1,0.9,0.4,1.2c0.3,0.3,0.8,0.6,1.5,0.8l3.1,0.7c1.3,0.3,2.3,0.8,3,1.5c0.7,0.7,1.1,1.6,1.1,2.7
		c0,1-0.2,1.8-0.7,2.5c-0.5,0.7-1.2,1.2-2.1,1.6c-0.9,0.4-2,0.6-3.2,0.6c-1.4,0-2.6-0.3-3.6-0.8c-1-0.5-1.7-1.2-2.2-2.1
		c-0.5-0.8-0.7-1.8-0.7-2.7h2.8C95.7,97.1,95.9,97.7,96.2,98.1z"/>
</g>
<g>
	<path class="st0" d="M14.1,121.2v7c0,0.5,0,0.8,0.1,1c0.1,0.1,0.3,0.2,0.8,0.2c0.2,0,0.4,0,0.6-0.1v2.2c-0.6,0.1-1.2,0.1-1.6,0.1
		c-0.8,0-1.4-0.2-1.8-0.6c-0.3-0.4-0.5-1-0.5-1.8v-0.2l-0.3-0.1c-0.4,1-1.1,1.7-2.1,2.2c-1,0.5-2,0.8-3,0.8c-1.1,0-2.2-0.3-3-0.8
		c-0.6-0.4-1-0.9-1.4-1.5c-0.3-0.6-0.5-1.3-0.5-2.1c0-1.5,0.6-2.7,1.8-3.5c0.8-0.5,1.9-0.9,3.4-1.1l1.6-0.2c0.8-0.1,1.4-0.3,1.9-0.4
		c0.5-0.1,0.8-0.4,1.1-0.6c0.2-0.3,0.4-0.6,0.4-1.1c0-0.7-0.3-1.2-0.9-1.6c-0.6-0.4-1.4-0.6-2.4-0.6c-0.7,0-1.3,0.1-1.8,0.4
		c-0.5,0.2-0.9,0.6-1.2,1c-0.3,0.5-0.5,1-0.6,1.7H1.8c0-1.1,0.3-2,0.8-2.8c0.5-0.8,1.2-1.4,2.1-1.8c0.9-0.4,2-0.7,3.2-0.7
		c2,0,3.4,0.4,4.5,1.2C13.5,118.2,14.1,119.4,14.1,121.2z M8.4,124.8L7,125.1c-0.5,0.1-1,0.2-1.3,0.3c-0.3,0.1-0.6,0.2-0.8,0.4
		c-0.5,0.4-0.8,1-0.8,1.8c0,0.6,0.2,1.1,0.7,1.5c0.5,0.4,1.2,0.6,2,0.6c0.7,0,1.4-0.1,2.1-0.4c0.7-0.3,1.3-0.8,1.8-1.5
		s0.7-1.6,0.7-2.8v-2c-0.3,0.5-0.7,0.9-1.1,1.2S9.2,124.6,8.4,124.8z"/>
	<path class="st0" d="M29.1,117.1c1,0.6,1.8,1.5,2.4,2.6c0.6,1.2,0.9,2.6,0.9,4.3c0,1.7-0.3,3.1-0.9,4.3c-0.6,1.2-1.4,2.1-2.4,2.7
		c-1,0.6-2.1,0.9-3.3,0.9c-1.2,0-2.3-0.3-3.2-0.8c-0.9-0.6-1.5-1.3-1.8-2.2l-0.4,0.1c0.1,0.4,0.2,0.8,0.3,1.1c0,0.3,0.1,0.7,0.1,1.2
		v6.1h-2.6v-20.8h2.6v0.6c0,0.4,0,0.7-0.1,0.9c-0.1,0.3-0.1,0.6-0.3,0.9l0.4,0.1c0.3-0.9,0.9-1.6,1.8-2.1c0.9-0.5,1.9-0.8,3.2-0.8
		C27,116.2,28.1,116.5,29.1,117.1z M25.1,118.5c-1,0-1.8,0.2-2.5,0.7c-0.7,0.5-1.2,1.1-1.5,2c-0.3,0.8-0.5,1.8-0.5,2.9
		c0,1.1,0.2,2.1,0.5,3c0.3,0.9,0.8,1.5,1.5,2c0.7,0.5,1.5,0.7,2.5,0.7h0.2c1,0,1.8-0.2,2.4-0.7c0.7-0.5,1.2-1.1,1.5-1.9
		c0.3-0.8,0.5-1.8,0.5-3c0-1.7-0.4-3.1-1.1-4.1c-0.8-1-1.8-1.5-3.3-1.5H25.1z"/>
	<path class="st0" d="M45.9,117.1c1,0.6,1.8,1.5,2.4,2.6c0.6,1.2,0.9,2.6,0.9,4.3c0,1.7-0.3,3.1-0.9,4.3c-0.6,1.2-1.4,2.1-2.4,2.7
		c-1,0.6-2.1,0.9-3.3,0.9c-1.2,0-2.3-0.3-3.2-0.8c-0.9-0.6-1.5-1.3-1.8-2.2l-0.4,0.1c0.1,0.4,0.2,0.8,0.3,1.1c0,0.3,0.1,0.7,0.1,1.2
		v6.1H35v-20.8h2.6v0.6c0,0.4,0,0.7-0.1,0.9c-0.1,0.3-0.1,0.6-0.3,0.9l0.4,0.1c0.3-0.9,0.9-1.6,1.8-2.1c0.9-0.5,1.9-0.8,3.2-0.8
		C43.8,116.2,44.9,116.5,45.9,117.1z M41.9,118.5c-1,0-1.8,0.2-2.5,0.7c-0.7,0.5-1.2,1.1-1.5,2c-0.3,0.8-0.5,1.8-0.5,2.9
		c0,1.1,0.2,2.1,0.5,3c0.3,0.9,0.8,1.5,1.5,2c0.7,0.5,1.5,0.7,2.5,0.7h0.2c1,0,1.8-0.2,2.4-0.7c0.7-0.5,1.2-1.1,1.5-1.9
		c0.3-0.8,0.5-1.8,0.5-3c0-1.7-0.4-3.1-1.1-4.1c-0.8-1-1.8-1.5-3.3-1.5H41.9z"/>
	<path class="st0" d="M54.4,110.8v20.8h-2.6v-20.8H54.4z"/>
	<path class="st0" d="M58.1,113.8c-0.3-0.3-0.5-0.8-0.5-1.3c0-0.5,0.2-0.9,0.5-1.2c0.3-0.3,0.8-0.5,1.3-0.5c0.5,0,0.9,0.2,1.2,0.5
		c0.3,0.3,0.5,0.8,0.5,1.2c0,0.5-0.2,0.9-0.5,1.3c-0.3,0.3-0.7,0.5-1.2,0.5C58.8,114.3,58.4,114.1,58.1,113.8z M60.7,116.6v15H58
		v-15H60.7z"/>
	<path class="st0" d="M76.3,129.1c-0.7,0.9-1.5,1.6-2.5,2.1c-1,0.5-2.2,0.8-3.4,0.8c-1.5,0-2.7-0.3-3.8-1c-1.1-0.7-1.9-1.6-2.5-2.8
		c-0.6-1.2-0.9-2.6-0.9-4.1c0-1.6,0.3-2.9,0.9-4.1c0.6-1.2,1.4-2.1,2.5-2.7c1.1-0.7,2.4-1,3.8-1c1.2,0,2.3,0.2,3.2,0.6
		s1.8,1,2.5,1.8c0.7,0.8,1.1,1.9,1.4,3.2h-2.8c-0.2-1-0.7-1.8-1.4-2.4c-0.8-0.6-1.7-1-2.7-1h-0.3c-0.9,0-1.7,0.3-2.4,0.8
		c-0.7,0.5-1.1,1.2-1.5,2c-0.3,0.9-0.5,1.8-0.5,2.8c0,1,0.2,2,0.5,2.8c0.3,0.9,0.8,1.6,1.4,2.1c0.6,0.5,1.5,0.8,2.4,0.8h0.3
		c0.8,0,1.5-0.2,2.1-0.5c0.6-0.3,1.1-0.8,1.4-1.3c0.3-0.5,0.6-1.1,0.7-1.8h2.7C77.3,127.2,77,128.2,76.3,129.1z"/>
	<path class="st0" d="M91.6,121.2v7c0,0.5,0,0.8,0.1,1c0.1,0.1,0.3,0.2,0.8,0.2c0.2,0,0.4,0,0.6-0.1v2.2c-0.6,0.1-1.2,0.1-1.6,0.1
		c-0.8,0-1.4-0.2-1.8-0.6c-0.3-0.4-0.5-1-0.5-1.8v-0.2l-0.3-0.1c-0.4,1-1.1,1.7-2.1,2.2c-1,0.5-2,0.8-3,0.8c-1.1,0-2.2-0.3-3-0.8
		c-0.6-0.4-1-0.9-1.4-1.5c-0.3-0.6-0.5-1.3-0.5-2.1c0-1.5,0.6-2.7,1.8-3.5c0.8-0.5,1.9-0.9,3.4-1.1l1.6-0.2c0.8-0.1,1.4-0.3,1.9-0.4
		c0.5-0.1,0.8-0.4,1.1-0.6c0.2-0.3,0.4-0.6,0.4-1.1c0-0.7-0.3-1.2-0.9-1.6c-0.6-0.4-1.4-0.6-2.4-0.6c-0.7,0-1.3,0.1-1.8,0.4
		c-0.5,0.2-0.9,0.6-1.2,1c-0.3,0.5-0.5,1-0.6,1.7h-2.7c0-1.1,0.3-2,0.8-2.8c0.5-0.8,1.2-1.4,2.1-1.8c0.9-0.4,2-0.7,3.2-0.7
		c2,0,3.4,0.4,4.5,1.2C91.1,118.2,91.6,119.4,91.6,121.2z M85.9,124.8l-1.4,0.3c-0.5,0.1-1,0.2-1.3,0.3c-0.3,0.1-0.6,0.2-0.8,0.4
		c-0.5,0.4-0.8,1-0.8,1.8c0,0.6,0.2,1.1,0.7,1.5c0.5,0.4,1.2,0.6,2,0.6c0.7,0,1.4-0.1,2.1-0.4c0.7-0.3,1.3-0.8,1.8-1.5
		s0.7-1.6,0.7-2.8v-2c-0.3,0.5-0.7,0.9-1.1,1.2S86.7,124.6,85.9,124.8z"/>
	<path class="st0" d="M102.4,131.4C102.4,131.4,102.4,131.5,102.4,131.4C102.3,131.5,102.3,131.5,102.4,131.4
		c-1.2,0.2-2,0.3-2.6,0.3c-1.4,0-2.4-0.4-2.9-1.2s-0.8-2-0.8-3.5v-8.3h-2.5v-2.2H96v-4.2h2.6v4.2h3.6v2.2h-3.6v8.6
		c0,0.6,0.1,1.1,0.3,1.4c0.2,0.3,0.6,0.5,1.2,0.5c0.3,0,0.7,0,1.2-0.1c0.5-0.1,0.8-0.1,1-0.2h0V131.4z"/>
	<path class="st0" d="M104.9,113.8c-0.3-0.3-0.5-0.8-0.5-1.3c0-0.5,0.2-0.9,0.5-1.2c0.3-0.3,0.8-0.5,1.3-0.5c0.5,0,0.9,0.2,1.2,0.5
		s0.5,0.8,0.5,1.2c0,0.5-0.2,0.9-0.5,1.3s-0.7,0.5-1.2,0.5C105.7,114.3,105.3,114.1,104.9,113.8z M107.5,116.6v15h-2.6v-15H107.5z"
		/>
	<path class="st0" d="M113.4,131c-1.1-0.7-1.9-1.6-2.5-2.8c-0.6-1.2-0.9-2.6-0.9-4.1c0-1.6,0.3-2.9,0.9-4.1s1.4-2.1,2.5-2.7
		c1.1-0.7,2.4-1,3.8-1c1.5,0,2.7,0.3,3.8,1s1.9,1.6,2.5,2.7c0.6,1.2,0.9,2.5,0.9,4.1c0,1.6-0.3,2.9-0.9,4.1
		c-0.6,1.2-1.4,2.1-2.5,2.8c-1.1,0.7-2.4,1-3.8,1C115.8,132,114.5,131.6,113.4,131z M119.8,129c0.6-0.5,1.1-1.2,1.4-2.1
		c0.3-0.9,0.5-1.8,0.5-2.9c0-1-0.2-2-0.5-2.8s-0.8-1.5-1.4-2c-0.6-0.5-1.4-0.8-2.4-0.8h-0.3c-0.9,0-1.7,0.3-2.4,0.8
		c-0.7,0.5-1.1,1.2-1.5,2c-0.3,0.9-0.5,1.8-0.5,2.8c0,1.6,0.4,2.9,1.1,4c0.7,1.1,1.8,1.7,3.2,1.7h0.3
		C118.4,129.7,119.2,129.5,119.8,129z"/>
	<path class="st0" d="M129.5,116.6v0.4c0,0.4,0,0.7-0.1,0.9c0,0.2-0.2,0.5-0.3,0.9l0.4,0.1c0.3-0.8,0.8-1.4,1.7-1.9
		c0.9-0.5,1.9-0.7,3.1-0.7c0.9,0,1.8,0.1,2.6,0.4c0.8,0.3,1.4,0.8,1.9,1.6c0.5,0.8,0.8,1.8,0.8,3.1v10.3H137v-9.9
		c0-1.1-0.3-1.9-0.9-2.4c-0.6-0.5-1.5-0.8-2.6-0.8h-0.1c-0.7,0-1.4,0.1-2,0.4s-1.1,0.7-1.5,1.2c-0.4,0.5-0.5,1.2-0.5,2v9.5h-2.6v-15
		H129.5z"/>
	<path class="st0" d="M144.8,128.1c0.3,0.5,0.8,0.9,1.3,1.2c0.5,0.3,1.2,0.4,1.9,0.4c0.6,0,1.2-0.1,1.7-0.3s0.9-0.4,1.2-0.8
		s0.4-0.7,0.4-1.2c0-0.6-0.2-1.1-0.6-1.4s-1.1-0.6-2-0.8l-2.9-0.7c-1.2-0.3-2.1-0.8-2.7-1.5c-0.6-0.7-0.9-1.5-0.9-2.6
		c0-0.9,0.2-1.7,0.7-2.3c0.5-0.7,1.2-1.2,2-1.5c0.9-0.3,1.9-0.5,3-0.5c1.1,0,2.2,0.2,3.1,0.7c0.9,0.4,1.6,1.1,2.2,1.8
		c0.5,0.8,0.8,1.7,0.8,2.8h-2.8c0-0.7-0.2-1.3-0.6-1.7c-0.3-0.5-0.8-0.8-1.2-1s-1-0.3-1.6-0.3c-0.9,0-1.6,0.2-2.1,0.5
		c-0.5,0.4-0.8,0.8-0.8,1.5c0,0.5,0.1,0.9,0.4,1.2s0.8,0.6,1.5,0.8l3.1,0.7c1.3,0.3,2.3,0.8,3,1.5c0.7,0.7,1.1,1.6,1.1,2.7
		c0,1-0.2,1.8-0.7,2.5c-0.5,0.7-1.2,1.2-2.1,1.6c-0.9,0.4-2,0.6-3.2,0.6c-1.4,0-2.6-0.3-3.6-0.8c-1-0.5-1.7-1.2-2.2-2.1
		c-0.5-0.8-0.7-1.8-0.7-2.7h2.8C144.3,127.1,144.5,127.7,144.8,128.1z"/>
</g>
<g>
	<path class="st0" d="M0.5,164.9V163h0.6c0.8,0,1.6-0.1,2.3-0.4c0.7-0.3,1.2-0.7,1.6-1.2c0.4-0.5,0.6-1.1,0.6-1.8h2.2v19.5H5.2
		v-14.2H0.5z"/>
	<path class="st0" d="M17.8,179.5c-1.5,0-2.8-0.3-3.9-0.9c-1.1-0.6-1.9-1.4-2.5-2.4c-0.6-1-0.9-2.1-0.9-3.3h2.7
		c0,0.8,0.2,1.5,0.6,2.2c0.4,0.7,0.9,1.2,1.6,1.6c0.7,0.4,1.5,0.6,2.4,0.6c1,0,1.9-0.2,2.6-0.7c0.7-0.4,1.2-1,1.6-1.8
		c0.4-0.7,0.5-1.5,0.5-2.4c0-0.9-0.2-1.6-0.6-2.2c-0.4-0.6-0.9-1.1-1.6-1.5c-0.7-0.4-1.5-0.5-2.4-0.5c-1,0-1.9,0.2-2.7,0.7
		s-1.3,1.1-1.6,1.8h-2.3l1.9-11h11v2.3h-8.9l-0.5,2.7l-0.1,0.6c-0.2,0.9-0.4,1.7-0.7,2.5l0.4,0.1c0.3-0.5,0.8-1,1.6-1.4
		c0.8-0.4,1.6-0.6,2.6-0.6c1.3,0,2.5,0.3,3.6,0.8c1,0.6,1.8,1.3,2.4,2.3c0.6,1,0.8,2.1,0.8,3.4c0,1.3-0.3,2.5-0.9,3.5
		c-0.6,1.1-1.5,1.9-2.6,2.6C20.7,179.2,19.3,179.5,17.8,179.5z"/>
	<path class="st0" d="M28.1,178.9c-0.4-0.4-0.6-0.8-0.6-1.3c0-0.5,0.2-1,0.6-1.3c0.4-0.4,0.8-0.5,1.3-0.5c0.5,0,1,0.2,1.3,0.5
		c0.4,0.4,0.5,0.8,0.5,1.3c0,0.5-0.2,1-0.5,1.3c-0.4,0.4-0.8,0.6-1.3,0.6C28.9,179.5,28.4,179.3,28.1,178.9z"/>
	<path class="st0" d="M36.1,178.2c-1.1-0.9-1.9-2.1-2.5-3.6c-0.5-1.5-0.8-3.3-0.8-5.3c0-2,0.3-3.7,0.8-5.2c0.5-1.5,1.3-2.6,2.4-3.5
		c1.1-0.8,2.5-1.2,4.2-1.2c1.7,0,3.1,0.4,4.2,1.2c1.1,0.8,1.9,2,2.4,3.5c0.5,1.5,0.8,3.2,0.8,5.2c0,2-0.3,3.8-0.8,5.3
		s-1.3,2.8-2.5,3.6s-2.5,1.3-4.2,1.3C38.7,179.5,37.2,179,36.1,178.2z M43.1,176.2c0.7-0.7,1.2-1.6,1.5-2.8c0.3-1.2,0.5-2.6,0.5-4.2
		c0-1.6-0.2-3-0.5-4.1c-0.3-1.1-0.8-2-1.5-2.6c-0.7-0.6-1.6-0.9-2.8-0.9c-1.2,0-2.1,0.3-2.8,0.9c-0.7,0.6-1.2,1.5-1.5,2.6
		s-0.5,2.5-0.5,4.1c0,1.6,0.2,3.1,0.5,4.2c0.3,1.2,0.8,2.1,1.5,2.8c0.7,0.7,1.6,1,2.8,1S42.4,176.9,43.1,176.2z"/>
	<path class="st0" d="M57.2,179.5c-1.5,0-2.8-0.3-3.9-0.9c-1.1-0.6-1.9-1.4-2.5-2.4c-0.6-1-0.9-2.1-0.9-3.3h2.7
		c0,0.8,0.2,1.5,0.6,2.2c0.4,0.7,0.9,1.2,1.6,1.6c0.7,0.4,1.5,0.6,2.4,0.6c1,0,1.9-0.2,2.6-0.7c0.7-0.4,1.2-1,1.6-1.8
		c0.4-0.7,0.5-1.5,0.5-2.4c0-0.9-0.2-1.6-0.6-2.2c-0.4-0.6-0.9-1.1-1.6-1.5c-0.7-0.4-1.5-0.5-2.4-0.5c-1,0-1.9,0.2-2.7,0.7
		s-1.3,1.1-1.6,1.8h-2.3l1.9-11h11v2.3h-8.9l-0.5,2.7l-0.1,0.6c-0.2,0.9-0.4,1.7-0.7,2.5l0.4,0.1c0.3-0.5,0.8-1,1.6-1.4
		c0.8-0.4,1.6-0.6,2.6-0.6c1.3,0,2.5,0.3,3.6,0.8c1,0.6,1.8,1.3,2.4,2.3c0.6,1,0.8,2.1,0.8,3.4c0,1.3-0.3,2.5-0.9,3.5
		c-0.6,1.1-1.5,1.9-2.6,2.6C60.1,179.2,58.8,179.5,57.2,179.5z"/>
	<path class="st0" d="M67.5,178.9c-0.4-0.4-0.6-0.8-0.6-1.3c0-0.5,0.2-1,0.6-1.3c0.4-0.4,0.8-0.5,1.3-0.5c0.5,0,1,0.2,1.3,0.5
		c0.4,0.4,0.5,0.8,0.5,1.3c0,0.5-0.2,1-0.5,1.3c-0.4,0.4-0.8,0.6-1.3,0.6C68.3,179.5,67.9,179.3,67.5,178.9z"/>
	<path class="st0" d="M86.4,179.1h-13c0-1.9,0.3-3.5,0.9-4.8c0.6-1.2,1.4-2.2,2.3-2.9c0.9-0.7,2.1-1.3,3.5-1.9c1-0.5,1.8-1,2.4-1.5
		c0.6-0.5,1-1.1,1.2-1.6s0.3-1,0.3-1.5c0-0.7-0.2-1.2-0.5-1.7c-0.3-0.5-0.8-0.9-1.3-1.2s-1.2-0.4-1.9-0.4c-1.4,0-2.5,0.4-3.2,1.2
		c-0.7,0.8-1.1,2-1.2,3.7h-2.7c0-1.3,0.3-2.5,0.8-3.6c0.5-1.1,1.3-1.9,2.3-2.6c1-0.6,2.4-1,4-1c1.3,0,2.4,0.2,3.4,0.7
		c1,0.5,1.7,1.1,2.2,2c0.5,0.8,0.8,1.8,0.8,2.9c0,1-0.2,1.9-0.6,2.7c-0.4,0.8-1,1.6-1.8,2.2c-0.8,0.7-1.8,1.3-3,1.8l-0.5,0.3
		c-1.2,0.6-2.2,1.1-2.8,1.6c-0.6,0.5-1,0.9-1.2,1.4c-0.2,0.4-0.4,1-0.5,1.7l0.2,0.2c0.4,0,0.9-0.1,1.2-0.1s0.9,0,1.4,0h7.3V179.1z"
		/>
	<path class="st0" d="M91.8,178.2c-1.1-0.9-1.9-2.1-2.5-3.6c-0.5-1.5-0.8-3.3-0.8-5.3c0-2,0.3-3.7,0.8-5.2c0.5-1.5,1.3-2.6,2.4-3.5
		c1.1-0.8,2.5-1.2,4.2-1.2c1.7,0,3.1,0.4,4.2,1.2c1.1,0.8,1.9,2,2.4,3.5c0.5,1.5,0.8,3.2,0.8,5.2c0,2-0.3,3.8-0.8,5.3
		c-0.5,1.5-1.3,2.8-2.5,3.6s-2.5,1.3-4.2,1.3S93,179,91.8,178.2z M98.8,176.2c0.7-0.7,1.2-1.6,1.5-2.8c0.3-1.2,0.5-2.6,0.5-4.2
		c0-1.6-0.2-3-0.5-4.1c-0.3-1.1-0.8-2-1.5-2.6s-1.6-0.9-2.8-0.9s-2.1,0.3-2.8,0.9c-0.7,0.6-1.2,1.5-1.5,2.6s-0.5,2.5-0.5,4.1
		c0,1.6,0.2,3.1,0.5,4.2c0.3,1.2,0.8,2.1,1.5,2.8c0.7,0.7,1.6,1,2.8,1C97.2,177.2,98.1,176.9,98.8,176.2z"/>
	<path class="st0" d="M119.1,179.1h-13c0-1.9,0.3-3.5,0.9-4.8c0.6-1.2,1.4-2.2,2.3-2.9c0.9-0.7,2.1-1.3,3.5-1.9c1-0.5,1.8-1,2.4-1.5
		c0.6-0.5,1-1.1,1.2-1.6c0.2-0.5,0.3-1,0.3-1.5c0-0.7-0.2-1.2-0.5-1.7c-0.3-0.5-0.8-0.9-1.3-1.2c-0.6-0.3-1.2-0.4-1.9-0.4
		c-1.4,0-2.5,0.4-3.2,1.2c-0.7,0.8-1.1,2-1.2,3.7H106c0-1.3,0.3-2.5,0.8-3.6c0.5-1.1,1.3-1.9,2.3-2.6c1-0.6,2.4-1,4-1
		c1.3,0,2.4,0.2,3.4,0.7c1,0.5,1.7,1.1,2.2,2c0.5,0.8,0.8,1.8,0.8,2.9c0,1-0.2,1.9-0.6,2.7c-0.4,0.8-1,1.6-1.8,2.2
		c-0.8,0.7-1.8,1.3-3,1.8l-0.5,0.3c-1.2,0.6-2.2,1.1-2.8,1.6c-0.6,0.5-1,0.9-1.2,1.4c-0.2,0.4-0.4,1-0.5,1.7l0.2,0.2
		c0.4,0,0.9-0.1,1.2-0.1c0.4,0,0.9,0,1.4,0h7.3V179.1z"/>
	<path class="st0" d="M135.1,176.7c-0.7,0.9-1.6,1.6-2.7,2.1c-1.1,0.5-2.3,0.7-3.6,0.7c-1.5,0-2.8-0.3-3.9-0.8
		c-1.1-0.5-2-1.4-2.6-2.4s-0.9-2.3-0.9-3.8h2.7c0,1,0.2,1.8,0.5,2.6c0.4,0.7,0.9,1.3,1.6,1.7c0.7,0.4,1.6,0.6,2.6,0.6
		c0.9,0,1.7-0.2,2.4-0.5c0.7-0.3,1.2-0.8,1.6-1.3s0.6-1.2,0.6-2c0-1.1-0.4-2-1.1-2.5c-0.7-0.6-1.7-0.9-2.9-0.9H127v-2.3h2.1
		c0.7,0,1.2-0.1,1.8-0.3c0.5-0.2,0.9-0.6,1.2-1s0.5-1,0.5-1.6c0-1-0.3-1.8-1-2.3c-0.6-0.5-1.5-0.8-2.7-0.8c-1.4,0-2.4,0.4-3,1.2
		c-0.6,0.8-0.9,1.7-1,2.7h-2.7c0-1.2,0.3-2.2,0.8-3.2c0.5-0.9,1.3-1.7,2.3-2.2c1-0.5,2.2-0.8,3.6-0.8c1.1,0,2.2,0.2,3.1,0.6
		c1,0.4,1.7,1,2.3,1.7c0.6,0.8,0.9,1.7,0.9,2.8c0,0.7-0.2,1.3-0.5,1.8c-0.3,0.6-0.7,1-1.2,1.4s-1,0.6-1.6,0.7v0.4
		c0.8,0.1,1.5,0.4,2.1,0.8c0.6,0.4,1.1,1,1.5,1.6c0.4,0.7,0.6,1.5,0.6,2.3C136.1,174.8,135.7,175.8,135.1,176.7z"/>
</g>
</svg>
