<?xml version="1.0" encoding="utf-8"?>
<!-- Generator: Adobe Illustrator 26.5.3, SVG Export Plug-In . SVG Version: 6.00 Build 0)  -->
<svg version="1.1" id="Layer_1" xmlns="http://www.w3.org/2000/svg" xmlns:xlink="http://www.w3.org/1999/xlink" x="0px" y="0px"
	 viewBox="0 0 194 185" style="enable-background:new 0 0 194 185;" xml:space="preserve">
<g>
	<path d="M135.8,173.2c0-0.9-0.2-1.7-0.6-2.4c-0.4-0.7-1-1.2-1.7-1.7c-0.8-0.4-1.7-0.6-2.7-0.7v-0.4c0.9,0,1.7-0.3,2.3-0.7
		c0.6-0.4,1.1-0.9,1.4-1.6c0.3-0.6,0.5-1.3,0.5-2c0-1.1-0.3-2-0.9-2.7c-0.6-0.7-1.4-1.3-2.3-1.6c-1-0.3-2-0.5-3.1-0.5
		c-1.4,0-2.6,0.3-3.6,0.8s-1.8,1.2-2.3,2.2c-0.5,0.9-0.8,2-0.8,3.2h2.7c0.1-1,0.4-1.9,1-2.7c0.6-0.8,1.6-1.2,3-1.2
		c1.1,0,2,0.3,2.7,0.8c0.6,0.5,1,1.3,1,2.3c0,0.6-0.2,1.2-0.5,1.6c-0.3,0.4-0.7,0.8-1.2,1c-0.5,0.2-1.1,0.3-1.8,0.3h-2.1v2.3h2.3
		c1.2,0,2.2,0.3,2.9,0.9c0.7,0.6,1.1,1.4,1.1,2.5c0,0.8-0.2,1.4-0.6,2c-0.4,0.6-0.9,1-1.6,1.3c-0.7,0.3-1.5,0.5-2.4,0.5
		c-1.5,0-2.7-0.4-3.5-1.3c-0.8-0.8-1.2-2-1.2-3.5h-2.7c0,1.5,0.3,2.8,0.9,3.8c0.6,1.1,1.5,1.9,2.6,2.4c1.1,0.5,2.4,0.8,3.9,0.8
		c1.3,0,2.5-0.2,3.6-0.7c1.1-0.5,2-1.1,2.7-2C135.5,175.5,135.8,174.5,135.8,173.2 M118.9,176.4h-7.3c-0.5,0-1,0-1.4,0
		c-0.4,0-0.8,0-1.2,0.1l-0.2-0.2c0.1-0.7,0.3-1.2,0.5-1.7c0.2-0.4,0.6-0.9,1.2-1.4c0.6-0.5,1.5-1,2.8-1.6l0.5-0.3
		c1.2-0.6,2.2-1.2,3-1.8c0.8-0.7,1.4-1.4,1.8-2.2c0.4-0.8,0.6-1.7,0.6-2.7c0-1.1-0.3-2-0.8-2.9c-0.5-0.8-1.3-1.5-2.2-2
		s-2.1-0.7-3.4-0.7c-1.6,0-2.9,0.3-4,1c-1,0.6-1.8,1.5-2.3,2.6c-0.5,1.1-0.8,2.3-0.8,3.6h2.7c0.1-1.7,0.5-2.9,1.2-3.7
		c0.7-0.8,1.8-1.2,3.2-1.2c0.7,0,1.4,0.1,2,0.4c0.6,0.3,1,0.7,1.3,1.2s0.5,1.1,0.5,1.7c0,0.5-0.1,1-0.3,1.5
		c-0.2,0.5-0.6,1.1-1.2,1.6c-0.6,0.5-1.4,1-2.4,1.5c-1.4,0.6-2.5,1.3-3.5,1.9c-0.9,0.7-1.7,1.6-2.3,2.9s-0.9,2.8-0.9,4.8h13V176.4z
		 M95.9,176.9c-1.1,0-2.1-0.3-2.8-1s-1.2-1.6-1.5-2.8c-0.3-1.2-0.5-2.6-0.5-4.2s0.2-3,0.5-4.1c0.3-1.1,0.8-2,1.5-2.6
		c0.7-0.6,1.6-0.9,2.8-0.9c1.2,0,2.1,0.3,2.8,0.9c0.7,0.6,1.2,1.5,1.5,2.6c0.3,1.1,0.5,2.5,0.5,4.1s-0.2,3.1-0.5,4.2
		c-0.3,1.2-0.8,2.1-1.5,2.8S97,176.9,95.9,176.9 M95.9,179.1c1.7,0,3.1-0.4,4.2-1.3c1.1-0.9,1.9-2.1,2.5-3.6
		c0.5-1.5,0.8-3.3,0.8-5.3s-0.3-3.7-0.8-5.2c-0.5-1.5-1.3-2.6-2.4-3.4c-1.1-0.8-2.5-1.2-4.2-1.2c-1.7,0-3.1,0.4-4.2,1.2
		c-1.1,0.8-1.9,2-2.4,3.4c-0.5,1.5-0.8,3.2-0.8,5.2s0.3,3.8,0.8,5.3c0.5,1.5,1.3,2.8,2.5,3.6C92.8,178.7,94.2,179.1,95.9,179.1
		 M86.2,176.4h-7.3c-0.5,0-1,0-1.4,0c-0.4,0-0.8,0-1.2,0.1l-0.2-0.2c0.1-0.7,0.3-1.2,0.5-1.7c0.2-0.4,0.6-0.9,1.2-1.4s1.5-1,2.8-1.6
		l0.5-0.3c1.2-0.6,2.2-1.2,3-1.8c0.8-0.7,1.4-1.4,1.8-2.2c0.4-0.8,0.6-1.7,0.6-2.7c0-1.1-0.3-2-0.8-2.9c-0.5-0.8-1.3-1.5-2.2-2
		s-2.1-0.7-3.4-0.7c-1.6,0-3,0.3-4,1c-1,0.6-1.8,1.5-2.3,2.6c-0.5,1.1-0.8,2.3-0.8,3.6h2.7c0.1-1.7,0.5-2.9,1.2-3.7
		c0.7-0.8,1.8-1.2,3.2-1.2c0.7,0,1.4,0.1,1.9,0.4s1,0.7,1.3,1.2s0.5,1.1,0.5,1.7c0,0.5-0.1,1-0.3,1.5c-0.2,0.5-0.6,1.1-1.2,1.6
		c-0.6,0.5-1.4,1-2.4,1.5c-1.4,0.6-2.5,1.3-3.5,1.9c-0.9,0.7-1.7,1.6-2.3,2.9c-0.6,1.2-0.9,2.8-0.9,4.8h13V176.4z M68.7,179.1
		c0.5,0,1-0.2,1.3-0.6c0.4-0.4,0.5-0.8,0.5-1.3c0-0.5-0.2-1-0.5-1.3c-0.4-0.3-0.8-0.5-1.3-0.5c-0.5,0-1,0.2-1.3,0.5
		s-0.6,0.8-0.6,1.3c0,0.5,0.2,1,0.6,1.3C67.7,179,68.1,179.1,68.7,179.1 M64.6,172c0-1.2-0.3-2.4-0.8-3.4c-0.6-1-1.4-1.8-2.4-2.3
		c-1-0.6-2.2-0.8-3.6-0.8c-1,0-1.9,0.2-2.7,0.7c-0.8,0.5-1.4,1.1-1.9,1.9l-0.3-0.1c0.1-0.2,0.2-0.5,0.3-0.7c0.1-0.3,0.2-0.6,0.3-0.9
		c0.1-0.3,0.2-0.7,0.3-1s0.2-0.7,0.3-1.1l0.5-2.7h8.9v-2.3h-11l-1.9,10.9h2.3c0.3-0.7,0.9-1.3,1.6-1.8s1.6-0.7,2.7-0.7
		c0.9,0,1.7,0.2,2.4,0.5c0.7,0.4,1.2,0.9,1.6,1.5c0.4,0.6,0.6,1.4,0.6,2.2c0,0.9-0.2,1.7-0.5,2.4c-0.4,0.7-0.9,1.3-1.6,1.8
		c-0.7,0.4-1.6,0.7-2.6,0.7c-1.4,0-2.5-0.4-3.3-1.3c-0.8-0.9-1.2-1.9-1.3-3.1h-2.7c0,1.2,0.3,2.3,0.9,3.3c0.6,1,1.4,1.8,2.5,2.4
		c1.1,0.6,2.4,0.9,3.9,0.9c1.5,0,2.8-0.3,4-1c1.1-0.6,2-1.5,2.6-2.6C64.3,174.5,64.6,173.3,64.6,172 M40.2,176.9
		c-1.1,0-2.1-0.3-2.8-1c-0.7-0.7-1.2-1.6-1.5-2.8c-0.3-1.2-0.5-2.6-0.5-4.2s0.2-3,0.5-4.1c0.3-1.1,0.8-2,1.5-2.6
		c0.7-0.6,1.6-0.9,2.8-0.9c1.2,0,2.1,0.3,2.8,0.9c0.7,0.6,1.2,1.5,1.5,2.6c0.3,1.1,0.5,2.5,0.5,4.1s-0.2,3.1-0.5,4.2
		c-0.3,1.2-0.8,2.1-1.5,2.8C42.3,176.6,41.4,176.9,40.2,176.9 M40.2,179.1c1.7,0,3.1-0.4,4.2-1.3c1.1-0.9,1.9-2.1,2.5-3.6
		c0.5-1.5,0.8-3.3,0.8-5.3s-0.3-3.7-0.8-5.2c-0.5-1.5-1.3-2.6-2.4-3.4c-1.1-0.8-2.5-1.2-4.2-1.2c-1.7,0-3.1,0.4-4.2,1.2
		c-1.1,0.8-1.9,2-2.4,3.4c-0.5,1.5-0.8,3.2-0.8,5.2s0.3,3.8,0.8,5.3c0.5,1.5,1.3,2.8,2.5,3.6C37.1,178.7,38.5,179.1,40.2,179.1
		 M29.3,179.1c0.5,0,1-0.2,1.3-0.6c0.4-0.4,0.5-0.8,0.5-1.3c0-0.5-0.2-1-0.5-1.3c-0.4-0.3-0.8-0.5-1.3-0.5c-0.5,0-1,0.2-1.3,0.5
		c-0.4,0.4-0.6,0.8-0.6,1.3c0,0.5,0.2,1,0.6,1.3C28.3,179,28.8,179.1,29.3,179.1 M22.4,162.8c0,0.1-0.1,0.2-0.1,0.3
		s-0.1,0.2-0.1,0.3c-0.2,0.5-0.3,0.9-0.4,1.3c-0.1,0.4-0.1,0.9-0.1,1.5v12.7h2.6v-19.5h-2.2v0c0,0.4-0.1,0.9-0.3,1.3
		s-0.5,0.8-0.8,1.1c-0.4,0.3-0.9,0.6-1.6,0.8c-0.7,0.2-1.4,0.3-2.2,0.3H17v2.3h0.8c1,0,1.8-0.2,2.6-0.7c0.8-0.5,1.3-1,1.6-1.7
		L22.4,162.8z M8,176.9c-1.1,0-2.1-0.3-2.8-1s-1.2-1.6-1.5-2.8c-0.3-1.2-0.5-2.6-0.5-4.2s0.2-3,0.5-4.1c0.3-1.1,0.8-2,1.5-2.6
		s1.6-0.9,2.8-0.9s2.1,0.3,2.8,0.9s1.2,1.5,1.5,2.6c0.3,1.1,0.5,2.5,0.5,4.1s-0.2,3.1-0.5,4.2c-0.3,1.2-0.8,2.1-1.5,2.8
		C10.1,176.6,9.1,176.9,8,176.9 M8,179.1c1.7,0,3.1-0.4,4.2-1.3c1.1-0.9,1.9-2.1,2.5-3.6c0.5-1.5,0.8-3.3,0.8-5.3s-0.3-3.7-0.8-5.2
		c-0.5-1.5-1.3-2.6-2.4-3.4c-1.1-0.8-2.5-1.2-4.2-1.2s-3.1,0.4-4.2,1.2c-1.1,0.8-1.9,2-2.4,3.4c-0.5,1.5-0.8,3.2-0.8,5.2
		s0.3,3.8,0.8,5.3c0.5,1.5,1.3,2.8,2.5,3.6C4.9,178.7,6.3,179.1,8,179.1"/>
	<path d="M143.2,126h-2.8c0,1,0.3,1.9,0.7,2.7c0.5,0.9,1.2,1.5,2.2,2.1c1,0.5,2.2,0.8,3.6,0.8c1.2,0,2.3-0.2,3.2-0.6
		c0.9-0.4,1.6-0.9,2.1-1.6c0.5-0.7,0.7-1.5,0.7-2.5c0-1.1-0.4-2-1.1-2.7c-0.7-0.7-1.7-1.2-3-1.5l-3.1-0.7c-0.7-0.2-1.2-0.4-1.5-0.8
		c-0.3-0.3-0.4-0.7-0.4-1.2c0-0.6,0.3-1.1,0.8-1.5c0.5-0.4,1.2-0.5,2.1-0.5c0.6,0,1.1,0.1,1.6,0.3c0.5,0.2,0.9,0.5,1.2,1
		c0.3,0.5,0.5,1,0.6,1.7h2.8c0-1.1-0.3-2-0.8-2.8c-0.5-0.8-1.2-1.4-2.2-1.8c-0.9-0.4-1.9-0.7-3.1-0.7c-1.1,0-2.1,0.2-3,0.5
		c-0.9,0.3-1.5,0.8-2,1.5c-0.5,0.7-0.7,1.4-0.7,2.3c0,1,0.3,1.9,0.9,2.6c0.6,0.7,1.5,1.2,2.7,1.5l2.9,0.7c0.9,0.2,1.6,0.5,2,0.8
		c0.4,0.3,0.6,0.8,0.6,1.4c0,0.5-0.1,0.9-0.4,1.2c-0.3,0.3-0.7,0.6-1.2,0.8c-0.5,0.2-1.1,0.3-1.7,0.3c-0.7,0-1.3-0.1-1.9-0.4
		c-0.6-0.3-1-0.7-1.3-1.2C143.4,127.3,143.2,126.7,143.2,126 M125.6,116.3v15h2.6v-9.5c0-0.8,0.2-1.4,0.5-1.9s0.8-1,1.5-1.2
		c0.6-0.3,1.3-0.4,2-0.4h0.1c1.1,0,2,0.3,2.6,0.8c0.6,0.5,0.9,1.3,0.9,2.4v9.9h2.6V121c0-1.3-0.3-2.3-0.8-3.1
		c-0.5-0.8-1.2-1.3-1.9-1.6s-1.6-0.4-2.6-0.4c-1.2,0-2.4,0.4-3.4,1.1c-1,0.7-1.8,1.7-2.2,2.9l-0.2,0.5l-0.4-0.1
		c0.1-0.3,0.2-0.7,0.3-1c0.1-0.3,0.3-0.6,0.4-0.9c0.2-0.4,0.3-0.8,0.4-1s0.1-0.5,0.1-0.8v-0.2H125.6z M116.3,129.4H116
		c-1.4,0-2.5-0.6-3.2-1.7c-0.7-1.1-1.1-2.5-1.1-4c0-1,0.2-1.9,0.5-2.8s0.8-1.5,1.5-2c0.6-0.5,1.4-0.8,2.4-0.8h0.3
		c1,0,1.8,0.2,2.4,0.8s1.1,1.2,1.4,2c0.3,0.8,0.5,1.8,0.5,2.8c0,1.1-0.2,2-0.5,2.9c-0.3,0.9-0.8,1.5-1.4,2.1
		S117.2,129.4,116.3,129.4 M116.1,131.6c1.4,0,2.7-0.3,3.8-1c1.1-0.7,1.9-1.6,2.5-2.8c0.6-1.2,0.9-2.6,0.9-4.1
		c0-1.5-0.3-2.9-0.9-4.1c-0.6-1.2-1.4-2.1-2.5-2.7c-1.1-0.7-2.4-1-3.8-1s-2.7,0.3-3.8,1c-1.1,0.7-1.9,1.6-2.5,2.7
		c-0.6,1.2-0.9,2.5-0.9,4.1c0,1.6,0.3,2.9,0.9,4.1c0.6,1.2,1.4,2.1,2.5,2.8C113.4,131.3,114.7,131.6,116.1,131.6 M103.8,131.3h2.6
		v-15h-2.6V131.3z M105.1,113.9c0.5,0,0.9-0.2,1.2-0.5c0.3-0.3,0.5-0.8,0.5-1.3c0-0.5-0.2-0.9-0.5-1.2c-0.3-0.3-0.7-0.5-1.2-0.5
		c-0.5,0-0.9,0.2-1.3,0.5c-0.3,0.3-0.5,0.8-0.5,1.2c0,0.5,0.2,0.9,0.5,1.3C104.2,113.7,104.6,113.9,105.1,113.9 M101.3,128.7
		L101.3,128.7c-0.2,0.1-0.6,0.1-1,0.2c-0.5,0.1-0.8,0.1-1.2,0.1c-0.6,0-1-0.2-1.2-0.5c-0.2-0.3-0.3-0.8-0.3-1.4v-8.6h3.6v-2.2h-3.6
		v-4.2h-2.6v4.2h-2.5v2.2h2.5v8.3c0,1.6,0.3,2.7,0.8,3.5c0.6,0.8,1.5,1.2,2.9,1.2c0.6,0,1.4-0.1,2.6-0.3c0,0,0,0,0,0c0,0,0,0,0,0
		V128.7z M86.7,123.8c0.5-0.3,0.9-0.7,1.2-1.2v2.1c0,1.1-0.2,2.1-0.7,2.8c-0.5,0.7-1.1,1.2-1.8,1.5c-0.7,0.3-1.4,0.4-2.1,0.4
		c-0.9,0-1.6-0.2-2.1-0.7c-0.4-0.4-0.7-0.9-0.7-1.5c0-0.7,0.2-1.2,0.7-1.7c0.2-0.2,0.5-0.4,0.9-0.5c0.4-0.1,0.8-0.2,1.3-0.3l1.3-0.2
		C85.5,124.3,86.2,124.1,86.7,123.8 M89,117.1c-1-0.8-2.5-1.2-4.5-1.2c-1.2,0-2.3,0.2-3.2,0.7c-0.9,0.4-1.6,1.1-2.1,1.8
		c-0.5,0.8-0.8,1.7-0.8,2.8H81c0.1-0.6,0.2-1.2,0.6-1.7c0.3-0.5,0.7-0.8,1.2-1c0.5-0.2,1.1-0.4,1.8-0.4c1,0,1.8,0.2,2.4,0.6
		c0.6,0.4,0.9,0.9,0.9,1.6c0,0.5-0.1,0.8-0.4,1.1s-0.6,0.5-1.1,0.6c-0.5,0.1-1.1,0.3-1.9,0.4l-1.4,0.2c-1.5,0.2-2.7,0.6-3.5,1.1
		c-1.2,0.8-1.7,2-1.7,3.5c0,0.7,0.1,1.3,0.4,1.9s0.7,1.1,1.2,1.4c0.9,0.7,2,1.1,3.3,1.1c1.4,0,2.6-0.3,3.6-1c1-0.7,1.7-1.7,2-2.9
		l0.4,0.1c0,0.1,0,0.1,0,0.2c0,0.1,0,0.1,0,0.2c-0.1,0.3-0.2,0.6-0.2,0.9s-0.1,0.6-0.1,0.9c0,0.5,0.2,0.9,0.5,1.1
		c0.3,0.2,0.9,0.4,1.6,0.4c0.5,0,1,0,1.7-0.1v-2.2c-0.2,0-0.4,0.1-0.6,0.1c-0.4,0-0.7-0.1-0.8-0.2c-0.1-0.1-0.1-0.5-0.1-1v-7
		C90.5,119.1,90,117.8,89,117.1 M76.4,125.8h-2.7c-0.1,0.7-0.3,1.3-0.7,1.8c-0.3,0.5-0.8,1-1.4,1.3s-1.3,0.5-2.1,0.5h-0.3
		c-1,0-1.8-0.3-2.4-0.8s-1.1-1.2-1.4-2.1c-0.3-0.9-0.5-1.8-0.5-2.8c0-1,0.2-1.9,0.5-2.8s0.8-1.5,1.5-2c0.7-0.5,1.4-0.8,2.4-0.8h0.3
		c1.1,0,2,0.3,2.7,1s1.2,1.4,1.4,2.4h2.8c-0.2-1.3-0.7-2.3-1.4-3.2s-1.5-1.4-2.5-1.8c-1-0.4-2.1-0.6-3.2-0.6c-1.5,0-2.7,0.3-3.8,1
		c-1.1,0.7-1.9,1.6-2.5,2.7s-0.9,2.5-0.9,4.1c0,1.6,0.3,2.9,0.9,4.1s1.4,2.1,2.5,2.8c1.1,0.7,2.4,1,3.8,1c1.2,0,2.3-0.3,3.4-0.8
		s1.9-1.2,2.5-2.1C75.9,127.8,76.3,126.8,76.4,125.8 M57,131.3h2.6v-15H57V131.3z M58.3,113.9c0.5,0,0.9-0.2,1.2-0.5
		c0.3-0.3,0.5-0.8,0.5-1.3c0-0.5-0.2-0.9-0.5-1.2c-0.3-0.3-0.7-0.5-1.2-0.5c-0.5,0-0.9,0.2-1.3,0.5c-0.3,0.3-0.5,0.8-0.5,1.2
		c0,0.5,0.2,0.9,0.5,1.3C57.4,113.7,57.8,113.9,58.3,113.9 M50.8,131.3h2.6v-20.9h-2.6V131.3z M41.2,118.1c1.4,0,2.5,0.5,3.3,1.5
		s1.1,2.4,1.1,4.1c0,1.1-0.2,2.1-0.5,3c-0.3,0.8-0.8,1.5-1.5,1.9s-1.5,0.7-2.4,0.7h-0.2c-1,0-1.8-0.2-2.5-0.7
		c-0.7-0.5-1.2-1.1-1.5-2c-0.3-0.8-0.5-1.8-0.5-3c0-1.1,0.2-2.1,0.5-2.9c0.3-0.8,0.9-1.5,1.5-1.9c0.7-0.5,1.5-0.7,2.5-0.7H41.2z
		 M47.4,119.4c-0.6-1.2-1.4-2.1-2.4-2.6c-1-0.6-2.1-0.9-3.3-0.9c-0.8,0-1.6,0.1-2.3,0.4c-0.7,0.3-1.3,0.7-1.8,1.2
		c-0.5,0.5-0.9,1.1-1.1,1.8l-0.1,0.2l-0.4-0.1c0,0,0-0.1,0-0.1s0-0.1,0-0.1c0.2-0.7,0.4-1.2,0.5-1.5c0.1-0.3,0.1-0.7,0.1-1v-0.4H34
		v20.9h2.6v-5.2c0-0.4,0-0.6,0-0.8c0-0.3-0.1-0.7-0.2-1.1c-0.1-0.4-0.2-0.7-0.3-1.1c-0.1-0.3-0.2-0.5-0.3-0.8
		c-0.1-0.3-0.2-0.5-0.2-0.8l0.4-0.1l0.1,0.3c0.3,0.9,0.8,1.7,1.3,2.3c0.5,0.6,1.2,1,1.9,1.3c0.7,0.3,1.5,0.4,2.4,0.4
		c1.2,0,2.3-0.3,3.3-0.9c1-0.6,1.8-1.5,2.4-2.7c0.6-1.2,0.9-2.6,0.9-4.3C48.4,122,48,120.6,47.4,119.4 M24.4,118.1
		c1.4,0,2.5,0.5,3.3,1.5s1.1,2.4,1.1,4.1c0,1.1-0.2,2.1-0.5,3c-0.3,0.8-0.8,1.5-1.5,1.9s-1.5,0.7-2.4,0.7h-0.2c-1,0-1.8-0.2-2.5-0.7
		c-0.7-0.5-1.2-1.1-1.5-2c-0.3-0.8-0.5-1.8-0.5-3c0-1.1,0.2-2.1,0.5-2.9c0.3-0.8,0.9-1.5,1.5-1.9c0.7-0.5,1.5-0.7,2.5-0.7H24.4z
		 M30.6,119.4c-0.6-1.2-1.4-2.1-2.4-2.6c-1-0.6-2.1-0.9-3.3-0.9c-0.8,0-1.6,0.1-2.3,0.4c-0.7,0.3-1.3,0.7-1.8,1.2
		c-0.5,0.5-0.9,1.1-1.1,1.8l-0.1,0.2l-0.4-0.1c0,0,0-0.1,0-0.1s0-0.1,0-0.1c0.2-0.7,0.4-1.2,0.5-1.5c0.1-0.3,0.1-0.7,0.1-1v-0.4
		h-2.6v20.9h2.6v-5.2c0-0.4,0-0.6,0-0.8c0-0.3-0.1-0.7-0.2-1.1c-0.1-0.4-0.2-0.7-0.3-1.1c-0.1-0.3-0.2-0.5-0.3-0.8
		c-0.1-0.3-0.1-0.5-0.2-0.8l0.4-0.1l0.1,0.3c0.3,0.9,0.8,1.7,1.3,2.3c0.5,0.6,1.2,1,1.9,1.3c0.7,0.3,1.5,0.4,2.4,0.4
		c1.2,0,2.3-0.3,3.3-0.9c1-0.6,1.8-1.5,2.4-2.7c0.6-1.2,0.9-2.6,0.9-4.3C31.6,122,31.2,120.6,30.6,119.4 M9.4,123.8
		c0.5-0.3,0.9-0.7,1.2-1.2v2.1c0,1.1-0.2,2.1-0.7,2.8c-0.5,0.7-1.1,1.2-1.8,1.5c-0.7,0.3-1.4,0.4-2.1,0.4c-0.9,0-1.6-0.2-2.1-0.7
		c-0.4-0.4-0.7-0.9-0.7-1.5c0-0.7,0.2-1.2,0.7-1.7c0.2-0.2,0.5-0.4,0.9-0.5c0.4-0.1,0.8-0.2,1.3-0.3l1.3-0.2
		C8.2,124.3,8.8,124.1,9.4,123.8 M11.6,117.1c-1-0.8-2.5-1.2-4.5-1.2c-1.2,0-2.3,0.2-3.2,0.7c-0.9,0.4-1.6,1.1-2.1,1.8
		c-0.5,0.8-0.8,1.7-0.8,2.8h2.7c0.1-0.6,0.2-1.2,0.6-1.7c0.3-0.5,0.7-0.8,1.2-1c0.5-0.2,1.1-0.4,1.8-0.4c1,0,1.8,0.2,2.4,0.6
		s0.9,0.9,0.9,1.6c0,0.5-0.1,0.8-0.4,1.1S9.5,121.9,9,122c-0.5,0.1-1.1,0.3-1.9,0.4l-1.4,0.2c-1.5,0.2-2.7,0.6-3.5,1.1
		c-1.2,0.8-1.7,2-1.7,3.5c0,0.7,0.1,1.3,0.4,1.9c0.3,0.6,0.7,1.1,1.2,1.4c0.9,0.7,2,1.1,3.3,1.1c1.4,0,2.6-0.3,3.6-1
		c1-0.7,1.7-1.7,2-2.9l0.4,0.1c0,0.1,0,0.1,0,0.2c0,0.1,0,0.1,0,0.2c-0.1,0.3-0.2,0.6-0.2,0.9c-0.1,0.3-0.1,0.6-0.1,0.9
		c0,0.5,0.2,0.9,0.5,1.1c0.3,0.2,0.9,0.4,1.6,0.4c0.5,0,1,0,1.7-0.1v-2.2c-0.2,0-0.4,0.1-0.6,0.1c-0.4,0-0.7-0.1-0.8-0.2
		c-0.1-0.1-0.1-0.5-0.1-1v-7C13.2,119.1,12.7,117.8,11.6,117.1"/>
	<path d="M94.6,96h-2.8c0,1,0.3,1.9,0.7,2.7c0.5,0.8,1.2,1.5,2.2,2.1s2.2,0.8,3.6,0.8c1.2,0,2.3-0.2,3.2-0.6
		c0.9-0.4,1.6-0.9,2.1-1.6c0.5-0.7,0.7-1.5,0.7-2.5c0-1.1-0.4-2-1.1-2.7c-0.7-0.7-1.7-1.2-3-1.5l-3.1-0.7c-0.7-0.2-1.2-0.4-1.5-0.8
		c-0.3-0.3-0.4-0.7-0.4-1.2c0-0.6,0.3-1.1,0.8-1.5s1.2-0.5,2.1-0.5c0.6,0,1.1,0.1,1.6,0.3c0.5,0.2,0.9,0.5,1.2,1
		c0.3,0.5,0.5,1,0.6,1.7h2.8c0-1.1-0.3-2-0.8-2.8s-1.2-1.4-2.2-1.8c-0.9-0.4-1.9-0.7-3.1-0.7c-1.1,0-2.1,0.2-3,0.5s-1.6,0.8-2,1.5
		c-0.5,0.7-0.7,1.4-0.7,2.3c0,1,0.3,1.9,0.9,2.6s1.5,1.2,2.7,1.5L99,95c0.9,0.2,1.6,0.5,2,0.8c0.4,0.3,0.6,0.8,0.6,1.4
		c0,0.5-0.1,0.9-0.4,1.2c-0.3,0.3-0.7,0.6-1.2,0.8s-1.1,0.3-1.7,0.3c-0.7,0-1.3-0.1-1.9-0.4c-0.5-0.3-1-0.7-1.3-1.2
		S94.6,96.7,94.6,96 M79.1,92.2c0.1-1.1,0.5-2.1,1.3-2.9c0.7-0.8,1.7-1.2,2.8-1.2h0.3c0.8,0,1.5,0.2,2.1,0.5c0.6,0.4,1,0.8,1.4,1.5
		c0.3,0.6,0.5,1.3,0.6,2.1H79.1z M77.2,97.9c0.5,1.2,1.4,2.1,2.4,2.7s2.4,1,3.9,1c1.3,0,2.4-0.2,3.5-0.7c1-0.5,1.8-1.1,2.5-2
		c0.6-0.8,1-1.8,1.2-2.9h-2.7c-0.2,1-0.7,1.8-1.5,2.4c-0.8,0.6-1.7,0.9-2.8,0.9h-0.2c-0.8,0-1.6-0.2-2.2-0.6c-0.7-0.4-1.2-1-1.6-1.7
		c-0.4-0.7-0.6-1.6-0.6-2.6l11.3-0.1v-0.7c0-1.6-0.3-3-0.8-4.2c-0.5-1.2-1.3-2.1-2.4-2.7c-1-0.6-2.3-0.9-3.7-0.9
		c-1.4,0-2.6,0.3-3.7,1c-1.1,0.6-1.9,1.6-2.5,2.8c-0.6,1.2-0.9,2.6-0.9,4.1C76.3,95.3,76.6,96.7,77.2,97.9 M71.2,101.3h2.6v-15h-2.6
		V101.3z M72.6,83.9c0.5,0,0.9-0.2,1.2-0.5c0.3-0.3,0.5-0.8,0.5-1.3c0-0.5-0.2-0.9-0.5-1.2c-0.3-0.3-0.7-0.5-1.2-0.5
		c-0.5,0-0.9,0.2-1.3,0.5c-0.3,0.3-0.5,0.8-0.5,1.2c0,0.5,0.2,0.9,0.5,1.3C71.6,83.7,72.1,83.9,72.6,83.9 M68.2,89
		c0.5,0.1,0.9,0.1,1.4,0.1l0-2.9h-0.5c-0.9,0-1.7,0.1-2.4,0.2c-0.7,0.1-1.4,0.4-2,0.9c-0.7,0.5-1.3,1.2-1.8,2.1
		c-0.1,0.1-0.2,0.3-0.2,0.4c-0.1,0.1-0.1,0.3-0.2,0.4l-0.4-0.1l0.2-0.5c0.3-0.8,0.5-1.4,0.7-1.9s0.2-1,0.2-1.5v-0.1h-2.6v15h2.6
		v-8.4c0-1.3,0.4-2.3,1.1-2.9C65,89.3,65.9,89,67,89C67.3,89,67.7,89,68.2,89 M46.8,92.2c0.1-1.1,0.5-2.1,1.3-2.9
		c0.7-0.8,1.7-1.2,2.8-1.2h0.3c0.8,0,1.5,0.2,2.1,0.5c0.6,0.4,1,0.8,1.4,1.5c0.3,0.6,0.5,1.3,0.6,2.1H46.8z M44.9,97.9
		c0.5,1.2,1.4,2.1,2.4,2.7c1.1,0.7,2.4,1,3.9,1c1.3,0,2.4-0.2,3.5-0.7c1-0.5,1.8-1.1,2.5-2c0.6-0.8,1-1.8,1.2-2.9h-2.7
		c-0.2,1-0.7,1.8-1.5,2.4c-0.8,0.6-1.7,0.9-2.8,0.9h-0.2c-0.8,0-1.6-0.2-2.2-0.6s-1.2-1-1.6-1.7c-0.4-0.7-0.6-1.6-0.6-2.6L58,94.4
		v-0.7c0-1.6-0.3-3-0.8-4.2c-0.6-1.2-1.3-2.1-2.4-2.7c-1-0.6-2.3-0.9-3.7-0.9c-1.4,0-2.6,0.3-3.7,1c-1.1,0.6-1.9,1.6-2.5,2.8
		c-0.6,1.2-0.9,2.6-0.9,4.1C44.1,95.3,44.4,96.7,44.9,97.9 M39,101.3h2.6V80.4H39V101.3z M32.8,101.3h2.6V80.4h-2.6V101.3z
		 M25.2,93.8c0.5-0.3,0.9-0.7,1.2-1.2v2.1c0,1.1-0.2,2.1-0.7,2.8s-1.1,1.2-1.8,1.5s-1.4,0.4-2.1,0.4c-0.9,0-1.6-0.2-2.1-0.7
		c-0.4-0.4-0.7-0.9-0.7-1.5c0-0.7,0.2-1.2,0.7-1.7c0.2-0.2,0.5-0.4,0.9-0.5s0.8-0.2,1.3-0.3l1.3-0.2C24,94.3,24.7,94.1,25.2,93.8
		 M27.5,87.1c-1-0.8-2.5-1.2-4.5-1.2c-1.2,0-2.3,0.2-3.2,0.7c-0.9,0.4-1.6,1.1-2.1,1.8c-0.5,0.8-0.8,1.7-0.8,2.8h2.7
		c0.1-0.6,0.2-1.2,0.6-1.6c0.3-0.5,0.7-0.8,1.2-1.1s1.1-0.4,1.8-0.4c1,0,1.8,0.2,2.4,0.6c0.6,0.4,0.9,0.9,0.9,1.6
		c0,0.5-0.1,0.8-0.4,1.1c-0.2,0.3-0.6,0.5-1.1,0.6c-0.5,0.2-1.1,0.3-1.9,0.4l-1.4,0.2c-1.5,0.2-2.7,0.6-3.5,1.1
		c-1.2,0.8-1.7,2-1.7,3.5c0,0.7,0.1,1.3,0.4,1.9c0.3,0.6,0.7,1.1,1.2,1.4c0.9,0.7,2,1,3.3,1c1.4,0,2.6-0.3,3.6-1s1.7-1.7,2-2.9
		l0.4,0.1c0,0.1,0,0.1,0,0.2c0,0.1,0,0.1,0,0.2c-0.1,0.3-0.2,0.6-0.2,0.9c-0.1,0.3-0.1,0.6-0.1,0.9c0,0.5,0.2,0.9,0.5,1.1
		c0.3,0.2,0.9,0.4,1.6,0.4c0.5,0,1,0,1.7-0.1v-2.2c-0.2,0-0.4,0.1-0.6,0.1c-0.4,0-0.7-0.1-0.8-0.2s-0.1-0.5-0.1-1v-7
		C29,89.1,28.5,87.8,27.5,87.1 M7.3,98.3c-1.4,0-2.4-0.5-3.1-1.4c-0.7-0.9-1.1-2.1-1.1-3.7c0-1,0.2-1.9,0.5-2.7
		c0.3-0.8,0.8-1.4,1.4-1.8s1.4-0.6,2.3-0.6h0.2c1.4,0,2.4,0.5,3.1,1.4c0.7,0.9,1,2.2,1,3.8c0,1-0.2,1.9-0.5,2.6
		c-0.3,0.8-0.8,1.3-1.4,1.7c-0.6,0.4-1.4,0.6-2.3,0.6H7.3z M4.3,104.4c-0.7-0.6-1.1-1.4-1.2-2.6H0.3c0.2,1.7,0.8,3.1,1.8,4.1
		s2.7,1.6,5,1.6c1.4,0,2.6-0.3,3.7-0.8c1-0.5,1.8-1.3,2.4-2.3c0.6-1,0.8-2.2,0.8-3.7V86.3h-2.7v0.2c0,0.4,0,0.7,0.1,0.9
		c0.1,0.3,0.2,0.7,0.4,1.2h0v0.1l-0.4,0.1c-0.3-0.8-0.9-1.4-1.6-2C9,86.2,8,85.9,6.6,85.9c-1.3,0-2.4,0.3-3.4,0.9
		c-0.9,0.6-1.7,1.5-2.1,2.6s-0.7,2.3-0.7,3.8c0,1.4,0.2,2.7,0.7,3.8s1.2,2,2.1,2.6s2,1,3.3,1c1.4,0,2.6-0.3,3.5-1
		c0.9-0.7,1.5-1.5,2-2.5l0.2-0.4l0.4,0.1c-0.1,0.2-0.2,0.5-0.2,0.7c-0.1,0.2-0.2,0.4-0.3,0.6c-0.2,0.5-0.3,0.9-0.4,1.2
		c-0.1,0.3-0.1,0.7-0.1,1.2v0.7c0,1.4-0.4,2.4-1.2,3.1s-1.8,1-3,1H7C5.9,105.2,4.9,105,4.3,104.4"/>
	<path d="M84.2,59c0.5,0.1,0.9,0.1,1.4,0.1l0-2.9h-0.5c-0.9,0-1.7,0.1-2.4,0.2c-0.7,0.1-1.4,0.4-2,0.9s-1.3,1.2-1.8,2.1
		c-0.1,0.1-0.2,0.3-0.2,0.4c-0.1,0.1-0.1,0.3-0.2,0.4l-0.4-0.1l0.2-0.5c0.3-0.8,0.5-1.4,0.7-1.9s0.2-1,0.2-1.5v-0.1h-2.6v15h2.6
		v-8.4c0-1.3,0.4-2.3,1.1-2.9C81,59.3,81.9,59,83,59C83.3,59,83.7,59,84.2,59 M67.2,69.4h-0.3c-1.4,0-2.5-0.6-3.2-1.7
		c-0.7-1.1-1.1-2.5-1.1-4c0-1,0.2-1.9,0.5-2.8s0.8-1.5,1.5-2c0.6-0.5,1.4-0.8,2.4-0.8h0.3c1,0,1.8,0.2,2.4,0.8
		c0.6,0.5,1.1,1.2,1.4,2c0.3,0.8,0.5,1.8,0.5,2.8c0,1.1-0.2,2-0.5,2.9c-0.3,0.9-0.8,1.5-1.4,2.1C68.9,69.1,68.1,69.4,67.2,69.4
		 M67,71.6c1.4,0,2.7-0.3,3.8-1c1.1-0.7,1.9-1.6,2.5-2.8s0.9-2.6,0.9-4.1c0-1.5-0.3-2.9-0.9-4.1s-1.4-2.1-2.5-2.7
		c-1.1-0.7-2.4-1-3.8-1s-2.7,0.3-3.8,1c-1.1,0.6-1.9,1.6-2.5,2.7s-0.9,2.5-0.9,4.1c0,1.6,0.3,2.9,0.9,4.1s1.4,2.1,2.5,2.8
		C64.3,71.3,65.6,71.6,67,71.6 M54.2,51.2c-0.8,0.7-1.2,1.8-1.2,3.2v1.9h-2.6v2.2H53v12.8h2.6V58.4h4v-2.2h-4v-1.8
		c0-0.7,0.2-1.2,0.6-1.6c0.4-0.3,0.9-0.5,1.6-0.5c0.5,0,1.2,0.1,1.9,0.3v-2.4c-0.2,0-0.5-0.1-0.9-0.2c-0.4-0.1-0.8-0.1-1.2-0.1
		C56.1,50.1,55,50.4,54.2,51.2 M38.3,71.3H41V50.4h-2.6V71.3z M32.1,71.3h2.6V50.4h-2.6V71.3z M24.6,63.8c0.5-0.3,0.9-0.7,1.2-1.2
		v2.1c0,1.1-0.2,2.1-0.7,2.8s-1.1,1.2-1.8,1.5c-0.7,0.3-1.4,0.4-2.1,0.4c-0.9,0-1.6-0.2-2.1-0.7c-0.4-0.4-0.7-0.9-0.7-1.5
		c0-0.7,0.2-1.2,0.7-1.7c0.2-0.2,0.5-0.4,0.9-0.5c0.4-0.1,0.8-0.2,1.3-0.3l1.3-0.2C23.4,64.3,24,64.1,24.6,63.8 M26.8,57.1
		c-1-0.8-2.5-1.2-4.5-1.2c-1.2,0-2.3,0.2-3.2,0.7s-1.6,1.1-2.1,1.8s-0.8,1.7-0.8,2.8h2.7c0.1-0.6,0.2-1.2,0.6-1.6
		c0.3-0.5,0.7-0.8,1.2-1.1s1.1-0.4,1.8-0.4c1,0,1.8,0.2,2.4,0.6c0.6,0.4,0.9,0.9,0.9,1.6c0,0.5-0.1,0.8-0.4,1.1
		c-0.2,0.3-0.6,0.5-1.1,0.6s-1.1,0.3-1.9,0.4l-1.4,0.2c-1.5,0.2-2.7,0.6-3.5,1.1c-1.2,0.8-1.7,2-1.7,3.5c0,0.7,0.1,1.3,0.4,1.9
		c0.3,0.6,0.7,1.1,1.2,1.4c0.9,0.7,2,1,3.3,1c1.4,0,2.6-0.3,3.6-1s1.7-1.7,2-2.9l0.4,0.1c0,0.1,0,0.1,0,0.2c0,0.1,0,0.1,0,0.2
		c-0.1,0.3-0.2,0.6-0.2,0.9c-0.1,0.3-0.1,0.6-0.1,0.9c0,0.5,0.2,0.9,0.5,1.1c0.3,0.2,0.9,0.4,1.6,0.4c0.5,0,1,0,1.7-0.1v-2.2
		c-0.2,0-0.4,0.1-0.6,0.1c-0.4,0-0.7-0.1-0.8-0.2s-0.1-0.5-0.1-1v-7C28.4,59.1,27.9,57.8,26.8,57.1 M14.3,65.8h-2.7
		c-0.1,0.7-0.3,1.3-0.7,1.8c-0.4,0.5-0.8,1-1.4,1.3c-0.6,0.3-1.3,0.5-2.1,0.5H7.1c-1,0-1.8-0.3-2.4-0.8c-0.7-0.5-1.1-1.2-1.4-2.1
		c-0.3-0.9-0.5-1.8-0.5-2.8c0-1,0.2-1.9,0.5-2.8s0.8-1.5,1.5-2c0.6-0.5,1.4-0.8,2.4-0.8h0.3c1.1,0,2,0.3,2.7,1s1.2,1.5,1.4,2.4h2.8
		c-0.2-1.3-0.7-2.3-1.4-3.2c-0.7-0.8-1.5-1.4-2.5-1.8c-1-0.4-2.1-0.6-3.2-0.6c-1.5,0-2.7,0.3-3.8,1c-1.1,0.6-1.9,1.6-2.5,2.7
		C0.3,60.8,0,62.1,0,63.7c0,1.6,0.3,2.9,0.9,4.1c0.6,1.2,1.4,2.1,2.5,2.8s2.4,1,3.8,1c1.2,0,2.3-0.3,3.4-0.8s1.9-1.2,2.5-2.1
		C13.8,67.8,14.2,66.8,14.3,65.8"/>
	<path d="M12.2-0.3H9.8v20.2c-0.4-1.2-1.1-2.3-2.1-3.2c-1-0.9-2.1-1.6-3.4-2.1c-1.3-0.5-2.6-0.8-4-0.9v2.6c1.8,0.1,3.3,0.5,4.7,1.3
		c1.4,0.8,2.5,1.8,3.4,3.2s1.4,2.8,1.6,4.5h2.1c0.2-1.7,0.7-3.2,1.6-4.5c0.9-1.3,2-2.4,3.4-3.2c1.4-0.8,3-1.2,4.7-1.3v-2.6
		c-2.1,0.1-4.1,0.7-5.9,1.8c-1.8,1.1-3,2.6-3.7,4.4V-0.3z"/>
</g>
</svg>
