<?xml version="1.0" encoding="utf-8"?>
<!-- Generator: Adobe Illustrator 26.5.3, SVG Export Plug-In . SVG Version: 6.00 Build 0)  -->
<svg version="1.1" id="Layer_1" xmlns="http://www.w3.org/2000/svg" xmlns:xlink="http://www.w3.org/1999/xlink" x="0px" y="0px"
	 viewBox="0 0 612 681.2" style="enable-background:new 0 0 612 681.2;" xml:space="preserve">
<style type="text/css">
	.st0{clip-path:url(#SVGID_00000063625294107587922960000001640015087679965069_);}
</style>
<g>
	<defs>
		<rect id="SVGID_1_" width="612" height="681.2"/>
	</defs>
	<clipPath id="SVGID_00000169532901651687748620000005088740396616140429_">
		<use xlink:href="#SVGID_1_"  style="overflow:visible;"/>
	</clipPath>
	<path style="clip-path:url(#SVGID_00000169532901651687748620000005088740396616140429_);" d="M391.2,294.4
		c11.3-10.7,19.5-25.5,24.5-44.3c5-18.9,7.4-41.4,7.4-67.6c0-26.2-2.5-48.3-7.4-66.2c-5-17.9-13-31.7-24.2-41.5
		c-11.2-9.7-26.1-14.6-44.6-14.6c-18.5,0-33.4,4.9-44.6,14.6c-11.2,9.8-19.3,23.6-24.2,41.5c-5,17.9-7.4,40-7.4,66.2
		c0,26.2,2.5,48.7,7.4,67.6c5,18.9,13.1,33.6,24.5,44.3c11.3,10.7,26.1,16.1,44.3,16.1C365.1,310.5,379.9,305.1,391.2,294.4
		 M279.3,325.3c-17.9-14.1-31-33.4-39.3-58c-8.3-24.6-12.5-52.9-12.5-84.9c0-32,4.1-59.8,12.5-83.4c8.3-23.6,21.3-42,39.1-55.1
		c17.7-13.1,40.3-19.7,67.8-19.7c27.5,0,50.1,6.6,67.8,19.7c17.7,13.1,30.8,31.5,39.1,55.1c8.3,23.7,12.5,51.5,12.5,83.4
		c0,32-4.2,60.2-12.5,84.9c-8.3,24.6-21.4,43.9-39.3,58c-17.9,14.1-40.4,21.1-67.6,21.1C319.7,346.4,297.2,339.4,279.3,325.3"/>
	<path style="clip-path:url(#SVGID_00000169532901651687748620000005088740396616140429_);" d="M520.9,478.4
		c0-8.6,0.4-17.7,1.2-27.3c0.8-9.6,1.8-18.7,3.1-27.3l-5.3-1c-6.4,12.5-16.1,26.7-29.2,42.7l-79.6,98.8h109.8V478.4z M367.5,601.1
		v-40.7l153.4-190.8h40.7v194.6H612v36.9h-50.3v80.1h-40.7v-80.1H367.5z"/>
	<path style="clip-path:url(#SVGID_00000169532901651687748620000005088740396616140429_);" d="M245.5,643.1
		c-6.2,0.2-12.9,0.6-19.9,1.2l-3.4-3.4c1.6-10.9,4.1-19.7,7.4-26.6c3.4-6.9,9.9-14.1,19.7-21.8c9.7-7.7,24.5-16.3,44.3-25.9l8.6-4.3
		c19.5-8.9,35.6-18.7,48.4-29.3c12.8-10.5,22.4-22.4,29-35.5c6.6-13.1,9.8-27.6,9.8-43.6c0-17.3-4.2-32.6-12.5-46
		c-8.3-13.4-20.2-24-35.7-31.6c-15.5-7.7-33.5-11.5-53.9-11.5c-25.9,0-47.1,5.1-63.8,15.3c-16.6,10.2-28.9,23.9-36.9,41
		c-7.5,16.1-11.7,34-12.7,53.6c-1,26.5-7.6,46.1-19.4,58.7c-11.8,12.6-28.9,18.9-51.3,18.9c-11.8,0-22.2-2.2-31.2-6.7
		c-8.9-4.5-16-10.7-21.1-18.7c-5.1-8-7.7-17.3-7.7-27.8c0-8,1.8-16.2,5.5-24.7c3.7-8.5,10.2-16.9,19.7-25.4
		c9.4-8.5,22.3-16.4,38.6-23.7c22.1-9.9,40.5-20.3,55.4-31.2c14.9-10.9,27.3-26.2,37.1-46c16.8-33.8,10.7-70.1,10.7-70.1H94
		c-8.6,0-16.1,0.1-22.3,0.2c-6.2,0.2-12.9,0.6-19.9,1.2l-3.4-3.4c1.6-10.9,4.1-19.7,7.4-26.6c3.4-6.9,9.9-14.1,19.7-21.8
		c9.7-7.7,24.5-16.3,44.3-25.9l8.6-4.3c19.5-8.9,35.6-18.7,48.4-29.2c12.8-10.5,22.4-22.4,29-35.5c6.5-13.1,9.8-27.6,9.8-43.6
		c0-17.3-4.2-32.6-12.5-46c-8.3-13.4-20.2-24-35.7-31.6C152,3.8,134.1,0,113.6,0C87.7,0,66.5,5.1,49.9,15.3
		c-16.6,10.2-28.9,23.9-36.9,41C4.9,73.4,0.6,92.5,0,113.6h43.1c1-26.5,7.4-46.1,19.2-58.7c11.8-12.6,28.9-18.9,51.3-18.9
		c11.8,0,22.2,2.2,31.2,6.7c8.9,4.5,16,10.7,21.1,18.7c5.1,8,7.7,17.3,7.7,27.8c0,8-1.8,16.2-5.5,24.7c-3.7,8.5-10.2,16.9-19.7,25.4
		c-9.4,8.5-22.3,16.4-38.6,23.7c-22.1,9.9-40.5,20.3-55.4,31.2c-14.9,10.9-27.3,26.2-37.2,46C7.3,260,2.4,285.4,2.4,316.4h167
		c-1.6,8.9-5.3,16.5-8.2,22.4c-3.4,6.9-9.9,14.1-19.7,21.8c-9.7,7.7-24.5,16.3-44.3,25.9l-8.6,4.3c-19.5,8.9-35.6,18.7-48.4,29.2
		c-12.8,10.5-22.4,22.4-29,35.5c-6.6,13.1-9.8,27.6-9.8,43.6c0,17.3,4.2,32.6,12.5,46c8.3,13.4,20.2,24,35.7,31.6
		c15.5,7.7,33.5,11.5,53.9,11.5c25.9,0,47.1-5.1,63.8-15.3c16.6-10.2,28.9-23.9,36.9-41c11.5-24.6,12.9-53.6,12.9-53.6
		c1-26.5,7.4-46.1,19.2-58.7c11.8-12.6,28.9-18.9,51.3-18.9c11.8,0,22.2,2.2,31.1,6.7c8.9,4.5,16,10.7,21.1,18.7
		c5.1,8,7.7,17.3,7.7,27.8c0,8-1.8,16.2-5.5,24.7c-3.7,8.5-10.2,16.9-19.7,25.4c-9.4,8.5-22.3,16.4-38.6,23.7
		c-22.1,9.9-40.5,20.3-55.4,31.2c-14.9,10.9-27.3,26.2-37.1,46c-9.9,19.8-14.9,45.2-14.9,76.2h208.1v-38.4H267.8
		C259.2,642.8,251.7,642.9,245.5,643.1"/>
</g>
</svg>
