<?xml version="1.0" encoding="utf-8"?>
<!-- Generator: Adobe Illustrator 26.5.3, SVG Export Plug-In . SVG Version: 6.00 Build 0)  -->
<svg version="1.1" id="Layer_1" xmlns="http://www.w3.org/2000/svg" xmlns:xlink="http://www.w3.org/1999/xlink" x="0px" y="0px"
	 viewBox="0 0 580.3 102.7" style="enable-background:new 0 0 580.3 102.7;" xml:space="preserve">
<style type="text/css">
	.st0{clip-path:url(#SVGID_00000139972725520561243620000008809688505074621871_);}
</style>
<g>
	<defs>
		<rect id="SVGID_1_" width="580.3" height="103.2"/>
	</defs>
	<clipPath id="SVGID_00000134949552355078499900000004199219691132157060_">
		<use xlink:href="#SVGID_1_"  style="overflow:visible;"/>
	</clipPath>
	<path style="clip-path:url(#SVGID_00000134949552355078499900000004199219691132157060_);" d="M18,69.6c-1.6,0-3.2,0.1-5,0.3
		l-0.8-0.8c0.4-2.7,1-4.9,1.9-6.6c0.8-1.7,2.5-3.5,4.9-5.4c2.4-1.9,6.1-4.1,11.1-6.5l2.2-1.1c4.9-2.2,8.9-4.7,12.1-7.3
		c3.2-2.6,5.6-5.6,7.3-8.9c1.6-3.3,2.5-6.9,2.5-10.9c0-4.3-1-8.1-3.1-11.5c-2.1-3.4-5.1-6-9-7.9c-3.9-1.9-8.4-2.9-13.5-2.9
		c-6.5,0-11.8,1.3-16,3.8c-4.2,2.6-7.2,6-9.3,10.2c-2,4.3-3.1,9-3.2,14.3h10.8c0.2-6.6,1.8-11.5,4.8-14.7c3-3.2,7.2-4.7,12.9-4.7
		c3,0,5.6,0.6,7.8,1.7c2.2,1.1,4,2.7,5.3,4.7c1.3,2,1.9,4.3,1.9,6.9c0,2-0.5,4.1-1.4,6.2c-0.9,2.1-2.6,4.2-4.9,6.3
		c-2.4,2.1-5.6,4.1-9.7,5.9c-5.5,2.5-10.2,5.1-13.9,7.8c-3.7,2.7-6.8,6.5-9.3,11.5c-2.5,4.9-3.7,11.3-3.7,19h52.1v-9.6H23.5
		C21.4,69.6,19.5,69.6,18,69.6"/>
	<path style="clip-path:url(#SVGID_00000134949552355078499900000004199219691132157060_);" d="M431.8,86.7c0,2.4-0.5,4.1-1.5,5.1
		c-1,1-2.6,1.6-4.7,1.6c-1,0-1.9-0.1-2.9-0.2c-1-0.1-2.1-0.3-3.3-0.4l-0.8-0.1v9.8c0.1,0,0.1,0,0.2,0.1c0,0,0.1,0.1,0.2,0.1
		c0.7,0.1,1.7,0.2,2.8,0.4c1.2,0.2,2.2,0.2,3.2,0.2c5.8,0,10.2-1.1,13.2-3.3c2.9-2.2,4.4-5.9,4.4-11.2V19.5h-10.6V86.7z"/>
	<path style="clip-path:url(#SVGID_00000134949552355078499900000004199219691132157060_);" d="M437.1,0.1c-2,0-3.7,0.7-5,2
		c-1.4,1.4-2,3-2,4.9c0,2,0.7,3.7,2,5c1.4,1.4,3,2,5,2c1.9,0,3.6-0.7,4.9-2c1.4-1.4,2-3,2-5c0-1.9-0.7-3.5-2-4.9
		C440.6,0.8,439,0.1,437.1,0.1"/>
	<path style="clip-path:url(#SVGID_00000134949552355078499900000004199219691132157060_);" d="M488.2,52.9c0,4.5-1,8.2-2.9,11
		c-1.9,2.8-4.3,4.8-7.2,5.9c-2.8,1.2-5.7,1.7-8.5,1.7c-3.5,0-6.3-0.9-8.3-2.6c-1.8-1.5-2.6-3.5-2.6-6c0-2.8,0.9-5,2.6-6.6
		c1-0.9,2.2-1.6,3.7-2.1c1.5-0.5,3.3-1,5.3-1.4l5.3-1c3-0.6,5.5-1.4,7.7-2.6c2.2-1.2,3.8-2.8,4.8-4.8V52.9z M499.2,69.3
		c-0.4-0.6-0.5-1.9-0.5-3.9V37.6c0-6.9-2-12-6.1-15.1c-4.1-3.1-10.1-4.7-17.9-4.7c-5,0-9.3,0.9-13,2.6c-3.7,1.8-6.5,4.2-8.6,7.4
		c-2,3.2-3.1,6.8-3.3,11.1h10.8c0.2-2.6,1-4.7,2.2-6.6s2.9-3.2,5-4.2c2.1-1,4.4-1.4,7.1-1.4c4.1,0,7.3,0.8,9.6,2.3
		c2.3,1.5,3.5,3.6,3.5,6.2c0,1.8-0.5,3.3-1.5,4.4c-1,1.1-2.4,2-4.3,2.6c-1.9,0.6-4.4,1.1-7.5,1.5l-5.8,0.7c-6,0.8-10.7,2.3-14.2,4.5
		c-4.6,3.2-7,7.9-7,14c0,2.8,0.6,5.3,1.7,7.7c1.1,2.3,2.7,4.2,4.7,5.7c3.4,2.8,7.8,4.2,13.2,4.2c5.7,0,10.5-1.4,14.5-4.1
		c4-2.7,6.7-6.6,8.1-11.7l1.4,0.4c-0.1,0.2-0.1,0.5-0.2,0.7c0,0.2-0.1,0.4-0.2,0.7c-0.4,1.2-0.7,2.4-1,3.7c-0.2,1.2-0.4,2.4-0.4,3.4
		c0,2,0.7,3.5,2,4.4c1.3,1,3.5,1.4,6.5,1.4c1.9,0,4.1-0.2,6.6-0.5v-9c-0.8,0.2-1.6,0.2-2.5,0.2C500.5,70.2,499.5,69.9,499.2,69.3"/>
	<path style="clip-path:url(#SVGID_00000134949552355078499900000004199219691132157060_);" d="M550.1,19.6
		c-3.1-1.2-6.6-1.7-10.3-1.7c-5,0-9.5,1.4-13.6,4.2c-4.1,2.8-7.1,6.6-8.8,11.4l-0.7,1.9l-1.4-0.5c0.3-1.4,0.8-2.7,1.3-4
		c0.6-1.3,1.1-2.5,1.6-3.7c0.8-1.7,1.4-3,1.7-4c0.4-1,0.5-2.1,0.5-3.2v-0.8h-10.9v59.8H520V41.4c0-3,0.7-5.6,2.2-7.8
		c1.4-2.2,3.4-3.8,5.8-5c2.4-1.2,5.1-1.7,8-1.7h0.2c4.4,0,7.9,1,10.4,3.1c2.5,2,3.8,5.2,3.8,9.6v39.5h10.6V38.1
		c0-5.2-1-9.3-3.1-12.3C555.8,22.8,553.2,20.7,550.1,19.6"/>
	<path style="clip-path:url(#SVGID_00000134949552355078499900000004199219691132157060_);" d="M578.2,66.2
		c-1.4-1.4-3.2-2.1-5.3-2.1c-2.1,0-3.9,0.7-5.3,2.2c-1.5,1.4-2.2,3.2-2.2,5.3c0,2.1,0.7,3.9,2.2,5.3c1.5,1.5,3.3,2.2,5.3,2.2
		c2.1,0,3.8-0.7,5.3-2.2c1.4-1.5,2.2-3.3,2.2-5.3C580.3,69.4,579.6,67.6,578.2,66.2"/>
	<path style="clip-path:url(#SVGID_00000134949552355078499900000004199219691132157060_);" d="M298.9,69.6c-1.6,0-3.2,0.1-5,0.3
		l-0.8-0.8c0.4-2.7,1-4.9,1.9-6.6c0.8-1.7,2.5-3.5,4.9-5.4c2.4-1.9,6.1-4.1,11.1-6.5l2.2-1.1c4.9-2.2,8.9-4.7,12.1-7.3
		c3.2-2.6,5.6-5.6,7.3-8.9c1.6-3.3,2.5-6.9,2.5-10.9c0-4.3-1-8.1-3.1-11.5c-2.1-3.4-5.1-6-9-7.9c-3.9-1.9-8.4-2.9-13.5-2.9
		c-6.5,0-11.8,1.3-16,3.8c-4.2,2.6-7.2,6-9.2,10.2c-2,4.3-3.1,9.1-3.2,14.3l-12.5,0c-5.4,0.2-10.3,1.3-14.8,3.2
		c-5,2.2-10.3,5.3-15.6,9.2c-0.7,0.5-1.4,1-2.2,1.5c-0.7,0.5-1.4,1-2,1.5c-4.3,3.1-7.8,5.4-10.5,6.8c-2.6,1.4-5.2,2.2-7.8,2.2
		c-1,0-1.8-0.2-2.2-0.7c-0.4-0.4-0.7-1.1-0.7-2c0-1.4,0.6-3.3,1.7-5.4c1.2-2.2,2.9-5.1,5.1-8.7l1.3-2.2c0.3-0.6,0.7-1.1,1-1.7
		c0.4-0.6,0.7-1.2,1.1-1.7c2-3.5,3.6-6.7,4.7-9.6c1.2-2.9,1.7-5.5,1.7-7.7c0-4-1.7-6.9-4.7-9.3c-3.6-2.9-7.3-4-12.8-4
		c-4.9,0-9.5,0.1-28,0.1H64.6l-7.6,43.7h9.3c1.4-2.9,3.5-5.2,6.5-7.1c3-1.9,6.6-2.8,10.6-2.8c3.7,0,6.9,0.7,9.7,2.2
		c2.8,1.4,5,3.4,6.5,6c1.5,2.6,2.3,5.5,2.3,9c0,3.5-0.7,6.7-2.2,9.6c-1.4,2.9-3.6,5.2-6.4,7c-2.8,1.8-6.3,2.6-10.3,2.6
		c-5.5,0-9.9-1.7-13.2-5.2c-3.2-3.5-4.9-7.6-5.1-12.4H54.1c0,4.8,1.1,9.2,3.4,13.3c2.3,4.1,5.6,7.3,10,9.8c4.4,2.4,9.6,3.7,15.7,3.7
		s11.4-1.3,15.9-3.9c4.5-2.6,8-6,10.4-10.4c2.4-4.3,3.6-9,3.6-14.1c0-4.9-1.1-9.4-3.4-13.4c-2.2-4-5.4-7.1-9.6-9.3
		c-4.1-2.2-8.9-3.4-14.2-3.4c-3.9,0-7.5,1-10.6,2.9c-3.2,1.9-5.7,4.4-7.5,7.5l-1.3-0.6c0.4-0.9,0.8-1.9,1.3-2.9
		c0.4-1.1,0.9-2.2,1.3-3.4c0.5-1.3,0.9-2.6,1.3-4c0.4-1.4,0.7-2.8,1-4.2l1.9-10.8h113.5c15.7-0.2,20.1-0.1,24.1-0.1
		c7.5,0,8.4,3.9,8.4,5.6c0,1.7-0.5,3.5-1.4,5.3c-0.9,1.9-2.4,4.4-4.4,7.7l-1.3,2.2c-0.2,0.4-0.5,0.8-0.8,1.3
		c-0.3,0.5-0.5,0.9-0.8,1.3c-2.7,4.3-4.8,8-6.2,11c-1.4,3-2.1,5.8-2.1,8.4c0,3.2,1.1,5.8,3.2,7.9c2.2,2.1,5.3,3.1,9.5,3.1
		c2.8,0,5.5-0.5,8-1.4c2.6-1,4.9-2.1,7.1-3.5c2.2-1.4,4.9-3.3,8.2-5.7c0.8-0.6,1.6-1.1,2.4-1.7c0.8-0.6,1.6-1.2,2.4-1.7
		c4.6-3.3,9-5.8,13.3-7.7c3.6-1.5,7.5-2.3,11.7-2.6v0l23.8,0V28.5c0.2-6.6,1.8-11.5,4.8-14.7c3-3.2,7.2-4.7,12.9-4.7
		c3,0,5.6,0.6,7.8,1.7c2.2,1.1,4,2.7,5.3,4.7c1.3,2,1.9,4.3,1.9,6.9c0,2-0.5,4.1-1.4,6.2c-0.9,2.1-2.6,4.2-4.9,6.3
		c-2.4,2.1-5.6,4.1-9.7,5.9c-5.5,2.5-10.2,5.1-13.9,7.8c-3.7,2.7-6.8,6.5-9.3,11.5c-2.5,4.9-3.7,11.3-3.7,19h52.1v-9.6h-29.2
		C302.4,69.6,300.5,69.6,298.9,69.6"/>
	<path style="clip-path:url(#SVGID_00000134949552355078499900000004199219691132157060_);" d="M356,30.4c2.7,2.1,6.4,3.2,11.1,3.2
		c4.6,0,8.3-1.1,10.9-3.2c2.6-2.1,4-5.1,4-9c0-3.9-1.3-6.9-4-9c-2.6-2.1-6.3-3.1-10.9-3.1c-4.6,0-8.3,1-11.1,3.1
		c-2.7,2.1-4.1,5.1-4.1,9C351.9,25.2,353.2,28.2,356,30.4 M380.1,45.1c-3.2-2.5-7.6-3.7-13.1-3.7c-3.6,0-6.8,0.5-9.5,1.6
		c-2.7,1-4.9,2.7-6.4,5c-1.6,2.3-2.3,5.2-2.3,8.7c0,5.2,1.7,9,5,11.5c3.3,2.5,7.7,3.7,13.3,3.7c5.5,0,9.9-1.2,13.1-3.7
		c3.2-2.5,4.8-6.3,4.8-11.5C384.9,51.4,383.3,47.6,380.1,45.1 M392.1,70.4c-2.5,3.5-5.9,6.1-10.3,7.8c-4.3,1.7-9.3,2.6-14.8,2.6
		c-5.8,0-10.9-0.9-15.3-2.7c-4.4-1.8-7.8-4.4-10.3-8c-2.4-3.5-3.7-7.8-3.7-12.8c0-3.8,0.9-7.1,2.6-9.9c1.7-2.9,4-5.1,7-6.8
		c2.9-1.6,6.2-2.6,9.9-2.8v-1.4c-4.3-0.5-8.1-2.2-11.3-5.3c-3.2-3-4.8-6.7-4.8-11.1c0-3.9,1-7.3,2.9-10.3c2-3,4.9-5.2,8.8-6.9
		c3.9-1.6,8.7-2.5,14.2-2.5c5.4,0,10,0.8,13.8,2.5c3.8,1.6,6.7,4,8.7,6.9c2,3,2.9,6.4,2.9,10.2c0,4.4-1.6,8.1-4.7,11.1
		c-3.2,3-6.9,4.8-11.2,5.3v1.4c3.5,0.2,6.7,1.2,9.7,2.8c2.9,1.6,5.2,3.9,7,6.8c1.7,2.9,2.6,6.2,2.6,9.9
		C395.8,62.5,394.6,66.9,392.1,70.4"/>
</g>
</svg>
