<?xml version="1.0" encoding="utf-8"?>
<!-- Generator: Adobe Illustrator 26.5.3, SVG Export Plug-In . SVG Version: 6.00 Build 0)  -->
<svg version="1.1" id="Layer_1" xmlns="http://www.w3.org/2000/svg" xmlns:xlink="http://www.w3.org/1999/xlink" x="0px" y="0px"
	 viewBox="0 0 169.7 87.2" style="enable-background:new 0 0 169.7 87.2;" xml:space="preserve">
<style type="text/css">
	.st0{clip-path:url(#SVGID_00000076562654780051270670000011652633721757757623_);}
	.st1{clip-path:url(#SVGID_00000129912644566154635100000005621321934217934755_);}
</style>
<g>
	<defs>
		<rect id="SVGID_1_" width="169.7" height="87.2"/>
	</defs>
	<clipPath id="SVGID_00000004510167749529129090000008487029241292657334_">
		<use xlink:href="#SVGID_1_"  style="overflow:visible;"/>
	</clipPath>
	<path style="clip-path:url(#SVGID_00000004510167749529129090000008487029241292657334_);" d="M20.9,25c-2.1,1.9-4.8,2.9-8.3,2.9
		c-2.6,0-4.8-0.6-6.7-1.8c-1.9-1.2-3.4-2.8-4.4-5c-1-2.1-1.5-4.6-1.5-7.4c0-2.8,0.5-5.2,1.5-7.3c1-2.1,2.5-3.7,4.4-4.8
		C7.8,0.6,10,0,12.6,0c2,0,3.9,0.3,5.5,1s3,1.8,4.2,3.3c1.1,1.5,1.9,3.4,2.3,5.6h-5c-0.4-1.8-1.1-3.3-2.2-4.4
		c-1.1-1.1-2.5-1.7-4.4-1.7h-0.5c-1.7,0-3.1,0.5-4.2,1.4c-1.2,0.9-2,2.1-2.6,3.6c-0.6,1.5-0.8,3.1-0.8,5c0,2.8,0.6,5.2,1.9,7.2
		C8.1,23,10,24,12.5,24h0.5c2,0,3.5-0.6,4.5-1.8c1.1-1.2,1.7-2.7,2-4.7h4.9C24.2,20.6,23,23.1,20.9,25"/>
	<path style="clip-path:url(#SVGID_00000004510167749529129090000008487029241292657334_);" d="M46.3,11.2c-0.1-1.3-0.5-2.6-1.1-3.7
		c-0.6-1.1-1.4-2-2.5-2.6c-1-0.6-2.2-1-3.6-1h-0.4c-2,0-3.6,0.7-4.9,2.1c-1.3,1.4-2,3.1-2.2,5.2H46.3z M45.5,1.7
		c1.8,1.1,3.3,2.7,4.3,4.8c1,2.1,1.5,4.5,1.5,7.4v1.2H31.4v0.3c0.1,2.7,0.9,4.8,2.3,6.3c1.4,1.5,3.3,2.3,5.5,2.3h0.3
		c1.9,0,3.4-0.5,4.7-1.6c1.2-1.1,2.1-2.5,2.5-4.3h4.9c-0.6,3-1.9,5.4-4.1,7.2c-2.2,1.8-5,2.7-8.4,2.7c-2.6,0-4.8-0.6-6.7-1.7
		c-1.9-1.2-3.3-2.8-4.3-4.9c-1-2.1-1.5-4.5-1.5-7.4s0.5-5.3,1.5-7.4c1-2.1,2.5-3.7,4.4-4.9C34.4,0.6,36.6,0,39.1,0
		C41.5,0,43.7,0.6,45.5,1.7"/>
	<path style="clip-path:url(#SVGID_00000004510167749529129090000008487029241292657334_);" d="M65.1,5.4c-2,0-3.4,0.6-4.3,1.6
		c-0.9,1-1.4,2.8-1.4,5.3v15h-4.7V0.6h4.7v0.1c0,1-0.2,2-0.5,3c-0.3,1-0.8,2.2-1.4,3.7l-0.1,0.2l0.6,0.2C59,5.7,60,4.1,61,3
		c1-1,2.1-1.7,3.2-2c1.1-0.3,2.5-0.4,4.2-0.4h0.9l-0.1,5.2c-0.7-0.1-1.4-0.2-2.2-0.3C66.3,5.5,65.6,5.4,65.1,5.4"/>
	<path style="clip-path:url(#SVGID_00000004510167749529129090000008487029241292657334_);" d="M81.1,15.1L81.1,15.1l-0.2,0.1
		l-2.3,0.4c-1.7,0.3-3,0.8-3.9,1.5c-0.9,0.7-1.3,1.7-1.3,3c0,1.2,0.5,2.2,1.4,2.8c0.9,0.7,2.1,1,3.5,1c1.2,0,2.5-0.3,3.8-0.8
		c1.3-0.5,2.3-1.4,3.2-2.7c0.9-1.2,1.3-2.9,1.3-4.9v-3.7c-0.5,0.9-1.2,1.6-2.1,2.2C83.4,14.5,82.3,14.9,81.1,15.1 M91.1,8.8v12.4
		c0,0.9,0.1,1.5,0.2,1.7c0.2,0.3,0.6,0.4,1.4,0.4c0.4,0,0.8,0,1.1-0.1v4c-1.1,0.1-2.1,0.2-2.9,0.2c-1.4,0-2.3-0.2-2.9-0.6
		c-0.6-0.4-0.9-1.1-0.9-2c0-0.5,0.1-1,0.2-1.5c0.1-0.6,0.2-1.1,0.4-1.6c0-0.1,0.1-0.2,0.1-0.3c0-0.1,0-0.2,0.1-0.3l-0.6-0.2
		c-0.6,2.3-1.8,4-3.6,5.2c-1.8,1.2-3.9,1.8-6.4,1.8c-1.1,0-2.2-0.2-3.2-0.5c-1-0.3-1.9-0.8-2.6-1.4c-0.9-0.7-1.6-1.5-2.1-2.6
		c-0.5-1-0.7-2.2-0.7-3.4c0-2.7,1-4.8,3.1-6.2c0.7-0.5,1.6-0.9,2.6-1.2c1-0.3,2.2-0.6,3.7-0.8l2.8-0.5c1.3-0.2,2.4-0.5,3.3-0.8
		c0.8-0.3,1.4-0.7,1.8-1.1c0.4-0.5,0.6-1,0.6-1.7c0-1.2-0.5-2.1-1.5-2.8c-1-0.7-2.5-1-4.3-1c-1.2,0-2.2,0.2-3.1,0.6
		c-0.9,0.4-1.7,1-2.2,1.9c-0.6,0.8-0.9,1.8-1,2.9h-4.8c0.1-1.9,0.6-3.5,1.5-4.9C71.8,3,73.1,2,74.7,1.2C76.3,0.4,78.2,0,80.5,0
		c3.5,0,6.1,0.7,7.9,2.1C90.2,3.5,91.1,5.7,91.1,8.8"/>
	<path style="clip-path:url(#SVGID_00000004510167749529129090000008487029241292657334_);" d="M129.2,0.8c1.3,0.5,2.4,1.4,3.3,2.7
		c0.9,1.3,1.4,3.1,1.4,5.3v18.5h-4.7V9.8c0-2.1-0.5-3.6-1.6-4.5c-1-0.9-2.4-1.3-4.1-1.3h-0.4c-1.6,0-2.9,0.6-4,1.7
		c-1.1,1.1-1.6,2.8-1.6,5.2l0.1,16.4h-4.7V9.8c0-2.1-0.5-3.6-1.6-4.5c-1-0.9-2.4-1.3-4.1-1.3h-0.4c-1.6,0-2.9,0.6-4,1.7
		c-1.1,1.1-1.6,2.8-1.6,5.2v16.4h-4.7V0.6h4.8v0.1c0,0.5-0.1,1.1-0.3,1.8c-0.2,0.7-0.6,1.6-1,2.7c-0.4,0.9-0.7,1.6-0.9,2.3l0.6,0.2
		l0.1-0.3c1-2.9,2.2-4.9,3.7-6c1.5-1,3.2-1.5,5.2-1.5c1.3,0,2.4,0.2,3.4,0.6c1,0.4,1.8,1,2.4,1.8c0.6,0.8,0.9,1.6,0.9,2.6
		c0,0.4,0,0.8-0.1,1.2c-0.1,0.4-0.2,0.8-0.3,1.2l0.7,0.2c0.7-2.6,1.9-4.5,3.6-5.7c1.8-1.2,3.8-1.8,6-1.8
		C126.6,0,127.9,0.3,129.2,0.8"/>
	<path style="clip-path:url(#SVGID_00000004510167749529129090000008487029241292657334_);" d="M142.2,27.3h-4.7V8.3h4.7V27.3z
		 M137.7,5.3c-0.6-0.6-0.9-1.3-0.9-2.2c0-0.9,0.3-1.6,0.9-2.2c0.6-0.6,1.4-0.9,2.2-0.9c0.9,0,1.6,0.3,2.2,0.9
		c0.6,0.6,0.9,1.3,0.9,2.2c0,0.9-0.3,1.6-0.9,2.2c-0.6,0.6-1.3,0.9-2.2,0.9C139,6.2,138.3,5.9,137.7,5.3"/>
	<path style="clip-path:url(#SVGID_00000004510167749529129090000008487029241292657334_);" d="M166.1,25c-2.1,1.9-4.8,2.9-8.3,2.9
		c-2.6,0-4.8-0.6-6.7-1.8c-1.9-1.2-3.4-2.8-4.4-5c-1-2.1-1.5-4.6-1.5-7.4c0-2.8,0.5-5.2,1.5-7.3c1-2.1,2.5-3.7,4.4-4.8
		c1.9-1.2,4.1-1.7,6.7-1.7c2,0,3.9,0.3,5.5,1c1.7,0.7,3,1.8,4.2,3.3c1.1,1.5,1.9,3.4,2.3,5.6h-5c-0.4-1.8-1.1-3.3-2.2-4.4
		c-1.1-1.1-2.5-1.7-4.4-1.7h-0.5c-1.7,0-3.1,0.5-4.2,1.4c-1.2,0.9-2,2.1-2.6,3.6c-0.5,1.5-0.8,3.1-0.8,5c0,2.8,0.6,5.2,1.9,7.2
		c1.3,2,3.2,2.9,5.7,2.9h0.5c2,0,3.5-0.6,4.5-1.8c1.1-1.2,1.7-2.7,2-4.7h4.9C169.4,20.6,168.2,23.1,166.1,25"/>
	<path style="clip-path:url(#SVGID_00000004510167749529129090000008487029241292657334_);" d="M121.5,44.2
		c-1.3-1.2-3.1-2.1-5.4-2.6l-5.5-1.3c-1.2-0.3-2.1-0.7-2.6-1.3c-0.5-0.6-0.8-1.3-0.8-2.1c0-1.1,0.5-2,1.4-2.6c0.9-0.6,2.2-1,3.7-1
		c1,0,1.9,0.2,2.8,0.6c0.9,0.4,1.6,1,2.2,1.8c0.6,0.8,0.9,1.8,1,3.1h5c0-1.9-0.5-3.5-1.5-4.9c-0.9-1.4-2.2-2.5-3.8-3.3
		c-1.6-0.8-3.4-1.2-5.5-1.2c-2,0-3.7,0.3-5.2,0.9c-1.5,0.6-2.8,1.5-3.6,2.7c-0.9,1.2-1.3,2.5-1.3,4.1c0,1.8,0.5,3.4,1.5,4.6
		c1,1.2,2.6,2.1,4.8,2.6l5.2,1.2c1.6,0.4,2.8,0.9,3.5,1.5c0.7,0.6,1.1,1.4,1.1,2.5c0,0.8-0.3,1.5-0.8,2.1c-0.5,0.6-1.2,1-2.1,1.3
		c-0.9,0.3-1.9,0.5-3,0.5c-1.2,0-2.4-0.2-3.3-0.7c-1-0.5-1.8-1.2-2.3-2.1c-0.8-1.3-2-3.9-2.3-4.5c-0.8-1.5-2.1-2.7-3.7-3.5
		c-1.6-0.8-3.4-1.2-5.5-1.2c-2,0-3.7,0.3-5.2,0.9c-1.5,0.6-2.8,1.5-3.6,2.7c-0.9,1.2-1.3,2.5-1.3,4.1c0,1.8,0.5,3.4,1.5,4.6
		c1,1.2,2.6,2.1,4.8,2.6l5.2,1.2c1.6,0.4,2.8,0.9,3.5,1.5c0.7,0.6,1.1,1.4,1.1,2.5c0,0.8-0.3,1.5-0.8,2.1c-0.5,0.6-1.2,1-2.1,1.3
		c-0.9,0.3-1.9,0.5-3,0.5c-1.2,0-2.4-0.2-3.3-0.7c-1-0.5-1.8-1.2-2.3-2.1c-0.6-0.9-0.9-1.9-1-3.1h-4.9c0,1.7,0.5,3.3,1.3,4.8
		c0.8,1.5,2.1,2.7,3.8,3.7c1.7,0.9,3.8,1.4,6.4,1.4c2.2,0,4.1-0.3,5.7-1c1.6-0.7,2.9-1.6,3.7-2.8c0.9-1.2,1.3-2.7,1.3-4.4
		c0-2-0.6-3.6-1.9-4.8c-1.3-1.2-3.1-2.1-5.4-2.6l-5.5-1.3c-1.2-0.3-2.1-0.7-2.6-1.3c-0.5-0.6-0.8-1.3-0.8-2.1c0-1.1,0.5-2,1.4-2.6
		c0.9-0.6,2.2-1,3.7-1c1,0,1.9,0.2,2.8,0.6c0.9,0.4,1.6,1,2.2,1.8c1.1,1.6,2.1,6,6,8.2c1.7,1,3.8,1.4,6.4,1.4c2.2,0,4.1-0.3,5.7-1
		c1.6-0.7,2.9-1.6,3.7-2.8c0.9-1.2,1.3-2.7,1.3-4.4C123.4,47,122.8,45.4,121.5,44.2"/>
	<path style="clip-path:url(#SVGID_00000004510167749529129090000008487029241292657334_);" d="M126.3,70.5
		c-0.1-1.3-0.5-2.6-1.1-3.7c-0.6-1.1-1.4-2-2.4-2.6c-1-0.6-2.3-1-3.7-1h-0.5c-2,0-3.7,0.7-5,2.1c-1.3,1.4-2.1,3.1-2.3,5.1H126.3z
		 M106.4,73.3c0-2.8,0.5-5.2,1.6-7.3c1-2.1,2.5-3.7,4.4-4.9c1.9-1.2,4.1-1.7,6.6-1.7c2.5,0,4.7,0.5,6.6,1.6s3.3,2.7,4.2,4.7
		c1,2.1,1.5,4.6,1.5,7.5v1.2l-20,0.1c0.1,1.7,0.4,3.3,1.1,4.6c0.7,1.3,1.6,2.3,2.8,3.1c1.2,0.7,2.5,1.1,4,1.1h0.3
		c1.9,0,3.5-0.5,4.9-1.7c1.4-1.1,2.3-2.5,2.6-4.3h4.8c-0.4,1.9-1.1,3.6-2.2,5.1c-1.1,1.5-2.6,2.7-4.4,3.5c-1.8,0.9-3.9,1.3-6.1,1.3
		c-2.7,0-4.9-0.6-6.8-1.7c-1.9-1.2-3.3-2.8-4.3-4.9C106.9,78.5,106.4,76.1,106.4,73.3"/>
</g>
<rect x="133.9" y="49.8" width="4.7" height="37"/>
<g>
	<defs>
		<rect id="SVGID_00000009591067385634362440000013320296358703943593_" width="169.7" height="87.2"/>
	</defs>
	<clipPath id="SVGID_00000036235861226759067420000008006614190206475441_">
		<use xlink:href="#SVGID_00000009591067385634362440000013320296358703943593_"  style="overflow:visible;"/>
	</clipPath>
	<path style="clip-path:url(#SVGID_00000036235861226759067420000008006614190206475441_);" d="M146.6,80.5c0.6,0.9,1.3,1.6,2.3,2.1
		s2.1,0.7,3.3,0.7c1.1,0,2.1-0.2,3-0.5c0.9-0.3,1.6-0.7,2.1-1.3c0.5-0.6,0.8-1.3,0.8-2.1c0-1.1-0.4-1.9-1.1-2.5
		c-0.7-0.6-1.9-1.1-3.5-1.5l-5.2-1.2c-2.2-0.5-3.8-1.4-4.8-2.6c-1-1.2-1.5-2.7-1.5-4.6c0-1.6,0.4-2.9,1.3-4.1
		c0.9-1.2,2.1-2.1,3.6-2.7c1.5-0.6,3.3-0.9,5.2-0.9c2,0,3.8,0.4,5.5,1.2c1.6,0.8,2.9,1.9,3.8,3.3c0.9,1.4,1.4,3,1.5,4.9h-5
		c-0.1-1.2-0.4-2.3-1-3.1c-0.6-0.8-1.3-1.4-2.2-1.8c-0.9-0.4-1.8-0.6-2.8-0.6c-1.6,0-2.8,0.3-3.7,1c-0.9,0.6-1.4,1.5-1.4,2.6
		c0,0.8,0.3,1.5,0.8,2.1c0.5,0.6,1.4,1,2.6,1.3l5.5,1.3c2.3,0.5,4.1,1.4,5.4,2.6c1.3,1.2,1.9,2.8,1.9,4.8c0,1.7-0.4,3.2-1.3,4.4
		c-0.9,1.2-2.1,2.2-3.7,2.8c-1.6,0.7-3.5,1-5.7,1c-2.5,0-4.6-0.5-6.4-1.4c-1.7-0.9-3-2.2-3.8-3.7c-0.8-1.5-1.3-3.1-1.3-4.8h4.9
		C145.7,78.5,146.1,79.6,146.6,80.5"/>
	<path style="clip-path:url(#SVGID_00000036235861226759067420000008006614190206475441_);" d="M32.4,64.1c1.2-0.8,2.1-2,2.6-3.4
		c0.6-1.5,0.9-3.2,0.9-5.2c0-2-0.3-3.8-0.9-5.3c-0.6-1.5-1.5-2.6-2.6-3.5c-1.2-0.8-2.6-1.2-4.3-1.2h-0.4c-1.7,0-3.2,0.4-4.4,1.2
		c-1.2,0.8-2.1,2-2.7,3.5c-0.6,1.5-0.9,3.3-0.9,5.2c0,2,0.3,3.7,0.9,5.2c0.6,1.5,1.5,2.6,2.7,3.5c1.2,0.8,2.7,1.2,4.4,1.2h0.4
		C29.8,65.3,31.2,64.9,32.4,64.1 M24.9,68.5c-1.3-0.6-2.4-1.3-3.3-2.3c-0.9-1-1.6-2.1-2-3.3l-0.6,0.2c0.4,1.2,0.7,2.2,0.9,2.8
		c0.2,0.6,0.2,1.3,0.2,2v0.7h-4.7V31h4.7v9.8c0,1.2-0.1,2.1-0.2,2.7c-0.1,0.6-0.4,1.4-0.7,2.5c-0.1,0.4-0.3,0.8-0.5,1.4
		c-0.2,0.5-0.3,1.1-0.5,1.7l0.6,0.2l0.2-0.6c0.6-1.6,1.4-3,2.4-4c1-1.1,2.1-1.9,3.4-2.4c1.3-0.5,2.7-0.8,4.2-0.8
		c2.1,0,4,0.5,5.8,1.6c1.8,1,3.2,2.6,4.3,4.7c1.1,2.1,1.7,4.7,1.7,7.7c0,3-0.6,5.6-1.7,7.7c-1.1,2.1-2.5,3.7-4.3,4.7
		s-3.7,1.5-5.8,1.5C27.6,69.3,26.2,69,24.9,68.5"/>
	<path style="clip-path:url(#SVGID_00000036235861226759067420000008006614190206475441_);" d="M77.1,68.6v-0.4c0-0.5,0.1-1,0.2-1.4
		c0.2-0.5,0.4-1.1,0.8-1.9c0.7-1.6,1.1-2.7,1.3-3.3l-0.6-0.2l-0.3,0.9c-0.8,2.2-2,3.9-3.6,5.1c-1.6,1.2-3.5,1.8-5.6,1.8
		c-1.7,0-3.2-0.3-4.6-0.8c-1.4-0.5-2.5-1.4-3.4-2.8c-0.9-1.3-1.4-3.2-1.4-5.5V42h4.7v17.6c0,2,0.6,3.4,1.7,4.3
		c1.1,0.9,2.7,1.4,4.6,1.4h0.1c1.3,0,2.4-0.2,3.4-0.7s1.7-1.2,2.2-2.2c0.5-1,0.8-2.1,0.8-3.5V42h4.7v26.6H77.1z"/>
	<path style="clip-path:url(#SVGID_00000036235861226759067420000008006614190206475441_);" d="M53.2,46.8c-2,0-3.4,0.6-4.3,1.6
		c-0.9,1-1.4,2.8-1.4,5.3v15h-4.7V42.1h4.7v0.1c0,1-0.2,2-0.5,3c-0.3,1-0.8,2.2-1.4,3.7L45.6,49l0.6,0.2c0.9-2.2,1.9-3.8,2.9-4.8
		c1-1,2.1-1.7,3.2-2c1.1-0.3,2.5-0.4,4.2-0.4h0.9l-0.1,5.2c-0.7-0.1-1.4-0.2-2.2-0.3C54.4,46.9,53.8,46.8,53.2,46.8"/>
</g>
</svg>
