<?xml version="1.0" encoding="utf-8"?>
<!-- Generator: Adobe Illustrator 26.5.3, SVG Export Plug-In . SVG Version: 6.00 Build 0)  -->
<svg version="1.1" id="Layer_1" xmlns="http://www.w3.org/2000/svg" xmlns:xlink="http://www.w3.org/1999/xlink" x="0px" y="0px"
	 viewBox="0 0 390.6 201.1" style="enable-background:new 0 0 390.6 201.1;" xml:space="preserve">
<style type="text/css">
	.st0{clip-path:url(#SVGID_00000002374004421409509260000004682319345566341251_);}
	.st1{clip-path:url(#SVGID_00000155116851607042650490000009921503575782148030_);}
</style>
<g>
	<defs>
		<rect id="SVGID_1_" x="1.1" y="1" width="389.5" height="200.1"/>
	</defs>
	<clipPath id="SVGID_00000023990049124475090140000015255789983384539024_">
		<use xlink:href="#SVGID_1_"  style="overflow:visible;"/>
	</clipPath>
	<path style="clip-path:url(#SVGID_00000023990049124475090140000015255789983384539024_);" d="M49.1,58.4c-4.8,4.4-11.1,6.7-19,6.7
		c-6,0-11.1-1.3-15.5-4c-4.4-2.7-7.7-6.5-10-11.4c-2.3-4.9-3.5-10.5-3.5-16.9c0-6.4,1.2-11.9,3.5-16.7c2.3-4.8,5.7-8.5,10-11.1
		c4.4-2.6,9.5-4,15.5-4c4.6,0,8.9,0.8,12.7,2.4c3.8,1.6,7,4.1,9.5,7.5c2.6,3.4,4.3,7.7,5.2,13H46.1c-0.9-4.2-2.6-7.5-5-10
		c-2.4-2.5-5.8-3.8-10-3.8h-1.2c-3.8,0-7.1,1-9.7,3.1c-2.6,2.1-4.6,4.8-5.9,8.2c-1.3,3.4-1.9,7.2-1.9,11.4c0,6.5,1.5,12,4.5,16.5
		c3,4.5,7.3,6.7,13,6.7h1.2c4.5,0,7.9-1.4,10.4-4.1c2.4-2.7,4-6.3,4.6-10.7h11.2C56.6,48.2,53.9,54,49.1,58.4"/>
	<path style="clip-path:url(#SVGID_00000023990049124475090140000015255789983384539024_);" d="M107.4,26.7
		c-0.3-3.1-1.2-5.9-2.6-8.4c-1.4-2.5-3.3-4.5-5.7-6C96.7,10.8,94,10,90.9,10h-1c-4.6,0-8.3,1.6-11.2,4.8c-2.9,3.2-4.6,7.1-5.1,11.9
		H107.4z M105.5,4.8c4.2,2.6,7.5,6.3,9.8,11.1c2.3,4.8,3.4,10.4,3.4,16.9v2.8H73.2v0.6c0.2,6.1,2,10.9,5.3,14.5
		C81.7,54.2,85.9,56,91,56h0.7c4.3,0,7.9-1.2,10.7-3.7c2.8-2.5,4.7-5.8,5.8-10h11.2c-1.3,6.8-4.5,12.4-9.5,16.6
		c-5,4.2-11.4,6.3-19.3,6.2c-6,0-11.1-1.3-15.3-4c-4.3-2.6-7.6-6.4-9.8-11.2c-2.3-4.8-3.4-10.4-3.4-16.9c0-6.4,1.2-12.1,3.5-16.9
		c2.4-4.8,5.7-8.6,10-11.2C80,2.3,85,1,90.8,1C96.4,1,101.3,2.3,105.5,4.8"/>
	<path style="clip-path:url(#SVGID_00000023990049124475090140000015255789983384539024_);" d="M150.4,13.5
		c-4.5,0.1-7.8,1.3-9.9,3.7c-2.1,2.4-3.2,6.4-3.2,12.1v34.4h-10.8V2.5h10.8v0.2c0,2.3-0.3,4.6-1,6.9c-0.7,2.3-1.8,5.2-3.2,8.5
		l-0.1,0.4l1.5,0.5c2.1-5,4.3-8.7,6.7-11.1c2.3-2.4,4.7-3.9,7.3-4.5c2.5-0.6,5.7-0.9,9.5-0.9h2.1l-0.1,12c-1.6-0.3-3.3-0.6-5-0.7
		C153.2,13.6,151.7,13.5,150.4,13.5"/>
	<path style="clip-path:url(#SVGID_00000023990049124475090140000015255789983384539024_);" d="M187.2,35.7l-0.1,0.1h-0.2l-5.4,1
		c-4,0.7-7,1.9-8.9,3.4c-2,1.5-2.9,3.8-2.9,6.9c0,2.8,1,4.9,3.1,6.5c2.1,1.5,4.7,2.3,8,2.3c2.9,0,5.7-0.6,8.6-1.8
		c2.9-1.2,5.3-3.3,7.3-6.1c2-2.8,2.9-6.6,2.9-11.2v-8.6c-1.1,2.1-2.7,3.8-4.8,4.9C192.6,34.3,190.1,35.2,187.2,35.7 M210.2,21.2
		v28.4c0,2,0.2,3.4,0.6,4c0.4,0.6,1.4,0.9,3.1,0.9c0.9,0,1.8-0.1,2.6-0.2v9.2c-2.5,0.3-4.8,0.5-6.7,0.5c-3.1,0-5.3-0.5-6.7-1.5
		c-1.3-1-2-2.5-2-4.5c0-1.1,0.1-2.2,0.4-3.5c0.2-1.3,0.6-2.5,1-3.7c0.1-0.2,0.1-0.5,0.2-0.7c0-0.2,0.1-0.4,0.2-0.6l-1.5-0.4
		c-1.4,5.2-4.1,9.2-8.2,12c-4.1,2.8-9,4.2-14.8,4.2c-2.6,0-5.1-0.4-7.4-1.1c-2.3-0.7-4.3-1.8-6.1-3.2c-2-1.5-3.6-3.5-4.8-5.9
		c-1.1-2.4-1.7-5-1.7-7.8c0-6.3,2.4-11,7.1-14.3c1.7-1.1,3.7-2.1,5.9-2.7c2.2-0.7,5.1-1.3,8.5-1.9l6.5-1.1c3.1-0.5,5.6-1.1,7.5-1.8
		c1.9-0.7,3.3-1.6,4.2-2.6c0.9-1.1,1.3-2.4,1.3-3.9c0-2.7-1.2-4.8-3.5-6.4c-2.4-1.5-5.6-2.3-9.8-2.3c-2.7,0-5.1,0.5-7.2,1.5
		c-2.1,1-3.8,2.4-5.1,4.3c-1.3,1.9-2,4.1-2.3,6.7h-11c0.2-4.3,1.3-8.1,3.4-11.3c2.1-3.2,5-5.7,8.7-7.5c3.7-1.8,8.1-2.7,13.2-2.7
		c8,0,14.1,1.6,18.2,4.8C208.1,8.9,210.2,14.1,210.2,21.2"/>
	<path style="clip-path:url(#SVGID_00000023990049124475090140000015255789983384539024_);" d="M297.5,2.8c3,1.2,5.5,3.3,7.6,6.3
		c2.1,3,3.1,7.1,3.1,12.1v42.4h-10.8V23.5c0-4.9-1.2-8.3-3.6-10.3c-2.4-2-5.5-2.9-9.4-2.9h-1c-3.7,0-6.7,1.3-9.2,3.8
		c-2.5,2.5-3.7,6.5-3.7,11.9l0.1,37.7H260V23.5c0-4.9-1.2-8.3-3.6-10.3c-2.4-2-5.5-2.9-9.4-2.9h-1c-3.7,0-6.7,1.3-9.2,3.8
		c-2.5,2.5-3.7,6.5-3.7,11.9v37.7h-10.8V2.5h11.1v0.2c0,1.1-0.3,2.5-0.8,4.1c-0.5,1.6-1.3,3.7-2.4,6.3c-0.8,2-1.5,3.8-2.1,5.4
		l1.5,0.5l0.2-0.7c2.3-6.8,5.1-11.3,8.4-13.7c3.3-2.4,7.3-3.5,12-3.5c2.9,0,5.6,0.5,7.9,1.4c2.3,0.9,4.2,2.3,5.5,4
		c1.3,1.8,2,3.8,2,6.1c0,0.9-0.1,1.8-0.2,2.8c-0.1,0.9-0.3,1.9-0.7,2.8l1.6,0.4c1.5-5.9,4.3-10.3,8.4-13.1c4-2.8,8.7-4.2,13.9-4.2
		C291.6,1,294.6,1.6,297.5,2.8"/>
	<path style="clip-path:url(#SVGID_00000023990049124475090140000015255789983384539024_);" d="M327.4,63.6h-10.8V20.2h10.8V63.6z
		 M317,13.2c-1.4-1.4-2.1-3.1-2.1-5.1c0-2,0.7-3.6,2.1-5c1.4-1.4,3.1-2.1,5.1-2.1c2,0,3.6,0.7,5,2.1c1.3,1.4,2,3.1,2,5
		c0,2-0.7,3.8-2,5.1c-1.3,1.4-3,2.1-5,2.1C320.1,15.3,318.4,14.6,317,13.2"/>
	<path style="clip-path:url(#SVGID_00000023990049124475090140000015255789983384539024_);" d="M382.2,58.4
		c-4.8,4.4-11.1,6.7-19,6.7c-6,0-11.1-1.3-15.5-4c-4.4-2.7-7.7-6.5-10-11.4c-2.3-4.9-3.5-10.5-3.5-16.9c0-6.4,1.2-11.9,3.5-16.7
		c2.3-4.8,5.7-8.5,10-11.1c4.4-2.6,9.5-4,15.5-4c4.6,0,8.9,0.8,12.7,2.4c3.8,1.6,7,4.1,9.5,7.5c2.6,3.4,4.3,7.7,5.2,13h-11.4
		c-0.9-4.2-2.6-7.5-5-10c-2.4-2.5-5.8-3.8-10-3.8H363c-3.8,0-7.1,1-9.7,3.1c-2.6,2.1-4.6,4.8-5.9,8.2c-1.3,3.4-1.9,7.2-1.9,11.4
		c0,6.5,1.5,12,4.5,16.5c3,4.5,7.3,6.7,13,6.7h1.2c4.5,0,7.9-1.4,10.4-4.1c2.4-2.7,4-6.3,4.6-10.7h11.2
		C389.8,48.2,387,54,382.2,58.4"/>
	<path style="clip-path:url(#SVGID_00000023990049124475090140000015255789983384539024_);" d="M279.9,102.4c-3-2.8-7.1-4.8-12.4-6
		l-12.6-2.9c-2.8-0.7-4.7-1.7-5.9-3.1c-1.2-1.4-1.8-3-1.8-4.9c0-2.5,1.1-4.5,3.2-6c2.1-1.5,5-2.2,8.6-2.2c2.3,0,4.4,0.4,6.4,1.3
		c2,0.9,3.7,2.2,5.1,4.1c1.4,1.9,2.2,4.2,2.3,7.1h11.4c-0.1-4.3-1.2-8.1-3.4-11.3c-2.2-3.2-5.1-5.7-8.8-7.5
		c-3.7-1.8-7.9-2.7-12.5-2.7c-4.5,0-8.5,0.7-12,2.1c-3.5,1.4-6.3,3.4-8.3,6.1c-2,2.7-3,5.8-3,9.4c0,4.2,1.2,7.7,3.5,10.5
		c2.3,2.8,6,4.8,11.1,6l12,2.8c3.7,0.9,6.4,2,8.1,3.4c1.7,1.4,2.6,3.3,2.6,5.7c0,1.9-0.6,3.5-1.8,4.8c-1.2,1.3-2.8,2.4-4.8,3.1
		c-2,0.7-4.3,1-6.8,1c-2.9,0-5.4-0.6-7.6-1.7c-2.2-1.1-4.1-2.7-5.3-4.8c-1.8-2.9-4.7-9-5.3-10.2c-1.9-3.4-4.8-6.2-8.5-8
		c-3.7-1.8-7.9-2.7-12.5-2.7c-4.5,0-8.5,0.7-12,2.1c-3.5,1.4-6.3,3.4-8.3,6.1c-2,2.7-3,5.8-3,9.4c0,4.2,1.2,7.7,3.5,10.5
		c2.3,2.8,6,4.8,11.1,6l12,2.8c3.7,0.9,6.4,2,8.1,3.4c1.7,1.4,2.6,3.3,2.6,5.7c0,1.9-0.6,3.5-1.8,4.8c-1.2,1.3-2.8,2.4-4.8,3.1
		c-2,0.7-4.3,1-6.8,1c-2.9,0-5.4-0.6-7.6-1.7c-2.2-1.1-4-2.7-5.3-4.8c-1.3-2-2-4.4-2.2-7.2h-11.2c0.1,3.9,1.1,7.6,3,11.1
		c1.9,3.5,4.8,6.3,8.8,8.4c4,2.2,8.8,3.2,14.6,3.2c5.1,0,9.4-0.8,13.1-2.3c3.7-1.5,6.5-3.7,8.5-6.5c2-2.8,2.9-6.2,2.9-10.1
		c0-4.6-1.5-8.3-4.5-11.1c-3-2.8-7.1-4.8-12.4-6l-12.6-2.9c-2.8-0.7-4.7-1.7-5.9-3.1c-1.2-1.4-1.8-3-1.8-4.9c0-2.5,1.1-4.5,3.2-6
		c2.1-1.5,5-2.2,8.6-2.2c2.3,0,4.4,0.4,6.4,1.3c2,0.9,3.7,2.2,5.1,4.1c2.6,3.7,4.8,13.7,13.7,18.7c3.9,2.2,8.8,3.2,14.6,3.2
		c5.1,0,9.4-0.8,13.1-2.3c3.7-1.5,6.5-3.7,8.5-6.5c2-2.8,2.9-6.2,2.9-10.1C284.3,108.9,282.8,105.2,279.9,102.4"/>
	<path style="clip-path:url(#SVGID_00000023990049124475090140000015255789983384539024_);" d="M291,162.7c-0.3-3.1-1.2-5.9-2.5-8.4
		c-1.3-2.5-3.2-4.5-5.6-6c-2.4-1.5-5.2-2.2-8.6-2.2h-1.1c-4.6,0-8.5,1.6-11.5,4.8c-3,3.2-4.8,7.2-5.3,11.8H291z M245.4,169.1
		c0-6.4,1.2-12,3.6-16.8c2.4-4.8,5.8-8.6,10.1-11.2c4.3-2.6,9.3-4,15-4c5.8,0,10.8,1.2,15,3.7c4.2,2.5,7.5,6.1,9.7,10.9
		c2.2,4.8,3.4,10.5,3.4,17.2v2.8l-46,0.2c0.2,4,1,7.5,2.6,10.5c1.5,3,3.7,5.4,6.4,7.1c2.7,1.7,5.7,2.6,9.2,2.6h0.7
		c4.3,0,8.1-1.3,11.3-3.8c3.2-2.5,5.2-5.8,6.1-9.9h11.1c-0.8,4.4-2.5,8.3-5.1,11.7c-2.6,3.4-5.9,6.1-10.1,8.1
		c-4.2,2-8.8,2.9-14.1,2.9c-6.1,0-11.4-1.3-15.7-4c-4.4-2.6-7.7-6.4-9.9-11.2C246.5,181.2,245.4,175.5,245.4,169.1"/>
</g>
<rect x="308.4" y="115.3" width="10.8" height="85"/>
<g>
	<defs>
		<rect id="SVGID_00000000207935482898776230000006079611890969416866_" x="1.1" y="1" width="389.5" height="200.1"/>
	</defs>
	<clipPath id="SVGID_00000166672426739983096970000002520156679345018274_">
		<use xlink:href="#SVGID_00000000207935482898776230000006079611890969416866_"  style="overflow:visible;"/>
	</clipPath>
	<path style="clip-path:url(#SVGID_00000166672426739983096970000002520156679345018274_);" d="M337.6,185.6c1.3,2,3.1,3.6,5.3,4.8
		c2.2,1.1,4.8,1.7,7.6,1.7c2.5,0,4.8-0.3,6.8-1c2-0.7,3.6-1.7,4.8-3.1c1.2-1.3,1.8-3,1.8-4.8c0-2.4-0.9-4.4-2.6-5.7
		c-1.7-1.4-4.4-2.5-8.1-3.4l-12-2.8c-5.1-1.2-8.7-3.2-11.1-6c-2.3-2.8-3.5-6.3-3.5-10.5c0-3.6,1-6.7,3-9.4c2-2.7,4.8-4.7,8.3-6.1
		c3.5-1.4,7.6-2.1,12-2.1c4.6,0,8.8,0.9,12.5,2.7c3.7,1.8,6.6,4.3,8.8,7.5c2.2,3.2,3.3,7,3.4,11.3h-11.4c-0.2-2.9-0.9-5.2-2.3-7.1
		c-1.4-1.9-3.1-3.2-5.1-4.1c-2-0.9-4.1-1.3-6.4-1.3c-3.6,0-6.4,0.7-8.6,2.2c-2.1,1.5-3.2,3.5-3.2,6c0,1.9,0.6,3.5,1.8,4.9
		c1.2,1.4,3.2,2.4,5.9,3.1l12.6,2.9c5.3,1.2,9.4,3.2,12.4,6.1c3,2.8,4.5,6.5,4.5,11.1c0,3.9-1,7.3-2.9,10.1c-2,2.8-4.8,5-8.5,6.5
		c-3.7,1.5-8.1,2.3-13.1,2.3c-5.8,0-10.7-1.1-14.6-3.2c-4-2.2-6.9-5-8.8-8.4c-1.9-3.5-2.9-7.2-3-11.1h11.2
		C335.6,181.2,336.3,183.6,337.6,185.6"/>
	<path style="clip-path:url(#SVGID_00000166672426739983096970000002520156679345018274_);" d="M75.5,148.1c2.7-1.9,4.7-4.5,6.1-7.9
		c1.3-3.4,2-7.4,2-12s-0.7-8.7-2-12.1c-1.3-3.4-3.4-6.1-6.1-7.9c-2.7-1.9-6-2.8-9.9-2.8h-1c-3.9,0-7.3,0.9-10,2.8
		c-2.8,1.9-4.9,4.5-6.2,8c-1.4,3.5-2.1,7.5-2.1,12s0.7,8.6,2.1,12c1.4,3.4,3.5,6.1,6.2,7.9c2.8,1.9,6.1,2.8,10,2.8h1
		C69.5,150.9,72.8,150,75.5,148.1 M58.2,158.2c-3-1.3-5.5-3-7.6-5.2c-2.1-2.2-3.6-4.7-4.6-7.6l-1.5,0.5c1,2.9,1.6,5,2,6.5
		c0.4,1.5,0.5,3,0.5,4.5v1.7H36.4V72.1h10.8v22.4c0,2.7-0.1,4.7-0.4,6.1c-0.3,1.4-0.8,3.3-1.7,5.7c-0.3,0.9-0.7,1.9-1,3.1
		c-0.4,1.2-0.8,2.5-1.2,4l1.5,0.4l0.5-1.3c1.4-3.7,3.2-6.8,5.4-9.3c2.2-2.4,4.8-4.3,7.8-5.4c3-1.2,6.2-1.8,9.7-1.8
		c4.8,0,9.2,1.2,13.3,3.6c4.1,2.4,7.4,6,9.9,10.9c2.5,4.8,3.8,10.7,3.8,17.7s-1.3,12.8-3.8,17.6c-2.5,4.8-5.8,8.4-9.9,10.8
		c-4.1,2.4-8.5,3.5-13.3,3.5C64.4,160.1,61.2,159.4,58.2,158.2"/>
	<path style="clip-path:url(#SVGID_00000166672426739983096970000002520156679345018274_);" d="M178,158.5v-0.9
		c0-1.1,0.2-2.2,0.6-3.3c0.4-1.1,1-2.5,1.8-4.3c1.5-3.7,2.5-6.2,2.9-7.6l-1.5-0.5l-0.7,2c-1.9,5.1-4.6,9-8.3,11.8
		c-3.7,2.8-8,4.2-13,4.2c-3.8,0-7.3-0.6-10.5-1.8c-3.2-1.2-5.8-3.3-7.9-6.4c-2.1-3.1-3.1-7.2-3.1-12.5V97.4h10.8v40.3
		c0,4.5,1.3,7.8,3.9,9.8c2.6,2.1,6.1,3.1,10.6,3.1h0.2c2.9,0,5.5-0.6,7.7-1.7c2.2-1.1,3.9-2.8,5.1-5.1c1.2-2.2,1.8-4.9,1.8-8V97.4
		h10.8v61.1H178z"/>
	<path style="clip-path:url(#SVGID_00000166672426739983096970000002520156679345018274_);" d="M123.3,108.5
		c-4.5,0.1-7.8,1.3-9.9,3.7c-2.1,2.4-3.2,6.4-3.2,12.1v34.4H99.4V97.5h10.8v0.2c0,2.3-0.3,4.6-1,6.9c-0.7,2.3-1.8,5.2-3.2,8.5
		l-0.1,0.4l1.5,0.5c2.1-5,4.3-8.7,6.7-11.1c2.3-2.4,4.7-3.9,7.3-4.5c2.5-0.6,5.7-0.9,9.5-0.9h2.1l-0.1,12c-1.6-0.3-3.3-0.6-5-0.7
		C126.1,108.6,124.6,108.5,123.3,108.5"/>
</g>
</svg>
