<?xml version="1.0" encoding="utf-8"?>
<!-- Generator: Adobe Illustrator 26.5.3, SVG Export Plug-In . SVG Version: 6.00 Build 0)  -->
<svg version="1.1" id="Layer_1" xmlns="http://www.w3.org/2000/svg" xmlns:xlink="http://www.w3.org/1999/xlink" x="0px" y="0px"
	 viewBox="0 0 49.6 183.1" style="enable-background:new 0 0 49.6 183.1;" xml:space="preserve">
<style type="text/css">
	.st0{clip-path:url(#SVGID_00000091703722580921809840000005002243729222409643_);}
</style>
<g>
	<defs>
		<rect id="SVGID_1_" y="4.2" width="49.6" height="178.9"/>
	</defs>
	<clipPath id="SVGID_00000044859925936217396310000010779223987985459608_">
		<use xlink:href="#SVGID_1_"  style="overflow:visible;"/>
	</clipPath>
	<path style="clip-path:url(#SVGID_00000044859925936217396310000010779223987985459608_);" d="M37,98.6c0-0.5,0.1-0.9,0.1-1.4
		l-2.9,0v0.5c0,0.9,0.1,1.7,0.2,2.4c0.1,0.7,0.4,1.4,0.9,2c0.5,0.7,1.2,1.3,2.1,1.8c0.1,0.1,0.3,0.2,0.4,0.2s0.3,0.1,0.5,0.2
		l-0.1,0.4l-0.5-0.2c-0.8-0.3-1.4-0.5-1.9-0.7c-0.5-0.1-1-0.2-1.5-0.2h-0.1v2.6h15v-2.6h-8.4c-1.3,0-2.3-0.4-2.9-1.1
		c-0.6-0.7-0.9-1.7-0.9-2.8C36.9,99.5,36.9,99.1,37,98.6 M34.2,112.3h15v-2.6h-15V112.3z M31.9,111c0-0.5-0.2-0.9-0.5-1.2
		c-0.3-0.3-0.8-0.5-1.3-0.5c-0.5,0-0.9,0.2-1.2,0.5c-0.3,0.3-0.5,0.7-0.5,1.2c0,0.5,0.2,0.9,0.5,1.3c0.3,0.3,0.8,0.5,1.2,0.5
		c0.5,0,0.9-0.2,1.3-0.5C31.7,111.9,31.9,111.5,31.9,111 M41.7,120.2c-0.3-0.5-0.7-0.9-1.2-1.2h2.1c1.1,0,2.1,0.2,2.8,0.7
		c0.7,0.5,1.2,1.1,1.5,1.8c0.3,0.7,0.4,1.4,0.4,2.1c0,0.9-0.2,1.6-0.7,2.1c-0.4,0.4-0.9,0.7-1.5,0.7c-0.7,0-1.2-0.2-1.6-0.7
		c-0.2-0.2-0.4-0.5-0.5-0.9c-0.1-0.4-0.2-0.8-0.3-1.3l-0.2-1.3C42.2,121.3,42,120.7,41.7,120.2 M35,117.9c-0.8,1-1.2,2.5-1.2,4.5
		c0,1.2,0.2,2.3,0.7,3.2c0.4,0.9,1.1,1.6,1.8,2.1c0.8,0.5,1.7,0.8,2.8,0.8v-2.7c-0.6-0.1-1.2-0.2-1.7-0.6c-0.5-0.3-0.8-0.7-1-1.2
		c-0.2-0.5-0.4-1.1-0.4-1.8c0-1,0.2-1.8,0.6-2.4c0.4-0.6,0.9-0.9,1.6-0.9c0.5,0,0.8,0.1,1.1,0.4c0.3,0.3,0.5,0.6,0.6,1.1
		c0.1,0.5,0.3,1.1,0.4,1.9l0.2,1.4c0.2,1.5,0.6,2.7,1.1,3.5c0.8,1.2,2,1.7,3.5,1.7c0.7,0,1.3-0.1,1.9-0.4c0.6-0.3,1.1-0.7,1.4-1.2
		c0.7-0.9,1-2,1-3.3c0-1.4-0.3-2.6-1-3.6c-0.7-1-1.7-1.7-2.9-2l0.1-0.4c0.1,0,0.1,0,0.2,0c0,0,0.1,0,0.2,0c0.3,0.1,0.6,0.2,0.9,0.2
		c0.3,0.1,0.6,0.1,0.9,0.1c0.5,0,0.9-0.2,1.1-0.5s0.4-0.9,0.4-1.6c0-0.5,0-1-0.1-1.6h-2.2c0,0.2,0.1,0.4,0.1,0.6
		c0,0.4-0.1,0.7-0.2,0.8c-0.2,0.1-0.5,0.1-1,0.1h-7C37,116.3,35.8,116.9,35,117.9 M29.1,135.6c0.7,0.8,1.8,1.2,3.2,1.2h1.9v2.6h2.2
		v-2.6h12.8v-2.6H36.4v-4.1h-2.2v4.1h-1.8c-0.7,0-1.2-0.2-1.6-0.6c-0.3-0.4-0.5-0.9-0.5-1.6c0-0.5,0.1-1.2,0.3-1.9h-2.4
		c0,0.2-0.1,0.5-0.2,0.9c-0.1,0.4-0.1,0.8-0.1,1.2C28,133.7,28.4,134.8,29.1,135.6 M46.7,147.7L46.7,147.7c0.1,0.2,0.1,0.6,0.2,1
		c0.1,0.4,0.1,0.8,0.1,1.2c0,0.6-0.2,1-0.5,1.2s-0.8,0.3-1.4,0.3h-8.6v-3.6h-2.2v3.6H30v2.6h4.2v2.5h2.2v-2.5h8.3
		c1.6,0,2.7-0.3,3.5-0.8s1.2-1.5,1.2-2.9c0-0.6-0.1-1.4-0.3-2.6c0,0,0,0,0,0s0,0,0,0H46.7z M37,158.4c0-0.5,0.1-0.9,0.1-1.4l-2.9,0
		v0.5c0,0.9,0.1,1.7,0.2,2.4c0.1,0.7,0.4,1.4,0.9,2c0.5,0.7,1.2,1.3,2.1,1.8c0.1,0.1,0.3,0.2,0.4,0.2c0.1,0.1,0.3,0.1,0.5,0.2
		l-0.1,0.4l-0.5-0.2c-0.8-0.3-1.4-0.5-1.9-0.7c-0.5-0.1-1-0.2-1.5-0.2h-0.1v2.6h15v-2.6h-8.4c-1.3,0-2.3-0.4-2.9-1.1
		c-0.6-0.7-0.9-1.7-0.9-2.8C36.9,159.3,36.9,158.9,37,158.4 M41.7,173.8c-0.3-0.5-0.7-0.9-1.2-1.2h2.1c1.1,0,2.1,0.2,2.8,0.7
		c0.7,0.5,1.2,1.1,1.5,1.8c0.3,0.7,0.4,1.4,0.4,2.1c0,0.9-0.2,1.6-0.7,2.1c-0.4,0.4-0.9,0.7-1.5,0.7c-0.7,0-1.2-0.2-1.6-0.7
		c-0.2-0.2-0.4-0.5-0.5-0.9c-0.1-0.4-0.2-0.8-0.3-1.3l-0.2-1.3C42.2,174.9,42,174.3,41.7,173.8 M35,171.5c-0.8,1-1.2,2.5-1.2,4.5
		c0,1.2,0.2,2.3,0.7,3.2c0.4,0.9,1.1,1.6,1.8,2.1c0.8,0.5,1.7,0.8,2.8,0.8v-2.7c-0.6-0.1-1.2-0.2-1.7-0.6c-0.5-0.3-0.8-0.7-1-1.2
		c-0.2-0.5-0.4-1.1-0.4-1.8c0-1,0.2-1.8,0.6-2.4c0.4-0.6,0.9-0.9,1.6-0.9c0.5,0,0.8,0.1,1.1,0.4c0.3,0.2,0.5,0.6,0.6,1.1
		c0.1,0.5,0.3,1.1,0.4,1.9l0.2,1.4c0.2,1.5,0.6,2.7,1.1,3.5c0.8,1.2,2,1.7,3.5,1.7c0.7,0,1.3-0.1,1.9-0.4c0.6-0.3,1.1-0.7,1.4-1.2
		c0.7-0.9,1-2,1-3.3c0-1.4-0.3-2.6-1-3.6c-0.7-1-1.7-1.7-2.9-2l0.1-0.4c0.1,0,0.1,0,0.2,0c0,0,0.1,0,0.2,0c0.3,0.1,0.6,0.2,0.9,0.2
		c0.3,0.1,0.6,0.1,0.9,0.1c0.5,0,0.9-0.2,1.1-0.5c0.2-0.3,0.4-0.9,0.4-1.6c0-0.5,0-1-0.1-1.6h-2.2c0,0.2,0.1,0.4,0.1,0.6
		c0,0.4-0.1,0.7-0.2,0.8c-0.2,0.1-0.5,0.1-1,0.1h-7C37,170,35.8,170.5,35,171.5"/>
	<path style="clip-path:url(#SVGID_00000044859925936217396310000010779223987985459608_);" d="M4.2,6.8h8.4c1.1,0,1.9,0.4,2.6,1.1
		c0.7,0.7,1,1.6,1,2.7v0.1c0,1.1-0.3,1.9-0.8,2.5C14.9,13.7,14.1,14,13,14H4.2v2.6h9.1c1.3,0,2.3-0.2,3.1-0.7
		c0.8-0.5,1.3-1.1,1.6-1.9c0.3-0.8,0.5-1.6,0.5-2.5c0-1.2-0.4-2.4-1.1-3.4c-0.8-1-1.8-1.7-3-2.1l0.1-0.4c0.2,0,0.4,0.1,0.6,0.2
		c0.2,0.1,0.4,0.2,0.6,0.2c0.2,0.1,0.5,0.2,0.8,0.3c0.3,0.1,0.6,0.2,0.9,0.3c0,0,0.1,0,0.1,0c0,0,0.1,0,0.2,0
		c0.3,0.1,0.8,0.1,1.3,0.1c0.1,0,0.3,0,0.4,0c0.1,0,0.3,0,0.4,0C21,7,21.8,7.5,22.4,8.2c0.5,0.7,0.8,1.6,0.8,2.7v0.2
		c0,1.1-0.3,2-0.8,2.6c-0.5,0.6-1.3,1-2.3,1.1l-0.1,0v2.7c1.7-0.2,3-0.8,4-1.8c0.9-1,1.4-2.6,1.4-4.7c0-2.1-0.6-3.8-1.7-5.1
		c-1.1-1.2-2.8-1.8-5-1.8H4.2V6.8z M7,19.4C7,18.9,7.1,18.4,7.1,18l-2.9,0v0.5c0,0.9,0.1,1.7,0.2,2.4c0.1,0.7,0.4,1.4,0.9,2
		c0.5,0.7,1.2,1.3,2.1,1.8c0.1,0.1,0.3,0.2,0.4,0.2c0.1,0.1,0.3,0.1,0.4,0.2l-0.1,0.4l-0.5-0.2c-0.8-0.3-1.4-0.5-1.9-0.7
		c-0.5-0.1-1-0.2-1.5-0.2H4.2V27h15v-2.6h-8.4c-1.3,0-2.3-0.4-2.9-1.1s-0.9-1.7-0.9-2.8C6.9,20.2,6.9,19.8,7,19.4 M11.7,34.7
		c-0.3-0.5-0.7-0.9-1.2-1.2h2.1c1.1,0,2.1,0.2,2.8,0.7s1.2,1.1,1.5,1.8c0.3,0.7,0.4,1.4,0.4,2.1c0,0.9-0.2,1.6-0.7,2.1
		c-0.4,0.4-0.9,0.7-1.5,0.7c-0.7,0-1.2-0.2-1.6-0.7c-0.2-0.2-0.4-0.5-0.5-0.9c-0.1-0.4-0.2-0.8-0.3-1.3l-0.2-1.3
		C12.2,35.9,12,35.2,11.7,34.7 M5,32.4c-0.8,1-1.2,2.5-1.2,4.5c0,1.2,0.2,2.3,0.7,3.2s1.1,1.6,1.8,2.1c0.8,0.5,1.7,0.8,2.8,0.8v-2.7
		c-0.6-0.1-1.2-0.2-1.6-0.6c-0.5-0.3-0.8-0.7-1.1-1.2c-0.2-0.5-0.4-1.1-0.4-1.8c0-1,0.2-1.8,0.6-2.4c0.4-0.6,0.9-0.9,1.6-0.9
		c0.5,0,0.8,0.1,1.1,0.4s0.5,0.6,0.6,1.1c0.2,0.5,0.3,1.1,0.4,1.9l0.2,1.4c0.2,1.5,0.6,2.7,1.1,3.5c0.8,1.2,2,1.7,3.5,1.7
		c0.7,0,1.3-0.1,1.9-0.4s1.1-0.7,1.4-1.2c0.7-0.9,1-2,1-3.3c0-1.4-0.3-2.6-1-3.6s-1.7-1.7-2.9-2l0.1-0.4c0.1,0,0.1,0,0.2,0
		c0.1,0,0.1,0,0.2,0c0.3,0.1,0.6,0.2,0.9,0.2c0.3,0.1,0.6,0.1,0.9,0.1c0.5,0,0.9-0.2,1.1-0.5s0.4-0.9,0.4-1.6c0-0.5,0-1-0.1-1.6
		h-2.2c0,0.2,0.1,0.4,0.1,0.6c0,0.4-0.1,0.7-0.2,0.8s-0.5,0.1-1,0.1h-7C7.1,30.9,5.8,31.4,5,32.4 M7,45.2c0.1-0.5,0.1-0.9,0.1-1.4
		l-2.9,0v0.5c0,0.9,0.1,1.7,0.2,2.4c0.1,0.7,0.4,1.4,0.9,2c0.5,0.7,1.2,1.3,2.1,1.8c0.1,0.1,0.3,0.2,0.4,0.2
		c0.1,0.1,0.3,0.1,0.4,0.2l-0.1,0.4l-0.5-0.2c-0.8-0.3-1.4-0.5-1.9-0.7c-0.5-0.1-1-0.2-1.5-0.2H4.2v2.6h15v-2.6h-8.4
		c-1.3,0-2.3-0.4-2.9-1.1c-0.6-0.7-0.9-1.7-0.9-2.8C6.9,46.1,6.9,45.7,7,45.2 M17.3,62.2v0.3c0,1.4-0.6,2.5-1.7,3.2
		c-1.1,0.7-2.5,1.1-4,1.1c-1,0-1.9-0.2-2.8-0.5c-0.9-0.3-1.5-0.8-2-1.5c-0.5-0.6-0.8-1.4-0.8-2.4v-0.3c0-1,0.2-1.8,0.8-2.4
		c0.5-0.6,1.2-1.1,2-1.4c0.8-0.3,1.8-0.5,2.8-0.5c1.1,0,2,0.2,2.9,0.5c0.9,0.3,1.5,0.8,2.1,1.4C17.1,60.4,17.3,61.2,17.3,62.2
		 M19.6,62.3c0-1.4-0.3-2.7-1-3.8c-0.7-1.1-1.6-1.9-2.8-2.5c-1.2-0.6-2.6-0.9-4.1-0.9c-1.5,0-2.9,0.3-4.1,0.9
		c-1.2,0.6-2.1,1.4-2.7,2.5c-0.6,1.1-1,2.4-1,3.8c0,1.5,0.3,2.7,1,3.8c0.7,1.1,1.6,1.9,2.7,2.5c1.2,0.6,2.5,0.9,4.1,0.9
		s2.9-0.3,4.1-0.9c1.2-0.6,2.1-1.4,2.8-2.5C19.2,65.1,19.6,63.8,19.6,62.3 M6.1,78.1c0-1.4,0.5-2.5,1.5-3.3s2.4-1.1,4.1-1.1
		c1.1,0,2.1,0.2,3,0.5c0.8,0.3,1.5,0.8,1.9,1.5c0.5,0.7,0.7,1.5,0.7,2.4v0.2c0,1-0.2,1.8-0.7,2.5c-0.5,0.7-1.1,1.2-2,1.5
		c-0.9,0.3-1.8,0.5-3,0.5s-2.1-0.2-2.9-0.5c-0.8-0.3-1.5-0.9-1.9-1.5c-0.5-0.7-0.7-1.5-0.7-2.5V78.1z M7.3,71.9
		c-1.2,0.6-2.1,1.4-2.6,2.4s-0.9,2.1-0.9,3.3c0,0.8,0.1,1.6,0.4,2.3c0.3,0.7,0.7,1.3,1.2,1.8s1.1,0.9,1.8,1.1l0.2,0.1l-0.1,0.4
		c0,0-0.1,0-0.1,0s-0.1,0-0.1,0C6.5,83,6,82.8,5.7,82.7c-0.3-0.1-0.7-0.1-1-0.1H4.2v2.6H25v-2.6h-5.2c-0.4,0-0.6,0-0.8,0
		c-0.3,0-0.7,0.1-1.1,0.2s-0.7,0.2-1.1,0.3c-0.3,0.1-0.5,0.2-0.8,0.3c-0.3,0.1-0.5,0.2-0.8,0.2l-0.1-0.4l0.3-0.1
		c0.9-0.3,1.7-0.8,2.3-1.3c0.6-0.5,1-1.2,1.3-1.9c0.3-0.7,0.4-1.5,0.4-2.4c0-1.2-0.3-2.3-0.9-3.3s-1.5-1.8-2.7-2.4
		c-1.2-0.6-2.6-0.9-4.3-0.9S8.5,71.2,7.3,71.9 M5.8,89.2c-0.7,0.6-1.3,1.2-1.5,2s-0.4,1.5-0.4,2.3c0,1.3,0.3,2.4,1,3.3
		c0.7,0.9,1.8,1.6,3.2,2L8,99.2c0,0,0,0-0.1,0H7.9C7.7,99.1,7.5,99,7.3,99c-0.2,0-0.4,0-0.6,0c-0.6,0-1.1,0.2-1.5,0.5
		s-0.8,0.8-1,1.4c-0.2,0.6-0.3,1.3-0.3,2c0,1.1,0.3,2.1,0.9,2.9s1.7,1.5,3.4,2.1l0.2,0.1l-0.1,0.4l-0.2-0.1
		c-0.3-0.1-0.6-0.2-0.9-0.3c-0.3-0.1-0.6-0.2-0.9-0.4c-0.5-0.2-0.9-0.3-1.1-0.4c-0.3-0.1-0.5-0.2-0.8-0.2H4.2v2.7h15v-2.6H10
		c-1.3,0-2.3-0.3-2.9-0.9c-0.6-0.6-0.9-1.4-0.9-2.3v-0.2c0-1,0.2-1.8,0.7-2.4c0.5-0.6,1.3-0.9,2.5-0.9h9.8v-2.6l-9.2,0
		c-1.3,0-2.3-0.3-2.9-1c-0.6-0.7-0.9-1.4-0.9-2.3v-0.2c0-0.9,0.2-1.7,0.7-2.3C7.3,91.3,8.2,91,9.4,91h9.8v-2.6H8.8
		C7.6,88.4,6.6,88.6,5.8,89.2 M10.1,123.5c-1.1-0.1-2.1-0.6-2.9-1.3s-1.2-1.7-1.2-2.8v-0.3c0-0.8,0.2-1.5,0.5-2.1
		c0.4-0.6,0.8-1,1.5-1.4c0.6-0.3,1.3-0.5,2.1-0.6V123.5z M15.8,125.4c1.2-0.6,2.1-1.4,2.7-2.4c0.7-1.1,1-2.4,1-3.9
		c0-1.3-0.2-2.4-0.7-3.4c-0.5-1-1.1-1.8-2-2.5c-0.8-0.6-1.8-1-2.9-1.2v2.7c1,0.2,1.8,0.7,2.4,1.5c0.6,0.8,0.9,1.7,0.9,2.8v0.2
		c0,0.8-0.2,1.6-0.6,2.2c-0.4,0.7-1,1.2-1.7,1.6c-0.7,0.4-1.6,0.6-2.6,0.6l-0.1-11.3h-0.7c-1.6,0-3,0.3-4.2,0.8
		c-1.2,0.6-2.1,1.3-2.7,2.4s-0.9,2.3-0.9,3.7c0,1.4,0.3,2.6,1,3.7c0.7,1.1,1.6,1.9,2.8,2.5s2.6,0.9,4.1,0.9
		C13.3,126.2,14.7,125.9,15.8,125.4 M16.7,127.3L16.7,127.3c0.1,0.2,0.1,0.6,0.2,1c0.1,0.4,0.1,0.8,0.1,1.2c0,0.6-0.2,1-0.5,1.2
		c-0.3,0.2-0.8,0.3-1.4,0.3H6.4v-3.6H4.2v3.6H0v2.6h4.2v2.5h2.2v-2.5h8.3c1.6,0,2.7-0.3,3.5-0.8c0.8-0.6,1.2-1.5,1.2-2.9
		c0-0.6-0.1-1.4-0.3-2.6c0,0,0,0,0,0c0,0,0,0,0,0H16.7z M4.2,150.6h15V148H9.8c-0.8,0-1.4-0.2-1.9-0.5s-1-0.8-1.2-1.5
		c-0.3-0.6-0.4-1.3-0.4-2v-0.1c0-1.1,0.3-2,0.8-2.6c0.5-0.6,1.3-0.9,2.4-0.9h9.9v-2.6H8.9c-1.3,0-2.3,0.3-3.1,0.8s-1.3,1.2-1.6,1.9
		s-0.4,1.6-0.4,2.6c0,1.2,0.4,2.4,1.1,3.4c0.7,1,1.7,1.8,2.9,2.2l0.5,0.2l-0.1,0.4c-0.3-0.1-0.7-0.2-1-0.3c-0.3-0.1-0.6-0.3-0.9-0.4
		c-0.4-0.2-0.8-0.3-1-0.4s-0.5-0.1-0.8-0.1H4.2V150.6z M17.3,159.9v0.3c0,1.4-0.6,2.5-1.7,3.2c-1.1,0.7-2.5,1.1-4,1.1
		c-1,0-1.9-0.2-2.8-0.5c-0.9-0.3-1.5-0.8-2-1.5c-0.5-0.6-0.8-1.4-0.8-2.4v-0.3c0-1,0.2-1.8,0.8-2.4s1.2-1.1,2-1.4s1.8-0.5,2.8-0.5
		c1.1,0,2,0.2,2.9,0.5c0.9,0.3,1.5,0.8,2.1,1.4C17.1,158.2,17.3,159,17.3,159.9 M19.6,160.1c0-1.4-0.3-2.7-1-3.8
		c-0.7-1.1-1.6-1.9-2.8-2.5s-2.6-0.9-4.1-0.9c-1.5,0-2.9,0.3-4.1,0.9s-2.1,1.4-2.7,2.5c-0.6,1.1-1,2.4-1,3.8c0,1.5,0.3,2.7,1,3.8
		c0.7,1.1,1.6,1.9,2.7,2.5c1.2,0.6,2.5,0.9,4.1,0.9s2.9-0.3,4.1-0.9c1.2-0.6,2.1-1.4,2.8-2.5C19.2,162.8,19.6,161.5,19.6,160.1
		 M13.7,168.8v2.7c0.7,0.1,1.3,0.3,1.8,0.7s1,0.8,1.3,1.4c0.3,0.6,0.5,1.3,0.5,2.1v0.3c0,1-0.3,1.8-0.8,2.4
		c-0.5,0.6-1.2,1.1-2.1,1.4c-0.9,0.3-1.8,0.5-2.8,0.5c-1,0-1.9-0.2-2.8-0.5c-0.9-0.3-1.5-0.8-2-1.5c-0.5-0.7-0.8-1.4-0.8-2.4v-0.3
		c0-1.1,0.3-2,1-2.7s1.5-1.2,2.4-1.4v-2.8c-1.3,0.2-2.3,0.7-3.2,1.4c-0.8,0.7-1.4,1.5-1.8,2.5c-0.4,1-0.6,2.1-0.6,3.2
		c0,1.5,0.3,2.7,1,3.8c0.7,1.1,1.6,1.9,2.7,2.5c1.2,0.6,2.5,0.9,4.1,0.9s2.9-0.3,4.1-0.9c1.2-0.6,2.1-1.4,2.8-2.5s1-2.4,1-3.8
		c0-1.2-0.3-2.3-0.8-3.4s-1.2-1.9-2.1-2.5C15.8,169.3,14.8,168.9,13.7,168.8"/>
</g>
</svg>
