<?xml version="1.0" encoding="utf-8"?>
<!-- Generator: Adobe Illustrator 26.5.3, SVG Export Plug-In . SVG Version: 6.00 Build 0)  -->
<svg version="1.1" id="Layer_1" xmlns="http://www.w3.org/2000/svg" xmlns:xlink="http://www.w3.org/1999/xlink" x="0px" y="0px"
	 viewBox="0 0 229.8 230" style="enable-background:new 0 0 229.8 230;" xml:space="preserve">
<style type="text/css">
	.st0{clip-path:url(#SVGID_00000143593587928815031060000014968908171517307008_);}
	
		.st1{clip-path:url(#SVGID_00000137819241198368944400000007423454307622871722_);fill:url(#SVGID_00000146462266814877722310000000016672621089864837_);}
</style>
<g>
	<g>
		<g>
			<g>
				<defs>
					<rect id="SVGID_1_" x="-9.1" y="-7" width="248" height="238"/>
				</defs>
				<clipPath id="SVGID_00000078005896500871565070000012811689129462175106_">
					<use xlink:href="#SVGID_1_"  style="overflow:visible;"/>
				</clipPath>
				<g style="clip-path:url(#SVGID_00000078005896500871565070000012811689129462175106_);">
					<defs>
						<path id="SVGID_00000068678670516730616050000001102515976698895513_" d="M114.9,230c63.5,0,115-51.5,115-115S178.4,0,114.9,0
							s-115,51.5-115,115S51.4,230,114.9,230"/>
					</defs>
					<clipPath id="SVGID_00000000901906894496370410000005186318211145904055_">
						<use xlink:href="#SVGID_00000068678670516730616050000001102515976698895513_"  style="overflow:visible;"/>
					</clipPath>
					
						<radialGradient id="SVGID_00000058580520447173986600000000981780207703077012_" cx="0.9629" cy="175.9527" r="1" gradientTransform="matrix(115 0 0 -115 4.1737 20349.5625)" gradientUnits="userSpaceOnUse">
						<stop  offset="0" style="stop-color:#F6EB14"/>
						<stop  offset="0.1042" style="stop-color:#F8EE5B"/>
						<stop  offset="0.231" style="stop-color:#F9F28B"/>
						<stop  offset="0.36" style="stop-color:#FBF5AE"/>
						<stop  offset="0.4887" style="stop-color:#FCF8CB"/>
						<stop  offset="0.6171" style="stop-color:#FDFBE0"/>
						<stop  offset="0.7453" style="stop-color:#FEFDF0"/>
						<stop  offset="0.873" style="stop-color:#FFFEFA"/>
						<stop  offset="1" style="stop-color:#FFFFFF"/>
					</radialGradient>
					
						<rect x="-0.1" y="0" style="clip-path:url(#SVGID_00000000901906894496370410000005186318211145904055_);fill:url(#SVGID_00000058580520447173986600000000981780207703077012_);" width="230" height="230"/>
				</g>
			</g>
		</g>
		<path d="M116.6,95.8h-3.5v30.3c-0.6-1.8-1.7-3.4-3.2-4.8c-1.5-1.3-3.2-2.4-5.1-3.2c-1.9-0.8-4-1.2-6.1-1.3v3.9
			c2.6,0.2,5,0.8,7.1,2c2.1,1.2,3.8,2.8,5,4.8c1.3,2,2.1,4.3,2.4,6.8h3.2c0.3-2.5,1.1-4.8,2.4-6.8c1.3-2,3-3.6,5.1-4.8
			c2.1-1.2,4.4-1.8,7-1.9v-3.9c-3.2,0.2-6.1,1.1-8.8,2.7c-2.7,1.7-4.5,3.8-5.6,6.6V95.8z"/>
	</g>
	<g>
		<path d="M75.2,35.7v6.5c0,0.5,0,0.8,0.1,0.9s0.3,0.2,0.7,0.2c0.2,0,0.4,0,0.6-0.1v2.1c-0.6,0.1-1.1,0.1-1.5,0.1
			c-0.8,0-1.3-0.2-1.7-0.5c-0.3-0.4-0.5-0.9-0.5-1.7V43L72.7,43c-0.4,0.9-1,1.6-1.9,2c-0.9,0.5-1.9,0.7-2.8,0.7
			c-1.1,0-2-0.3-2.8-0.8c-0.5-0.4-1-0.8-1.3-1.4s-0.5-1.2-0.5-1.9c0-1.4,0.6-2.5,1.7-3.2c0.7-0.5,1.8-0.8,3.1-1l1.5-0.2
			c0.7-0.1,1.3-0.2,1.7-0.4c0.4-0.1,0.8-0.3,1-0.6c0.2-0.3,0.4-0.6,0.4-1c0-0.6-0.3-1.1-0.8-1.5c-0.5-0.4-1.3-0.5-2.2-0.5
			c-0.6,0-1.2,0.1-1.7,0.3c-0.5,0.2-0.9,0.6-1.2,1c-0.3,0.4-0.5,0.9-0.5,1.5h-2.5c0-1,0.3-1.9,0.8-2.6c0.5-0.7,1.1-1.3,2-1.7
			c0.9-0.4,1.9-0.6,3-0.6c1.8,0,3.2,0.4,4.2,1.1C74.7,32.9,75.2,34.1,75.2,35.7z M69.9,39l-1.3,0.3c-0.5,0.1-0.9,0.2-1.2,0.3
			c-0.3,0.1-0.6,0.2-0.8,0.4c-0.5,0.4-0.8,0.9-0.8,1.7c0,0.6,0.2,1.1,0.6,1.4c0.5,0.4,1.1,0.6,1.9,0.6c0.7,0,1.3-0.1,2-0.4
			c0.7-0.3,1.2-0.7,1.7-1.4c0.4-0.7,0.7-1.5,0.7-2.6v-1.9c-0.3,0.5-0.6,0.8-1.1,1.1C71.2,38.7,70.6,38.9,69.9,39z"/>
		<path d="M81.5,44.9c-0.9-0.5-1.7-1.4-2.3-2.5c-0.6-1.1-0.9-2.4-0.9-4c0-1.6,0.3-2.9,0.9-4c0.6-1.1,1.3-1.9,2.3-2.5
			c0.9-0.6,2-0.8,3.1-0.8c1.2,0,2.2,0.3,3,0.8c0.8,0.5,1.4,1.2,1.7,2l0.3-0.1c-0.1-0.4-0.2-0.8-0.2-1c0-0.3-0.1-0.7-0.1-1.1v-5.7
			h2.5v19.5h-2.5v-0.5c0-0.4,0-0.6,0.1-0.9c0-0.2,0.1-0.5,0.2-0.9L89.3,43c-0.3,0.8-0.9,1.5-1.7,2c-0.8,0.5-1.8,0.7-3,0.7
			C83.5,45.7,82.4,45.5,81.5,44.9z M85.3,43.6c0.9,0,1.7-0.2,2.3-0.6c0.6-0.4,1.1-1,1.4-1.8s0.5-1.7,0.5-2.7c0-1-0.2-2-0.5-2.8
			c-0.3-0.8-0.8-1.4-1.4-1.8c-0.6-0.4-1.4-0.6-2.3-0.6h-0.2c-0.9,0-1.7,0.2-2.3,0.6c-0.6,0.4-1.1,1-1.4,1.8
			c-0.3,0.8-0.5,1.7-0.5,2.8c0,1.6,0.4,2.9,1.1,3.8c0.7,0.9,1.7,1.4,3.1,1.4H85.3z"/>
		<path d="M107.8,31.4l-5.3,14h-3.3l-5.2-14h2.6l2.5,6.9c0.3,0.7,0.6,1.6,0.9,2.5c0.3,1,0.5,1.8,0.6,2.5h0.4c0.1-0.4,0.3-1.1,0.5-2
			c0.1-0.5,0.3-1,0.5-1.6c0.2-0.5,0.4-1.1,0.6-1.6l2.5-6.8H107.8z"/>
		<path d="M109.9,28.7c-0.3-0.3-0.5-0.7-0.5-1.2c0-0.4,0.2-0.8,0.5-1.1s0.7-0.5,1.2-0.5c0.4,0,0.8,0.2,1.1,0.5s0.5,0.7,0.5,1.1
			c0,0.5-0.2,0.9-0.5,1.2c-0.3,0.3-0.7,0.5-1.1,0.5C110.6,29.2,110.2,29.1,109.9,28.7z M112.3,31.4v14h-2.5v-14H112.3z"/>
		<path d="M118.1,42.2c0.3,0.5,0.7,0.8,1.2,1.1c0.5,0.3,1.1,0.4,1.8,0.4c0.6,0,1.1-0.1,1.6-0.2c0.5-0.2,0.8-0.4,1.1-0.7
			c0.3-0.3,0.4-0.7,0.4-1.1c0-0.6-0.2-1-0.6-1.3c-0.4-0.3-1-0.6-1.8-0.8l-2.7-0.6c-1.2-0.3-2-0.7-2.5-1.4c-0.5-0.6-0.8-1.4-0.8-2.4
			c0-0.8,0.2-1.5,0.7-2.2c0.5-0.6,1.1-1.1,1.9-1.4c0.8-0.3,1.7-0.5,2.8-0.5c1.1,0,2,0.2,2.9,0.6c0.8,0.4,1.5,1,2,1.7
			c0.5,0.7,0.8,1.6,0.8,2.6H124c0-0.7-0.2-1.2-0.5-1.6c-0.3-0.4-0.7-0.7-1.2-0.9c-0.5-0.2-0.9-0.3-1.5-0.3c-0.8,0-1.5,0.2-2,0.5
			c-0.5,0.3-0.7,0.8-0.7,1.4c0,0.4,0.1,0.8,0.4,1.1c0.3,0.3,0.7,0.6,1.4,0.7l2.9,0.7c1.2,0.3,2.2,0.7,2.8,1.4c0.7,0.6,1,1.5,1,2.5
			c0,0.9-0.2,1.7-0.7,2.3c-0.4,0.6-1.1,1.1-1.9,1.5c-0.8,0.3-1.9,0.5-3,0.5c-1.3,0-2.4-0.2-3.3-0.7c-0.9-0.5-1.6-1.1-2-1.9
			s-0.7-1.6-0.7-2.5h2.6C117.6,41.2,117.8,41.7,118.1,42.2z"/>
		<path d="M131.6,44.8c-1-0.6-1.8-1.5-2.4-2.6c-0.6-1.1-0.8-2.4-0.8-3.9s0.3-2.7,0.8-3.8c0.5-1.1,1.3-1.9,2.4-2.5
			c1-0.6,2.2-0.9,3.6-0.9c1.4,0,2.6,0.3,3.6,0.9c1,0.6,1.8,1.5,2.4,2.6s0.8,2.4,0.8,3.8c0,1.5-0.3,2.7-0.8,3.9
			c-0.6,1.1-1.3,2-2.4,2.6s-2.2,0.9-3.6,0.9C133.8,45.7,132.6,45.4,131.6,44.8z M137.5,42.9c0.6-0.5,1.1-1.1,1.3-1.9
			c0.3-0.8,0.4-1.7,0.4-2.7c0-1-0.1-1.8-0.4-2.6s-0.7-1.4-1.3-1.9c-0.6-0.5-1.3-0.7-2.2-0.7H135c-0.9,0-1.6,0.2-2.2,0.7
			c-0.6,0.5-1.1,1.1-1.4,1.9c-0.3,0.8-0.4,1.7-0.4,2.6c0,1.5,0.3,2.7,1,3.8s1.7,1.6,3,1.6h0.3C136.2,43.7,136.9,43.4,137.5,42.9z"/>
		<path d="M152.7,34.1c-1-0.1-1.7-0.2-2.2-0.2c-1.2,0-2,0.3-2.7,1c-0.6,0.6-0.9,1.6-0.9,2.9v7.6h-2.5v-14h2.5v0.7c0,0.3,0,0.6,0,0.8
			c0,0.2-0.1,0.5-0.2,0.7l-0.1,0.3L147,34c0.2-0.7,0.6-1.3,1.1-1.6c0.5-0.4,1.1-0.6,1.8-0.8c0.7-0.1,1.4-0.2,2.3-0.2h0.8l0,2.7h-0.1
			C152.8,34.1,152.7,34.1,152.7,34.1z"/>
		<path d="M166.2,31.4v13.5c0,2-0.6,3.6-1.7,4.7c-1.1,1.1-2.7,1.6-4.7,1.6c-2,0-3.5-0.4-4.4-1.3c-1-0.9-1.5-2.1-1.7-3.7h2.5
			c0.1,1,0.5,1.7,1.1,2.2s1.4,0.8,2.5,0.8h0.2c1.1,0,2.1-0.3,2.7-1c0.7-0.6,1-1.6,1-2.9c0-0.7,0-1.3,0-1.8c0-0.5,0.1-0.8,0.2-1.1
			l-0.4-0.1c-0.2,0.7-0.7,1.3-1.5,1.8s-1.7,0.7-2.9,0.7c-0.8,0-1.6-0.1-2.3-0.4c-0.7-0.3-1.3-0.8-1.8-1.5c-0.4-0.7-0.7-1.7-0.7-2.9
			v-8.5h2.5v8.2c0,1,0.3,1.7,0.8,2.2c0.6,0.5,1.3,0.7,2.3,0.7h0.1c1,0,1.9-0.3,2.5-1c0.7-0.6,1-1.4,1-2.4v-7.8H166.2z"/>
	</g>
	<g>
		<path d="M84.9,74c-0.8-0.5-1.4-1.2-1.7-2l-0.3,0.1c0.1,0.3,0.2,0.6,0.2,0.9c0,0.2,0.1,0.5,0.1,0.9v0.5h-2.5V54.9h2.5v5.7
			c0,0.5,0,0.9-0.1,1.1c0,0.3-0.1,0.6-0.2,1l0.3,0.1c0.3-0.8,0.9-1.5,1.7-2c0.8-0.5,1.8-0.8,3-0.8c1.1,0,2.1,0.3,3.1,0.8
			s1.7,1.4,2.3,2.5c0.6,1.1,0.9,2.5,0.9,4c0,1.6-0.3,2.9-0.9,4c-0.6,1.1-1.3,1.9-2.3,2.5c-0.9,0.5-2,0.8-3.1,0.8
			C86.7,74.7,85.7,74.5,84.9,74z M89.6,72c0.6-0.4,1.1-1,1.4-1.8c0.3-0.8,0.5-1.7,0.5-2.8s-0.2-2-0.5-2.8c-0.3-0.8-0.8-1.4-1.4-1.8
			c-0.6-0.4-1.4-0.6-2.3-0.6h-0.2c-0.9,0-1.7,0.2-2.3,0.6c-0.6,0.4-1.1,1-1.4,1.8c-0.3,0.8-0.5,1.7-0.5,2.8c0,1,0.2,2,0.5,2.7
			s0.8,1.4,1.4,1.8c0.6,0.4,1.4,0.6,2.3,0.6h0.2C88.3,72.6,89,72.4,89.6,72z"/>
		<path d="M98.9,73.8c-1-0.6-1.8-1.5-2.4-2.6c-0.6-1.1-0.8-2.4-0.8-3.9s0.3-2.7,0.8-3.8c0.6-1.1,1.3-1.9,2.4-2.5s2.2-0.9,3.6-0.9
			c1.4,0,2.6,0.3,3.6,0.9c1,0.6,1.8,1.5,2.4,2.6c0.6,1.1,0.8,2.4,0.8,3.8c0,1.5-0.3,2.7-0.8,3.9c-0.6,1.1-1.3,2-2.4,2.6
			c-1,0.6-2.2,0.9-3.6,0.9C101.1,74.7,100,74.4,98.9,73.8z M104.9,72c0.6-0.5,1.1-1.1,1.3-1.9c0.3-0.8,0.4-1.7,0.4-2.7
			c0-1-0.1-1.8-0.4-2.6c-0.3-0.8-0.7-1.4-1.3-1.9c-0.6-0.5-1.3-0.7-2.2-0.7h-0.3c-0.9,0-1.6,0.2-2.2,0.7c-0.6,0.5-1.1,1.1-1.4,1.9
			c-0.3,0.8-0.4,1.7-0.4,2.6c0,1.5,0.3,2.7,1,3.8s1.7,1.6,3,1.6h0.3C103.5,72.7,104.3,72.4,104.9,72z"/>
		<path d="M123,64.7v6.5c0,0.5,0,0.8,0.1,0.9s0.3,0.2,0.7,0.2c0.2,0,0.4,0,0.6-0.1v2.1c-0.6,0.1-1.1,0.1-1.5,0.1
			c-0.8,0-1.3-0.2-1.7-0.5c-0.3-0.4-0.5-0.9-0.5-1.7v-0.2l-0.3-0.1c-0.4,0.9-1,1.6-1.9,2c-0.9,0.5-1.9,0.7-2.8,0.7
			c-1.1,0-2-0.3-2.8-0.8c-0.5-0.4-1-0.8-1.3-1.4s-0.5-1.2-0.5-1.9c0-1.4,0.6-2.5,1.7-3.2c0.7-0.5,1.8-0.8,3.1-1l1.5-0.2
			c0.7-0.1,1.3-0.2,1.7-0.4c0.4-0.1,0.8-0.3,1-0.6c0.2-0.3,0.3-0.6,0.3-1c0-0.6-0.3-1.1-0.8-1.5c-0.5-0.4-1.3-0.5-2.2-0.5
			c-0.6,0-1.2,0.1-1.7,0.3c-0.5,0.2-0.9,0.6-1.2,1c-0.3,0.4-0.5,0.9-0.5,1.5h-2.5c0-1,0.3-1.9,0.8-2.6c0.5-0.7,1.1-1.3,2-1.7
			c0.9-0.4,1.9-0.6,3-0.6c1.8,0,3.2,0.4,4.2,1.1C122.5,61.9,123,63.1,123,64.7z M117.7,68l-1.3,0.3c-0.5,0.1-0.9,0.2-1.2,0.3
			c-0.3,0.1-0.6,0.2-0.8,0.4c-0.5,0.4-0.8,0.9-0.8,1.7c0,0.6,0.2,1.1,0.6,1.4c0.5,0.4,1.1,0.6,1.9,0.6c0.7,0,1.3-0.1,2-0.4
			c0.7-0.3,1.2-0.7,1.7-1.4c0.4-0.7,0.7-1.5,0.7-2.6v-1.9c-0.3,0.5-0.6,0.8-1.1,1.1C119,67.7,118.4,67.9,117.7,68z"/>
		<path d="M135.3,63.1c-1-0.1-1.7-0.2-2.2-0.2c-1.2,0-2,0.3-2.7,1c-0.6,0.6-0.9,1.6-0.9,2.9v7.6H127v-14h2.5v0.7c0,0.3,0,0.6,0,0.8
			c0,0.2-0.1,0.5-0.2,0.7l-0.1,0.3l0.4,0.1c0.2-0.7,0.6-1.3,1.1-1.6c0.5-0.4,1.1-0.6,1.8-0.8c0.7-0.1,1.4-0.2,2.3-0.2h0.8l0,2.7
			h-0.1C135.3,63.1,135.3,63.1,135.3,63.1z"/>
		<path d="M139,73.9c-0.9-0.5-1.7-1.4-2.3-2.5c-0.6-1.1-0.9-2.4-0.9-4c0-1.6,0.3-2.9,0.9-4c0.6-1.1,1.3-1.9,2.3-2.5s2-0.8,3.1-0.8
			c1.2,0,2.2,0.3,3,0.8c0.8,0.5,1.4,1.2,1.7,2l0.3-0.1c-0.1-0.4-0.2-0.8-0.2-1c0-0.3-0.1-0.7-0.1-1.1v-5.7h2.5v19.5h-2.5v-0.5
			c0-0.4,0-0.6,0.1-0.9c0-0.2,0.1-0.5,0.2-0.9l-0.3-0.1c-0.3,0.8-0.9,1.5-1.7,2c-0.8,0.5-1.8,0.7-3,0.7
			C141,74.7,139.9,74.5,139,73.9z M142.8,72.6c0.9,0,1.7-0.2,2.3-0.6c0.6-0.4,1.1-1,1.4-1.8s0.5-1.7,0.5-2.7c0-1-0.2-2-0.5-2.8
			c-0.3-0.8-0.8-1.4-1.4-1.8c-0.6-0.4-1.4-0.6-2.3-0.6h-0.2c-0.9,0-1.7,0.2-2.3,0.6c-0.6,0.4-1.1,1-1.4,1.8
			c-0.3,0.8-0.5,1.7-0.5,2.8c0,1.6,0.3,2.9,1,3.8c0.7,0.9,1.7,1.4,3.1,1.4H142.8z"/>
	</g>
</g>
</svg>
