<?xml version="1.0" encoding="utf-8"?>
<!-- Generator: Adobe Illustrator 26.5.3, SVG Export Plug-In . SVG Version: 6.00 Build 0)  -->
<svg version="1.1" id="Layer_1" xmlns="http://www.w3.org/2000/svg" xmlns:xlink="http://www.w3.org/1999/xlink" x="0px" y="0px"
	 viewBox="0 0 229.8 230" style="enable-background:new 0 0 229.8 230;" xml:space="preserve">
<style type="text/css">
	
		.st0{clip-path:url(#SVGID_00000066494139169300992820000014466045242215072927_);fill:url(#SVGID_00000029734728288390584650000017913434203606580618_);}
</style>
<g>
	<g>
		<g>
			<g>
				<g>
					<defs>
						<path id="SVGID_1_" d="M114.8,230c63.5,0,115-51.5,115-115c0-63.5-51.5-115-115-115s-115,51.5-115,115
							C-0.2,178.5,51.3,230,114.8,230"/>
					</defs>
					<clipPath id="SVGID_00000155831677504349334530000007307521950754589101_">
						<use xlink:href="#SVGID_1_"  style="overflow:visible;"/>
					</clipPath>
					
						<radialGradient id="SVGID_00000029010303816425464510000010778623780582369201_" cx="0.9621" cy="175.9527" r="1" gradientTransform="matrix(115 0 0 -115 4.1737 20349.5625)" gradientUnits="userSpaceOnUse">
						<stop  offset="0" style="stop-color:#F6EB14"/>
						<stop  offset="0.1042" style="stop-color:#F8EE5B"/>
						<stop  offset="0.231" style="stop-color:#F9F28B"/>
						<stop  offset="0.36" style="stop-color:#FBF5AE"/>
						<stop  offset="0.4887" style="stop-color:#FCF8CB"/>
						<stop  offset="0.6171" style="stop-color:#FDFBE0"/>
						<stop  offset="0.7453" style="stop-color:#FEFDF0"/>
						<stop  offset="0.873" style="stop-color:#FFFEFA"/>
						<stop  offset="1" style="stop-color:#FFFFFF"/>
					</radialGradient>
					
						<rect x="-0.2" style="clip-path:url(#SVGID_00000155831677504349334530000007307521950754589101_);fill:url(#SVGID_00000029010303816425464510000010778623780582369201_);" width="230" height="230"/>
				</g>
			</g>
		</g>
		<path d="M116.6,95.8H113v30.3c-0.6-1.8-1.7-3.4-3.2-4.8c-1.5-1.3-3.2-2.4-5.1-3.2c-1.9-0.8-4-1.2-6.1-1.3v3.9c2.6,0.2,5,0.8,7.1,2
			c2.1,1.2,3.8,2.8,5,4.8c1.3,2,2.1,4.3,2.4,6.8h3.2c0.3-2.5,1.1-4.8,2.4-6.8c1.3-2,3-3.6,5.1-4.8c2.1-1.2,4.4-1.8,7-1.9v-3.9
			c-3.2,0.2-6.1,1.1-8.8,2.7c-2.7,1.7-4.5,3.8-5.6,6.6V95.8z"/>
	</g>
	<g>
		<path d="M86,41.5c-0.6,0.8-1.4,1.5-2.4,2c-1,0.5-2,0.7-3.1,0.7c-1.4,0-2.6-0.3-3.6-0.9s-1.8-1.5-2.4-2.6c-0.6-1.1-0.8-2.4-0.8-3.9
			s0.3-2.7,0.8-3.8c0.6-1.1,1.3-1.9,2.4-2.5s2.2-0.9,3.6-0.9c1.1,0,2.1,0.2,3,0.6c0.9,0.4,1.7,0.9,2.3,1.7c0.6,0.8,1,1.8,1.3,3h-2.6
			c-0.2-0.9-0.6-1.7-1.3-2.3c-0.7-0.6-1.5-0.9-2.5-0.9h-0.3c-0.9,0-1.6,0.2-2.2,0.7c-0.6,0.5-1.1,1.1-1.4,1.9
			c-0.3,0.8-0.4,1.7-0.4,2.6c0,1,0.1,1.8,0.4,2.6c0.3,0.8,0.7,1.5,1.3,1.9c0.6,0.5,1.4,0.7,2.3,0.7h0.3c0.7,0,1.4-0.2,1.9-0.5
			c0.6-0.3,1-0.7,1.3-1.2c0.3-0.5,0.5-1.1,0.6-1.7h2.5C87,39.8,86.7,40.7,86,41.5z"/>
		<path d="M100.7,34.2v6.5c0,0.5,0,0.8,0.1,0.9s0.3,0.2,0.7,0.2c0.2,0,0.4,0,0.6-0.1v2.1c-0.6,0.1-1.1,0.1-1.5,0.1
			c-0.8,0-1.3-0.2-1.7-0.5c-0.3-0.4-0.5-0.9-0.5-1.7v-0.2l-0.3-0.1c-0.4,0.9-1,1.6-1.9,2c-0.9,0.5-1.9,0.7-2.8,0.7
			c-1.1,0-2-0.3-2.8-0.8c-0.5-0.4-1-0.8-1.3-1.4s-0.5-1.2-0.5-1.9c0-1.4,0.6-2.5,1.7-3.2c0.7-0.5,1.8-0.8,3.1-1l1.5-0.2
			c0.7-0.1,1.3-0.2,1.7-0.4c0.4-0.1,0.8-0.3,1-0.6c0.2-0.3,0.4-0.6,0.4-1c0-0.6-0.3-1.1-0.8-1.5c-0.5-0.4-1.3-0.5-2.2-0.5
			c-0.6,0-1.2,0.1-1.7,0.3c-0.5,0.2-0.9,0.6-1.2,1c-0.3,0.4-0.5,0.9-0.5,1.5h-2.5c0-1,0.3-1.9,0.8-2.6c0.5-0.7,1.1-1.3,2-1.7
			c0.9-0.4,1.9-0.6,3-0.6c1.8,0,3.2,0.4,4.2,1.1C100.2,31.4,100.7,32.5,100.7,34.2z M95.4,37.5l-1.3,0.3c-0.5,0.1-0.9,0.2-1.2,0.3
			c-0.3,0.1-0.6,0.2-0.8,0.4c-0.5,0.4-0.8,0.9-0.8,1.7c0,0.6,0.2,1.1,0.6,1.4c0.5,0.4,1.1,0.6,1.9,0.6c0.7,0,1.3-0.1,2-0.4
			c0.7-0.3,1.2-0.7,1.7-1.4c0.4-0.7,0.7-1.5,0.7-2.6v-1.9c-0.3,0.5-0.6,0.8-1.1,1.1C96.8,37.1,96.2,37.3,95.4,37.5z"/>
		<path d="M107.1,24.4v19.5h-2.5V24.4H107.1z"/>
		<path d="M113.4,24.4v19.5h-2.5V24.4H113.4z"/>
		<path d="M129.7,24.1c0.4,0,0.7,0,1.1,0.1c0.4,0.1,0.7,0.1,0.9,0.2v2.2c-0.7-0.2-1.3-0.3-1.8-0.3c-0.7,0-1.2,0.1-1.5,0.4
			c-0.3,0.3-0.5,0.8-0.5,1.5v1.7h3.8v2h-3.8v12h-2.5v-12h-2.4v-2h2.4V28c0-1.3,0.4-2.3,1.1-2.9C127.3,24.4,128.3,24.1,129.7,24.1z"
			/>
		<path d="M135.4,43.3c-1-0.6-1.8-1.5-2.4-2.6c-0.6-1.1-0.8-2.4-0.8-3.9s0.3-2.7,0.8-3.8c0.5-1.1,1.3-1.9,2.4-2.5s2.2-0.9,3.6-0.9
			c1.4,0,2.6,0.3,3.6,0.9c1,0.6,1.8,1.5,2.4,2.6c0.6,1.1,0.8,2.4,0.8,3.8c0,1.5-0.3,2.7-0.8,3.9c-0.6,1.1-1.3,2-2.4,2.6
			s-2.2,0.9-3.6,0.9C137.6,44.2,136.4,43.9,135.4,43.3z M141.4,41.4c0.6-0.5,1.1-1.1,1.3-1.9c0.3-0.8,0.4-1.7,0.4-2.7
			c0-1-0.1-1.8-0.4-2.6s-0.7-1.4-1.3-1.9c-0.6-0.5-1.3-0.7-2.2-0.7h-0.3c-0.9,0-1.6,0.2-2.2,0.7c-0.6,0.5-1.1,1.1-1.4,1.9
			c-0.3,0.8-0.4,1.7-0.4,2.6c0,1.5,0.3,2.7,1,3.8s1.7,1.6,3,1.6h0.3C140,42.1,140.8,41.9,141.4,41.4z"/>
		<path d="M156.5,32.6c-1-0.1-1.7-0.2-2.2-0.2c-1.2,0-2,0.3-2.7,1c-0.6,0.6-0.9,1.6-0.9,2.9v7.6h-2.5v-14h2.5v0.7c0,0.3,0,0.6,0,0.8
			c0,0.2-0.1,0.5-0.2,0.7l-0.1,0.3l0.4,0.1c0.2-0.7,0.6-1.3,1.1-1.6c0.5-0.4,1.1-0.6,1.8-0.8c0.7-0.1,1.4-0.2,2.3-0.2h0.8l0,2.7
			h-0.1C156.6,32.6,156.6,32.6,156.5,32.6z"/>
	</g>
	<g>
		<path d="M53.4,63.2v6.5c0,0.5,0,0.8,0.1,0.9s0.3,0.2,0.7,0.2c0.2,0,0.4,0,0.6-0.1v2.1c-0.6,0.1-1.1,0.1-1.5,0.1
			c-0.8,0-1.3-0.2-1.7-0.5c-0.3-0.4-0.5-0.9-0.5-1.7v-0.2l-0.3-0.1c-0.4,0.9-1,1.6-1.9,2c-0.9,0.5-1.9,0.7-2.8,0.7
			c-1.1,0-2-0.3-2.8-0.8c-0.5-0.4-1-0.8-1.3-1.4s-0.5-1.2-0.5-1.9c0-1.4,0.6-2.5,1.7-3.2c0.7-0.5,1.8-0.8,3.1-1l1.5-0.2
			c0.7-0.1,1.3-0.2,1.7-0.4c0.4-0.1,0.8-0.3,1-0.6c0.2-0.3,0.4-0.6,0.4-1c0-0.6-0.3-1.1-0.8-1.5c-0.5-0.4-1.3-0.5-2.2-0.5
			c-0.6,0-1.2,0.1-1.7,0.3c-0.5,0.2-0.9,0.6-1.2,1c-0.3,0.4-0.5,0.9-0.5,1.5H42c0-1,0.3-1.9,0.8-2.6c0.5-0.7,1.1-1.3,2-1.7
			c0.9-0.4,1.9-0.6,3-0.6c1.8,0,3.2,0.4,4.2,1.1C53,60.4,53.4,61.5,53.4,63.2z M48.1,66.5l-1.3,0.3c-0.5,0.1-0.9,0.2-1.2,0.3
			c-0.3,0.1-0.6,0.2-0.8,0.4c-0.5,0.4-0.8,0.9-0.8,1.7c0,0.6,0.2,1.1,0.6,1.4c0.5,0.4,1.1,0.6,1.9,0.6c0.7,0,1.3-0.1,2-0.4
			c0.7-0.3,1.2-0.7,1.7-1.4c0.4-0.7,0.7-1.5,0.7-2.6v-1.9c-0.3,0.5-0.6,0.8-1.1,1.1C49.5,66.2,48.9,66.3,48.1,66.5z"/>
		<path d="M67.9,59.4c0.9,0.5,1.7,1.4,2.3,2.5c0.6,1.1,0.9,2.4,0.9,4s-0.3,2.9-0.9,4c-0.6,1.1-1.3,1.9-2.3,2.5
			c-0.9,0.6-2,0.8-3.1,0.8c-1.2,0-2.2-0.3-3-0.8c-0.8-0.5-1.4-1.2-1.7-2l-0.3,0.1c0.1,0.4,0.2,0.8,0.2,1c0,0.3,0.1,0.7,0.1,1.1v5.7
			h-2.5V58.9h2.5v0.5c0,0.4,0,0.6-0.1,0.9s-0.1,0.5-0.2,0.9l0.3,0.1c0.3-0.8,0.9-1.5,1.7-2c0.8-0.5,1.8-0.7,3-0.7
			C66,58.5,67,58.8,67.9,59.4z M64.1,60.6c-0.9,0-1.7,0.2-2.3,0.6c-0.6,0.4-1.1,1-1.4,1.8s-0.5,1.7-0.5,2.7s0.2,2,0.5,2.8
			c0.3,0.8,0.8,1.4,1.4,1.8c0.6,0.4,1.4,0.6,2.3,0.6h0.2c0.9,0,1.7-0.2,2.3-0.6c0.6-0.4,1.1-1,1.4-1.8c0.3-0.8,0.5-1.7,0.5-2.8
			c0-1.6-0.4-2.9-1-3.8c-0.7-0.9-1.7-1.4-3.1-1.4H64.1z"/>
		<path d="M84,59.4c0.9,0.5,1.7,1.4,2.3,2.5c0.6,1.1,0.9,2.4,0.9,4s-0.3,2.9-0.9,4C85.7,71,85,71.8,84,72.4c-0.9,0.6-2,0.8-3.1,0.8
			c-1.2,0-2.2-0.3-3-0.8c-0.8-0.5-1.4-1.2-1.7-2l-0.3,0.1c0.1,0.4,0.2,0.8,0.2,1c0,0.3,0.1,0.7,0.1,1.1v5.7h-2.5V58.9h2.5v0.5
			c0,0.4,0,0.6-0.1,0.9s-0.1,0.5-0.2,0.9l0.3,0.1c0.3-0.8,0.9-1.5,1.7-2c0.8-0.5,1.8-0.7,3-0.7C82.1,58.5,83.1,58.8,84,59.4z
			 M80.3,60.6c-0.9,0-1.7,0.2-2.3,0.6c-0.6,0.4-1.1,1-1.4,1.8s-0.5,1.7-0.5,2.7s0.2,2,0.5,2.8c0.3,0.8,0.8,1.4,1.4,1.8
			c0.6,0.4,1.4,0.6,2.3,0.6h0.2c0.9,0,1.7-0.2,2.3-0.6c0.6-0.4,1.1-1,1.4-1.8c0.3-0.8,0.5-1.7,0.5-2.8c0-1.6-0.4-2.9-1-3.8
			c-0.7-0.9-1.7-1.4-3.1-1.4H80.3z"/>
		<path d="M92.4,53.4v19.5h-2.5V53.4H92.4z"/>
		<path d="M96.2,56.2c-0.3-0.3-0.5-0.7-0.5-1.2c0-0.4,0.2-0.8,0.5-1.1s0.7-0.5,1.2-0.5c0.4,0,0.8,0.2,1.1,0.5S99,54.6,99,55
			c0,0.5-0.2,0.9-0.5,1.2c-0.3,0.3-0.7,0.5-1.1,0.5C96.9,56.7,96.5,56.5,96.2,56.2z M98.6,58.9v14h-2.5v-14H98.6z"/>
		<path d="M113.6,70.5c-0.6,0.8-1.4,1.5-2.4,2c-1,0.5-2,0.7-3.1,0.7c-1.4,0-2.6-0.3-3.6-0.9s-1.8-1.5-2.4-2.6
			c-0.6-1.1-0.8-2.4-0.8-3.9s0.3-2.7,0.8-3.8c0.6-1.1,1.3-1.9,2.4-2.5s2.2-0.9,3.6-0.9c1.1,0,2.1,0.2,3,0.6c0.9,0.4,1.7,0.9,2.3,1.7
			c0.6,0.8,1.1,1.8,1.3,3h-2.6c-0.2-0.9-0.6-1.7-1.3-2.3c-0.7-0.6-1.5-0.9-2.5-0.9H108c-0.9,0-1.6,0.2-2.2,0.7
			c-0.6,0.5-1.1,1.1-1.4,1.9c-0.3,0.8-0.4,1.7-0.4,2.6c0,1,0.1,1.8,0.4,2.6c0.3,0.8,0.7,1.5,1.3,1.9c0.6,0.5,1.4,0.7,2.3,0.7h0.3
			c0.7,0,1.4-0.2,1.9-0.5c0.6-0.3,1-0.7,1.3-1.2c0.3-0.5,0.5-1.1,0.6-1.7h2.5C114.6,68.8,114.2,69.7,113.6,70.5z"/>
		<path d="M128.3,63.2v6.5c0,0.5,0,0.8,0.1,0.9s0.3,0.2,0.7,0.2c0.2,0,0.4,0,0.6-0.1v2.1c-0.6,0.1-1.1,0.1-1.5,0.1
			c-0.8,0-1.3-0.2-1.7-0.5c-0.3-0.4-0.5-0.9-0.5-1.7v-0.2l-0.3-0.1c-0.4,0.9-1,1.6-1.9,2c-0.9,0.5-1.9,0.7-2.8,0.7
			c-1.1,0-2-0.3-2.8-0.8c-0.5-0.4-1-0.8-1.3-1.4s-0.5-1.2-0.5-1.9c0-1.4,0.6-2.5,1.7-3.2c0.7-0.5,1.8-0.8,3.1-1l1.5-0.2
			c0.7-0.1,1.3-0.2,1.7-0.4c0.4-0.1,0.8-0.3,1-0.6c0.2-0.3,0.3-0.6,0.3-1c0-0.6-0.3-1.1-0.8-1.5c-0.5-0.4-1.3-0.5-2.2-0.5
			c-0.6,0-1.2,0.1-1.7,0.3c-0.5,0.2-0.9,0.6-1.2,1c-0.3,0.4-0.5,0.9-0.5,1.5h-2.5c0-1,0.3-1.9,0.8-2.6c0.5-0.7,1.1-1.3,2-1.7
			c0.9-0.4,1.9-0.6,3-0.6c1.8,0,3.2,0.4,4.2,1.1C127.8,60.4,128.3,61.5,128.3,63.2z M123,66.5l-1.3,0.3c-0.5,0.1-0.9,0.2-1.2,0.3
			c-0.3,0.1-0.6,0.2-0.8,0.4c-0.5,0.4-0.8,0.9-0.8,1.7c0,0.6,0.2,1.1,0.6,1.4c0.5,0.4,1.1,0.6,1.9,0.6c0.7,0,1.3-0.1,2-0.4
			c0.7-0.3,1.2-0.7,1.7-1.4c0.4-0.7,0.7-1.5,0.7-2.6v-1.9c-0.3,0.5-0.6,0.8-1.1,1.1S123.8,66.3,123,66.5z"/>
		<path d="M138.8,72.7C138.8,72.7,138.8,72.7,138.8,72.7C138.8,72.8,138.8,72.8,138.8,72.7c-1.1,0.2-1.9,0.3-2.5,0.3
			c-1.3,0-2.2-0.4-2.7-1.1c-0.5-0.7-0.8-1.8-0.8-3.3v-7.7h-2.3v-2h2.3V55h2.5v3.9h3.4v2h-3.4V69c0,0.6,0.1,1,0.3,1.3
			c0.2,0.3,0.6,0.4,1.1,0.4c0.3,0,0.7,0,1.1-0.1s0.7-0.1,0.9-0.2h0V72.7z"/>
		<path d="M141.6,56.2c-0.3-0.3-0.5-0.7-0.5-1.2c0-0.4,0.2-0.8,0.5-1.1s0.7-0.5,1.2-0.5c0.4,0,0.8,0.2,1.1,0.5
			c0.3,0.3,0.5,0.7,0.5,1.1c0,0.5-0.2,0.9-0.5,1.2c-0.3,0.3-0.7,0.5-1.1,0.5C142.3,56.7,141.9,56.5,141.6,56.2z M144,58.9v14h-2.5
			v-14H144z"/>
		<path d="M150,72.3c-1-0.6-1.8-1.5-2.4-2.6c-0.6-1.1-0.8-2.4-0.8-3.9s0.3-2.7,0.8-3.8c0.5-1.1,1.3-1.9,2.4-2.5s2.2-0.9,3.6-0.9
			c1.4,0,2.6,0.3,3.6,0.9c1,0.6,1.8,1.5,2.4,2.6s0.8,2.4,0.8,3.8c0,1.5-0.3,2.7-0.8,3.9c-0.6,1.1-1.3,2-2.4,2.6s-2.2,0.9-3.6,0.9
			C152.2,73.2,151,72.9,150,72.3z M155.9,70.4c0.6-0.5,1.1-1.1,1.3-1.9c0.3-0.8,0.4-1.7,0.4-2.7c0-1-0.1-1.8-0.4-2.6
			s-0.7-1.4-1.3-1.9c-0.6-0.5-1.3-0.7-2.2-0.7h-0.3c-0.9,0-1.6,0.2-2.2,0.7c-0.6,0.5-1.1,1.1-1.4,1.9c-0.3,0.8-0.4,1.7-0.4,2.6
			c0,1.5,0.3,2.7,1,3.8s1.7,1.6,3,1.6h0.3C154.6,71.1,155.3,70.9,155.9,70.4z"/>
		<path d="M165.3,58.9v0.3c0,0.4,0,0.6-0.1,0.9c0,0.2-0.1,0.5-0.3,0.8l0.4,0.1c0.2-0.7,0.8-1.3,1.6-1.8s1.8-0.7,2.9-0.7
			c0.9,0,1.7,0.1,2.4,0.4c0.7,0.3,1.3,0.8,1.8,1.5c0.5,0.7,0.7,1.7,0.7,2.9v9.6h-2.5v-9.2c0-1-0.3-1.8-0.9-2.3s-1.4-0.7-2.4-0.7H169
			c-0.7,0-1.3,0.1-1.9,0.4s-1,0.7-1.4,1.2s-0.5,1.1-0.5,1.8v8.8h-2.5v-14H165.3z"/>
		<path d="M180.1,69.7c0.3,0.5,0.7,0.8,1.2,1.1c0.5,0.3,1.1,0.4,1.8,0.4c0.6,0,1.1-0.1,1.6-0.2c0.5-0.2,0.8-0.4,1.1-0.7
			c0.3-0.3,0.4-0.7,0.4-1.1c0-0.6-0.2-1-0.6-1.3c-0.4-0.3-1-0.6-1.8-0.8l-2.7-0.6c-1.2-0.3-2-0.7-2.5-1.4c-0.5-0.6-0.8-1.4-0.8-2.4
			c0-0.8,0.2-1.5,0.7-2.2c0.5-0.6,1.1-1.1,1.9-1.4c0.8-0.3,1.7-0.5,2.8-0.5c1.1,0,2,0.2,2.9,0.6c0.8,0.4,1.5,1,2,1.7
			c0.5,0.7,0.8,1.6,0.8,2.6H186c0-0.7-0.2-1.2-0.5-1.6c-0.3-0.4-0.7-0.7-1.2-0.9c-0.5-0.2-0.9-0.3-1.5-0.3c-0.8,0-1.5,0.2-2,0.5
			c-0.5,0.3-0.7,0.8-0.7,1.4c0,0.4,0.1,0.8,0.4,1.1c0.3,0.3,0.7,0.6,1.4,0.7l2.9,0.7c1.2,0.3,2.2,0.7,2.8,1.4c0.7,0.6,1,1.5,1,2.5
			c0,0.9-0.2,1.7-0.7,2.3c-0.4,0.6-1.1,1.1-1.9,1.5c-0.8,0.3-1.9,0.5-3,0.5c-1.3,0-2.4-0.2-3.3-0.7c-0.9-0.5-1.6-1.1-2-1.9
			S177,68.9,177,68h2.6C179.6,68.6,179.8,69.2,180.1,69.7z"/>
	</g>
</g>
</svg>
