<?xml version="1.0" encoding="utf-8"?>
<!-- Generator: Adobe Illustrator 26.5.3, SVG Export Plug-In . SVG Version: 6.00 Build 0)  -->
<svg version="1.1" id="Layer_1" xmlns="http://www.w3.org/2000/svg" xmlns:xlink="http://www.w3.org/1999/xlink" x="0px" y="0px"
	 viewBox="0 0 355.2 51.1" style="enable-background:new 0 0 355.2 51.1;" xml:space="preserve">
<style type="text/css">
	.st0{clip-path:url(#SVGID_00000163039330019870040320000000642125561934567073_);}
	.st1{clip-path:url(#SVGID_00000163039330019870040320000000642125561934567073_);fill:none;stroke:#000000;stroke-width:4;}
</style>
<g>
	<defs>
		<rect id="SVGID_1_" width="355.2" height="51.1"/>
	</defs>
	<clipPath id="SVGID_00000183968749597103603400000008442674831461115033_">
		<use xlink:href="#SVGID_1_"  style="overflow:visible;"/>
	</clipPath>
	<path style="clip-path:url(#SVGID_00000183968749597103603400000008442674831461115033_);" d="M352.6,36.9L352.6,36.9
		c-0.5,0.1-1.2,0.2-2,0.4c-0.9,0.1-1.7,0.2-2.3,0.2c-1.1,0-1.9-0.3-2.4-0.9c-0.4-0.6-0.7-1.6-0.7-2.8V16.5h7.2v-4.3h-7.2V3.9H340
		v8.3h-4.9v4.3h4.9v16.4c0,3.1,0.6,5.4,1.7,7c1.1,1.6,3,2.3,5.7,2.3c1.2,0,2.9-0.2,5-0.6c0,0,0.1,0,0.1,0c0,0,0,0,0.1,0V36.9z
		 M332.2,31h-5.4c-0.2,1.3-0.6,2.5-1.3,3.6c-0.7,1.1-1.6,1.9-2.8,2.6c-1.2,0.7-2.5,1-4.1,1H318c-1.9,0-3.5-0.5-4.8-1.6
		c-1.3-1-2.2-2.4-2.8-4.1c-0.6-1.7-0.9-3.6-0.9-5.6c0-2,0.3-3.8,0.9-5.5c0.6-1.7,1.6-3,2.9-4c1.3-1,2.9-1.5,4.7-1.5h0.6
		c2.1,0,3.9,0.6,5.4,1.9c1.5,1.3,2.4,2.9,2.8,4.8h5.5c-0.5-2.5-1.4-4.6-2.7-6.3c-1.3-1.6-3-2.9-4.9-3.6c-1.9-0.8-4.1-1.2-6.4-1.2
		c-2.9,0-5.4,0.6-7.6,1.9c-2.2,1.3-3.8,3.1-5,5.4c-1.2,2.3-1.7,5-1.7,8.1s0.6,5.8,1.7,8.1c1.2,2.4,2.8,4.2,5,5.5
		c2.2,1.3,4.7,2,7.6,2c2.4,0,4.6-0.5,6.7-1.5c2-1,3.7-2.4,5-4.2C331.3,35.1,332,33.1,332.2,31 M290.7,27.1c1.1-0.6,1.9-1.4,2.4-2.4
		v4.1c0,2.3-0.5,4.1-1.4,5.5c-0.9,1.4-2.1,2.4-3.5,2.9c-1.4,0.6-2.8,0.9-4.2,0.9c-1.7,0-3.1-0.4-4.1-1.3c-0.9-0.8-1.3-1.7-1.3-3
		c0-1.4,0.4-2.5,1.3-3.3c0.5-0.4,1.1-0.8,1.8-1c0.7-0.3,1.6-0.5,2.6-0.7l2.6-0.5C288.3,28.1,289.6,27.7,290.7,27.1 M295.2,13.8
		c-2-1.5-5-2.3-8.8-2.3c-2.5,0-4.6,0.4-6.4,1.3c-1.8,0.9-3.2,2.1-4.2,3.6c-1,1.6-1.6,3.4-1.6,5.5h5.3c0.1-1.3,0.5-2.4,1.1-3.3
		c0.6-0.9,1.4-1.6,2.5-2.1c1-0.5,2.2-0.7,3.5-0.7c2,0,3.6,0.4,4.7,1.1c1.1,0.8,1.7,1.8,1.7,3.1c0,0.9-0.2,1.6-0.7,2.2
		c-0.5,0.6-1.2,1-2.1,1.3c-0.9,0.3-2.2,0.5-3.7,0.7l-2.8,0.4c-3,0.4-5.3,1.1-7,2.3c-2.3,1.6-3.4,3.9-3.4,6.9c0,1.4,0.3,2.6,0.8,3.8
		c0.6,1.1,1.3,2.1,2.3,2.8c1.7,1.4,3.9,2.1,6.5,2.1c2.8,0,5.2-0.7,7.2-2c2-1.3,3.3-3.3,4-5.8l0.7,0.2c0,0.1-0.1,0.2-0.1,0.3
		c0,0.1,0,0.2-0.1,0.3c-0.2,0.6-0.4,1.2-0.5,1.8c-0.1,0.6-0.2,1.2-0.2,1.7c0,1,0.3,1.7,1,2.2c0.7,0.5,1.7,0.7,3.2,0.7
		c0.9,0,2-0.1,3.3-0.2v-4.4c-0.4,0.1-0.8,0.1-1.2,0.1c-0.8,0-1.3-0.1-1.5-0.4c-0.2-0.3-0.3-0.9-0.3-1.9V21.3
		C298.2,17.8,297.2,15.4,295.2,13.8 M270.3,36.9L270.3,36.9c-0.5,0.1-1.2,0.2-2,0.4c-0.9,0.1-1.7,0.2-2.3,0.2
		c-1.1,0-1.9-0.3-2.4-0.9c-0.4-0.6-0.7-1.6-0.7-2.8V16.5h7.2v-4.3h-7.2V3.9h-5.2v8.3h-4.9v4.3h4.9v16.4c0,3.1,0.6,5.4,1.7,7
		c1.1,1.6,3,2.3,5.7,2.3c1.2,0,2.9-0.2,5-0.6c0,0,0.1,0,0.1,0c0,0,0,0,0.1,0V36.9z M224.2,12.2v29.6h5.2V23.2c0-1.5,0.4-2.8,1.1-3.9
		c0.7-1.1,1.7-1.9,2.9-2.5c1.2-0.6,2.5-0.9,3.9-0.9h0.1c2.2,0,3.9,0.5,5.1,1.5c1.2,1,1.9,2.6,1.9,4.8v19.6h5.2V21.5
		c0-2.6-0.5-4.6-1.5-6.1c-1-1.5-2.3-2.5-3.8-3.1c-1.5-0.6-3.2-0.9-5.1-0.9c-2.5,0-4.7,0.7-6.7,2.1c-2,1.4-3.5,3.3-4.4,5.7l-0.4,0.9
		l-0.7-0.2c0.2-0.7,0.4-1.3,0.7-2c0.3-0.7,0.5-1.3,0.8-1.8c0.4-0.8,0.7-1.5,0.9-2c0.2-0.5,0.3-1,0.3-1.6v-0.4H224.2z M205.8,38.2
		h-0.6c-2.8,0-4.9-1.1-6.4-3.3c-1.4-2.2-2.2-4.8-2.2-8c0-2,0.3-3.8,0.9-5.5c0.6-1.7,1.6-3,2.9-4c1.3-1,2.9-1.5,4.7-1.5h0.6
		c1.9,0,3.5,0.5,4.7,1.5c1.3,1,2.2,2.3,2.8,4c0.6,1.7,0.9,3.5,0.9,5.6c0,2.1-0.3,4-0.9,5.7c-0.6,1.7-1.6,3.1-2.8,4.1
		C209.3,37.7,207.7,38.2,205.8,38.2 M205.5,42.6c2.8,0,5.4-0.7,7.5-2c2.2-1.3,3.8-3.2,5-5.5c1.2-2.3,1.7-5.1,1.7-8.1
		c0-3-0.6-5.7-1.7-8.1c-1.2-2.3-2.8-4.1-5-5.4c-2.2-1.3-4.7-1.9-7.6-1.9s-5.4,0.6-7.6,1.9c-2.2,1.3-3.8,3.1-5,5.4
		c-1.2,2.3-1.7,5-1.7,8.1s0.6,5.8,1.7,8.1c1.2,2.4,2.8,4.2,5,5.5C200.1,41.9,202.6,42.6,205.5,42.6 M188.2,31h-5.4
		c-0.2,1.3-0.6,2.5-1.3,3.6c-0.7,1.1-1.6,1.9-2.8,2.6s-2.5,1-4.1,1H174c-1.9,0-3.5-0.5-4.8-1.6c-1.3-1-2.2-2.4-2.8-4.1
		c-0.6-1.7-0.9-3.6-0.9-5.6c0-2,0.3-3.8,0.9-5.5c0.6-1.7,1.6-3,2.9-4c1.3-1,2.9-1.5,4.7-1.5h0.6c2.1,0,3.9,0.6,5.4,1.9
		c1.5,1.3,2.4,2.9,2.8,4.8h5.5c-0.5-2.5-1.4-4.6-2.7-6.3c-1.3-1.6-3-2.9-4.9-3.6c-1.9-0.8-4.1-1.2-6.4-1.2c-2.9,0-5.4,0.6-7.6,1.9
		c-2.2,1.3-3.8,3.1-5,5.4c-1.2,2.3-1.7,5-1.7,8.1s0.6,5.8,1.7,8.1c1.2,2.4,2.8,4.2,5,5.5c2.2,1.3,4.7,2,7.6,2c2.4,0,4.6-0.5,6.7-1.5
		c2-1,3.7-2.4,5-4.2C187.2,35.1,188,33.1,188.2,31 M121,14.3c-0.8-1.1-1.2-2.3-1.2-3.5c0-1.3,0.4-2.4,1.3-3.3
		c0.8-0.8,1.9-1.3,3.2-1.3c0.8,0,1.6,0.2,2.3,0.5c0.7,0.3,1.2,0.8,1.7,1.5c0.4,0.7,0.6,1.4,0.6,2.2c0,1.5-0.4,2.7-1.2,3.8
		c-0.8,1-2,2.1-3.5,3.1l-0.4,0.2C122.6,16.4,121.7,15.3,121,14.3 M129.6,36.2c-1.8,1.3-3.8,1.9-5.9,1.9c-2,0-3.7-0.6-5.2-1.7
		c-1.4-1.1-2.2-2.7-2.2-4.7c0-1.1,0.2-2.2,0.6-3.2c0.4-1,1.1-2,2.1-3c0.8-0.8,2-1.7,3.4-2.5l9.7,10.8
		C131.4,34.7,130.5,35.5,129.6,36.2 M145.6,41.8l-7.5-8.2c0.2-0.2,0.3-0.5,0.4-0.7c1.4-2.9,2.3-6.1,2.5-9.7h-5.4
		c-0.2,2.3-0.6,4.4-1.3,6.2l-7.7-8.5c1.4-1,2.6-2,3.7-3c1.1-1.1,2-2.3,2.6-3.6c0.6-1.3,0.9-2.6,0.9-4c0-2.6-0.9-4.7-2.8-6.3
		c-1.8-1.6-4.2-2.4-7-2.4c-1.9,0-3.5,0.4-4.9,1.1c-1.4,0.8-2.6,1.8-3.4,3.2c-0.8,1.4-1.2,2.9-1.2,4.7c0,1.7,0.5,3.2,1.4,4.6
		c0.8,1.3,1.9,2.6,3.3,4.1c-2.7,1.7-4.6,3.5-5.9,5.2c-1.6,2.2-2.4,4.5-2.4,7.1c0,2.1,0.5,3.9,1.5,5.5c1,1.6,2.4,2.9,4.4,3.9
		c1.9,0.9,4.2,1.4,6.8,1.4c3.4,0,6.3-0.9,8.9-2.6c1-0.7,2-1.5,2.8-2.5l4,4.4H145.6z M80.5,38.2h-0.6c-2.8,0-4.9-1.1-6.4-3.3
		c-1.4-2.2-2.2-4.8-2.2-8c0-2,0.3-3.8,0.9-5.5c0.6-1.7,1.6-3,2.9-4c1.3-1,2.9-1.5,4.7-1.5h0.6c1.9,0,3.5,0.5,4.7,1.5
		c1.3,1,2.2,2.3,2.8,4c0.6,1.7,0.9,3.5,0.9,5.6c0,2.1-0.3,4-0.9,5.7c-0.6,1.7-1.6,3.1-2.8,4.1C84,37.7,82.4,38.2,80.5,38.2
		 M80.2,42.6c2.8,0,5.4-0.7,7.5-2c2.2-1.3,3.8-3.2,5-5.5c1.2-2.3,1.7-5.1,1.7-8.1c0-3-0.6-5.7-1.7-8.1c-1.2-2.3-2.8-4.1-5-5.4
		c-2.2-1.3-4.7-1.9-7.6-1.9c-2.9,0-5.4,0.6-7.6,1.9c-2.2,1.3-3.8,3.1-5,5.4c-1.2,2.3-1.7,5-1.7,8.1s0.6,5.8,1.7,8.1
		c1.2,2.4,2.8,4.2,5,5.5C74.8,41.9,77.3,42.6,80.2,42.6 M54.8,2.1c-1.6,1.4-2.3,3.5-2.3,6.2v3.9h-5v4.3h5v25.3h5.2V16.5h8v-4.3h-8
		V8.6c0-1.4,0.4-2.5,1.1-3.1c0.7-0.6,1.8-0.9,3.2-0.9c1,0,2.3,0.2,3.8,0.7V0.5c-0.4-0.1-1-0.2-1.8-0.3C63.1,0.1,62.3,0,61.5,0
		C58.6,0,56.4,0.7,54.8,2.1 M18.8,12.2v29.6H24V23.2c0-1.5,0.4-2.8,1.1-3.9c0.7-1.1,1.7-1.9,2.9-2.5c1.2-0.6,2.5-0.9,3.9-0.9H32
		c2.2,0,3.9,0.5,5.1,1.5c1.2,1,1.9,2.6,1.9,4.8v19.6h5.2V21.5c0-2.6-0.5-4.6-1.5-6.1c-1-1.5-2.3-2.5-3.8-3.1
		c-1.5-0.6-3.2-0.9-5.1-0.9c-2.5,0-4.7,0.7-6.7,2.1c-2,1.4-3.5,3.3-4.4,5.7l-0.4,0.9L21.7,20c0.2-0.7,0.4-1.3,0.7-2
		c0.3-0.7,0.5-1.3,0.8-1.8c0.4-0.8,0.7-1.5,0.9-2c0.2-0.5,0.3-1,0.3-1.6v-0.4H18.8z M7,41.8h5.2V12.2H7V41.8z M9.6,7.6
		c0.9,0,1.7-0.3,2.4-1c0.7-0.7,1-1.5,1-2.5c0-0.9-0.3-1.8-1-2.4c-0.7-0.7-1.5-1-2.4-1c-1,0-1.8,0.3-2.5,1c-0.7,0.7-1,1.5-1,2.4
		c0,1,0.3,1.8,1,2.5C7.7,7.3,8.6,7.6,9.6,7.6"/>
	
		<line style="clip-path:url(#SVGID_00000183968749597103603400000008442674831461115033_);fill:none;stroke:#000000;stroke-width:4;" x1="0" y1="49.1" x2="355.2" y2="49.1"/>
</g>
</svg>
