<?xml version="1.0" encoding="utf-8"?>
<!-- Generator: Adobe Illustrator 26.5.3, SVG Export Plug-In . SVG Version: 6.00 Build 0)  -->
<svg version="1.1" id="Layer_1" xmlns="http://www.w3.org/2000/svg" xmlns:xlink="http://www.w3.org/1999/xlink" x="0px" y="0px"
	 viewBox="0 0 144.6 102.8" style="enable-background:new 0 0 144.6 102.8;" xml:space="preserve">
<g>
	<path d="M122.2,30c-0.4,0.1-0.9,0.2-1.7,0.3c-0.8,0.1-1.4,0.2-2,0.2c-1,0-1.6-0.3-2-0.8c-0.4-0.5-0.6-1.3-0.6-2.4V12.7h6.1V9h-6.1
		V2h-4.4v5.5V9v3.7v2.7v11.2c0,2.6,0.5,4.6,1.4,5.9c0.9,1.3,2.6,2,4.9,2c1,0,2.4-0.2,4.3-0.5c0,0,0.1,0,0.1,0c0,0,0,0,0.1,0
		L122.2,30L122.2,30z"/>
	<path d="M26.4,29.3c1.5,0,2.8-0.3,3.8-1c1-0.7,1.8-1.7,2.3-2.9c0.5-1.3,0.8-2.7,0.8-4.4c0-2.7-0.6-4.8-1.7-6.4
		c-1.2-1.6-2.9-2.3-5.2-2.3H26c-1.5,0-2.8,0.4-3.9,1.1c-1.1,0.7-1.9,1.7-2.4,3c-0.5,1.3-0.8,2.8-0.8,4.5c0,2.6,0.6,4.7,1.8,6.2
		c1.2,1.5,3,2.3,5.3,2.3H26.4z M25.5,40.9h0.4c2.1,0,3.8-0.6,5.1-1.7c1.3-1.2,2-2.9,2-5.2v-1.2c0-0.8,0.1-1.4,0.2-2
		c0.2-0.6,0.4-1.2,0.7-2c0.2-0.3,0.3-0.7,0.5-1.1c0.1-0.4,0.3-0.8,0.4-1.2l-0.6-0.2L33.8,27c-0.7,1.6-1.8,3-3.3,4.2
		c-1.5,1.2-3.4,1.8-5.9,1.8c-2.2,0-4-0.5-5.6-1.6c-1.6-1.1-2.7-2.5-3.5-4.4c-0.8-1.9-1.2-4-1.2-6.4c0-2.3,0.4-4.4,1.2-6.3
		c0.8-1.8,2-3.3,3.6-4.3c1.6-1,3.5-1.6,5.6-1.6c2.3,0,4,0.5,5.3,1.4c1.2,0.9,2.1,2,2.7,3.3l0.6-0.2v-0.1h-0.1
		c-0.3-0.9-0.5-1.5-0.6-2c-0.1-0.4-0.2-1-0.2-1.6V9h4.6v24.3c0,2.4-0.5,4.5-1.4,6.2c-0.9,1.7-2.3,2.9-4,3.8
		c-1.7,0.9-3.8,1.3-6.2,1.3c-3.9,0-6.7-0.9-8.4-2.6c-1.7-1.7-2.7-4.1-3-6.9h4.6c0.2,2,0.9,3.4,2.1,4.4C22,40.4,23.5,40.9,25.5,40.9"
		/>
	<path d="M56.3,34.2v-0.4c0-0.5,0.1-0.9,0.2-1.3c0.2-0.4,0.4-1,0.7-1.7c0.2-0.5,0.4-1,0.7-1.5c0.2-0.6,0.4-1.1,0.6-1.7l-0.6-0.2
		l-0.3,0.8c-0.8,2-1.9,3.7-3.5,4.8c-1.6,1.2-3.4,1.8-5.4,1.8c-1.6,0-3-0.2-4.3-0.7c-1.3-0.5-2.4-1.4-3.2-2.6c-0.9-1.3-1.3-3-1.3-5.2
		V9h4.4v16.6c0,1.9,0.5,3.2,1.4,4.1c0.9,0.8,2.3,1.3,4.1,1.3h0.1c1.9,0,3.5-0.5,4.7-1.6c1.3-1.1,1.9-2.6,1.9-4.5V9h4.4v25.1H56.3z"
		/>
	<path d="M82,19c-0.1-1.3-0.5-2.4-1-3.5c-0.6-1-1.3-1.9-2.3-2.5c-1-0.6-2.1-0.9-3.5-0.9h-0.5c-1.9,0-3.5,0.7-4.7,2
		c-1.2,1.3-2,2.9-2.2,4.9H82z M63.3,21.6c0-2.6,0.5-4.9,1.5-6.9c1-2,2.4-3.5,4.1-4.6c1.8-1.1,3.8-1.6,6.2-1.6c2.4,0,4.4,0.5,6.2,1.5
		c1.7,1,3.1,2.5,4,4.5c0.9,2,1.4,4.3,1.4,7.1v1.2l-18.9,0.1c0.1,1.6,0.4,3.1,1.1,4.3c0.6,1.2,1.5,2.2,2.6,2.9
		c1.1,0.7,2.4,1.1,3.8,1.1h0.3c1.8,0,3.3-0.5,4.7-1.6c1.3-1,2.2-2.4,2.5-4.1h4.6c-0.3,1.8-1,3.4-2.1,4.8c-1.1,1.4-2.4,2.5-4.1,3.3
		c-1.7,0.8-3.6,1.2-5.8,1.2c-2.5,0-4.7-0.5-6.5-1.6c-1.8-1.1-3.2-2.6-4.1-4.6C63.7,26.6,63.3,24.3,63.3,21.6"/>
	<path d="M94,28.4c0.5,0.8,1.3,1.5,2.2,2c0.9,0.5,2,0.7,3.1,0.7c1,0,2-0.1,2.8-0.4c0.8-0.3,1.5-0.7,2-1.3c0.5-0.6,0.7-1.2,0.7-2
		c0-1-0.4-1.8-1.1-2.4c-0.7-0.6-1.8-1-3.3-1.4l-4.9-1.2C93.4,22,91.9,21.1,91,20c-1-1.1-1.4-2.6-1.4-4.3c0-1.5,0.4-2.8,1.2-3.9
		s2-1.9,3.4-2.5c1.5-0.6,3.1-0.9,5-0.9c1.9,0,3.6,0.4,5.2,1.1c1.5,0.7,2.7,1.8,3.6,3.1c0.9,1.3,1.4,2.9,1.4,4.7h-4.7
		c-0.1-1.2-0.4-2.1-1-2.9c-0.6-0.8-1.3-1.3-2.1-1.7c-0.8-0.4-1.7-0.5-2.6-0.5c-1.5,0-2.6,0.3-3.5,0.9c-0.9,0.6-1.3,1.4-1.3,2.5
		c0,0.8,0.2,1.4,0.7,2c0.5,0.6,1.3,1,2.4,1.3l5.2,1.2c2.2,0.5,3.9,1.3,5.1,2.5c1.2,1.2,1.8,2.7,1.8,4.6c0,1.6-0.4,3-1.2,4.2
		c-0.8,1.2-2,2-3.5,2.7c-1.5,0.6-3.3,0.9-5.4,0.9c-2.4,0-4.4-0.4-6-1.3s-2.8-2-3.6-3.5c-0.8-1.4-1.2-2.9-1.2-4.6h4.6
		C93.1,26.6,93.4,27.6,94,28.4"/>
	<path d="M6,66.7v6.9c0,1.4-0.1,2.6-0.3,3.5c-0.2,0.9-0.5,1.9-0.9,3c-0.2,0.4-0.3,0.9-0.5,1.4s-0.3,1-0.4,1.5l0.6,0.2l0.3-0.8
		c0.7-2,2-3.6,3.7-4.8c1.7-1.2,3.6-1.8,5.7-1.8c2.5,0,4.6,0.6,6.3,1.9c1.7,1.3,2.5,3.5,2.5,6.6v17.3h-4.4V85c0-1.8-0.5-3.2-1.6-4
		c-1.1-0.9-2.5-1.3-4.3-1.3h-0.1c-1.2,0-2.3,0.2-3.3,0.7c-1,0.5-1.8,1.2-2.4,2.1c-0.6,0.9-0.9,2-0.9,3.3v15.8H1.6v-35H6z"/>
	<path d="M41.9,97.2c1.1-0.9,1.9-2,2.4-3.4c0.5-1.4,0.8-3.1,0.8-4.8c0-1.7-0.3-3.3-0.8-4.7c-0.5-1.4-1.3-2.5-2.4-3.4
		c-1.1-0.8-2.4-1.3-4-1.3h-0.5c-1.6,0-2.9,0.4-4,1.3c-1.1,0.9-1.9,2-2.4,3.4c-0.5,1.4-0.8,3-0.8,4.7c0,2.6,0.6,4.9,1.8,6.8
		c1.2,1.9,3,2.8,5.4,2.8h0.5C39.4,98.5,40.8,98.1,41.9,97.2 M31.2,100.5c-1.8-1.1-3.2-2.7-4.2-4.7c-1-2-1.5-4.3-1.5-6.9
		c0-2.6,0.5-4.9,1.5-6.9c1-2,2.4-3.5,4.2-4.6c1.8-1.1,4-1.6,6.4-1.6c2.4,0,4.6,0.5,6.4,1.6c1.8,1.1,3.2,2.6,4.2,4.6
		c1,2,1.5,4.3,1.5,6.8c0,2.6-0.5,4.9-1.5,6.9c-1,2-2.4,3.6-4.2,4.7c-1.8,1.1-4,1.7-6.4,1.7C35.1,102.2,33,101.7,31.2,100.5"/>
	<path d="M57.1,76.5v0.4c0,0.5-0.1,0.9-0.2,1.3c-0.2,0.4-0.4,1-0.7,1.7c-0.2,0.5-0.4,1-0.7,1.5c-0.2,0.6-0.4,1.1-0.6,1.7l0.6,0.2
		l0.3-0.8c0.7-2,2-3.6,3.7-4.8c1.7-1.2,3.6-1.8,5.7-1.8c1.6,0,3,0.2,4.3,0.7c1.3,0.5,2.4,1.4,3.2,2.6c0.9,1.3,1.3,3,1.3,5.2v17.3
		h-4.4V85c0-1.8-0.5-3.2-1.6-4s-2.5-1.3-4.4-1.3h-0.1c-1.2,0-2.3,0.2-3.3,0.7c-1,0.5-1.8,1.2-2.4,2.1c-0.6,0.9-0.9,2-0.9,3.3v15.8
		h-4.4V76.5H57.1z"/>
	<path d="M119.9,101v-0.4c0-0.5,0.1-0.9,0.2-1.3c0.2-0.4,0.4-1,0.7-1.7c0.2-0.5,0.4-1,0.7-1.5c0.2-0.6,0.4-1.1,0.6-1.7l-0.6-0.2
		l-0.3,0.8c-0.7,2-2,3.6-3.7,4.8c-1.7,1.2-3.6,1.8-5.7,1.8c-1.6,0-3-0.2-4.3-0.7c-1.3-0.5-2.4-1.4-3.2-2.6c-0.9-1.3-1.3-3-1.3-5.2
		V75.9h4.4v16.6c0,1.8,0.5,3.2,1.6,4c1.1,0.9,2.5,1.3,4.4,1.3h0.1c1.2,0,2.3-0.2,3.3-0.7c1-0.5,1.8-1.2,2.4-2.1
		c0.6-0.9,0.9-2,0.9-3.3V75.9h4.4V101H119.9z"/>
	<path d="M92.4,97.3c1.1-0.9,1.9-2,2.4-3.4c0.5-1.4,0.8-3.1,0.8-4.8c0-1.7-0.3-3.3-0.8-4.7c-0.5-1.4-1.3-2.5-2.4-3.4
		c-1.1-0.8-2.4-1.3-4-1.3h-0.5c-1.6,0-2.9,0.4-4,1.3c-1.1,0.9-1.9,2-2.4,3.4c-0.5,1.4-0.8,3-0.8,4.7c0,2.6,0.6,4.9,1.8,6.8
		c1.2,1.9,3,2.8,5.4,2.8h0.5C90,98.6,91.3,98.1,92.4,97.3 M81.7,100.6c-1.8-1.1-3.2-2.7-4.2-4.7c-1-2-1.5-4.3-1.5-6.9
		c0-2.6,0.5-4.9,1.5-6.9c1-2,2.4-3.5,4.2-4.6c1.8-1.1,4-1.6,6.4-1.6c2.4,0,4.6,0.5,6.4,1.6c1.8,1.1,3.2,2.6,4.2,4.6
		c1,2,1.5,4.3,1.5,6.8c0,2.6-0.5,4.9-1.5,6.9c-1,2-2.4,3.6-4.2,4.7c-1.8,1.1-4,1.7-6.4,1.7C85.7,102.3,83.6,101.7,81.7,100.6"/>
	<path d="M138.6,81c-1.9,0-3.5,0.6-4.7,1.6c-1.2,1-1.8,2.7-1.8,4.9v14.1h-4.4V76.5h4.4v0.1c0,0.8-0.1,1.7-0.4,2.4
		c-0.2,0.8-0.6,1.8-1.1,3.1l-0.4,0.9l0.6,0.2c0.1-0.3,0.2-0.5,0.3-0.8c0.1-0.2,0.2-0.5,0.4-0.7c0.9-1.6,1.9-2.7,3-3.5
		c1.1-0.8,2.3-1.3,3.4-1.5c1.2-0.2,2.5-0.3,4-0.3h0.9l-0.1,4.9c-0.7-0.1-1.5-0.1-2.3-0.2C139.7,81,139.1,81,138.6,81"/>
	<path d="M67.5,37.5c0.7,0,1.3,0.1,2,0.2c0.7,0.1,1.2,0.2,1.6,0.3v4c-1.3-0.4-2.3-0.6-3.2-0.6c-1.2,0-2.1,0.3-2.7,0.8
		c-0.6,0.5-0.9,1.4-0.9,2.6v3.1H71v3.7h-6.8V73h-4.4V51.5h-4.3v-3.7h4.3v-3.3c0-2.3,0.7-4.1,2-5.3C63.1,38.1,65,37.5,67.5,37.5"/>
	<path d="M48.3,68.6c1.1-0.9,1.9-2,2.4-3.4c0.5-1.4,0.8-3.1,0.8-4.8c0-1.7-0.3-3.3-0.8-4.7c-0.5-1.4-1.3-2.5-2.4-3.4
		c-1.1-0.8-2.4-1.3-4-1.3h-0.5c-1.6,0-2.9,0.4-4,1.3c-1.1,0.9-1.9,2-2.4,3.4c-0.5,1.4-0.8,3-0.8,4.7c0,2.6,0.6,4.9,1.8,6.8
		c1.2,1.9,3,2.8,5.4,2.8h0.5C45.8,69.9,47.2,69.4,48.3,68.6 M37.5,71.9c-1.8-1.1-3.2-2.7-4.2-4.7c-1-2-1.5-4.3-1.5-6.9
		c0-2.6,0.5-4.9,1.5-6.9c1-2,2.4-3.5,4.2-4.6c1.8-1.1,4-1.6,6.4-1.6c2.4,0,4.6,0.5,6.4,1.6c1.8,1.1,3.2,2.6,4.2,4.6
		c1,2,1.5,4.3,1.5,6.8c0,2.6-0.5,4.9-1.5,6.9c-1,2-2.4,3.6-4.2,4.7c-1.8,1.1-4,1.7-6.4,1.7C41.5,73.6,39.4,73,37.5,71.9"/>
	<path d="M18.4,41.3l0-6.3h-4.3l0,6.1c0.1,2.2,0.6,4.3,1.4,6.2c0.9,2.1,2.2,4.3,3.9,6.5c0.2,0.3,0.4,0.6,0.6,0.9
		c0.2,0.3,0.4,0.6,0.6,0.9c1.3,1.8,2.3,3.3,2.9,4.4c0.6,1.1,0.9,2.2,0.9,3.3c0,0.4-0.1,0.7-0.3,0.9c-0.2,0.2-0.5,0.3-0.8,0.3
		c-0.6,0-1.4-0.2-2.3-0.7c-0.9-0.5-2.1-1.2-3.6-2.1l-0.9-0.6c-0.2-0.1-0.5-0.3-0.7-0.4c-0.3-0.2-0.5-0.3-0.7-0.5
		c-1.5-0.8-2.8-1.5-4-2c-1.2-0.5-2.3-0.7-3.2-0.7c-1.7,0-3.3,0.5-4.2,1.8c-0.9,1.3-1.7,2.8-1.9,5.6c-0.2,2.9-0.1,5.4,0,9.1L6,73.7
		c0-4.1,0-6.4,0.2-8.4c0.1-1,0.2-1.9,0.6-2.5c0.4-0.7,0.9-1,1.7-1c0.7,0,1.5,0.2,2.2,0.6c0.8,0.4,1.9,1,3.2,1.8l0.9,0.6
		c0.2,0.1,0.4,0.2,0.6,0.3c0.2,0.1,0.4,0.2,0.6,0.3c1.8,1.1,3.3,2,4.6,2.6c1.3,0.6,2.4,0.9,3.5,0.9c1.3,0,2.4-0.5,3.3-1.4
		c0.9-0.9,1.3-2.2,1.3-4c0-1.2-0.2-2.3-0.6-3.4c-0.4-1.1-0.9-2.1-1.5-3c-0.6-0.9-1.4-2-2.4-3.4c-0.2-0.3-0.5-0.7-0.7-1
		c-0.3-0.3-0.5-0.7-0.7-1c-1.4-1.9-2.4-3.8-3.2-5.6C18.9,44.7,18.5,43.1,18.4,41.3L18.4,41.3z"/>
</g>
</svg>
