<?xml version="1.0" encoding="utf-8"?>
<!-- Generator: Adobe Illustrator 26.5.3, SVG Export Plug-In . SVG Version: 6.00 Build 0)  -->
<svg version="1.1" id="Layer_1" xmlns="http://www.w3.org/2000/svg" xmlns:xlink="http://www.w3.org/1999/xlink" x="0px" y="0px"
	 viewBox="0 0 194 185" style="enable-background:new 0 0 194 185;" xml:space="preserve">
<g>
	<path d="M134.4,173.6c0-0.9-0.2-1.7-0.6-2.4c-0.4-0.7-1-1.2-1.7-1.6c-0.8-0.4-1.7-0.6-2.7-0.7v-0.4c0.9,0,1.7-0.3,2.3-0.7
		c0.6-0.4,1.1-0.9,1.4-1.6c0.3-0.6,0.5-1.3,0.5-2c0-1.1-0.3-2-0.9-2.7s-1.3-1.3-2.3-1.6c-1-0.4-2-0.5-3.2-0.5
		c-1.4,0-2.6,0.3-3.6,0.8c-1,0.5-1.8,1.2-2.3,2.2c-0.5,0.9-0.8,2-0.8,3.2h2.7c0.1-1,0.4-1.9,1-2.7c0.6-0.8,1.6-1.2,3-1.2
		c1.1,0,2,0.3,2.7,0.8c0.6,0.5,1,1.3,1,2.3c0,0.6-0.1,1.2-0.4,1.6s-0.7,0.8-1.2,1c-0.5,0.2-1.1,0.3-1.8,0.3h-2.1v2.3h2.3
		c1.2,0,2.2,0.3,2.9,0.9s1.1,1.4,1.1,2.6c0,0.8-0.2,1.4-0.6,2s-0.9,1-1.6,1.4c-0.7,0.3-1.5,0.5-2.4,0.5c-1.5,0-2.7-0.4-3.5-1.3
		c-0.8-0.9-1.2-2-1.2-3.5h-2.7c0,1.5,0.3,2.8,0.9,3.8c0.6,1.1,1.5,1.9,2.6,2.4c1.1,0.6,2.4,0.8,3.9,0.8c1.3,0,2.5-0.2,3.6-0.7
		c1.1-0.5,2-1.1,2.7-2S134.4,174.8,134.4,173.6 M117.5,176.7h-7.3c-0.5,0-1,0-1.4,0c-0.4,0-0.8,0-1.2,0.1l-0.2-0.2
		c0.1-0.7,0.3-1.2,0.5-1.7c0.2-0.4,0.6-0.9,1.2-1.4c0.6-0.5,1.5-1,2.8-1.6l0.5-0.3c1.2-0.6,2.2-1.2,3-1.8c0.8-0.7,1.4-1.4,1.8-2.2
		c0.4-0.8,0.6-1.7,0.6-2.7c0-1.1-0.3-2-0.8-2.9c-0.5-0.8-1.3-1.5-2.2-2c-1-0.5-2.1-0.7-3.4-0.7c-1.6,0-3,0.3-4,1
		c-1,0.6-1.8,1.5-2.3,2.6c-0.5,1.1-0.8,2.3-0.8,3.6h2.7c0.1-1.7,0.5-2.9,1.2-3.7c0.7-0.8,1.8-1.2,3.2-1.2c0.7,0,1.4,0.1,1.9,0.4
		c0.6,0.3,1,0.7,1.3,1.2c0.3,0.5,0.5,1.1,0.5,1.7c0,0.5-0.1,1-0.3,1.5c-0.2,0.5-0.6,1.1-1.2,1.6c-0.6,0.5-1.4,1-2.4,1.5
		c-1.4,0.6-2.5,1.3-3.5,2c-0.9,0.7-1.7,1.6-2.3,2.9c-0.6,1.2-0.9,2.8-0.9,4.8h13V176.7z M94.5,177.2c-1.1,0-2.1-0.3-2.8-1
		c-0.7-0.7-1.2-1.6-1.5-2.8c-0.3-1.2-0.5-2.6-0.5-4.2s0.2-3,0.5-4.1c0.3-1.1,0.8-2,1.5-2.6c0.7-0.6,1.6-0.9,2.8-0.9
		c1.2,0,2.1,0.3,2.8,0.9c0.7,0.6,1.2,1.5,1.5,2.6c0.3,1.1,0.5,2.5,0.5,4.1s-0.2,3-0.5,4.2c-0.3,1.2-0.8,2.1-1.5,2.8
		C96.5,176.9,95.6,177.2,94.5,177.2 M94.5,179.5c1.7,0,3.1-0.4,4.2-1.3c1.1-0.9,1.9-2.1,2.5-3.6c0.5-1.5,0.8-3.3,0.8-5.3
		s-0.3-3.7-0.8-5.2c-0.5-1.5-1.3-2.6-2.4-3.5c-1.1-0.8-2.5-1.2-4.2-1.2c-1.7,0-3.1,0.4-4.2,1.2c-1.1,0.8-1.9,2-2.4,3.5
		c-0.5,1.5-0.8,3.2-0.8,5.2s0.3,3.8,0.8,5.3c0.5,1.5,1.3,2.8,2.5,3.6C91.4,179,92.8,179.5,94.5,179.5 M84.8,176.7h-7.3
		c-0.5,0-1,0-1.4,0c-0.4,0-0.8,0-1.2,0.1l-0.2-0.2c0.1-0.7,0.3-1.2,0.5-1.7c0.2-0.4,0.6-0.9,1.2-1.4c0.6-0.5,1.5-1,2.8-1.6l0.5-0.3
		c1.2-0.6,2.2-1.2,3-1.8c0.8-0.7,1.4-1.4,1.8-2.2c0.4-0.8,0.6-1.7,0.6-2.7c0-1.1-0.3-2-0.8-2.9c-0.5-0.8-1.3-1.5-2.2-2
		c-1-0.5-2.1-0.7-3.4-0.7c-1.6,0-3,0.3-4,1c-1,0.6-1.8,1.5-2.3,2.6c-0.5,1.1-0.8,2.3-0.8,3.6h2.7c0.1-1.7,0.5-2.9,1.2-3.7
		c0.7-0.8,1.8-1.2,3.2-1.2c0.7,0,1.4,0.1,2,0.4c0.6,0.3,1,0.7,1.3,1.2c0.3,0.5,0.5,1.1,0.5,1.7c0,0.5-0.1,1-0.3,1.5
		c-0.2,0.5-0.6,1.1-1.2,1.6c-0.6,0.5-1.4,1-2.4,1.5c-1.4,0.6-2.5,1.3-3.5,2c-0.9,0.7-1.7,1.6-2.3,2.9c-0.6,1.2-0.9,2.8-0.9,4.8h13
		V176.7z M67.3,179.5c0.5,0,1-0.2,1.3-0.6c0.4-0.4,0.5-0.8,0.5-1.3c0-0.5-0.2-1-0.5-1.3c-0.4-0.3-0.8-0.5-1.3-0.5
		c-0.5,0-1,0.2-1.3,0.5c-0.4,0.4-0.6,0.8-0.6,1.3s0.2,1,0.6,1.3C66.3,179.3,66.7,179.5,67.3,179.5 M58.1,171.8h-6.9l5-6.2
		c0.8-1,1.4-1.9,1.8-2.7l0.3,0.1c-0.1,0.5-0.1,1.1-0.2,1.7c0,0.6-0.1,1.2-0.1,1.7V171.8z M58.1,174.1v5h2.5v-5h3.2v-2.3h-3.2v-12.2
		h-2.5l-9.6,11.9v2.6H58.1z M39.8,177.2c-1.1,0-2.1-0.3-2.8-1c-0.7-0.7-1.2-1.6-1.5-2.8c-0.3-1.2-0.5-2.6-0.5-4.2s0.2-3,0.5-4.1
		c0.3-1.1,0.8-2,1.5-2.6c0.7-0.6,1.6-0.9,2.8-0.9s2.1,0.3,2.8,0.9c0.7,0.6,1.2,1.5,1.5,2.6c0.3,1.1,0.5,2.5,0.5,4.1s-0.2,3-0.5,4.2
		c-0.3,1.2-0.8,2.1-1.5,2.8C41.9,176.9,40.9,177.2,39.8,177.2 M39.8,179.5c1.7,0,3.1-0.4,4.2-1.3c1.1-0.9,1.9-2.1,2.5-3.6
		c0.5-1.5,0.8-3.3,0.8-5.3s-0.3-3.7-0.8-5.2c-0.5-1.5-1.3-2.6-2.4-3.5c-1.1-0.8-2.5-1.2-4.2-1.2s-3.1,0.4-4.2,1.2
		c-1.1,0.8-1.9,2-2.4,3.5c-0.5,1.5-0.8,3.2-0.8,5.2s0.3,3.8,0.8,5.3c0.5,1.5,1.3,2.8,2.5,3.6C36.7,179,38.1,179.5,39.8,179.5
		 M28.9,179.5c0.5,0,1-0.2,1.3-0.6c0.4-0.4,0.5-0.8,0.5-1.3c0-0.5-0.2-1-0.5-1.3c-0.4-0.3-0.8-0.5-1.3-0.5s-1,0.2-1.3,0.5
		c-0.4,0.4-0.6,0.8-0.6,1.3s0.2,1,0.6,1.3C27.9,179.3,28.3,179.5,28.9,179.5 M24.8,172.4c0-1.2-0.3-2.4-0.8-3.4
		c-0.6-1-1.4-1.8-2.4-2.3c-1-0.6-2.2-0.8-3.6-0.8c-1,0-1.9,0.2-2.7,0.7c-0.8,0.5-1.4,1.1-1.9,1.9l-0.3-0.2c0.1-0.2,0.2-0.5,0.3-0.7
		c0.1-0.3,0.2-0.6,0.3-0.9c0.1-0.3,0.2-0.7,0.3-1c0.1-0.3,0.2-0.7,0.3-1.1l0.5-2.7h8.9v-2.3h-11l-1.9,10.9h2.3
		c0.3-0.7,0.9-1.3,1.6-1.8c0.8-0.5,1.6-0.7,2.7-0.7c0.9,0,1.7,0.2,2.4,0.5c0.7,0.4,1.2,0.9,1.6,1.5c0.4,0.6,0.6,1.4,0.6,2.2
		c0,0.9-0.2,1.7-0.5,2.4c-0.4,0.7-0.9,1.3-1.6,1.8c-0.7,0.4-1.6,0.7-2.6,0.7c-1.4,0-2.5-0.4-3.3-1.3c-0.8-0.9-1.2-1.9-1.3-3.1h-2.7
		c0,1.2,0.3,2.3,0.9,3.3s1.4,1.8,2.5,2.4c1.1,0.6,2.4,0.9,3.9,0.9c1.5,0,2.8-0.3,4-1c1.1-0.6,2-1.5,2.6-2.6
		C24.5,174.8,24.8,173.6,24.8,172.4 M5.4,163.1c0,0.1-0.1,0.2-0.1,0.3s-0.1,0.2-0.1,0.3c-0.2,0.5-0.3,0.9-0.4,1.3
		c-0.1,0.4-0.1,0.9-0.1,1.5v12.7h2.5v-19.5H5.1v0c0,0.4-0.1,0.9-0.3,1.3c-0.2,0.4-0.5,0.8-0.8,1.1c-0.4,0.3-0.9,0.6-1.6,0.8
		c-0.7,0.2-1.4,0.3-2.2,0.3H0v2.3h0.8c1,0,1.8-0.2,2.6-0.7c0.8-0.5,1.3-1,1.6-1.7L5.4,163.1z"/>
	<path d="M178,92.5c0.1-1.1,0.6-2.1,1.3-2.9c0.7-0.8,1.7-1.2,2.8-1.2h0.3c0.8,0,1.5,0.2,2.1,0.5s1,0.8,1.4,1.5
		c0.3,0.6,0.5,1.3,0.6,2.1H178z M176.1,98.2c0.5,1.2,1.4,2.1,2.4,2.7c1.1,0.7,2.4,1,3.9,1c1.3,0,2.4-0.2,3.5-0.7
		c1-0.5,1.8-1.1,2.5-2c0.6-0.8,1-1.8,1.2-2.9h-2.7c-0.2,1-0.7,1.8-1.5,2.4c-0.8,0.6-1.7,0.9-2.8,0.9h-0.2c-0.8,0-1.6-0.2-2.2-0.6
		c-0.7-0.4-1.2-1-1.6-1.7c-0.4-0.7-0.6-1.6-0.6-2.6l11.3-0.1V94c0-1.6-0.3-3-0.8-4.2c-0.5-1.2-1.3-2.1-2.4-2.7
		c-1-0.6-2.3-0.9-3.7-0.9c-1.4,0-2.6,0.3-3.7,1c-1.1,0.7-1.9,1.6-2.5,2.8s-0.9,2.6-0.9,4.1C175.3,95.7,175.5,97,176.1,98.2
		 M174.2,99.1L174.2,99.1c-0.2,0.1-0.6,0.1-1,0.2c-0.4,0.1-0.8,0.1-1.2,0.1c-0.6,0-1-0.2-1.2-0.5c-0.2-0.3-0.3-0.8-0.3-1.4v-8.6h3.6
		v-2.2h-3.6v-4.2h-2.6v4.2h-2.5v2.2h2.5v8.3c0,1.6,0.3,2.7,0.8,3.5s1.5,1.2,2.9,1.2c0.6,0,1.4-0.1,2.5-0.3c0,0,0,0,0,0c0,0,0,0,0,0
		V99.1z M160.3,101.6h2.6v-15h-2.6V101.6z M161.6,84.2c0.5,0,0.9-0.2,1.2-0.5s0.5-0.8,0.5-1.3c0-0.5-0.2-0.9-0.5-1.2
		c-0.3-0.3-0.7-0.5-1.2-0.5c-0.5,0-0.9,0.2-1.3,0.5c-0.3,0.3-0.5,0.8-0.5,1.2c0,0.5,0.2,0.9,0.5,1.3
		C160.7,84.1,161.1,84.2,161.6,84.2 M148,96.4h-2.8c0,1,0.3,1.9,0.7,2.7c0.5,0.8,1.2,1.5,2.2,2.1c1,0.5,2.2,0.8,3.6,0.8
		c1.2,0,2.3-0.2,3.2-0.6c0.9-0.4,1.6-0.9,2.1-1.6c0.5-0.7,0.7-1.5,0.7-2.5c0-1.1-0.4-2-1.1-2.7c-0.7-0.7-1.7-1.2-3-1.5l-3.1-0.7
		c-0.7-0.2-1.2-0.4-1.5-0.8c-0.3-0.3-0.4-0.7-0.4-1.2c0-0.6,0.3-1.1,0.8-1.5c0.5-0.4,1.2-0.5,2.1-0.5c0.6,0,1.1,0.1,1.6,0.3
		c0.5,0.2,0.9,0.5,1.2,1c0.3,0.5,0.5,1,0.6,1.7h2.8c0-1.1-0.3-2-0.8-2.8c-0.5-0.8-1.2-1.4-2.2-1.8c-0.9-0.4-1.9-0.7-3.1-0.7
		c-1.1,0-2.1,0.2-3,0.5c-0.9,0.3-1.6,0.8-2,1.5c-0.5,0.7-0.7,1.4-0.7,2.3c0,1,0.3,1.9,0.9,2.6c0.6,0.7,1.5,1.2,2.7,1.5l2.9,0.7
		c0.9,0.2,1.6,0.5,2,0.8c0.4,0.3,0.6,0.8,0.6,1.4c0,0.5-0.1,0.9-0.4,1.2c-0.3,0.3-0.7,0.6-1.2,0.8c-0.5,0.2-1.1,0.3-1.7,0.3
		c-0.7,0-1.3-0.1-1.9-0.4c-0.6-0.3-1-0.7-1.3-1.2C148.3,97.6,148.1,97,148,96.4 M140.7,97.1c-0.3,0.8-0.8,1.5-1.5,1.9
		s-1.5,0.7-2.4,0.7h-0.2c-1,0-1.8-0.2-2.5-0.7c-0.7-0.5-1.2-1.1-1.5-1.9c-0.3-0.8-0.5-1.8-0.5-2.9c0-1.1,0.2-2.1,0.5-3
		c0.3-0.9,0.9-1.5,1.5-2c0.7-0.5,1.5-0.7,2.5-0.7h0.2c1,0,1.8,0.2,2.4,0.7s1.2,1.1,1.5,1.9c0.3,0.8,0.5,1.8,0.5,3
		S141.1,96.2,140.7,97.1 M133.2,100.2c0.5,0.5,1.1,1,1.9,1.3c0.7,0.3,1.5,0.5,2.4,0.5c1.2,0,2.3-0.3,3.3-0.9c1-0.6,1.8-1.5,2.4-2.6
		s0.9-2.6,0.9-4.3c0-1.7-0.3-3.1-0.9-4.3s-1.4-2.1-2.4-2.7c-1-0.6-2.1-0.9-3.3-0.9c-0.9,0-1.7,0.1-2.4,0.4c-0.7,0.3-1.4,0.7-1.9,1.3
		c-0.6,0.6-1,1.4-1.3,2.3l-0.1,0.3l-0.4-0.1c0.1-0.3,0.1-0.6,0.2-0.8c0.1-0.3,0.2-0.5,0.3-0.8c0.1-0.4,0.2-0.7,0.3-1.1
		c0.1-0.4,0.2-0.7,0.2-1.1c0-0.2,0-0.4,0-0.8v-5.2h-2.6v20.8h2.6v-0.4c0-0.4,0-0.7-0.1-1c-0.1-0.3-0.2-0.8-0.4-1.5c0,0,0,0,0-0.1
		s0-0.1,0-0.1l0.4-0.1C132.3,99,132.6,99.7,133.2,100.2 M115.8,92.5c0.1-1.1,0.5-2.1,1.3-2.9c0.7-0.8,1.7-1.2,2.8-1.2h0.3
		c0.8,0,1.5,0.2,2.1,0.5c0.6,0.4,1,0.8,1.4,1.5c0.3,0.6,0.5,1.3,0.6,2.1H115.8z M113.9,98.2c0.5,1.2,1.4,2.1,2.4,2.7
		c1.1,0.7,2.4,1,3.9,1c1.3,0,2.4-0.2,3.4-0.7c1-0.5,1.8-1.1,2.5-2c0.6-0.8,1-1.8,1.2-2.9h-2.7c-0.2,1-0.7,1.8-1.5,2.4
		c-0.8,0.6-1.7,0.9-2.8,0.9h-0.2c-0.8,0-1.6-0.2-2.2-0.6c-0.7-0.4-1.2-1-1.6-1.7c-0.4-0.7-0.6-1.6-0.6-2.6l11.3-0.1V94
		c0-1.6-0.3-3-0.8-4.2c-0.6-1.2-1.3-2.1-2.4-2.7c-1-0.6-2.3-0.9-3.7-0.9c-1.4,0-2.6,0.3-3.7,1c-1.1,0.7-1.9,1.6-2.5,2.8
		c-0.6,1.2-0.9,2.6-0.9,4.1C113,95.7,113.3,97,113.9,98.2 M110.3,86.6l-2.6,8.6c-0.1,0.4-0.2,0.8-0.3,1.2s-0.2,0.9-0.2,1.3
		c0,0.3-0.1,0.6-0.1,1c0,0.3-0.1,0.7-0.1,1.1l-0.4,0.1c-0.1-0.6-0.3-1.3-0.4-2.1c-0.2-0.8-0.3-1.5-0.5-2.2c0,0,0,0,0-0.1
		c0,0,0-0.1,0-0.1l-2.2-8.8h-2.8l-2.1,8.6c0,0.1,0,0.1,0,0.2c0,0.1,0,0.1,0,0.2c-0.6,2.2-0.9,3.7-1,4.3L97,99.8c0-0.9,0-1.7-0.1-2.2
		s-0.3-1.2-0.5-1.9c0-0.1,0-0.1-0.1-0.2c0-0.1,0-0.1-0.1-0.2l-2.6-8.7H91l4.5,15h3.6l2.1-8.4c0.2-0.8,0.3-1.5,0.4-2.2
		c0.1-0.7,0.2-1.4,0.2-2.3h0.4c0,0.8,0.1,1.5,0.2,2.1c0.1,0.6,0.2,1.3,0.4,2.1c0,0,0,0.1,0,0.2c0,0.1,0,0.1,0,0.2l1.9,8.4h3.8
		l4.6-15H110.3z M78.7,101.6h2.6V80.7h-2.6V101.6z M71.1,94.1c0.5-0.3,0.9-0.7,1.2-1.2V95c0,1.1-0.2,2.1-0.7,2.8
		c-0.5,0.7-1.1,1.2-1.8,1.5c-0.7,0.3-1.4,0.4-2.1,0.4c-0.9,0-1.6-0.2-2.1-0.7c-0.4-0.4-0.7-0.9-0.7-1.5c0-0.7,0.2-1.2,0.7-1.7
		c0.2-0.2,0.5-0.4,0.9-0.5c0.4-0.1,0.8-0.2,1.3-0.3l1.3-0.2C69.9,94.6,70.6,94.4,71.1,94.1 M73.4,87.4c-1-0.8-2.5-1.2-4.5-1.2
		c-1.2,0-2.3,0.2-3.2,0.7c-0.9,0.4-1.6,1.1-2.1,1.8c-0.5,0.8-0.8,1.7-0.8,2.8h2.7c0.1-0.6,0.2-1.2,0.6-1.7c0.3-0.5,0.7-0.8,1.2-1
		c0.5-0.2,1.1-0.4,1.8-0.4c1,0,1.8,0.2,2.4,0.6c0.6,0.4,0.9,0.9,0.9,1.6c0,0.5-0.1,0.8-0.4,1.1c-0.3,0.3-0.6,0.5-1.1,0.6
		c-0.5,0.1-1.1,0.3-1.9,0.4l-1.4,0.2c-1.5,0.2-2.7,0.6-3.5,1.1c-1.2,0.8-1.7,2-1.7,3.5c0,0.7,0.1,1.3,0.4,1.9
		c0.3,0.6,0.7,1.1,1.2,1.4c0.9,0.7,2,1.1,3.3,1.1c1.4,0,2.6-0.3,3.6-1c1-0.7,1.7-1.7,2-2.9l0.4,0.1c0,0.1,0,0.1,0,0.2
		c0,0.1,0,0.1,0,0.2c-0.1,0.3-0.2,0.6-0.2,0.9c-0.1,0.3-0.1,0.6-0.1,0.9c0,0.5,0.2,0.9,0.5,1.1c0.3,0.2,0.9,0.4,1.6,0.4
		c0.5,0,1,0,1.7-0.1v-2.2c-0.2,0-0.4,0.1-0.6,0.1c-0.4,0-0.7-0.1-0.8-0.2c-0.1-0.2-0.1-0.5-0.1-1v-7C74.9,89.4,74.4,88.2,73.4,87.4
		 M57.1,101.6h2.6v-15h-2.6V101.6z M58.5,84.2c0.5,0,0.9-0.2,1.2-0.5c0.3-0.3,0.5-0.8,0.5-1.3c0-0.5-0.2-0.9-0.5-1.2
		c-0.3-0.3-0.7-0.5-1.2-0.5c-0.5,0-0.9,0.2-1.3,0.5c-0.3,0.3-0.5,0.8-0.5,1.2c0,0.5,0.2,0.9,0.5,1.3S58,84.2,58.5,84.2 M54.5,96.1
		h-2.7c-0.1,0.7-0.3,1.3-0.7,1.8c-0.4,0.5-0.8,1-1.4,1.3c-0.6,0.3-1.3,0.5-2.1,0.5h-0.3c-1,0-1.8-0.3-2.4-0.8
		c-0.6-0.5-1.1-1.2-1.4-2.1S43,95,43,94c0-1,0.2-1.9,0.5-2.8s0.8-1.5,1.5-2c0.6-0.5,1.4-0.8,2.4-0.8h0.3c1.1,0,2,0.3,2.7,1
		s1.2,1.4,1.4,2.4h2.8c-0.2-1.3-0.7-2.3-1.4-3.2c-0.7-0.8-1.5-1.4-2.5-1.8c-1-0.4-2.1-0.6-3.2-0.6c-1.5,0-2.7,0.3-3.8,1
		c-1.1,0.7-1.9,1.6-2.5,2.7s-0.9,2.5-0.9,4.1c0,1.6,0.3,2.9,0.9,4.1c0.6,1.2,1.4,2.1,2.5,2.8c1.1,0.7,2.4,1,3.8,1
		c1.2,0,2.3-0.3,3.4-0.8c1-0.5,1.9-1.2,2.5-2.1C54,98.2,54.4,97.2,54.5,96.1 M35.1,101.6h2.6v-15h-2.6V101.6z M36.4,84.2
		c0.5,0,0.9-0.2,1.2-0.5c0.3-0.3,0.5-0.8,0.5-1.3c0-0.5-0.2-0.9-0.5-1.2c-0.3-0.3-0.7-0.5-1.2-0.5c-0.5,0-0.9,0.2-1.3,0.5
		c-0.3,0.3-0.5,0.8-0.5,1.2c0,0.5,0.2,0.9,0.5,1.3S35.9,84.2,36.4,84.2 M27.9,81.5c-0.8,0.7-1.2,1.8-1.2,3.2v16.9h2.6V88.8h3.9v-2.2
		h-3.9v-1.8c0-0.7,0.2-1.2,0.6-1.6c0.4-0.3,0.9-0.5,1.6-0.5c0.2,0,0.5,0,0.8,0.1s0.6,0.1,0.9,0.2c0.1,0,0.1,0,0.2,0c0,0,0.1,0,0.1,0
		v-2.4c-0.2,0-0.5-0.1-0.9-0.2c-0.4-0.1-0.8-0.1-1.2-0.1C29.9,80.4,28.7,80.8,27.9,81.5 M19.6,81.5c-0.8,0.7-1.2,1.8-1.2,3.2v1.9
		h-2.5v2.2h2.5v12.8H21V88.8h4v-2.2h-4v-1.8c0-0.7,0.2-1.2,0.6-1.6c0.4-0.3,0.9-0.5,1.6-0.5c0.5,0,1.2,0.1,1.9,0.3v-2.4
		c-0.2,0-0.5-0.1-0.9-0.2c-0.4-0.1-0.8-0.1-1.2-0.1C21.5,80.4,20.4,80.8,19.6,81.5 M7.8,99.7H7.5c-1.4,0-2.5-0.6-3.2-1.7
		s-1.1-2.5-1.1-4c0-1,0.2-1.9,0.5-2.8s0.8-1.5,1.5-2c0.7-0.5,1.4-0.8,2.4-0.8h0.3c1,0,1.8,0.2,2.4,0.8c0.6,0.5,1.1,1.2,1.4,2
		c0.3,0.8,0.5,1.8,0.5,2.8c0,1.1-0.2,2-0.5,2.9c-0.3,0.9-0.8,1.5-1.4,2.1S8.7,99.7,7.8,99.7 M7.6,101.9c1.4,0,2.7-0.3,3.8-1
		c1.1-0.7,1.9-1.6,2.5-2.8c0.6-1.2,0.9-2.6,0.9-4.1c0-1.5-0.3-2.9-0.9-4.1c-0.6-1.2-1.4-2.1-2.5-2.7c-1.1-0.6-2.4-1-3.8-1
		s-2.7,0.3-3.8,1c-1.1,0.7-1.9,1.6-2.5,2.7S0.4,92.5,0.4,94c0,1.6,0.3,2.9,0.9,4.1c0.6,1.2,1.4,2.1,2.5,2.8
		C4.9,101.6,6.2,101.9,7.6,101.9"/>
	<path d="M70.3,50.7v20.8H73v-9.5c0-0.8,0.2-1.4,0.5-1.9s0.8-1,1.5-1.2s1.3-0.4,2-0.4H77c1.1,0,2,0.3,2.6,0.8
		c0.6,0.5,0.9,1.3,0.9,2.4v9.9h2.6V61.3c0-1.9-0.5-3.2-1.5-3.9c-1-0.8-2.3-1.1-3.8-1.1c-1.2,0-2.4,0.4-3.4,1.1
		c-1,0.7-1.8,1.7-2.2,2.9l-0.2,0.5l-0.4-0.1c0.1-0.3,0.2-0.6,0.2-0.9s0.2-0.6,0.3-0.8c0.2-0.7,0.4-1.3,0.5-1.8
		c0.1-0.6,0.2-1.3,0.2-2.1v-4.1H70.3z M68.2,66.1h-2.7c-0.1,0.7-0.3,1.3-0.7,1.8c-0.3,0.5-0.8,1-1.4,1.3c-0.6,0.3-1.3,0.5-2.1,0.5
		H61c-1,0-1.8-0.3-2.4-0.8c-0.7-0.5-1.1-1.2-1.4-2.1C56.8,66,56.7,65,56.7,64c0-1,0.2-1.9,0.5-2.8c0.3-0.9,0.8-1.5,1.5-2
		c0.7-0.5,1.4-0.8,2.4-0.8h0.3c1.1,0,2,0.3,2.7,1c0.8,0.6,1.2,1.4,1.4,2.4h2.8c-0.2-1.3-0.7-2.3-1.4-3.2c-0.7-0.8-1.5-1.4-2.5-1.8
		c-1-0.4-2.1-0.6-3.2-0.6c-1.5,0-2.7,0.3-3.8,1s-1.9,1.6-2.5,2.7c-0.6,1.2-0.9,2.5-0.9,4.1c0,1.6,0.3,2.9,0.9,4.1
		c0.6,1.2,1.4,2.1,2.5,2.8s2.4,1,3.8,1c1.2,0,2.3-0.3,3.4-0.8c1-0.5,1.9-1.2,2.5-2.1C67.7,68.2,68.1,67.2,68.2,66.1 M39.1,56.6v15
		h2.6v-9.5c0-0.8,0.2-1.4,0.5-1.9c0.4-0.5,0.8-1,1.5-1.2s1.3-0.4,2-0.4h0.1c1.1,0,2,0.3,2.6,0.8c0.6,0.5,0.9,1.3,0.9,2.4v9.9h2.6
		V61.3c0-1.3-0.3-2.3-0.8-3.1c-0.5-0.8-1.2-1.3-1.9-1.6s-1.6-0.4-2.6-0.4c-1.2,0-2.4,0.4-3.4,1.1c-1,0.7-1.8,1.7-2.2,2.9l-0.2,0.5
		l-0.4-0.1c0.1-0.3,0.2-0.7,0.3-1c0.1-0.3,0.3-0.6,0.4-0.9c0.2-0.4,0.3-0.8,0.4-1s0.1-0.5,0.1-0.8v-0.2H39.1z M35.8,71.6v-15h-2.6
		V66c0,1.1-0.4,2-1.1,2.7s-1.7,1-2.8,1h-0.1c-1.1,0-1.9-0.2-2.4-0.8c-0.5-0.5-0.8-1.3-0.8-2.4v-9.9h-2.6v10.3c0,1.3,0.3,2.3,0.8,3.1
		c0.5,0.8,1.2,1.3,1.9,1.6c0.8,0.3,1.6,0.4,2.6,0.4c1.2,0,2.3-0.4,3.2-1.1s1.6-1.7,2.1-2.9l0.2-0.5l0.4,0.1c-0.1,0.3-0.2,0.7-0.3,1
		c-0.1,0.3-0.3,0.6-0.4,0.9c-0.2,0.4-0.3,0.8-0.4,1s-0.1,0.5-0.1,0.8v0.2H35.8z M16,64.1c0.5-0.3,0.9-0.7,1.2-1.2V65
		c0,1.1-0.2,2.1-0.7,2.8c-0.5,0.7-1.1,1.2-1.8,1.5c-0.7,0.3-1.4,0.4-2.1,0.4c-0.9,0-1.6-0.2-2.1-0.7c-0.4-0.4-0.7-0.9-0.7-1.5
		c0-0.7,0.2-1.2,0.7-1.7c0.2-0.2,0.5-0.4,0.9-0.5c0.4-0.1,0.8-0.2,1.3-0.3l1.3-0.2C14.8,64.6,15.4,64.4,16,64.1 M18.2,57.4
		c-1-0.8-2.5-1.2-4.5-1.2c-1.2,0-2.3,0.2-3.2,0.7c-0.9,0.4-1.6,1.1-2.1,1.8s-0.8,1.7-0.8,2.8h2.7c0.1-0.6,0.2-1.2,0.6-1.7
		c0.3-0.5,0.7-0.8,1.2-1.1c0.5-0.2,1.1-0.4,1.8-0.4c1,0,1.8,0.2,2.4,0.6c0.6,0.4,0.9,0.9,0.9,1.6c0,0.5-0.1,0.8-0.4,1.1
		c-0.3,0.3-0.6,0.5-1.1,0.6c-0.5,0.2-1.1,0.3-1.9,0.4l-1.4,0.2c-1.5,0.2-2.7,0.6-3.5,1.1c-1.2,0.8-1.7,2-1.7,3.5
		c0,0.7,0.1,1.3,0.4,1.9c0.3,0.6,0.7,1.1,1.2,1.4c0.9,0.7,2,1.1,3.3,1.1c1.4,0,2.6-0.3,3.6-1c1-0.7,1.7-1.7,2-2.9l0.4,0.1
		c0,0.1,0,0.1,0,0.2c0,0,0,0.1,0,0.2c-0.1,0.3-0.2,0.6-0.2,0.9c-0.1,0.3-0.1,0.6-0.1,0.9c0,0.5,0.2,0.9,0.5,1.1
		c0.3,0.2,0.9,0.4,1.6,0.4c0.5,0,1,0,1.6-0.1v-2.2c-0.2,0-0.4,0.1-0.6,0.1c-0.4,0-0.7-0.1-0.8-0.2c-0.1-0.1-0.1-0.5-0.1-1v-7
		C19.8,59.4,19.3,58.2,18.2,57.4 M1.5,71.6h2.6V50.7H1.5V71.6z"/>
	<path d="M12.6,0h-2.3v20.2C9.8,19,9.1,17.9,8.1,17c-1-0.9-2.1-1.6-3.4-2.1c-1.3-0.5-2.6-0.8-4-0.9v2.6c1.8,0.1,3.3,0.5,4.7,1.3
		c1.4,0.8,2.5,1.8,3.4,3.2s1.4,2.8,1.6,4.5h2.1c0.2-1.7,0.7-3.2,1.6-4.5c0.9-1.3,2-2.4,3.4-3.2c1.4-0.8,3-1.2,4.7-1.3V14
		c-2.1,0.1-4.1,0.7-5.9,1.8c-1.8,1.1-3,2.6-3.7,4.4V0z"/>
</g>
</svg>
