<?xml version="1.0" encoding="utf-8"?>
<!-- Generator: Adobe Illustrator 26.5.3, SVG Export Plug-In . SVG Version: 6.00 Build 0)  -->
<svg version="1.1" id="Layer_1" xmlns="http://www.w3.org/2000/svg" xmlns:xlink="http://www.w3.org/1999/xlink" x="0px" y="0px"
	 viewBox="0 0 194 185" style="enable-background:new 0 0 194 185;" xml:space="preserve">
<g>
	<path d="M141.2,173.2c0-0.9-0.2-1.7-0.6-2.4c-0.4-0.7-1-1.2-1.7-1.7c-0.8-0.4-1.7-0.6-2.7-0.7v-0.4c0.9,0,1.7-0.3,2.3-0.7
		c0.6-0.4,1.1-0.9,1.4-1.6c0.3-0.6,0.5-1.3,0.5-2c0-1.1-0.3-2-0.9-2.7c-0.6-0.7-1.3-1.3-2.3-1.6c-1-0.3-2-0.5-3.1-0.5
		c-1.4,0-2.6,0.3-3.6,0.8c-1,0.5-1.8,1.2-2.3,2.2c-0.5,0.9-0.8,2-0.8,3.2h2.7c0.1-1,0.4-1.9,1-2.7c0.6-0.8,1.6-1.2,3-1.2
		c1.1,0,2,0.3,2.7,0.8c0.6,0.5,1,1.3,1,2.3c0,0.6-0.2,1.2-0.5,1.6c-0.3,0.4-0.7,0.8-1.2,1c-0.5,0.2-1.1,0.3-1.8,0.3h-2.1v2.3h2.3
		c1.2,0,2.2,0.3,2.9,0.9s1.1,1.4,1.1,2.5c0,0.8-0.2,1.4-0.6,2c-0.4,0.6-0.9,1-1.6,1.3c-0.7,0.3-1.5,0.5-2.4,0.5
		c-1.5,0-2.7-0.4-3.5-1.3c-0.8-0.8-1.2-2-1.2-3.5h-2.7c0,1.5,0.3,2.8,0.9,3.8c0.6,1.1,1.5,1.9,2.6,2.4c1.1,0.5,2.4,0.8,3.9,0.8
		c1.3,0,2.5-0.2,3.6-0.7c1.1-0.5,2-1.1,2.7-2C140.8,175.5,141.2,174.5,141.2,173.2 M124.3,176.4H117c-0.5,0-1,0-1.4,0
		c-0.4,0-0.8,0-1.2,0.1l-0.2-0.2c0.1-0.7,0.3-1.2,0.5-1.7c0.2-0.4,0.6-0.9,1.2-1.4s1.5-1,2.8-1.6l0.5-0.3c1.2-0.6,2.2-1.2,3-1.8
		s1.4-1.4,1.8-2.2c0.4-0.8,0.6-1.7,0.6-2.7c0-1.1-0.3-2-0.8-2.9c-0.5-0.8-1.3-1.5-2.2-2s-2.1-0.7-3.4-0.7c-1.6,0-2.9,0.3-4,1
		c-1,0.6-1.8,1.5-2.3,2.6c-0.5,1.1-0.8,2.3-0.8,3.6h2.7c0.1-1.7,0.5-2.9,1.2-3.7c0.7-0.8,1.8-1.2,3.2-1.2c0.7,0,1.4,0.1,1.9,0.4
		s1,0.7,1.3,1.2c0.3,0.5,0.5,1.1,0.5,1.7c0,0.5-0.1,1-0.3,1.5s-0.6,1.1-1.2,1.6c-0.6,0.5-1.4,1-2.4,1.5c-1.4,0.6-2.5,1.3-3.5,1.9
		c-0.9,0.7-1.7,1.6-2.3,2.9c-0.6,1.2-0.9,2.8-0.9,4.8h13V176.4z M101.2,176.9c-1.1,0-2.1-0.3-2.8-1s-1.2-1.6-1.5-2.8
		c-0.3-1.2-0.5-2.6-0.5-4.2s0.2-3,0.5-4.1c0.3-1.1,0.8-2,1.5-2.6s1.6-0.9,2.8-0.9c1.2,0,2.1,0.3,2.8,0.9s1.2,1.5,1.5,2.6
		c0.3,1.1,0.5,2.5,0.5,4.1s-0.2,3.1-0.5,4.2c-0.3,1.2-0.8,2.1-1.5,2.8C103.3,176.6,102.4,176.9,101.2,176.9 M101.2,179.1
		c1.7,0,3.1-0.4,4.2-1.3c1.1-0.9,1.9-2.1,2.5-3.6c0.5-1.5,0.8-3.3,0.8-5.3s-0.3-3.7-0.8-5.2c-0.5-1.5-1.3-2.6-2.4-3.4
		c-1.1-0.8-2.5-1.2-4.2-1.2s-3.1,0.4-4.2,1.2c-1.1,0.8-1.9,2-2.4,3.4c-0.5,1.5-0.8,3.2-0.8,5.2s0.3,3.8,0.8,5.3
		c0.5,1.5,1.3,2.8,2.5,3.6C98.1,178.7,99.5,179.1,101.2,179.1 M91.6,176.4h-7.3c-0.5,0-1,0-1.4,0c-0.4,0-0.8,0-1.2,0.1l-0.2-0.2
		c0.1-0.7,0.3-1.2,0.5-1.7c0.2-0.4,0.6-0.9,1.2-1.4s1.5-1,2.8-1.6l0.5-0.3c1.2-0.6,2.2-1.2,3-1.8s1.4-1.4,1.8-2.2
		c0.4-0.8,0.6-1.7,0.6-2.7c0-1.1-0.3-2-0.8-2.9c-0.5-0.8-1.3-1.5-2.2-2c-1-0.5-2.1-0.7-3.4-0.7c-1.6,0-2.9,0.3-4,1
		c-1,0.6-1.8,1.5-2.3,2.6c-0.5,1.1-0.8,2.3-0.8,3.6h2.7c0.1-1.7,0.5-2.9,1.2-3.7c0.7-0.8,1.8-1.2,3.2-1.2c0.7,0,1.4,0.1,2,0.4
		c0.6,0.3,1,0.7,1.3,1.2c0.3,0.5,0.5,1.1,0.5,1.7c0,0.5-0.1,1-0.3,1.5c-0.2,0.5-0.6,1.1-1.2,1.6s-1.4,1-2.4,1.5
		c-1.4,0.6-2.5,1.3-3.5,1.9c-0.9,0.7-1.7,1.6-2.3,2.9c-0.6,1.2-0.9,2.8-0.9,4.8h13V176.4z M74,179.1c0.5,0,1-0.2,1.3-0.6
		c0.4-0.4,0.5-0.8,0.5-1.3c0-0.5-0.2-1-0.5-1.3c-0.4-0.3-0.8-0.5-1.3-0.5c-0.5,0-1,0.2-1.3,0.5c-0.4,0.4-0.6,0.8-0.6,1.3
		c0,0.5,0.2,1,0.6,1.3C73,179,73.5,179.1,74,179.1 M66.9,165.8c0,0.8-0.2,1.5-0.6,2.2c-0.4,0.6-0.9,1.1-1.6,1.5
		c-0.7,0.3-1.4,0.5-2.3,0.5c-0.9,0-1.6-0.1-2.3-0.4c-0.7-0.3-1.2-0.7-1.5-1.4c-0.4-0.6-0.5-1.4-0.5-2.4c0-0.9,0.2-1.7,0.5-2.3
		c0.3-0.7,0.8-1.2,1.5-1.6c0.6-0.4,1.4-0.6,2.3-0.6c0.9,0,1.6,0.2,2.3,0.6c0.7,0.4,1.2,0.9,1.5,1.6
		C66.8,164.1,66.9,164.9,66.9,165.8 M55.6,165.8c0,1.3,0.3,2.4,0.9,3.4s1.3,1.7,2.3,2.2c1,0.5,2,0.8,3.2,0.8c0.8,0,1.6-0.1,2.3-0.3
		c0.7-0.2,1.3-0.6,1.8-1.2c0.5-0.6,0.9-1.3,1.1-2.2l0.4-0.1c0.1,1.3,0,2.6-0.4,3.9c-0.4,1.3-1,2.4-1.8,3.3c-0.8,0.9-1.8,1.3-2.9,1.3
		c-0.8,0-1.5-0.2-2.1-0.5c-0.6-0.3-1-0.8-1.4-1.3c-0.3-0.5-0.5-1.1-0.6-1.6h-2.8c0.2,1,0.5,2,1,2.9c0.5,0.9,1.3,1.6,2.2,2.1
		c1,0.5,2.2,0.8,3.6,0.8c1.7,0,3.1-0.5,4.2-1.4c1.1-0.9,1.9-2.2,2.5-3.8s0.8-3.5,0.8-5.5c0-1.9-0.3-3.5-0.8-4.9s-1.4-2.5-2.5-3.3
		c-1.1-0.8-2.5-1.2-4.1-1.2c-1.3,0-2.5,0.3-3.6,0.8c-1.1,0.6-1.9,1.4-2.5,2.4C55.9,163.2,55.6,164.4,55.6,165.8 M45.9,176.9
		c-1.1,0-2.1-0.3-2.8-1c-0.7-0.7-1.2-1.6-1.5-2.8c-0.3-1.2-0.5-2.6-0.5-4.2s0.2-3,0.5-4.1c0.3-1.1,0.8-2,1.5-2.6
		c0.7-0.6,1.6-0.9,2.8-0.9c1.2,0,2.1,0.3,2.8,0.9c0.7,0.6,1.2,1.5,1.5,2.6c0.3,1.1,0.5,2.5,0.5,4.1s-0.2,3.1-0.5,4.2
		c-0.3,1.2-0.8,2.1-1.5,2.8C48,176.6,47,176.9,45.9,176.9 M45.9,179.1c1.7,0,3.1-0.4,4.2-1.3c1.1-0.9,1.9-2.1,2.5-3.6
		c0.5-1.5,0.8-3.3,0.8-5.3s-0.3-3.7-0.8-5.2c-0.5-1.5-1.3-2.6-2.4-3.4c-1.1-0.8-2.5-1.2-4.2-1.2c-1.7,0-3.1,0.4-4.2,1.2
		c-1.1,0.8-1.9,2-2.4,3.4c-0.5,1.5-0.8,3.2-0.8,5.2s0.3,3.8,0.8,5.3c0.5,1.5,1.3,2.8,2.5,3.6C42.8,178.7,44.2,179.1,45.9,179.1
		 M35,179.1c0.5,0,1-0.2,1.3-0.6c0.4-0.4,0.5-0.8,0.5-1.3c0-0.5-0.2-1-0.5-1.3c-0.4-0.3-0.8-0.5-1.3-0.5s-1,0.2-1.3,0.5
		c-0.4,0.4-0.6,0.8-0.6,1.3c0,0.5,0.2,1,0.6,1.3C34,179,34.4,179.1,35,179.1 M23.1,176.9c-1.1,0-2.1-0.3-2.8-1
		c-0.7-0.7-1.2-1.6-1.5-2.8c-0.3-1.2-0.5-2.6-0.5-4.2s0.2-3,0.5-4.1c0.3-1.1,0.8-2,1.5-2.6c0.7-0.6,1.6-0.9,2.8-0.9s2.1,0.3,2.8,0.9
		s1.2,1.5,1.5,2.6c0.3,1.1,0.5,2.5,0.5,4.1s-0.2,3.1-0.5,4.2c-0.3,1.2-0.8,2.1-1.5,2.8S24.2,176.9,23.1,176.9 M23.1,179.1
		c1.7,0,3.1-0.4,4.2-1.3c1.1-0.9,1.9-2.1,2.5-3.6c0.5-1.5,0.8-3.3,0.8-5.3s-0.3-3.7-0.8-5.2c-0.5-1.5-1.3-2.6-2.4-3.4
		c-1.1-0.8-2.5-1.2-4.2-1.2c-1.7,0-3.1,0.4-4.2,1.2c-1.1,0.8-1.9,2-2.4,3.4c-0.5,1.5-0.8,3.2-0.8,5.2s0.3,3.8,0.8,5.3
		c0.5,1.5,1.3,2.8,2.5,3.6C20,178.7,21.4,179.1,23.1,179.1 M13.4,176.4H6.1c-0.5,0-1,0-1.4,0c-0.4,0-0.8,0-1.2,0.1l-0.2-0.2
		c0.1-0.7,0.3-1.2,0.5-1.7c0.2-0.4,0.6-0.9,1.2-1.4c0.6-0.5,1.5-1,2.8-1.6l0.5-0.3c1.2-0.6,2.2-1.2,3-1.8c0.8-0.7,1.4-1.4,1.8-2.2
		c0.4-0.8,0.6-1.7,0.6-2.7c0-1.1-0.3-2-0.8-2.9c-0.5-0.8-1.3-1.5-2.2-2S8.6,159,7.4,159c-1.6,0-3,0.3-4,1c-1,0.6-1.8,1.5-2.3,2.6
		c-0.5,1.1-0.8,2.3-0.8,3.6h2.7c0.1-1.7,0.5-2.9,1.2-3.7c0.7-0.8,1.8-1.2,3.2-1.2c0.7,0,1.4,0.1,1.9,0.4c0.6,0.3,1,0.7,1.3,1.2
		s0.5,1.1,0.5,1.7c0,0.5-0.1,1-0.3,1.5c-0.2,0.5-0.6,1.1-1.2,1.6s-1.4,1-2.4,1.5c-1.4,0.6-2.5,1.3-3.5,1.9c-0.9,0.7-1.7,1.6-2.3,2.9
		s-0.9,2.8-0.9,4.8h13V176.4z"/>
	<path d="M94.3,126h-2.8c0,1,0.3,1.9,0.7,2.7c0.5,0.9,1.2,1.5,2.2,2.1s2.2,0.8,3.6,0.8c1.2,0,2.3-0.2,3.2-0.6
		c0.9-0.4,1.6-0.9,2.1-1.6c0.5-0.7,0.7-1.5,0.7-2.5c0-1.1-0.4-2-1.1-2.7c-0.7-0.7-1.7-1.2-3-1.5l-3.1-0.7c-0.7-0.2-1.2-0.4-1.5-0.8
		s-0.4-0.7-0.4-1.2c0-0.6,0.3-1.1,0.8-1.5s1.2-0.5,2.1-0.5c0.6,0,1.1,0.1,1.6,0.3c0.5,0.2,0.9,0.5,1.2,1c0.3,0.5,0.5,1,0.6,1.7h2.8
		c0-1.1-0.3-2-0.8-2.8s-1.2-1.4-2.2-1.8c-0.9-0.4-1.9-0.7-3.1-0.7c-1.1,0-2.1,0.2-3,0.5c-0.9,0.3-1.6,0.8-2,1.5
		c-0.5,0.7-0.7,1.4-0.7,2.3c0,1,0.3,1.9,0.9,2.6s1.5,1.2,2.7,1.5l2.9,0.7c0.9,0.2,1.6,0.5,2,0.8c0.4,0.3,0.6,0.8,0.6,1.4
		c0,0.5-0.1,0.9-0.4,1.2c-0.3,0.3-0.7,0.6-1.2,0.8c-0.5,0.2-1.1,0.3-1.7,0.3c-0.7,0-1.3-0.1-1.9-0.4c-0.5-0.3-1-0.7-1.3-1.2
		S94.3,126.7,94.3,126 M78.8,122.2c0.1-1.1,0.5-2.1,1.3-2.9c0.7-0.8,1.7-1.2,2.8-1.2h0.3c0.8,0,1.5,0.2,2.1,0.5
		c0.6,0.4,1,0.8,1.4,1.5c0.3,0.6,0.5,1.3,0.6,2.1H78.8z M76.9,127.9c0.5,1.2,1.4,2.1,2.4,2.7c1.1,0.7,2.4,1,3.9,1
		c1.3,0,2.4-0.2,3.5-0.7c1-0.5,1.8-1.1,2.5-2c0.6-0.8,1-1.8,1.2-2.9h-2.7c-0.2,1-0.7,1.8-1.5,2.4c-0.8,0.6-1.7,0.9-2.8,0.9h-0.2
		c-0.8,0-1.6-0.2-2.2-0.6c-0.7-0.4-1.2-1-1.6-1.7c-0.4-0.7-0.6-1.6-0.6-2.6l11.3-0.1v-0.7c0-1.6-0.3-3-0.8-4.2
		c-0.5-1.2-1.3-2.1-2.4-2.7c-1-0.6-2.3-0.9-3.7-0.9c-1.4,0-2.6,0.3-3.7,1c-1.1,0.7-1.9,1.6-2.5,2.8c-0.6,1.2-0.9,2.6-0.9,4.1
		C76,125.3,76.3,126.7,76.9,127.9 M70.9,131.3h2.6v-15h-2.6V131.3z M72.3,113.9c0.5,0,0.9-0.2,1.2-0.5c0.3-0.3,0.5-0.8,0.5-1.3
		c0-0.5-0.2-0.9-0.5-1.2c-0.3-0.3-0.7-0.5-1.2-0.5c-0.5,0-0.9,0.2-1.3,0.5c-0.3,0.3-0.5,0.8-0.5,1.2c0,0.5,0.2,0.9,0.5,1.3
		C71.3,113.7,71.8,113.9,72.3,113.9 M67.9,119c0.5,0,0.9,0.1,1.4,0.1l0-2.9h-0.5c-0.9,0-1.7,0.1-2.4,0.2s-1.4,0.4-2,0.9
		c-0.7,0.5-1.3,1.2-1.8,2.1c-0.1,0.1-0.2,0.3-0.2,0.4s-0.1,0.3-0.2,0.5l-0.4-0.1l0.2-0.5c0.3-0.8,0.5-1.4,0.7-1.9s0.2-1,0.2-1.5
		v-0.1h-2.6v15h2.6v-8.4c0-1.3,0.4-2.3,1.1-2.9c0.7-0.6,1.7-0.9,2.8-0.9C67,119,67.4,119,67.9,119 M46.5,122.2
		c0.1-1.1,0.5-2.1,1.3-2.9c0.7-0.8,1.7-1.2,2.8-1.2h0.3c0.8,0,1.5,0.2,2.1,0.5c0.6,0.4,1,0.8,1.4,1.5c0.3,0.6,0.5,1.3,0.6,2.1H46.5z
		 M44.6,127.9c0.5,1.2,1.4,2.1,2.4,2.7c1.1,0.7,2.4,1,3.9,1c1.3,0,2.4-0.2,3.5-0.7c1-0.5,1.8-1.1,2.5-2s1-1.8,1.2-2.9h-2.7
		c-0.2,1-0.7,1.8-1.5,2.4c-0.8,0.6-1.7,0.9-2.8,0.9h-0.2c-0.8,0-1.6-0.2-2.2-0.6c-0.7-0.4-1.2-1-1.6-1.7c-0.4-0.7-0.6-1.6-0.6-2.6
		l11.3-0.1v-0.7c0-1.6-0.3-3-0.8-4.2c-0.6-1.2-1.3-2.1-2.4-2.7c-1-0.6-2.3-0.9-3.7-0.9c-1.4,0-2.6,0.3-3.7,1
		c-1.1,0.7-1.9,1.6-2.5,2.8c-0.6,1.2-0.9,2.6-0.9,4.1C43.8,125.3,44.1,126.7,44.6,127.9 M38.7,131.3h2.6v-20.8h-2.6V131.3z
		 M32.5,131.3h2.6v-20.8h-2.6V131.3z M24.9,123.8c0.5-0.3,0.9-0.7,1.2-1.2v2.1c0,1.1-0.2,2.1-0.7,2.8c-0.5,0.7-1.1,1.2-1.8,1.5
		c-0.7,0.3-1.4,0.4-2.1,0.4c-0.9,0-1.6-0.2-2.1-0.7c-0.4-0.4-0.7-0.9-0.7-1.5c0-0.7,0.2-1.2,0.7-1.6c0.2-0.2,0.5-0.4,0.9-0.5
		c0.4-0.1,0.8-0.2,1.3-0.3l1.3-0.2C23.8,124.3,24.4,124.1,24.9,123.8 M27.2,117.1c-1-0.8-2.5-1.2-4.5-1.2c-1.2,0-2.3,0.2-3.2,0.7
		c-0.9,0.4-1.6,1.1-2.1,1.8c-0.5,0.8-0.8,1.7-0.8,2.8h2.7c0.1-0.6,0.2-1.2,0.6-1.7c0.3-0.5,0.7-0.8,1.2-1c0.5-0.2,1.1-0.4,1.8-0.4
		c1,0,1.8,0.2,2.4,0.6c0.6,0.4,0.9,0.9,0.9,1.6c0,0.5-0.1,0.8-0.4,1.1s-0.6,0.5-1.1,0.6c-0.5,0.1-1.1,0.3-1.9,0.4l-1.4,0.2
		c-1.5,0.2-2.7,0.6-3.5,1.1c-1.2,0.8-1.7,2-1.7,3.5c0,0.7,0.1,1.3,0.4,1.9c0.3,0.6,0.7,1.1,1.2,1.4c0.9,0.7,2,1.1,3.3,1.1
		c1.4,0,2.6-0.3,3.6-1c1-0.7,1.7-1.7,2-2.9l0.4,0.1c0,0.1,0,0.1,0,0.2c0,0.1,0,0.1,0,0.2c-0.1,0.3-0.2,0.6-0.2,0.9
		c-0.1,0.3-0.1,0.6-0.1,0.9c0,0.5,0.2,0.9,0.5,1.1c0.3,0.2,0.9,0.4,1.6,0.4c0.5,0,1,0,1.7-0.1v-2.2c-0.2,0-0.4,0.1-0.6,0.1
		c-0.4,0-0.7-0.1-0.8-0.2c-0.1-0.1-0.1-0.5-0.1-1v-7C28.7,119.1,28.2,117.8,27.2,117.1 M7.1,128.3c-1.4,0-2.4-0.5-3.1-1.4
		s-1.1-2.1-1.1-3.7c0-1,0.2-1.9,0.5-2.7c0.3-0.8,0.8-1.4,1.4-1.8c0.6-0.4,1.4-0.6,2.3-0.6h0.2c1.4,0,2.4,0.5,3.1,1.4
		c0.7,0.9,1,2.2,1,3.8c0,1-0.2,1.9-0.5,2.6c-0.3,0.8-0.8,1.3-1.4,1.7c-0.6,0.4-1.4,0.6-2.3,0.6H7.1z M4,134.4
		c-0.7-0.6-1.1-1.4-1.2-2.6H0c0.2,1.7,0.8,3.1,1.8,4.1c1,1,2.7,1.6,5,1.6c1.4,0,2.6-0.3,3.7-0.8c1-0.5,1.8-1.3,2.4-2.3
		c0.6-1,0.8-2.2,0.8-3.7v-14.5H11v0.2c0,0.4,0,0.7,0.1,0.9c0.1,0.3,0.2,0.6,0.4,1.2h0v0.1l-0.4,0.1c-0.3-0.8-0.9-1.4-1.6-2
		c-0.7-0.5-1.8-0.8-3.1-0.8c-1.3,0-2.4,0.3-3.4,0.9s-1.7,1.5-2.1,2.6s-0.7,2.3-0.7,3.8c0,1.4,0.2,2.7,0.7,3.8c0.5,1.1,1.2,2,2.1,2.6
		s2,1,3.3,1c1.4,0,2.6-0.3,3.5-1.1c0.9-0.7,1.5-1.5,2-2.5l0.2-0.4l0.4,0.1c-0.1,0.2-0.2,0.5-0.2,0.7c-0.1,0.2-0.2,0.4-0.3,0.6
		c-0.2,0.5-0.3,0.9-0.4,1.2c-0.1,0.3-0.1,0.7-0.1,1.2v0.7c0,1.4-0.4,2.4-1.2,3.1s-1.8,1-3,1H6.8C5.6,135.2,4.6,135,4,134.4"/>
	<path d="M152.4,98.3c-1.4,0-2.4-0.5-3.1-1.4c-0.7-0.9-1.1-2.1-1.1-3.7c0-1,0.2-1.9,0.5-2.7c0.3-0.8,0.8-1.4,1.4-1.8
		c0.6-0.4,1.4-0.6,2.3-0.6h0.2c1.4,0,2.4,0.5,3.1,1.4s1,2.2,1,3.8c0,1-0.2,1.9-0.5,2.6s-0.8,1.3-1.4,1.7c-0.6,0.4-1.4,0.6-2.3,0.6
		H152.4z M149.3,104.4c-0.7-0.6-1.1-1.4-1.2-2.6h-2.7c0.2,1.7,0.8,3.1,1.8,4.1s2.7,1.6,5,1.6c1.4,0,2.6-0.3,3.7-0.8s1.8-1.3,2.4-2.3
		c0.6-1,0.8-2.2,0.8-3.7V86.3h-2.7v0.2c0,0.4,0,0.7,0.1,0.9c0.1,0.3,0.2,0.7,0.4,1.2h0v0.1l-0.4,0.1c-0.3-0.8-0.9-1.4-1.6-2
		c-0.7-0.5-1.8-0.8-3.1-0.8c-1.3,0-2.4,0.3-3.4,0.9c-0.9,0.6-1.6,1.5-2.1,2.6c-0.5,1.1-0.7,2.3-0.7,3.8c0,1.4,0.2,2.7,0.7,3.8
		s1.2,2,2.1,2.6c0.9,0.6,2,1,3.3,1c1.4,0,2.6-0.3,3.5-1c0.9-0.7,1.5-1.5,2-2.5l0.2-0.4l0.4,0.1c-0.1,0.2-0.2,0.5-0.2,0.7
		c-0.1,0.2-0.2,0.4-0.3,0.6c-0.2,0.5-0.3,0.9-0.4,1.2c-0.1,0.3-0.1,0.7-0.1,1.2v0.7c0,1.4-0.4,2.4-1.2,3.1c-0.8,0.7-1.8,1-3,1h-0.2
		C150.9,105.2,150,105,149.3,104.4 M130.2,86.3v15h2.6v-9.4c0-0.8,0.2-1.4,0.5-2c0.4-0.5,0.8-1,1.5-1.2s1.3-0.4,2-0.4h0.1
		c1.1,0,2,0.3,2.6,0.8c0.6,0.5,0.9,1.3,0.9,2.4v9.9h2.6V91c0-1.3-0.3-2.3-0.8-3.1c-0.5-0.8-1.2-1.3-1.9-1.6
		c-0.8-0.3-1.6-0.4-2.6-0.4c-1.2,0-2.4,0.4-3.4,1.1s-1.8,1.7-2.2,2.9l-0.2,0.5l-0.4-0.1c0.1-0.3,0.2-0.7,0.3-1s0.3-0.6,0.4-0.9
		c0.2-0.4,0.3-0.8,0.4-1c0.1-0.2,0.1-0.5,0.1-0.8v-0.2H130.2z M124.2,101.3h2.6v-15h-2.6V101.3z M125.5,83.9c0.5,0,0.9-0.2,1.2-0.5
		s0.5-0.8,0.5-1.3c0-0.5-0.2-0.9-0.5-1.2c-0.3-0.3-0.7-0.5-1.2-0.5c-0.5,0-0.9,0.2-1.3,0.5c-0.3,0.3-0.5,0.8-0.5,1.2
		c0,0.5,0.2,0.9,0.5,1.3C124.6,83.7,125,83.9,125.5,83.9 M121.7,98.7L121.7,98.7c-0.2,0.1-0.6,0.1-1,0.2c-0.5,0.1-0.8,0.1-1.2,0.1
		c-0.6,0-1-0.2-1.2-0.5s-0.3-0.8-0.3-1.4v-8.6h3.6v-2.2H118v-4.2h-2.6v4.2h-2.5v2.2h2.5v8.3c0,1.6,0.3,2.7,0.8,3.5
		c0.6,0.8,1.5,1.2,2.9,1.2c0.6,0,1.4-0.1,2.6-0.3c0,0,0,0,0,0c0,0,0,0,0,0V98.7z M107.1,93.8c0.5-0.3,0.9-0.7,1.2-1.2v2.1
		c0,1.1-0.2,2.1-0.7,2.8c-0.5,0.7-1.1,1.2-1.8,1.5s-1.4,0.4-2.1,0.4c-0.9,0-1.6-0.2-2.1-0.7c-0.4-0.4-0.7-0.9-0.7-1.5
		c0-0.7,0.2-1.2,0.7-1.7c0.2-0.2,0.5-0.4,0.9-0.5c0.4-0.1,0.8-0.2,1.3-0.3l1.3-0.2C105.9,94.3,106.6,94.1,107.1,93.8 M109.4,87.1
		c-1-0.8-2.5-1.2-4.5-1.2c-1.2,0-2.3,0.2-3.2,0.7c-0.9,0.4-1.6,1.1-2.1,1.8s-0.8,1.7-0.8,2.8h2.7c0.1-0.6,0.2-1.2,0.6-1.6
		c0.3-0.5,0.7-0.8,1.2-1.1c0.5-0.2,1.1-0.4,1.8-0.4c1,0,1.8,0.2,2.4,0.6c0.6,0.4,0.9,0.9,0.9,1.6c0,0.5-0.1,0.8-0.4,1.1
		c-0.2,0.3-0.6,0.5-1.1,0.6c-0.5,0.2-1.1,0.3-1.9,0.4l-1.4,0.2c-1.5,0.2-2.7,0.6-3.5,1.1c-1.2,0.8-1.7,2-1.7,3.5
		c0,0.7,0.1,1.3,0.4,1.9s0.7,1.1,1.2,1.4c0.9,0.7,2,1.1,3.3,1.1c1.4,0,2.6-0.3,3.6-1s1.7-1.7,2-2.9l0.4,0.1c0,0.1,0,0.1,0,0.2
		c0,0.1,0,0.1,0,0.2c-0.1,0.3-0.2,0.6-0.2,0.9s-0.1,0.6-0.1,0.9c0,0.5,0.2,0.9,0.5,1.1c0.3,0.2,0.9,0.4,1.6,0.4c0.5,0,1,0,1.7-0.1
		v-2.2c-0.2,0-0.4,0.1-0.6,0.1c-0.4,0-0.7-0.1-0.8-0.2c-0.1-0.2-0.1-0.5-0.1-1v-7C110.9,89.1,110.4,87.8,109.4,87.1 M89.5,88.1
		c1.4,0,2.5,0.5,3.3,1.5s1.1,2.4,1.1,4.1c0,1.1-0.2,2.1-0.5,3c-0.3,0.8-0.8,1.5-1.5,1.9c-0.7,0.5-1.5,0.7-2.4,0.7h-0.2
		c-1,0-1.8-0.2-2.5-0.7s-1.2-1.1-1.5-2c-0.3-0.8-0.5-1.8-0.5-3s0.2-2.1,0.5-2.9c0.3-0.8,0.8-1.5,1.5-1.9s1.5-0.7,2.5-0.7H89.5z
		 M95.8,89.4c-0.6-1.2-1.4-2.1-2.4-2.6s-2.1-0.9-3.3-0.9c-0.8,0-1.6,0.1-2.3,0.4c-0.7,0.3-1.3,0.7-1.8,1.2s-0.9,1.1-1.1,1.8
		l-0.1,0.2l-0.4-0.1c0,0,0-0.1,0-0.1s0-0.1,0-0.1c0.2-0.7,0.4-1.2,0.5-1.5c0.1-0.3,0.1-0.7,0.1-1v-0.4h-2.6v20.9H85v-5.3
		c0-0.4,0-0.6,0-0.8c0-0.3-0.1-0.7-0.2-1.1c-0.1-0.4-0.2-0.7-0.3-1.1c-0.1-0.3-0.2-0.5-0.3-0.8c-0.1-0.3-0.2-0.5-0.2-0.8l0.4-0.1
		l0.1,0.3c0.3,0.9,0.8,1.7,1.3,2.3c0.6,0.6,1.2,1,1.9,1.3c0.7,0.3,1.5,0.4,2.4,0.4c1.2,0,2.3-0.3,3.3-0.9c1-0.6,1.8-1.5,2.4-2.7
		c0.6-1.2,0.9-2.6,0.9-4.3S96.4,90.6,95.8,89.4 M76.1,101.3h2.6v-15h-2.6V101.3z M77.5,83.9c0.5,0,0.9-0.2,1.2-0.5
		c0.3-0.3,0.5-0.8,0.5-1.3c0-0.5-0.2-0.9-0.5-1.2c-0.3-0.3-0.7-0.5-1.2-0.5c-0.5,0-0.9,0.2-1.3,0.5c-0.3,0.3-0.5,0.8-0.5,1.2
		c0,0.5,0.2,0.9,0.5,1.3C76.5,83.7,77,83.9,77.5,83.9 M73.5,95.8h-2.7c-0.1,0.7-0.3,1.3-0.7,1.8c-0.4,0.5-0.8,1-1.4,1.3
		c-0.6,0.3-1.3,0.5-2.1,0.5h-0.3c-1,0-1.8-0.3-2.4-0.8c-0.7-0.5-1.1-1.2-1.4-2.1c-0.3-0.9-0.5-1.8-0.5-2.8c0-1,0.2-1.9,0.5-2.8
		c0.3-0.8,0.8-1.5,1.5-2c0.6-0.5,1.4-0.8,2.4-0.8h0.3c1.1,0,2,0.3,2.7,1s1.2,1.5,1.4,2.4h2.8c-0.2-1.3-0.7-2.3-1.4-3.2
		c-0.7-0.8-1.5-1.4-2.5-1.8c-1-0.4-2.1-0.6-3.2-0.6c-1.5,0-2.7,0.3-3.8,1c-1.1,0.7-1.9,1.6-2.5,2.7c-0.6,1.2-0.9,2.5-0.9,4.1
		s0.3,2.9,0.9,4.1c0.6,1.2,1.4,2.1,2.5,2.8c1.1,0.7,2.4,1,3.8,1c1.2,0,2.3-0.3,3.4-0.8c1-0.5,1.9-1.2,2.5-2.1
		C73,97.8,73.4,96.8,73.5,95.8 M54.1,101.3h2.6v-15h-2.6V101.3z M55.4,83.9c0.5,0,0.9-0.2,1.2-0.5c0.3-0.3,0.5-0.8,0.5-1.3
		c0-0.5-0.2-0.9-0.5-1.2c-0.3-0.3-0.7-0.5-1.2-0.5c-0.5,0-0.9,0.2-1.3,0.5c-0.3,0.3-0.5,0.8-0.5,1.2c0,0.5,0.2,0.9,0.5,1.3
		S54.9,83.9,55.4,83.9 M51.6,98.7L51.6,98.7c-0.2,0.1-0.6,0.1-1,0.2C50.1,99,49.7,99,49.4,99c-0.6,0-1-0.2-1.2-0.5
		c-0.2-0.3-0.3-0.8-0.3-1.4v-8.6h3.6v-2.2h-3.6v-4.2h-2.6v4.2h-2.5v2.2h2.5v8.3c0,1.6,0.3,2.7,0.8,3.5c0.6,0.8,1.5,1.2,2.9,1.2
		c0.6,0,1.5-0.1,2.5-0.3c0,0,0,0,0,0c0,0,0,0,0,0V98.7z M40.9,89c0.5,0.1,0.9,0.1,1.4,0.1l0-2.9h-0.5c-0.9,0-1.7,0.1-2.4,0.2
		c-0.7,0.1-1.4,0.4-2,0.9c-0.7,0.5-1.3,1.2-1.8,2.1c-0.1,0.1-0.2,0.3-0.2,0.4s-0.1,0.3-0.2,0.5l-0.4-0.1l0.2-0.5
		c0.3-0.8,0.5-1.4,0.7-1.9s0.2-1,0.2-1.5v-0.1h-2.6v15h2.6v-8.4c0-1.3,0.4-2.3,1.1-2.9s1.7-0.9,2.8-0.9C40,89,40.4,89,40.9,89
		 M25.6,93.8c0.5-0.3,0.9-0.7,1.2-1.2v2.1c0,1.1-0.2,2.1-0.7,2.8s-1.1,1.2-1.8,1.5c-0.7,0.3-1.4,0.4-2.1,0.4c-0.9,0-1.6-0.2-2.1-0.7
		c-0.4-0.4-0.7-0.9-0.7-1.5c0-0.7,0.2-1.2,0.7-1.7c0.2-0.2,0.5-0.4,0.9-0.5c0.4-0.1,0.8-0.2,1.3-0.3l1.3-0.2
		C24.4,94.3,25,94.1,25.6,93.8 M27.8,87.1c-1-0.8-2.5-1.2-4.5-1.2c-1.2,0-2.3,0.2-3.2,0.7c-0.9,0.4-1.6,1.1-2.1,1.8
		c-0.5,0.8-0.8,1.7-0.8,2.8h2.7c0.1-0.6,0.2-1.2,0.6-1.6c0.3-0.5,0.7-0.8,1.2-1.1c0.5-0.2,1.1-0.4,1.8-0.4c1,0,1.8,0.2,2.4,0.6
		c0.6,0.4,0.9,0.9,0.9,1.6c0,0.5-0.1,0.8-0.4,1.1c-0.3,0.3-0.6,0.5-1.1,0.6c-0.5,0.2-1.1,0.3-1.9,0.4l-1.4,0.2
		c-1.5,0.2-2.7,0.6-3.5,1.1c-1.2,0.8-1.7,2-1.7,3.5c0,0.7,0.1,1.3,0.4,1.9c0.3,0.6,0.7,1.1,1.2,1.4c0.9,0.7,2,1.1,3.3,1.1
		c1.4,0,2.6-0.3,3.6-1c1-0.7,1.7-1.7,2-2.9l0.4,0.1c0,0.1,0,0.1,0,0.2c0,0.1,0,0.1,0,0.2c-0.1,0.3-0.2,0.6-0.2,0.9
		c-0.1,0.3-0.1,0.6-0.1,0.9c0,0.5,0.2,0.9,0.5,1.1c0.3,0.2,0.9,0.4,1.6,0.4c0.5,0,1,0,1.7-0.1v-2.2c-0.2,0-0.4,0.1-0.6,0.1
		c-0.4,0-0.7-0.1-0.8-0.2s-0.1-0.5-0.1-1v-7C29.4,89.1,28.9,87.8,27.8,87.1 M8,88.1c1.4,0,2.5,0.5,3.3,1.5s1.1,2.4,1.1,4.1
		c0,1.1-0.2,2.1-0.5,3c-0.3,0.8-0.8,1.5-1.5,1.9S8.9,99.3,8,99.3H7.7c-1,0-1.8-0.2-2.5-0.7c-0.7-0.5-1.2-1.1-1.5-2s-0.5-1.8-0.5-3
		s0.2-2.1,0.5-2.9c0.3-0.8,0.9-1.5,1.5-1.9c0.7-0.5,1.5-0.7,2.5-0.7H8z M14.2,89.4c-0.6-1.2-1.4-2.1-2.4-2.6s-2.1-0.9-3.3-0.9
		c-0.8,0-1.6,0.1-2.3,0.4c-0.7,0.3-1.3,0.7-1.8,1.2s-0.9,1.1-1.1,1.8l-0.1,0.2l-0.4-0.1c0,0,0-0.1,0-0.1s0-0.1,0-0.1
		c0.2-0.7,0.4-1.2,0.4-1.5s0.1-0.7,0.1-1v-0.4H0.8v20.9h2.6v-5.3c0-0.4,0-0.6,0-0.8c0-0.3-0.1-0.7-0.2-1.1c-0.1-0.4-0.2-0.7-0.3-1.1
		c-0.1-0.3-0.2-0.5-0.3-0.8c-0.1-0.3-0.2-0.5-0.2-0.8l0.4-0.1l0.1,0.3c0.3,0.9,0.8,1.7,1.3,2.3s1.2,1,1.9,1.3s1.5,0.4,2.4,0.4
		c1.2,0,2.3-0.3,3.3-0.9c1-0.6,1.8-1.5,2.4-2.7c0.6-1.2,0.9-2.6,0.9-4.3S14.8,90.6,14.2,89.4"/>
	<path d="M62.7,51.2c-0.8,0.7-1.2,1.8-1.2,3.2v2h-2.6v2.2h2.6v12.8h2.6V58.4h4v-2.2h-4v-1.8c0-0.7,0.2-1.2,0.6-1.6
		c0.4-0.3,0.9-0.5,1.6-0.5c0.5,0,1.2,0.1,1.9,0.3v-2.4c-0.2,0-0.5-0.1-0.9-0.2c-0.4-0.1-0.8-0.1-1.2-0.1
		C64.6,50.1,63.4,50.4,62.7,51.2 M50.8,69.4h-0.3c-1.4,0-2.5-0.6-3.2-1.7c-0.7-1.1-1.1-2.5-1.1-4c0-1,0.2-1.9,0.5-2.8
		c0.3-0.9,0.8-1.5,1.5-2c0.6-0.5,1.4-0.8,2.4-0.8h0.3c1,0,1.8,0.2,2.4,0.8c0.6,0.5,1.1,1.2,1.4,2c0.3,0.8,0.5,1.8,0.5,2.8
		c0,1.1-0.2,2-0.5,2.9c-0.3,0.9-0.8,1.5-1.4,2.1C52.6,69.1,51.8,69.4,50.8,69.4 M50.7,71.6c1.4,0,2.7-0.3,3.8-1
		c1.1-0.7,1.9-1.6,2.5-2.8c0.6-1.2,0.9-2.6,0.9-4.1c0-1.5-0.3-2.9-0.9-4.1c-0.6-1.2-1.4-2.1-2.5-2.7c-1.1-0.7-2.4-1-3.8-1
		c-1.5,0-2.7,0.3-3.8,1c-1.1,0.7-1.9,1.6-2.5,2.7c-0.6,1.2-0.9,2.5-0.9,4.1c0,1.6,0.3,2.9,0.9,4.1c0.6,1.2,1.4,2.1,2.5,2.8
		C48,71.3,49.2,71.6,50.7,71.6 M34.7,68.7L34.7,68.7c-0.2,0.1-0.6,0.1-1,0.2C33.3,69,32.9,69,32.5,69c-0.6,0-1-0.2-1.2-0.5
		c-0.2-0.3-0.3-0.8-0.3-1.4v-8.6h3.6v-2.2H31v-4.2h-2.6v4.2h-2.5v2.2h2.5v8.3c0,1.6,0.3,2.7,0.8,3.5c0.6,0.8,1.5,1.2,2.9,1.2
		c0.6,0,1.5-0.1,2.5-0.3c0,0,0,0,0,0c0,0,0,0,0,0V68.7z M14.8,66h-2.8c0,1,0.3,1.9,0.7,2.7c0.5,0.8,1.2,1.5,2.2,2.1s2.2,0.8,3.6,0.8
		c1.2,0,2.3-0.2,3.2-0.6c0.9-0.4,1.6-0.9,2.1-1.6c0.5-0.7,0.7-1.5,0.7-2.5c0-1.1-0.4-2-1.1-2.7c-0.7-0.7-1.7-1.2-3-1.5l-3.1-0.7
		c-0.7-0.2-1.2-0.4-1.5-0.8c-0.3-0.3-0.4-0.7-0.4-1.2c0-0.6,0.3-1.1,0.8-1.5c0.5-0.4,1.2-0.5,2.1-0.5c0.6,0,1.1,0.1,1.6,0.3
		c0.5,0.2,0.9,0.5,1.2,1c0.3,0.5,0.5,1,0.6,1.7h2.8c0-1.1-0.3-2-0.8-2.8c-0.5-0.8-1.2-1.4-2.2-1.8c-0.9-0.4-1.9-0.7-3.1-0.7
		c-1.1,0-2.1,0.2-3,0.5c-0.9,0.3-1.6,0.8-2,1.5c-0.5,0.7-0.7,1.4-0.7,2.3c0,1,0.3,1.9,0.9,2.6c0.6,0.7,1.5,1.2,2.7,1.5l2.9,0.7
		c0.9,0.2,1.6,0.5,2,0.8c0.4,0.3,0.6,0.8,0.6,1.4c0,0.5-0.1,0.9-0.4,1.2c-0.3,0.3-0.7,0.6-1.2,0.8c-0.5,0.2-1.1,0.3-1.7,0.3
		c-0.7,0-1.3-0.1-1.9-0.4c-0.5-0.3-1-0.7-1.3-1.2C15,67.3,14.9,66.7,14.8,66 M7,71.3h2.6v-15H7V71.3z M8.3,53.9
		c0.5,0,0.9-0.2,1.2-0.5c0.3-0.3,0.5-0.8,0.5-1.3c0-0.5-0.2-0.9-0.5-1.2c-0.3-0.3-0.7-0.5-1.2-0.5c-0.5,0-0.9,0.2-1.3,0.5
		c-0.3,0.3-0.5,0.8-0.5,1.2c0,0.5,0.2,0.9,0.5,1.3C7.4,53.7,7.8,53.9,8.3,53.9 M0.8,71.3h2.6V50.4H0.8V71.3z"/>
	<path d="M11.9-0.3H9.5v20.2c-0.4-1.2-1.1-2.3-2.1-3.2c-1-0.9-2.1-1.6-3.4-2.1c-1.3-0.5-2.6-0.8-4-0.9v2.6c1.8,0.1,3.3,0.5,4.7,1.3
		c1.4,0.8,2.5,1.8,3.4,3.2s1.4,2.8,1.6,4.5h2.1c0.2-1.7,0.7-3.2,1.6-4.5c0.9-1.3,2-2.4,3.4-3.2c1.4-0.8,3-1.2,4.7-1.3v-2.6
		c-2.1,0.1-4.1,0.7-5.9,1.8c-1.8,1.1-3,2.6-3.7,4.4V-0.3z"/>
</g>
</svg>
