<?xml version="1.0" encoding="utf-8"?>
<!-- Generator: Adobe Illustrator 26.5.3, SVG Export Plug-In . SVG Version: 6.00 Build 0)  -->
<svg version="1.1" id="Layer_1" xmlns="http://www.w3.org/2000/svg" xmlns:xlink="http://www.w3.org/1999/xlink" x="0px" y="0px"
	 viewBox="0 0 905.1 282" style="enable-background:new 0 0 905.1 282;" xml:space="preserve">
<g>
	<path d="M23.6,61.1c-0.1,0-0.1,0-0.1,0c0,0-0.1,0-0.1,0c-2.9,0.5-5.2,0.8-6.8,0.8c-3.7,0-6.3-1.1-7.8-3.2c-1.5-2.1-2.2-5.2-2.2-9.4
		V27.3H0v-5.8h6.6V10.3h7v11.2h9.7v5.8h-9.7v23c0,1.7,0.3,3,0.9,3.8c0.6,0.9,1.7,1.3,3.2,1.3c0.9,0,2-0.1,3.2-0.2
		c1.2-0.2,2.1-0.3,2.7-0.5h0.1V61.1z"/>
	<path d="M37,5.9v16.6c0,1-0.1,1.8-0.2,2.4c-0.1,0.6-0.4,1.4-0.8,2.4l1,0.2c0.7-2,2.2-3.7,4.6-5c2.3-1.3,5.1-2,8.4-2
		c2.5,0,4.8,0.4,6.9,1.2c2.1,0.8,3.8,2.2,5.2,4.2c1.4,2,2,4.7,2,8.2v27.4h-7V35.1c0-2.9-0.8-5.1-2.5-6.4c-1.7-1.4-4-2-6.9-2h-0.2
		c-1.9,0-3.7,0.4-5.3,1.2c-1.6,0.8-2.9,1.9-3.9,3.3c-1,1.4-1.4,3.2-1.4,5.2v25.2h-7V5.9H37z"/>
	<path d="M69.3,41.5c0-4.2,0.8-7.8,2.4-11c1.6-3.2,3.8-5.6,6.6-7.4c2.8-1.7,6.1-2.6,9.8-2.6c3.8,0,7.1,0.8,9.8,2.4
		c2.8,1.6,4.9,4,6.4,7.1c1.5,3.1,2.2,6.9,2.2,11.2v1.8l-30.1,0.2c0.1,2.6,0.7,4.9,1.7,6.9c1,2,2.4,3.5,4.2,4.6
		c1.8,1.1,3.8,1.7,6,1.7h0.5c2.8,0,5.3-0.8,7.4-2.5c2.1-1.7,3.4-3.8,4-6.5h7.3c-0.5,2.9-1.6,5.4-3.3,7.7s-3.9,4-6.6,5.3
		c-2.7,1.3-5.8,1.9-9.2,1.9c-4,0-7.4-0.9-10.3-2.6c-2.9-1.7-5-4.2-6.5-7.3C70,49.4,69.3,45.7,69.3,41.5z M99.1,37.3
		c-0.2-2-0.8-3.9-1.6-5.5c-0.9-1.7-2.1-3-3.6-3.9c-1.5-1-3.4-1.4-5.6-1.4h-0.7c-3,0-5.5,1.1-7.5,3.2c-2,2.1-3.1,4.7-3.4,7.7H99.1z"
		/>
	<path d="M148.4,5c1.1,0,2.1,0.1,3.2,0.3c1.1,0.2,1.9,0.3,2.5,0.4V12c-2-0.6-3.7-0.9-5.1-0.9c-1.9,0-3.3,0.4-4.3,1.3
		c-1,0.9-1.5,2.2-1.5,4.2v4.9H154v5.8h-10.8v34.2h-7V27.3h-6.8v-5.8h6.8v-5.2c0-3.7,1.1-6.5,3.2-8.4C141.4,6,144.5,5,148.4,5z"/>
	<path d="M158.7,13.9c-0.9-0.9-1.4-2-1.4-3.4c0-1.3,0.5-2.4,1.4-3.3c0.9-0.9,2-1.4,3.4-1.4c1.3,0,2.4,0.5,3.2,1.4
		c0.9,0.9,1.3,2,1.3,3.3c0,1.3-0.4,2.5-1.3,3.4c-0.9,0.9-2,1.4-3.2,1.4C160.7,15.2,159.6,14.8,158.7,13.9z M165.6,21.5v40h-7v-40
		H165.6z"/>
	<path d="M198.2,29.2c-2.8-0.3-4.9-0.5-6.3-0.5c-3.3,0.1-5.8,1-7.6,2.8c-1.8,1.8-2.6,4.6-2.6,8.3v21.7h-7v-40h7v2
		c0,0.9,0,1.7-0.1,2.3c-0.1,0.6-0.2,1.3-0.4,2l-0.2,0.8l1,0.2c0.7-2,1.8-3.6,3.3-4.6c1.5-1.1,3.2-1.8,5.1-2.2c1.9-0.4,4-0.6,6.4-0.6
		h2.2l-0.1,7.8h-0.2C198.4,29.2,198.3,29.2,198.2,29.2z"/>
	<path d="M209,52.3c0.9,1.3,2,2.4,3.5,3.1c1.5,0.7,3.1,1.1,5,1.1c1.7,0,3.1-0.2,4.5-0.7c1.3-0.5,2.4-1.1,3.2-2
		c0.8-0.9,1.2-1.9,1.2-3.2c0-1.6-0.6-2.9-1.7-3.8c-1.1-0.9-2.9-1.7-5.3-2.2l-7.8-1.8c-3.3-0.8-5.7-2.1-7.2-3.9
		c-1.5-1.8-2.3-4.1-2.3-6.9c0-2.3,0.7-4.4,2-6.2c1.3-1.8,3.1-3.1,5.4-4c2.3-0.9,4.9-1.4,7.9-1.4c3,0,5.8,0.6,8.2,1.8
		c2.4,1.2,4.3,2.8,5.8,4.9c1.4,2.1,2.1,4.6,2.2,7.4H226c-0.1-1.9-0.6-3.4-1.5-4.6c-0.9-1.2-2-2.1-3.3-2.7c-1.3-0.6-2.7-0.8-4.2-0.8
		c-2.3,0-4.2,0.5-5.6,1.4c-1.4,1-2.1,2.3-2.1,3.9c0,1.2,0.4,2.3,1.2,3.2c0.8,0.9,2.1,1.6,3.9,2l8.2,1.9c3.5,0.8,6.2,2.1,8.1,4
		c1.9,1.8,2.9,4.3,2.9,7.2c0,2.6-0.6,4.8-1.9,6.6s-3.1,3.3-5.6,4.2c-2.4,1-5.3,1.5-8.6,1.5c-3.8,0-7-0.7-9.6-2.1
		c-2.6-1.4-4.5-3.3-5.8-5.5c-1.3-2.3-1.9-4.7-2-7.2h7.4C207.7,49.4,208.2,50.9,209,52.3z"/>
	<path d="M260.8,61.1c-0.1,0-0.1,0-0.1,0c0,0-0.1,0-0.1,0c-2.9,0.5-5.2,0.8-6.8,0.8c-3.7,0-6.3-1.1-7.8-3.2
		c-1.5-2.1-2.2-5.2-2.2-9.4V27.3h-6.6v-5.8h6.6V10.3h7v11.2h9.7v5.8h-9.7v23c0,1.7,0.3,3,0.9,3.8c0.6,0.9,1.7,1.3,3.2,1.3
		c0.9,0,2-0.1,3.2-0.2c1.2-0.2,2.1-0.3,2.7-0.5h0.1V61.1z"/>
	<path d="M287.2,13.9c-0.9-0.9-1.4-2-1.4-3.4c0-1.3,0.5-2.4,1.4-3.3c0.9-0.9,2-1.4,3.4-1.4c1.3,0,2.4,0.5,3.2,1.4
		c0.9,0.9,1.3,2,1.3,3.3c0,1.3-0.4,2.5-1.3,3.4c-0.9,0.9-2,1.4-3.2,1.4C289.2,15.2,288.1,14.8,287.2,13.9z M294.1,21.5v40h-7v-40
		H294.1z"/>
	<path d="M310.4,21.5v1c0,1-0.1,1.8-0.2,2.4c-0.1,0.6-0.4,1.4-0.8,2.4l1,0.2c0.7-2,2.2-3.7,4.6-5c2.3-1.3,5.1-2,8.4-2
		c2.5,0,4.8,0.4,6.9,1.2c2.1,0.8,3.8,2.2,5.2,4.2s2,4.7,2,8.2v27.4h-7V35.1c0-2.9-0.8-5.1-2.5-6.4c-1.7-1.4-4-2-6.9-2h-0.2
		c-1.9,0-3.7,0.4-5.3,1.2c-1.6,0.8-2.9,1.9-3.9,3.3c-1,1.4-1.4,3.2-1.4,5.2v25.2h-7v-40H310.4z"/>
	<path d="M365.4,61.1c-0.1,0-0.1,0-0.1,0c0,0-0.1,0-0.1,0c-2.9,0.5-5.2,0.8-6.8,0.8c-3.7,0-6.3-1.1-7.8-3.2
		c-1.5-2.1-2.2-5.2-2.2-9.4V27.3h-6.6v-5.8h6.6V10.3h7v11.2h9.7v5.8h-9.7v23c0,1.7,0.3,3,0.9,3.8c0.6,0.9,1.7,1.3,3.2,1.3
		c0.9,0,2-0.1,3.2-0.2s2.1-0.3,2.7-0.5h0.1V61.1z"/>
	<path d="M368.3,41.5c0-4.2,0.8-7.8,2.4-11c1.6-3.2,3.8-5.6,6.6-7.4c2.8-1.7,6.1-2.6,9.8-2.6c3.8,0,7.1,0.8,9.8,2.4
		c2.8,1.6,4.9,4,6.4,7.1c1.5,3.1,2.2,6.9,2.2,11.2v1.8l-30.1,0.2c0.1,2.6,0.7,4.9,1.7,6.9c1,2,2.4,3.5,4.2,4.6s3.8,1.7,6,1.7h0.5
		c2.8,0,5.3-0.8,7.4-2.5c2.1-1.7,3.4-3.8,4-6.5h7.3c-0.5,2.9-1.6,5.4-3.3,7.7s-3.9,4-6.6,5.3c-2.7,1.3-5.8,1.9-9.2,1.9
		c-4,0-7.4-0.9-10.3-2.6c-2.9-1.7-5-4.2-6.5-7.3C369,49.4,368.3,45.7,368.3,41.5z M398.2,37.3c-0.2-2-0.8-3.9-1.6-5.5
		c-0.9-1.7-2.1-3-3.6-3.9s-3.4-1.4-5.6-1.4h-0.7c-3,0-5.5,1.1-7.5,3.2c-2,2.1-3.1,4.7-3.4,7.7H398.2z"/>
	<path d="M435.8,29.2c-2.8-0.3-4.9-0.5-6.3-0.5c-3.3,0.1-5.8,1-7.6,2.8c-1.8,1.8-2.6,4.6-2.6,8.3v21.7h-7v-40h7v2
		c0,0.9,0,1.7-0.1,2.3c-0.1,0.6-0.2,1.3-0.4,2l-0.2,0.8l1,0.2c0.7-2,1.8-3.6,3.3-4.6c1.5-1.1,3.2-1.8,5.1-2.2c1.9-0.4,4-0.6,6.4-0.6
		h2.2l-0.1,7.8h-0.2C436,29.2,435.9,29.2,435.8,29.2z"/>
	<path d="M447.6,21.5v1c0,1-0.1,1.8-0.2,2.4c-0.1,0.6-0.4,1.4-0.8,2.4l1,0.2c0.7-2,2.2-3.7,4.6-5c2.3-1.3,5.1-2,8.4-2
		c2.5,0,4.8,0.4,6.9,1.2c2.1,0.8,3.8,2.2,5.2,4.2s2,4.7,2,8.2v27.4h-7V35.1c0-2.9-0.8-5.1-2.5-6.4c-1.7-1.4-4-2-6.9-2H458
		c-1.9,0-3.7,0.4-5.3,1.2c-1.6,0.8-2.9,1.9-3.9,3.3c-1,1.4-1.4,3.2-1.4,5.2v25.2h-7v-40H447.6z"/>
	<path d="M515,33.7v18.6c0,1.3,0.1,2.2,0.4,2.6c0.2,0.4,0.9,0.6,2,0.6c0.6,0,1.1-0.1,1.7-0.2v6c-1.7,0.2-3.1,0.3-4.4,0.3
		c-2.2,0-3.8-0.5-4.7-1.5c-0.9-1-1.4-2.6-1.4-4.7v-0.6l-0.8-0.2c-1.1,2.6-2.9,4.5-5.6,5.8c-2.6,1.3-5.3,2-8.1,2
		c-3,0-5.7-0.7-8.1-2.2c-1.5-1.1-2.8-2.4-3.6-4c-0.9-1.6-1.3-3.5-1.3-5.5c0-4.1,1.6-7.1,4.7-9.3c2-1.3,5-2.3,9-3l4.3-0.6
		c2.1-0.3,3.7-0.7,5-1.1c1.2-0.4,2.2-1,2.8-1.7c0.7-0.7,1-1.7,1-2.9c0-1.8-0.8-3.1-2.3-4.2c-1.5-1-3.7-1.5-6.4-1.5
		c-1.8,0-3.3,0.3-4.7,1c-1.4,0.6-2.5,1.6-3.3,2.8c-0.8,1.2-1.3,2.7-1.5,4.4h-7.2c0.1-2.8,0.8-5.3,2.2-7.4c1.4-2.1,3.3-3.7,5.7-4.9
		c2.5-1.2,5.3-1.8,8.6-1.8c5.2,0,9.2,1,11.9,3.1C513.7,25.7,515,29.1,515,33.7z M499.9,43.2l-3.7,0.8c-1.4,0.3-2.6,0.6-3.4,0.9
		c-0.9,0.3-1.6,0.6-2.2,1c-1.4,1-2.2,2.6-2.2,4.7c0,1.7,0.6,3,1.8,4.1c1.4,1.1,3.2,1.7,5.4,1.7c1.9,0,3.7-0.4,5.6-1.2
		c1.9-0.8,3.5-2.1,4.8-4c1.3-1.9,1.9-4.3,1.9-7.4v-5.4c-0.7,1.4-1.8,2.4-3,3.1C503.7,42.3,502,42.8,499.9,43.2z"/>
	<path d="M543.9,61.1c-0.1,0-0.1,0-0.1,0c0,0-0.1,0-0.1,0c-2.9,0.5-5.2,0.8-6.8,0.8c-3.7,0-6.3-1.1-7.8-3.2
		c-1.5-2.1-2.2-5.2-2.2-9.4V27.3h-6.6v-5.8h6.6V10.3h7v11.2h9.7v5.8h-9.7v23c0,1.7,0.3,3,0.9,3.8c0.6,0.9,1.7,1.3,3.2,1.3
		c0.9,0,2-0.1,3.2-0.2s2.1-0.3,2.7-0.5h0.1V61.1z"/>
	<path d="M550.7,13.9c-0.9-0.9-1.4-2-1.4-3.4c0-1.3,0.5-2.4,1.4-3.3c0.9-0.9,2-1.4,3.4-1.4c1.3,0,2.4,0.5,3.2,1.4
		c0.9,0.9,1.3,2,1.3,3.3c0,1.3-0.4,2.5-1.3,3.4c-0.9,0.9-2,1.4-3.2,1.4C552.7,15.2,551.6,14.8,550.7,13.9z M557.6,21.5v40h-7v-40
		H557.6z"/>
	<path d="M573.3,59.8c-2.9-1.8-5.1-4.3-6.7-7.4c-1.6-3.2-2.4-6.8-2.4-11s0.8-7.8,2.4-10.9s3.8-5.5,6.7-7.3c2.9-1.7,6.3-2.6,10.2-2.6
		c3.9,0,7.3,0.9,10.2,2.6c2.9,1.7,5.1,4.2,6.7,7.3c1.6,3.1,2.4,6.8,2.4,10.9c0,4.2-0.8,7.8-2.4,11c-1.6,3.2-3.8,5.7-6.8,7.4
		c-2.9,1.8-6.3,2.7-10.2,2.7C579.6,62.4,576.2,61.5,573.3,59.8z M590.3,54.5c1.7-1.4,3-3.2,3.8-5.5c0.8-2.3,1.2-4.9,1.2-7.7
		c0-2.8-0.4-5.3-1.3-7.5c-0.9-2.2-2.1-4-3.8-5.4c-1.7-1.3-3.8-2-6.4-2h-0.8c-2.5,0-4.6,0.7-6.4,2c-1.7,1.4-3,3.2-3.9,5.4
		c-0.9,2.3-1.3,4.7-1.3,7.4c0,4.2,1,7.8,2.9,10.8c1.9,3,4.8,4.4,8.6,4.4h0.8C586.5,56.5,588.6,55.8,590.3,54.5z"/>
	<path d="M616.1,21.5v1c0,1-0.1,1.8-0.2,2.4c-0.1,0.6-0.4,1.4-0.8,2.4l1,0.2c0.7-2,2.2-3.7,4.6-5c2.3-1.3,5.1-2,8.4-2
		c2.5,0,4.8,0.4,6.9,1.2c2.1,0.8,3.8,2.2,5.2,4.2s2,4.7,2,8.2v27.4h-7V35.1c0-2.9-0.8-5.1-2.5-6.4c-1.7-1.4-4-2-6.9-2h-0.2
		c-1.9,0-3.7,0.4-5.3,1.2c-1.6,0.8-2.9,1.9-3.9,3.3c-1,1.4-1.4,3.2-1.4,5.2v25.2h-7v-40H616.1z"/>
	<path d="M683.5,33.7v18.6c0,1.3,0.1,2.2,0.4,2.6c0.2,0.4,0.9,0.6,2,0.6c0.6,0,1.1-0.1,1.7-0.2v6c-1.7,0.2-3.1,0.3-4.4,0.3
		c-2.2,0-3.8-0.5-4.7-1.5c-0.9-1-1.4-2.6-1.4-4.7v-0.6l-0.8-0.2c-1.1,2.6-2.9,4.5-5.6,5.8c-2.6,1.3-5.3,2-8.1,2
		c-3,0-5.7-0.7-8.1-2.2c-1.5-1.1-2.8-2.4-3.6-4c-0.9-1.6-1.3-3.5-1.3-5.5c0-4.1,1.6-7.1,4.7-9.3c2-1.3,5-2.3,9-3l4.3-0.6
		c2.1-0.3,3.7-0.7,5-1.1c1.2-0.4,2.2-1,2.8-1.7c0.7-0.7,1-1.7,1-2.9c0-1.8-0.8-3.1-2.3-4.2c-1.5-1-3.7-1.5-6.4-1.5
		c-1.8,0-3.3,0.3-4.7,1c-1.4,0.6-2.5,1.6-3.3,2.8c-0.8,1.2-1.3,2.7-1.5,4.4h-7.2c0.1-2.8,0.8-5.3,2.2-7.4c1.4-2.1,3.3-3.7,5.7-4.9
		c2.5-1.2,5.3-1.8,8.6-1.8c5.2,0,9.2,1,11.9,3.1C682.1,25.7,683.5,29.1,683.5,33.7z M668.4,43.2l-3.7,0.8c-1.4,0.3-2.6,0.6-3.4,0.9
		c-0.9,0.3-1.6,0.6-2.2,1c-1.4,1-2.2,2.6-2.2,4.7c0,1.7,0.6,3,1.8,4.1c1.4,1.1,3.2,1.7,5.4,1.7c1.9,0,3.7-0.4,5.6-1.2
		c1.9-0.8,3.5-2.1,4.8-4c1.3-1.9,1.9-4.3,1.9-7.4v-5.4c-0.7,1.4-1.8,2.4-3,3.1C672.2,42.3,670.5,42.8,668.4,43.2z"/>
	<path d="M700.6,5.9v55.6h-7V5.9H700.6z"/>
</g>
<g>
	<path d="M18.2,77c1.1,0,2.1,0.1,3.2,0.3c1.1,0.2,1.9,0.3,2.5,0.4V84c-2-0.6-3.7-0.9-5.1-0.9c-1.9,0-3.3,0.4-4.3,1.3
		c-1,0.9-1.5,2.2-1.5,4.2v4.9h10.8v5.8H13v34.2H6V99.3h-6.8v-5.8H6v-5.2c0-3.7,1.1-6.5,3.2-8.4C11.3,78,14.3,77,18.2,77z"/>
	<path d="M60.6,105.7v18.6c0,1.3,0.1,2.2,0.4,2.6c0.2,0.4,0.9,0.6,2,0.6c0.6,0,1.1-0.1,1.7-0.2v6c-1.7,0.2-3.1,0.3-4.4,0.3
		c-2.2,0-3.8-0.5-4.7-1.5c-0.9-1-1.4-2.6-1.4-4.7v-0.6l-0.8-0.2c-1.1,2.6-2.9,4.5-5.6,5.8c-2.6,1.3-5.3,2-8.1,2
		c-3,0-5.7-0.7-8.1-2.2c-1.5-1.1-2.8-2.4-3.6-4c-0.9-1.6-1.3-3.5-1.3-5.5c0-4.1,1.6-7.1,4.7-9.3c2-1.3,5-2.3,9-3l4.3-0.6
		c2.1-0.3,3.7-0.7,5-1.1c1.2-0.4,2.2-1,2.8-1.7c0.7-0.7,1-1.7,1-2.9c0-1.8-0.8-3.1-2.3-4.2c-1.5-1-3.7-1.5-6.4-1.5
		c-1.8,0-3.3,0.3-4.7,1c-1.4,0.6-2.5,1.6-3.3,2.8c-0.8,1.2-1.3,2.7-1.5,4.4H28c0.1-2.8,0.8-5.3,2.2-7.4c1.4-2.1,3.3-3.7,5.7-4.9
		c2.5-1.2,5.3-1.8,8.6-1.8c5.2,0,9.2,1,11.9,3.1C59.2,97.7,60.6,101.1,60.6,105.7z M45.4,115.2l-3.7,0.8c-1.4,0.3-2.6,0.6-3.4,0.9
		c-0.9,0.3-1.6,0.6-2.2,1c-1.4,1-2.2,2.6-2.2,4.7c0,1.7,0.6,3,1.8,4.1c1.4,1.1,3.2,1.7,5.4,1.7c1.9,0,3.7-0.4,5.6-1.2
		c1.9-0.8,3.5-2.1,4.8-4c1.3-1.9,1.9-4.3,1.9-7.4v-5.4c-0.7,1.4-1.8,2.4-3,3.1C49.3,114.3,47.6,114.8,45.4,115.2z"/>
	<path d="M71.6,85.9c-0.9-0.9-1.4-2-1.4-3.4c0-1.3,0.5-2.4,1.4-3.3c0.9-0.9,2-1.4,3.4-1.4c1.3,0,2.4,0.5,3.2,1.4
		c0.9,0.9,1.3,2,1.3,3.3c0,1.3-0.4,2.5-1.3,3.4c-0.9,0.9-2,1.4-3.2,1.4C73.6,87.2,72.5,86.8,71.6,85.9z M78.5,93.5v40h-7v-40H78.5z"
		/>
	<path d="M111.1,101.2c-2.8-0.3-4.9-0.5-6.3-0.5c-3.3,0.1-5.8,1-7.6,2.8c-1.8,1.8-2.6,4.6-2.6,8.3v21.7h-7v-40h7v2
		c0,0.9,0,1.7-0.1,2.3c-0.1,0.6-0.2,1.3-0.4,2l-0.2,0.8l1,0.2c0.7-2,1.8-3.6,3.3-4.6c1.5-1.1,3.2-1.8,5.1-2.2c1.9-0.4,4-0.6,6.4-0.6
		h2.2l-0.1,7.8h-0.2C111.3,101.2,111.2,101.2,111.1,101.2z"/>
	<path d="M141.8,132.1c-2.7-1.5-4.8-3.9-6.5-7c-1.7-3.1-2.5-7-2.5-11.5c0-4.5,0.8-8.4,2.5-11.6c1.7-3.2,3.8-5.5,6.5-7.1
		c2.7-1.6,5.6-2.4,8.7-2.4c3.3,0,6.1,0.7,8.5,2.2c2.4,1.5,4,3.4,4.9,5.8l1-0.2c-0.3-1.2-0.5-2.2-0.7-3c-0.1-0.8-0.2-1.9-0.2-3.3
		V77.9h7v55.6h-7V132c0-1,0.1-1.9,0.2-2.5c0.1-0.7,0.4-1.5,0.7-2.4l-1-0.3c-0.9,2.3-2.5,4.2-4.9,5.6c-2.3,1.4-5.2,2.1-8.6,2.1
		C147.4,134.4,144.5,133.7,141.8,132.1z M152.6,128.4c2.6,0,4.7-0.6,6.6-1.8c1.8-1.2,3.2-3,4.1-5.2c0.9-2.2,1.4-4.9,1.4-7.8
		c0-3-0.5-5.6-1.4-7.9c-0.9-2.3-2.3-4-4.1-5.2c-1.8-1.2-4-1.8-6.6-1.8H152c-2.6,0-4.7,0.6-6.5,1.8c-1.8,1.2-3.1,3-4,5.2
		s-1.3,4.9-1.3,7.9c0,4.6,1,8.2,3,10.9c2,2.7,4.9,4,8.8,4H152.6z"/>
	<path d="M177.8,113.5c0-4.2,0.8-7.8,2.4-11c1.6-3.2,3.8-5.6,6.6-7.4c2.8-1.7,6.1-2.6,9.8-2.6c3.8,0,7.1,0.8,9.8,2.4
		c2.8,1.6,4.9,4,6.4,7.1c1.5,3.1,2.2,6.9,2.2,11.2v1.8l-30.1,0.2c0.1,2.6,0.7,4.9,1.7,6.9c1,2,2.4,3.5,4.2,4.6
		c1.8,1.1,3.8,1.7,6,1.7h0.5c2.8,0,5.3-0.8,7.4-2.5c2.1-1.7,3.4-3.8,4-6.5h7.3c-0.5,2.9-1.6,5.4-3.3,7.7s-3.9,4-6.6,5.3
		c-2.7,1.3-5.8,1.9-9.2,1.9c-4,0-7.4-0.9-10.3-2.6c-2.9-1.7-5-4.2-6.5-7.3C178.5,121.4,177.8,117.7,177.8,113.5z M207.6,109.3
		c-0.2-2-0.8-3.9-1.6-5.5c-0.9-1.7-2.1-3-3.6-3.9c-1.5-1-3.4-1.4-5.6-1.4H196c-3,0-5.5,1.1-7.5,3.2c-2,2.1-3.1,4.7-3.4,7.7H207.6z"
		/>
	<path d="M228.2,132.1c-2.7-1.5-4.8-3.9-6.5-7c-1.7-3.1-2.5-7-2.5-11.5c0-4.5,0.8-8.4,2.5-11.6c1.7-3.2,3.8-5.5,6.5-7.1
		c2.7-1.6,5.6-2.4,8.7-2.4c3.3,0,6.1,0.7,8.5,2.2c2.4,1.5,4,3.4,4.9,5.8l1-0.2c-0.3-1.2-0.5-2.2-0.7-3c-0.1-0.8-0.2-1.9-0.2-3.3
		V77.9h7v55.6h-7V132c0-1,0.1-1.9,0.2-2.5c0.1-0.7,0.4-1.5,0.7-2.4l-1-0.3c-0.9,2.3-2.5,4.2-4.9,5.6c-2.3,1.4-5.2,2.1-8.6,2.1
		C233.7,134.4,230.8,133.7,228.2,132.1z M239,128.4c2.6,0,4.7-0.6,6.6-1.8c1.8-1.2,3.2-3,4.1-5.2c0.9-2.2,1.4-4.9,1.4-7.8
		c0-3-0.5-5.6-1.4-7.9c-0.9-2.3-2.3-4-4.1-5.2c-1.8-1.2-4-1.8-6.6-1.8h-0.6c-2.6,0-4.7,0.6-6.5,1.8c-1.8,1.2-3.1,3-4,5.2
		s-1.3,4.9-1.3,7.9c0,4.6,1,8.2,3,10.9c2,2.7,4.9,4,8.8,4H239z"/>
	<path d="M267.2,85.9c-0.9-0.9-1.4-2-1.4-3.4c0-1.3,0.5-2.4,1.4-3.3c0.9-0.9,2-1.4,3.4-1.4c1.3,0,2.4,0.5,3.2,1.4
		c0.9,0.9,1.3,2,1.3,3.3c0,1.3-0.4,2.5-1.3,3.4c-0.9,0.9-2,1.4-3.2,1.4C269.2,87.2,268.1,86.8,267.2,85.9z M274.1,93.5v40h-7v-40
		H274.1z"/>
	<path d="M315.8,126.8c-1.8,2.4-4,4.3-6.8,5.6c-2.7,1.4-5.7,2-9,2c-3.9,0-7.3-0.9-10.2-2.7c-2.9-1.8-5.1-4.3-6.7-7.4
		c-1.6-3.2-2.4-6.8-2.4-11s0.8-7.8,2.4-10.9s3.8-5.5,6.7-7.3c2.9-1.7,6.3-2.6,10.2-2.6c3.1,0,6,0.5,8.6,1.6c2.6,1.1,4.8,2.7,6.6,4.9
		c1.8,2.2,3,5,3.6,8.4h-7.4c-0.5-2.6-1.8-4.8-3.8-6.5c-2-1.7-4.4-2.6-7.2-2.6h-0.8c-2.5,0-4.6,0.7-6.4,2c-1.7,1.4-3,3.2-3.9,5.4
		c-0.9,2.3-1.3,4.7-1.3,7.4c0,2.7,0.4,5.2,1.2,7.5c0.8,2.3,2.1,4.1,3.8,5.6c1.7,1.4,3.9,2.1,6.4,2.1h0.8c2.1,0,3.9-0.4,5.5-1.3
		c1.6-0.9,2.9-2,3.8-3.5c0.9-1.4,1.5-3.1,1.8-4.9h7.3C318.5,121.7,317.5,124.4,315.8,126.8z"/>
	<path d="M356.5,105.7v18.6c0,1.3,0.1,2.2,0.4,2.6c0.2,0.4,0.9,0.6,2,0.6c0.6,0,1.1-0.1,1.7-0.2v6c-1.7,0.2-3.1,0.3-4.4,0.3
		c-2.2,0-3.8-0.5-4.7-1.5c-0.9-1-1.4-2.6-1.4-4.7v-0.6l-0.8-0.2c-1.1,2.6-2.9,4.5-5.6,5.8c-2.6,1.3-5.3,2-8.1,2
		c-3,0-5.7-0.7-8.1-2.2c-1.5-1.1-2.8-2.4-3.6-4c-0.9-1.6-1.3-3.5-1.3-5.5c0-4.1,1.6-7.1,4.7-9.3c2-1.3,5-2.3,9-3l4.3-0.6
		c2.1-0.3,3.7-0.7,5-1.1c1.2-0.4,2.2-1,2.8-1.7c0.7-0.7,1-1.7,1-2.9c0-1.8-0.8-3.1-2.3-4.2c-1.5-1-3.7-1.5-6.4-1.5
		c-1.8,0-3.3,0.3-4.7,1c-1.4,0.6-2.5,1.6-3.3,2.8c-0.8,1.2-1.3,2.7-1.5,4.4h-7.2c0.1-2.8,0.8-5.3,2.2-7.4c1.4-2.1,3.3-3.7,5.7-4.9
		c2.5-1.2,5.3-1.8,8.6-1.8c5.2,0,9.2,1,11.9,3.1C355.1,97.7,356.5,101.1,356.5,105.7z M341.4,115.2l-3.7,0.8
		c-1.4,0.3-2.6,0.6-3.4,0.9c-0.9,0.3-1.6,0.6-2.2,1c-1.4,1-2.2,2.6-2.2,4.7c0,1.7,0.6,3,1.8,4.1c1.4,1.1,3.2,1.7,5.4,1.7
		c1.9,0,3.7-0.4,5.6-1.2c1.9-0.8,3.5-2.1,4.8-4c1.3-1.9,1.9-4.3,1.9-7.4v-5.4c-0.7,1.4-1.8,2.4-3,3.1
		C345.2,114.3,343.5,114.8,341.4,115.2z"/>
	<path d="M385.4,133.1c-0.1,0-0.1,0-0.1,0c0,0-0.1,0-0.1,0c-2.9,0.5-5.2,0.8-6.8,0.8c-3.7,0-6.3-1.1-7.8-3.2
		c-1.5-2.1-2.2-5.2-2.2-9.4V99.3h-6.6v-5.8h6.6V82.3h7v11.2h9.7v5.8h-9.7v23c0,1.7,0.3,3,0.9,3.8c0.6,0.9,1.7,1.3,3.2,1.3
		c0.9,0,2-0.1,3.2-0.2s2.1-0.3,2.7-0.5h0.1V133.1z"/>
	<path d="M388.3,113.5c0-4.2,0.8-7.8,2.4-11c1.6-3.2,3.8-5.6,6.6-7.4c2.8-1.7,6.1-2.6,9.8-2.6c3.8,0,7.1,0.8,9.8,2.4
		c2.8,1.6,4.9,4,6.4,7.1c1.5,3.1,2.2,6.9,2.2,11.2v1.8l-30.1,0.2c0.1,2.6,0.7,4.9,1.7,6.9c1,2,2.4,3.5,4.2,4.6s3.8,1.7,6,1.7h0.5
		c2.8,0,5.3-0.8,7.4-2.5c2.1-1.7,3.4-3.8,4-6.5h7.3c-0.5,2.9-1.6,5.4-3.3,7.7s-3.9,4-6.6,5.3c-2.7,1.3-5.8,1.9-9.2,1.9
		c-4,0-7.4-0.9-10.3-2.6c-2.9-1.7-5-4.2-6.5-7.3C389,121.4,388.3,117.7,388.3,113.5z M418.2,109.3c-0.2-2-0.8-3.9-1.6-5.5
		c-0.9-1.7-2.1-3-3.6-3.9s-3.4-1.4-5.6-1.4h-0.7c-3,0-5.5,1.1-7.5,3.2c-2,2.1-3.1,4.7-3.4,7.7H418.2z"/>
	<path d="M438.7,132.1c-2.7-1.5-4.8-3.9-6.5-7c-1.7-3.1-2.5-7-2.5-11.5c0-4.5,0.8-8.4,2.5-11.6c1.7-3.2,3.8-5.5,6.5-7.1
		c2.7-1.6,5.6-2.4,8.7-2.4c3.3,0,6.1,0.7,8.5,2.2c2.4,1.5,4,3.4,4.9,5.8l1-0.2c-0.3-1.2-0.5-2.2-0.7-3c-0.1-0.8-0.2-1.9-0.2-3.3
		V77.9h7v55.6h-7V132c0-1,0.1-1.9,0.2-2.5c0.1-0.7,0.4-1.5,0.7-2.4l-1-0.3c-0.9,2.3-2.5,4.2-4.9,5.6c-2.3,1.4-5.2,2.1-8.6,2.1
		C444.3,134.4,441.4,133.7,438.7,132.1z M449.5,128.4c2.6,0,4.7-0.6,6.6-1.8c1.8-1.2,3.2-3,4.1-5.2c0.9-2.2,1.4-4.9,1.4-7.8
		c0-3-0.5-5.6-1.4-7.9c-0.9-2.3-2.3-4-4.1-5.2c-1.8-1.2-4-1.8-6.6-1.8h-0.6c-2.6,0-4.7,0.6-6.5,1.8c-1.8,1.2-3.1,3-4,5.2
		s-1.3,4.9-1.3,7.9c0,4.6,1,8.2,3,10.9c2,2.7,4.9,4,8.8,4H449.5z"/>
</g>
<g>
	<path d="M23.6,205.1c-0.1,0-0.1,0-0.1,0c0,0-0.1,0-0.1,0c-2.9,0.5-5.2,0.8-6.8,0.8c-3.7,0-6.3-1.1-7.8-3.2
		c-1.5-2.1-2.2-5.2-2.2-9.4v-22.1H0v-5.8h6.6v-11.2h7v11.2h9.7v5.8h-9.7v23c0,1.7,0.3,3,0.9,3.8c0.6,0.9,1.7,1.3,3.2,1.3
		c0.9,0,2-0.1,3.2-0.2c1.2-0.2,2.1-0.3,2.7-0.5h0.1V205.1z"/>
	<path d="M35.6,203.8c-2.9-1.8-5.1-4.3-6.7-7.4c-1.6-3.2-2.4-6.8-2.4-11s0.8-7.8,2.4-10.9c1.6-3.1,3.8-5.5,6.7-7.3
		c2.9-1.7,6.3-2.6,10.2-2.6c3.9,0,7.3,0.9,10.2,2.6c2.9,1.7,5.1,4.2,6.7,7.3c1.6,3.1,2.4,6.8,2.4,10.9c0,4.2-0.8,7.8-2.4,11
		c-1.6,3.2-3.8,5.7-6.8,7.4c-2.9,1.8-6.3,2.7-10.2,2.7C41.9,206.4,38.5,205.5,35.6,203.8z M52.7,198.5c1.7-1.4,3-3.2,3.8-5.5
		c0.8-2.3,1.2-4.9,1.2-7.7c0-2.8-0.4-5.3-1.3-7.5c-0.9-2.2-2.1-4-3.8-5.4c-1.7-1.3-3.8-2-6.4-2h-0.8c-2.5,0-4.6,0.7-6.4,2
		c-1.7,1.4-3,3.2-3.9,5.4c-0.9,2.3-1.3,4.7-1.3,7.4c0,4.2,1,7.8,2.9,10.8c1.9,3,4.8,4.4,8.6,4.4h0.8
		C48.8,200.5,50.9,199.8,52.7,198.5z"/>
	<path d="M123.4,198.8c-1.8,2.4-4,4.3-6.8,5.6c-2.7,1.4-5.7,2-9,2c-3.9,0-7.3-0.9-10.2-2.7c-2.9-1.8-5.1-4.3-6.7-7.4
		c-1.6-3.2-2.4-6.8-2.4-11s0.8-7.8,2.4-10.9c1.6-3.1,3.8-5.5,6.7-7.3c2.9-1.7,6.3-2.6,10.2-2.6c3.1,0,6,0.5,8.6,1.6
		c2.6,1.1,4.8,2.7,6.6,4.9c1.8,2.2,3,5,3.6,8.4H119c-0.5-2.6-1.8-4.8-3.8-6.5c-2-1.7-4.4-2.6-7.2-2.6h-0.8c-2.5,0-4.6,0.7-6.4,2
		c-1.7,1.4-3,3.2-3.9,5.4c-0.9,2.3-1.3,4.7-1.3,7.4c0,2.7,0.4,5.2,1.2,7.5c0.8,2.3,2.1,4.1,3.8,5.6c1.7,1.4,3.9,2.1,6.4,2.1h0.8
		c2.1,0,3.9-0.4,5.5-1.3s2.9-2,3.8-3.5c0.9-1.4,1.5-3.1,1.8-4.9h7.3C126.1,193.7,125.1,196.4,123.4,198.8z"/>
	<path d="M139.6,203.8c-2.9-1.8-5.1-4.3-6.7-7.4c-1.6-3.2-2.4-6.8-2.4-11s0.8-7.8,2.4-10.9c1.6-3.1,3.8-5.5,6.7-7.3
		c2.9-1.7,6.3-2.6,10.2-2.6c3.9,0,7.3,0.9,10.2,2.6c2.9,1.7,5.1,4.2,6.7,7.3c1.6,3.1,2.4,6.8,2.4,10.9c0,4.2-0.8,7.8-2.4,11
		c-1.6,3.2-3.8,5.7-6.8,7.4c-2.9,1.8-6.3,2.7-10.2,2.7C145.9,206.4,142.5,205.5,139.6,203.8z M156.6,198.5c1.7-1.4,3-3.2,3.8-5.5
		c0.8-2.3,1.2-4.9,1.2-7.7c0-2.8-0.4-5.3-1.3-7.5c-0.9-2.2-2.1-4-3.8-5.4c-1.7-1.3-3.8-2-6.4-2h-0.8c-2.5,0-4.6,0.7-6.4,2
		c-1.7,1.4-3,3.2-3.9,5.4c-0.9,2.3-1.3,4.7-1.3,7.4c0,4.2,1,7.8,2.9,10.8c1.9,3,4.8,4.4,8.6,4.4h0.8
		C152.7,200.5,154.9,199.8,156.6,198.5z"/>
	<path d="M182.3,165.5v1c0,1-0.1,1.8-0.2,2.4c-0.1,0.6-0.4,1.4-0.8,2.4l1,0.2c0.7-2,2.2-3.7,4.6-5c2.3-1.3,5.1-2,8.4-2
		c2.5,0,4.8,0.4,6.9,1.2c2.1,0.8,3.8,2.2,5.2,4.2c1.4,2,2,4.7,2,8.2v27.4h-7v-26.4c0-2.9-0.8-5.1-2.5-6.4c-1.7-1.4-4-2-6.9-2h-0.2
		c-1.9,0-3.7,0.4-5.3,1.2c-1.6,0.8-2.9,1.9-3.9,3.3c-1,1.4-1.4,3.2-1.4,5.2v25.2h-7v-40H182.3z"/>
	<path d="M237.4,205.1c-0.1,0-0.1,0-0.1,0c0,0-0.1,0-0.1,0c-2.9,0.5-5.2,0.8-6.8,0.8c-3.7,0-6.3-1.1-7.8-3.2
		c-1.5-2.1-2.2-5.2-2.2-9.4v-22.1h-6.6v-5.8h6.6v-11.2h7v11.2h9.7v5.8h-9.7v23c0,1.7,0.3,3,0.9,3.8c0.6,0.9,1.7,1.3,3.2,1.3
		c0.9,0,2-0.1,3.2-0.2c1.2-0.2,2.1-0.3,2.7-0.5h0.1V205.1z"/>
	<path d="M240.3,185.5c0-4.2,0.8-7.8,2.4-11c1.6-3.2,3.8-5.6,6.6-7.4c2.8-1.7,6.1-2.6,9.8-2.6c3.8,0,7.1,0.8,9.8,2.4
		c2.8,1.6,4.9,4,6.4,7.1c1.5,3.1,2.2,6.9,2.2,11.2v1.8l-30.1,0.2c0.1,2.6,0.7,4.9,1.7,6.9c1,2,2.4,3.5,4.2,4.6
		c1.8,1.1,3.8,1.7,6,1.7h0.5c2.8,0,5.3-0.8,7.4-2.5c2.1-1.7,3.4-3.8,4-6.5h7.3c-0.5,2.9-1.6,5.4-3.3,7.7s-3.9,4-6.6,5.3
		s-5.8,1.9-9.2,1.9c-4,0-7.4-0.9-10.3-2.6c-2.9-1.7-5-4.2-6.5-7.3C241.1,193.4,240.3,189.7,240.3,185.5z M270.2,181.3
		c-0.2-2-0.8-3.9-1.6-5.5c-0.9-1.7-2.1-3-3.6-3.9s-3.4-1.4-5.6-1.4h-0.7c-3,0-5.5,1.1-7.5,3.2c-2,2.1-3.1,4.7-3.4,7.7H270.2z"/>
	<path d="M334,165.7c2,0.8,3.7,2.1,5.2,4.1c1.4,2,2.2,4.6,2.2,7.9v27.8h-7v-26.2c0-3.2-0.8-5.4-2.4-6.7c-1.6-1.3-3.7-1.9-6.2-1.9
		H325c-2.4,0-4.5,0.8-6.2,2.5c-1.7,1.7-2.6,4.3-2.6,7.7l0.1,24.6h-7v-26.2c0-3.2-0.8-5.4-2.4-6.7c-1.6-1.3-3.7-1.9-6.2-1.9H300
		c-2.4,0-4.5,0.8-6.2,2.5c-1.7,1.7-2.6,4.3-2.6,7.7v24.6h-7v-40h7.1v0.7c0,1-0.1,1.8-0.2,2.4c-0.1,0.6-0.3,1.3-0.7,2.2l1,0.2
		c0.8-2.1,2.3-3.7,4.5-4.8c2.2-1.1,4.7-1.7,7.4-1.7c2.8,0,5.3,0.6,7.4,1.8c2.1,1.2,3.5,3.1,4,5.6h0.9c0.9-2.4,2.4-4.2,4.5-5.5
		c2.2-1.3,4.8-1.9,7.9-1.9C330,164.5,332,164.9,334,165.7z"/>
	<path d="M378.9,166.8c2.7,1.5,4.8,3.9,6.5,7c1.7,3.1,2.5,7,2.5,11.5c0,4.5-0.8,8.4-2.5,11.6c-1.7,3.2-3.8,5.5-6.5,7.1
		c-2.7,1.6-5.6,2.4-8.7,2.4c-3.3,0-6.1-0.7-8.5-2.2c-2.4-1.5-4-3.4-4.9-5.8l-1,0.2c0.3,1.2,0.5,2.2,0.7,3c0.1,0.8,0.2,1.9,0.2,3.3
		v16.2h-7v-55.6h7v1.5c0,1-0.1,1.9-0.2,2.5c-0.1,0.7-0.4,1.5-0.7,2.4l1,0.3c0.9-2.3,2.5-4.2,4.9-5.6c2.3-1.4,5.2-2.1,8.6-2.1
		C373.3,164.5,376.2,165.3,378.9,166.8z M368.1,170.5c-2.6,0-4.7,0.6-6.6,1.8c-1.8,1.2-3.2,3-4.1,5.2c-0.9,2.2-1.4,4.9-1.4,7.8
		c0,3,0.5,5.6,1.4,7.9c0.9,2.3,2.3,4,4.1,5.2c1.8,1.2,4,1.8,6.6,1.8h0.6c2.6,0,4.7-0.6,6.5-1.8c1.8-1.2,3.1-3,4-5.2s1.3-4.9,1.3-7.9
		c0-4.6-1-8.2-3-10.9c-2-2.7-4.9-4-8.8-4H368.1z"/>
	<path d="M400.6,203.8c-2.9-1.8-5.1-4.3-6.7-7.4c-1.6-3.2-2.4-6.8-2.4-11s0.8-7.8,2.4-10.9s3.8-5.5,6.7-7.3
		c2.9-1.7,6.3-2.6,10.2-2.6c3.9,0,7.3,0.9,10.2,2.6c2.9,1.7,5.1,4.2,6.7,7.3c1.6,3.1,2.4,6.8,2.4,10.9c0,4.2-0.8,7.8-2.4,11
		c-1.6,3.2-3.8,5.7-6.8,7.4c-2.9,1.8-6.3,2.7-10.2,2.7C406.9,206.4,403.5,205.5,400.6,203.8z M417.6,198.5c1.7-1.4,3-3.2,3.8-5.5
		c0.8-2.3,1.2-4.9,1.2-7.7c0-2.8-0.4-5.3-1.3-7.5c-0.9-2.2-2.1-4-3.8-5.4c-1.7-1.3-3.8-2-6.4-2h-0.8c-2.5,0-4.6,0.7-6.4,2
		c-1.7,1.4-3,3.2-3.9,5.4c-0.9,2.3-1.3,4.7-1.3,7.4c0,4.2,1,7.8,2.9,10.8c1.9,3,4.8,4.4,8.6,4.4h0.8
		C413.8,200.5,415.9,199.8,417.6,198.5z"/>
	<path d="M459.7,173.2c-2.8-0.3-4.9-0.5-6.3-0.5c-3.3,0.1-5.8,1-7.6,2.8c-1.8,1.8-2.6,4.6-2.6,8.3v21.7h-7v-40h7v2
		c0,0.9,0,1.7-0.1,2.3c-0.1,0.6-0.2,1.3-0.4,2l-0.2,0.8l1,0.2c0.7-2,1.8-3.6,3.3-4.6c1.5-1.1,3.2-1.8,5.1-2.2c1.9-0.4,4-0.6,6.4-0.6
		h2.2l-0.1,7.8H460C459.9,173.2,459.8,173.2,459.7,173.2z"/>
	<path d="M494.8,177.7v18.6c0,1.3,0.1,2.2,0.4,2.6c0.2,0.4,0.9,0.6,2,0.6c0.6,0,1.1-0.1,1.7-0.2v6c-1.7,0.2-3.1,0.3-4.4,0.3
		c-2.2,0-3.8-0.5-4.7-1.5c-0.9-1-1.4-2.6-1.4-4.7v-0.6l-0.8-0.2c-1.1,2.6-2.9,4.5-5.6,5.8c-2.6,1.3-5.3,2-8.1,2
		c-3,0-5.7-0.7-8.1-2.2c-1.5-1.1-2.8-2.4-3.6-4c-0.9-1.6-1.3-3.5-1.3-5.5c0-4.1,1.6-7.1,4.7-9.3c2-1.3,5-2.3,9-3l4.3-0.6
		c2.1-0.3,3.7-0.7,5-1.1c1.2-0.4,2.2-1,2.8-1.7c0.7-0.7,1-1.7,1-2.9c0-1.8-0.8-3.1-2.3-4.2c-1.5-1-3.7-1.5-6.4-1.5
		c-1.8,0-3.3,0.3-4.7,1c-1.4,0.6-2.5,1.6-3.3,2.8c-0.8,1.2-1.3,2.7-1.5,4.4h-7.2c0.1-2.8,0.8-5.3,2.2-7.4c1.4-2.1,3.3-3.7,5.7-4.9
		c2.5-1.2,5.3-1.8,8.6-1.8c5.2,0,9.2,1,11.9,3.1C493.4,169.7,494.8,173.1,494.8,177.7z M479.7,187.2L476,188
		c-1.4,0.3-2.6,0.6-3.4,0.9c-0.9,0.3-1.6,0.6-2.2,1c-1.4,1-2.2,2.6-2.2,4.7c0,1.7,0.6,3,1.8,4.1c1.4,1.1,3.2,1.7,5.4,1.7
		c1.9,0,3.7-0.4,5.6-1.2c1.9-0.8,3.5-2.1,4.8-4c1.3-1.9,1.9-4.3,1.9-7.4v-5.4c-0.7,1.4-1.8,2.4-3,3.1
		C483.5,186.3,481.8,186.8,479.7,187.2z"/>
	<path d="M528.7,173.2c-2.8-0.3-4.9-0.5-6.3-0.5c-3.3,0.1-5.8,1-7.6,2.8c-1.8,1.8-2.6,4.6-2.6,8.3v21.7h-7v-40h7v2
		c0,0.9,0,1.7-0.1,2.3c-0.1,0.6-0.2,1.3-0.4,2l-0.2,0.8l1,0.2c0.7-2,1.8-3.6,3.3-4.6c1.5-1.1,3.2-1.8,5.1-2.2c1.9-0.4,4-0.6,6.4-0.6
		h2.2l-0.1,7.8H529C528.9,173.2,528.8,173.2,528.7,173.2z"/>
	<path d="M566.2,165.5V204c0,5.8-1.6,10.3-4.9,13.3c-3.3,3.1-7.7,4.6-13.4,4.6c-5.7,0-9.9-1.3-12.7-3.8c-2.8-2.5-4.4-6.1-4.8-10.6
		h7.3c0.4,2.8,1.4,4.9,3.1,6.3c1.7,1.4,4,2.2,7,2.2h0.6c3.3,0,5.9-0.9,7.8-2.7c2-1.8,3-4.6,3-8.2c0-2,0-3.7,0.1-5
		c0.1-1.3,0.3-2.4,0.7-3.2l-1-0.2c-0.7,2-2.1,3.7-4.3,5c-2.2,1.3-4.9,2-8.2,2c-2.4,0-4.6-0.4-6.7-1.3c-2.1-0.9-3.7-2.3-5-4.3
		c-1.3-2-1.9-4.7-1.9-8.2v-24.3h7V189c0,2.8,0.8,4.9,2.4,6.4c1.6,1.4,3.8,2.1,6.6,2.1h0.2c2.9,0,5.3-0.9,7.3-2.7c2-1.8,3-4.1,3-7
		v-22.3H566.2z"/>
	<path d="M626.7,198.8c-1.8,2.4-4,4.3-6.8,5.6c-2.7,1.4-5.7,2-9,2c-3.9,0-7.3-0.9-10.2-2.7c-2.9-1.8-5.1-4.3-6.7-7.4
		c-1.6-3.2-2.4-6.8-2.4-11s0.8-7.8,2.4-10.9s3.8-5.5,6.7-7.3c2.9-1.7,6.3-2.6,10.2-2.6c3.1,0,6,0.5,8.6,1.6c2.6,1.1,4.8,2.7,6.6,4.9
		c1.8,2.2,3,5,3.6,8.4h-7.4c-0.5-2.6-1.8-4.8-3.8-6.5c-2-1.7-4.4-2.6-7.2-2.6h-0.8c-2.5,0-4.6,0.7-6.4,2c-1.7,1.4-3,3.2-3.9,5.4
		c-0.9,2.3-1.3,4.7-1.3,7.4c0,2.7,0.4,5.2,1.2,7.5c0.8,2.3,2.1,4.1,3.8,5.6c1.7,1.4,3.9,2.1,6.4,2.1h0.8c2.1,0,3.9-0.4,5.5-1.3
		c1.6-0.9,2.9-2,3.8-3.5c0.9-1.4,1.5-3.1,1.8-4.9h7.3C629.5,193.7,628.5,196.4,626.7,198.8z"/>
	<path d="M633.8,185.5c0-4.2,0.8-7.8,2.4-11c1.6-3.2,3.8-5.6,6.6-7.4c2.8-1.7,6.1-2.6,9.8-2.6c3.8,0,7.1,0.8,9.8,2.4
		c2.8,1.6,4.9,4,6.4,7.1c1.5,3.1,2.2,6.9,2.2,11.2v1.8l-30.1,0.2c0.1,2.6,0.7,4.9,1.7,6.9c1,2,2.4,3.5,4.2,4.6s3.8,1.7,6,1.7h0.5
		c2.8,0,5.3-0.8,7.4-2.5c2.1-1.7,3.4-3.8,4-6.5h7.3c-0.5,2.9-1.6,5.4-3.3,7.7s-3.9,4-6.6,5.3c-2.7,1.3-5.8,1.9-9.2,1.9
		c-4,0-7.4-0.9-10.3-2.6c-2.9-1.7-5-4.2-6.5-7.3C634.6,193.4,633.8,189.7,633.8,185.5z M663.7,181.3c-0.2-2-0.8-3.9-1.6-5.5
		c-0.9-1.7-2.1-3-3.6-3.9s-3.4-1.4-5.6-1.4h-0.7c-3,0-5.5,1.1-7.5,3.2c-2,2.1-3.1,4.7-3.4,7.7H663.7z"/>
	<path d="M701.3,173.2c-2.8-0.3-4.9-0.5-6.3-0.5c-3.3,0.1-5.8,1-7.6,2.8c-1.8,1.8-2.6,4.6-2.6,8.3v21.7h-7v-40h7v2
		c0,0.9,0,1.7-0.1,2.3c-0.1,0.6-0.2,1.3-0.4,2l-0.2,0.8l1,0.2c0.7-2,1.8-3.6,3.3-4.6c1.5-1.1,3.2-1.8,5.1-2.2c1.9-0.4,4-0.6,6.4-0.6
		h2.2l-0.1,7.8h-0.2C701.5,173.2,701.4,173.2,701.3,173.2z"/>
	<path d="M736.3,177.7v18.6c0,1.3,0.1,2.2,0.4,2.6c0.2,0.4,0.9,0.6,2,0.6c0.6,0,1.1-0.1,1.7-0.2v6c-1.7,0.2-3.1,0.3-4.4,0.3
		c-2.2,0-3.8-0.5-4.7-1.5c-0.9-1-1.4-2.6-1.4-4.7v-0.6l-0.8-0.2c-1.1,2.6-2.9,4.5-5.6,5.8c-2.6,1.3-5.3,2-8.1,2
		c-3,0-5.7-0.7-8.1-2.2c-1.5-1.1-2.8-2.4-3.6-4c-0.9-1.6-1.3-3.5-1.3-5.5c0-4.1,1.6-7.1,4.7-9.3c2-1.3,5-2.3,9-3l4.3-0.6
		c2.1-0.3,3.7-0.7,5-1.1c1.2-0.4,2.2-1,2.8-1.7c0.7-0.7,1-1.7,1-2.9c0-1.8-0.8-3.1-2.3-4.2c-1.5-1-3.7-1.5-6.4-1.5
		c-1.8,0-3.3,0.3-4.7,1c-1.4,0.6-2.5,1.6-3.3,2.8c-0.8,1.2-1.3,2.7-1.5,4.4h-7.2c0.1-2.8,0.8-5.3,2.2-7.4c1.4-2.1,3.3-3.7,5.7-4.9
		c2.5-1.2,5.3-1.8,8.6-1.8c5.2,0,9.2,1,11.9,3.1C734.9,169.7,736.3,173.1,736.3,177.7z M721.2,187.2l-3.7,0.8
		c-1.4,0.3-2.6,0.6-3.4,0.9c-0.9,0.3-1.6,0.6-2.2,1c-1.4,1-2.2,2.6-2.2,4.7c0,1.7,0.6,3,1.8,4.1c1.4,1.1,3.2,1.7,5.4,1.7
		c1.9,0,3.7-0.4,5.6-1.2c1.9-0.8,3.5-2.1,4.8-4c1.3-1.9,1.9-4.3,1.9-7.4v-5.4c-0.7,1.4-1.8,2.4-3,3.1
		C725,186.3,723.3,186.8,721.2,187.2z"/>
	<path d="M796.4,165.7c2,0.8,3.7,2.1,5.2,4.1c1.4,2,2.2,4.6,2.2,7.9v27.8h-7v-26.2c0-3.2-0.8-5.4-2.4-6.7c-1.6-1.3-3.7-1.9-6.2-1.9
		h-0.6c-2.4,0-4.5,0.8-6.2,2.5c-1.7,1.7-2.6,4.3-2.6,7.7l0.1,24.6h-7v-26.2c0-3.2-0.8-5.4-2.4-6.7c-1.6-1.3-3.7-1.9-6.2-1.9h-0.6
		c-2.4,0-4.5,0.8-6.2,2.5c-1.7,1.7-2.6,4.3-2.6,7.7v24.6h-7v-40h7.1v0.7c0,1-0.1,1.8-0.2,2.4c-0.1,0.6-0.3,1.3-0.7,2.2l1,0.2
		c0.8-2.1,2.3-3.7,4.5-4.8c2.2-1.1,4.7-1.7,7.4-1.7c2.8,0,5.3,0.6,7.4,1.8c2.1,1.2,3.5,3.1,4,5.6h0.9c0.9-2.4,2.4-4.2,4.5-5.5
		c2.2-1.3,4.8-1.9,7.9-1.9C792.5,164.5,794.4,164.9,796.4,165.7z"/>
	<path d="M812.2,157.9c-0.9-0.9-1.4-2-1.4-3.4c0-1.3,0.5-2.4,1.4-3.3c0.9-0.9,2-1.4,3.4-1.4c1.3,0,2.4,0.5,3.2,1.4
		c0.9,0.9,1.3,2,1.3,3.3c0,1.3-0.4,2.5-1.3,3.4c-0.9,0.9-2,1.4-3.2,1.4C814.3,159.2,813.1,158.8,812.2,157.9z M819.1,165.5v40h-7
		v-40H819.1z"/>
	<path d="M860.8,198.8c-1.8,2.4-4,4.3-6.8,5.6c-2.7,1.4-5.7,2-9,2c-3.9,0-7.3-0.9-10.2-2.7c-2.9-1.8-5.1-4.3-6.7-7.4
		c-1.6-3.2-2.4-6.8-2.4-11s0.8-7.8,2.4-10.9s3.8-5.5,6.7-7.3c2.9-1.7,6.3-2.6,10.2-2.6c3.1,0,6,0.5,8.6,1.6c2.6,1.1,4.8,2.7,6.6,4.9
		c1.8,2.2,3,5,3.6,8.4h-7.4c-0.5-2.6-1.8-4.8-3.8-6.5c-2-1.7-4.4-2.6-7.2-2.6h-0.8c-2.5,0-4.6,0.7-6.4,2c-1.7,1.4-3,3.2-3.9,5.4
		c-0.9,2.3-1.3,4.7-1.3,7.4c0,2.7,0.4,5.2,1.2,7.5c0.8,2.3,2.1,4.1,3.8,5.6c1.7,1.4,3.9,2.1,6.4,2.1h0.8c2.1,0,3.9-0.4,5.5-1.3
		c1.6-0.9,2.9-2,3.8-3.5c0.9-1.4,1.5-3.1,1.8-4.9h7.3C863.6,193.7,862.5,196.4,860.8,198.8z"/>
	<path d="M876.5,196.3c0.9,1.3,2,2.4,3.5,3.1c1.5,0.7,3.1,1.1,5,1.1c1.7,0,3.1-0.2,4.5-0.7c1.3-0.5,2.4-1.1,3.2-2
		c0.8-0.9,1.2-1.9,1.2-3.2c0-1.6-0.6-2.9-1.7-3.8c-1.1-0.9-2.9-1.7-5.3-2.2l-7.8-1.8c-3.3-0.8-5.7-2.1-7.2-3.9
		c-1.5-1.8-2.3-4.1-2.3-6.9c0-2.3,0.7-4.4,2-6.2c1.3-1.8,3.1-3.1,5.4-4c2.3-0.9,4.9-1.4,7.9-1.4c3,0,5.8,0.6,8.2,1.8
		c2.4,1.2,4.3,2.8,5.8,4.9c1.4,2.1,2.1,4.6,2.2,7.4h-7.4c-0.1-1.9-0.6-3.4-1.5-4.6c-0.9-1.2-2-2.1-3.3-2.7c-1.3-0.6-2.7-0.8-4.2-0.8
		c-2.3,0-4.2,0.5-5.6,1.4c-1.4,1-2.1,2.3-2.1,3.9c0,1.2,0.4,2.3,1.2,3.2c0.8,0.9,2.1,1.6,3.9,2l8.2,1.9c3.5,0.8,6.2,2.1,8.1,4
		c1.9,1.8,2.9,4.3,2.9,7.2c0,2.6-0.6,4.8-1.9,6.6c-1.3,1.8-3.1,3.3-5.6,4.2c-2.4,1-5.3,1.5-8.6,1.5c-3.8,0-7-0.7-9.6-2.1
		c-2.6-1.4-4.5-3.3-5.8-5.5c-1.3-2.3-1.9-4.7-2-7.2h7.4C875.2,193.4,875.7,194.9,876.5,196.3z"/>
</g>
<g>
	<g>
		<path d="M3.3,229.9c-0.9-0.9-1.4-2-1.4-3.4c0-1.3,0.5-2.4,1.4-3.3c0.9-0.9,2-1.4,3.4-1.4c1.3,0,2.4,0.5,3.2,1.4
			c0.9,0.9,1.3,2,1.3,3.3c0,1.3-0.4,2.5-1.3,3.4c-0.9,0.9-2,1.4-3.2,1.4C5.3,231.2,4.2,230.8,3.3,229.9z M10.2,237.5v40h-7v-40H10.2
			z"/>
		<path d="M26.5,237.5v1c0,1-0.1,1.8-0.2,2.4c-0.1,0.6-0.4,1.4-0.8,2.4l1,0.2c0.7-2,2.2-3.7,4.6-5c2.3-1.3,5.1-2,8.4-2
			c2.5,0,4.8,0.4,6.9,1.2c2.1,0.8,3.8,2.2,5.2,4.2c1.4,2,2,4.7,2,8.2v27.4h-7v-26.4c0-2.9-0.8-5.1-2.5-6.4c-1.7-1.4-4-2-6.9-2h-0.2
			c-1.9,0-3.7,0.4-5.3,1.2c-1.6,0.8-2.9,1.9-3.9,3.3c-1,1.4-1.4,3.2-1.4,5.2v25.2h-7v-40H26.5z"/>
		<path d="M102.4,224.3c3.5,0,6.5,0.5,9.1,1.6c2.6,1.1,4.6,2.6,6,4.6c1.4,2,2.1,4.4,2.1,7.1c0,2.3-0.5,4.3-1.6,6
			c-1.1,1.7-2.4,3.1-4.1,4.1c-1.7,1-3.4,1.6-5.2,1.7v1c2.2,0.1,4.3,0.7,6.4,1.6c2.1,1,3.7,2.4,5,4.3c1.3,1.9,2,4.2,2,6.8
			c0,2.7-0.7,5.1-2,7.2c-1.4,2.1-3.4,3.8-6.1,5.1c-2.7,1.3-6.1,1.9-10.1,1.9H81.4v-53.2H102.4z M109.5,245.1
			c1.8-1.5,2.7-3.6,2.7-6.3s-0.9-4.7-2.7-6.2c-1.8-1.5-4.1-2.2-6.9-2.2H88.5v17h14.1C105.4,247.4,107.7,246.6,109.5,245.1z
			 M111.8,269c1.9-1.6,2.8-3.8,2.8-6.6c0-2.8-0.9-5.1-2.8-6.7c-1.8-1.6-4.4-2.4-7.7-2.4H88.5v18.1h15.7
			C107.4,271.4,110,270.6,111.8,269z"/>
		<path d="M150.6,245.2c-2.8-0.3-4.9-0.5-6.3-0.5c-3.3,0.1-5.8,1-7.6,2.8c-1.8,1.8-2.6,4.6-2.6,8.3v21.7h-7v-40h7v2
			c0,0.9,0,1.7-0.1,2.3c-0.1,0.6-0.2,1.3-0.4,2l-0.2,0.8l1,0.2c0.7-2,1.8-3.6,3.3-4.6c1.5-1.1,3.2-1.8,5.1-2.2
			c1.9-0.4,4-0.6,6.4-0.6h2.2l-0.1,7.8H151C150.9,245.2,150.7,245.2,150.6,245.2z"/>
		<path d="M180.6,277.5v-1c0-1,0.1-1.8,0.2-2.4c0.1-0.7,0.4-1.5,0.8-2.4l-1-0.2c-0.7,2.1-2.1,3.8-4.2,5c-2.1,1.3-4.8,1.9-8.1,1.9
			c-2.5,0-4.8-0.4-6.8-1.2c-2.1-0.8-3.7-2.2-5.1-4.2c-1.3-2-2-4.7-2-8.2v-27.4h7v26.4c0,3,0.7,5.1,2.2,6.5c1.4,1.3,3.6,2,6.5,2h0.2
			c1.9,0,3.7-0.4,5.3-1.2c1.6-0.8,2.9-1.9,3.9-3.3c1-1.4,1.4-3.2,1.4-5.2v-25.2h7v40H180.6z"/>
		<path d="M202.7,268.3c0.9,1.3,2,2.4,3.5,3.1c1.5,0.7,3.1,1.1,5,1.1c1.7,0,3.1-0.2,4.5-0.7c1.3-0.5,2.4-1.1,3.2-2
			c0.8-0.9,1.2-1.9,1.2-3.2c0-1.6-0.6-2.9-1.7-3.8c-1.1-0.9-2.9-1.7-5.3-2.2l-7.8-1.8c-3.3-0.8-5.7-2.1-7.2-3.9
			c-1.5-1.8-2.3-4.1-2.3-6.9c0-2.3,0.7-4.4,2-6.2c1.3-1.8,3.1-3.1,5.4-4c2.3-0.9,4.9-1.4,7.9-1.4c3,0,5.8,0.6,8.2,1.8
			c2.4,1.2,4.3,2.8,5.8,4.9c1.4,2.1,2.1,4.6,2.2,7.4h-7.4c-0.1-1.9-0.6-3.4-1.5-4.6c-0.9-1.2-2-2.1-3.3-2.7
			c-1.3-0.6-2.7-0.8-4.2-0.8c-2.3,0-4.2,0.5-5.6,1.4c-1.4,1-2.1,2.3-2.1,3.9c0,1.2,0.4,2.3,1.2,3.2c0.8,0.9,2.1,1.6,3.9,2l8.2,1.9
			c3.5,0.8,6.2,2.1,8.1,4c1.9,1.8,2.9,4.3,2.9,7.2c0,2.6-0.6,4.8-1.9,6.6s-3.1,3.3-5.6,4.2c-2.4,1-5.3,1.5-8.6,1.5
			c-3.8,0-7-0.7-9.6-2.1c-2.6-1.4-4.5-3.3-5.8-5.5c-1.3-2.3-1.9-4.7-2-7.2h7.4C201.4,265.4,201.9,266.9,202.7,268.3z"/>
		<path d="M239.7,268.3c0.9,1.3,2,2.4,3.5,3.1c1.5,0.7,3.1,1.1,5,1.1c1.7,0,3.1-0.2,4.5-0.7c1.3-0.5,2.4-1.1,3.2-2s1.2-1.9,1.2-3.2
			c0-1.6-0.6-2.9-1.7-3.8c-1.1-0.9-2.9-1.7-5.3-2.2l-7.8-1.8c-3.3-0.8-5.7-2.1-7.2-3.9c-1.5-1.8-2.3-4.1-2.3-6.9
			c0-2.3,0.7-4.4,2-6.2c1.3-1.8,3.1-3.1,5.4-4c2.3-0.9,4.9-1.4,7.9-1.4c3,0,5.8,0.6,8.2,1.8c2.4,1.2,4.3,2.8,5.8,4.9
			c1.4,2.1,2.1,4.6,2.2,7.4h-7.4c-0.1-1.9-0.6-3.4-1.5-4.6c-0.9-1.2-2-2.1-3.3-2.7c-1.3-0.6-2.7-0.8-4.2-0.8c-2.3,0-4.2,0.5-5.6,1.4
			c-1.4,1-2.1,2.3-2.1,3.9c0,1.2,0.4,2.3,1.2,3.2c0.8,0.9,2.1,1.6,3.9,2l8.2,1.9c3.5,0.8,6.2,2.1,8.1,4c1.9,1.8,2.9,4.3,2.9,7.2
			c0,2.6-0.6,4.8-1.9,6.6c-1.3,1.8-3.1,3.3-5.6,4.2c-2.4,1-5.3,1.5-8.6,1.5c-3.8,0-7-0.7-9.6-2.1c-2.6-1.4-4.5-3.3-5.8-5.5
			c-1.3-2.3-1.9-4.7-2-7.2h7.4C238.3,265.4,238.8,266.9,239.7,268.3z"/>
		<path d="M268,257.5c0-4.2,0.8-7.8,2.4-11c1.6-3.2,3.8-5.6,6.6-7.4c2.8-1.7,6.1-2.6,9.8-2.6c3.8,0,7.1,0.8,9.8,2.4
			c2.8,1.6,4.9,4,6.4,7.1c1.5,3.1,2.2,6.9,2.2,11.2v1.8l-30.1,0.2c0.1,2.6,0.7,4.9,1.7,6.9c1,2,2.4,3.5,4.2,4.6s3.8,1.7,6,1.7h0.5
			c2.8,0,5.3-0.8,7.4-2.5c2.1-1.7,3.4-3.8,4-6.5h7.3c-0.5,2.9-1.6,5.4-3.3,7.7s-3.9,4-6.6,5.3c-2.7,1.3-5.8,1.9-9.2,1.9
			c-4,0-7.4-0.9-10.3-2.6c-2.9-1.7-5-4.2-6.5-7.3C268.7,265.4,268,261.7,268,257.5z M297.8,253.3c-0.2-2-0.8-3.9-1.6-5.5
			c-0.9-1.7-2.1-3-3.6-3.9s-3.4-1.4-5.6-1.4h-0.7c-3,0-5.5,1.1-7.5,3.2c-2,2.1-3.1,4.7-3.4,7.7H297.8z"/>
		<path d="M319.4,221.9v55.6h-7v-55.6H319.4z"/>
		<path d="M334.7,268.3c0.9,1.3,2,2.4,3.5,3.1c1.5,0.7,3.1,1.1,5,1.1c1.7,0,3.1-0.2,4.5-0.7c1.3-0.5,2.4-1.1,3.2-2
			c0.8-0.9,1.2-1.9,1.2-3.2c0-1.6-0.6-2.9-1.7-3.8c-1.1-0.9-2.9-1.7-5.3-2.2l-7.8-1.8c-3.3-0.8-5.7-2.1-7.2-3.9
			c-1.5-1.8-2.3-4.1-2.3-6.9c0-2.3,0.7-4.4,2-6.2c1.3-1.8,3.1-3.1,5.4-4c2.3-0.9,4.9-1.4,7.9-1.4c3,0,5.8,0.6,8.2,1.8
			c2.4,1.2,4.3,2.8,5.8,4.9c1.4,2.1,2.1,4.6,2.2,7.4h-7.4c-0.1-1.9-0.6-3.4-1.5-4.6c-0.9-1.2-2-2.1-3.3-2.7
			c-1.3-0.6-2.7-0.8-4.2-0.8c-2.3,0-4.2,0.5-5.6,1.4c-1.4,1-2.1,2.3-2.1,3.9c0,1.2,0.4,2.3,1.2,3.2c0.8,0.9,2.1,1.6,3.9,2l8.2,1.9
			c3.5,0.8,6.2,2.1,8.1,4c1.9,1.8,2.9,4.3,2.9,7.2c0,2.6-0.6,4.8-1.9,6.6c-1.3,1.8-3.1,3.3-5.6,4.2c-2.4,1-5.3,1.5-8.6,1.5
			c-3.8,0-7-0.7-9.6-2.1c-2.6-1.4-4.5-3.3-5.8-5.5c-1.3-2.3-1.9-4.7-2-7.2h7.4C333.4,265.4,333.9,266.9,334.7,268.3z"/>
	</g>
</g>
</svg>
