<?xml version="1.0" encoding="utf-8"?>
<!-- Generator: Adobe Illustrator 26.5.3, SVG Export Plug-In . SVG Version: 6.00 Build 0)  -->
<svg version="1.1" id="Layer_1" xmlns="http://www.w3.org/2000/svg" xmlns:xlink="http://www.w3.org/1999/xlink" x="0px" y="0px"
	 viewBox="0 0 821 282" style="enable-background:new 0 0 821 282;" xml:space="preserve">
<style type="text/css">
	.st0{clip-path:url(#SVGID_00000142888939576897402960000016807510634812703124_);}
	.st1{clip-path:url(#SVGID_00000158004892989210663380000006264663232532446358_);}
	.st2{clip-path:url(#SVGID_00000048499340351666747470000017190061775313071252_);}
	.st3{clip-path:url(#SVGID_00000087376002133151945740000012804114805047839399_);}
</style>
<g>
	<g>
		<g>
			<defs>
				<rect id="SVGID_1_" x="-0.9" y="1.8" width="804.5" height="273.4"/>
			</defs>
			<clipPath id="SVGID_00000046328106994556331860000007970786888665386672_">
				<use xlink:href="#SVGID_1_"  style="overflow:visible;"/>
			</clipPath>
			<path style="clip-path:url(#SVGID_00000046328106994556331860000007970786888665386672_);" d="M328.6,260.3h-7.4
				c0.1,2.6,0.7,5,2,7.2c1.3,2.3,3.2,4.1,5.8,5.5c2.6,1.4,5.8,2.1,9.6,2.1c3.3,0,6.2-0.5,8.6-1.5s4.3-2.4,5.6-4.2s1.9-4,1.9-6.6
				c0-3-1-5.4-2.9-7.2s-4.7-3.2-8.1-4l-8.2-1.9c-1.8-0.4-3.1-1.1-3.9-2s-1.2-2-1.2-3.2c0-1.7,0.7-3,2.1-3.9c1.4-1,3.3-1.4,5.6-1.4
				c1.5,0,2.9,0.3,4.2,0.8c1.3,0.6,2.4,1.5,3.3,2.7s1.4,2.8,1.5,4.6h7.4c-0.1-2.8-0.8-5.3-2.2-7.4c-1.4-2.1-3.3-3.7-5.8-4.9
				c-2.4-1.2-5.2-1.8-8.2-1.8c-2.9,0-5.6,0.5-7.9,1.4s-4.1,2.2-5.4,4s-2,3.8-2,6.2c0,2.8,0.8,5.1,2.3,6.9c1.5,1.8,3.9,3.1,7.2,3.9
				l7.8,1.8c2.4,0.6,4.2,1.3,5.3,2.2c1.1,0.9,1.7,2.2,1.7,3.8c0,1.2-0.4,2.3-1.2,3.2c-0.8,0.9-1.8,1.5-3.2,2
				c-1.3,0.5-2.8,0.7-4.5,0.7c-1.9,0-3.5-0.4-5-1.1s-2.6-1.8-3.5-3.1C329.2,263.7,328.7,262.2,328.6,260.3 M308.2,274.3h7v-55.6h-7
				V274.3z M271.5,250.1c0.3-3,1.5-5.6,3.4-7.7c2-2.1,4.5-3.2,7.5-3.2h0.7c2.2,0,4.1,0.5,5.6,1.4c1.5,1,2.8,2.3,3.6,3.9
				c0.9,1.7,1.4,3.5,1.6,5.5h-22.4L271.5,250.1L271.5,250.1z M266.5,265.3c1.5,3.1,3.6,5.6,6.5,7.3c2.9,1.7,6.3,2.6,10.3,2.6
				c3.4,0,6.5-0.6,9.2-1.9s4.9-3,6.6-5.3c1.7-2.2,2.8-4.8,3.3-7.7h-7.3c-0.5,2.7-1.9,4.8-4,6.5s-4.6,2.5-7.4,2.5h-0.5
				c-2.2,0-4.2-0.6-6-1.7s-3.1-2.7-4.2-4.6c-1-2-1.6-4.3-1.7-6.9l30.1-0.2v-1.8c0-4.4-0.7-8.1-2.2-11.2c-1.5-3.1-3.6-5.5-6.4-7.1
				s-6.1-2.4-9.8-2.4c-3.7,0-7,0.9-9.8,2.6c-2.8,1.7-5,4.2-6.6,7.4s-2.4,6.8-2.4,11C264.3,258.5,265,262.2,266.5,265.3 M235,260.3
				h-7.4c0.1,2.6,0.7,5,2,7.2c1.3,2.3,3.2,4.1,5.8,5.5s5.8,2.1,9.6,2.1c3.3,0,6.2-0.5,8.6-1.5s4.3-2.4,5.6-4.2s1.9-4,1.9-6.6
				c0-3-1-5.4-2.9-7.2s-4.7-3.2-8.1-4l-8.2-1.9c-1.8-0.4-3.1-1.1-3.9-2c-0.8-0.9-1.2-2-1.2-3.2c0-1.7,0.7-3,2.1-3.9
				c1.4-1,3.3-1.4,5.6-1.4c1.5,0,2.9,0.3,4.2,0.8c1.3,0.6,2.4,1.5,3.3,2.7c0.9,1.2,1.4,2.8,1.5,4.6h7.4c-0.1-2.8-0.8-5.3-2.2-7.4
				c-1.4-2.1-3.3-3.7-5.8-4.9c-2.4-1.2-5.2-1.8-8.2-1.8c-2.9,0-5.6,0.5-7.9,1.4c-2.3,0.9-4.1,2.2-5.4,4c-1.3,1.8-2,3.8-2,6.2
				c0,2.8,0.8,5.1,2.3,6.9c1.5,1.8,3.9,3.1,7.2,3.9l7.8,1.8c2.4,0.6,4.2,1.3,5.3,2.2c1.1,0.9,1.7,2.2,1.7,3.8c0,1.2-0.4,2.3-1.2,3.2
				c-0.8,0.9-1.8,1.5-3.2,2c-1.3,0.5-2.8,0.7-4.5,0.7c-1.9,0-3.5-0.4-5-1.1s-2.6-1.8-3.5-3.1C235.6,263.7,235.1,262.2,235,260.3
				 M198.5,260.3h-7.4c0.1,2.6,0.7,5,2,7.2c1.3,2.3,3.2,4.1,5.8,5.5s5.8,2.1,9.6,2.1c3.3,0,6.2-0.5,8.6-1.5c2.4-1,4.3-2.4,5.6-4.2
				s1.9-4,1.9-6.6c0-3-1-5.4-2.9-7.2s-4.7-3.2-8.1-4l-8.2-1.9c-1.8-0.4-3.1-1.1-3.9-2c-0.8-0.9-1.2-2-1.2-3.2c0-1.7,0.7-3,2.1-3.9
				c1.4-1,3.3-1.4,5.6-1.4c1.5,0,2.9,0.3,4.2,0.8c1.3,0.6,2.4,1.5,3.3,2.7c0.9,1.2,1.4,2.8,1.5,4.6h7.4c-0.1-2.8-0.8-5.3-2.2-7.4
				c-1.4-2.1-3.3-3.7-5.8-4.9c-2.4-1.2-5.2-1.8-8.2-1.8c-2.9,0-5.6,0.5-7.9,1.4c-2.3,0.9-4.1,2.2-5.4,4c-1.3,1.8-2,3.8-2,6.2
				c0,2.8,0.8,5.1,2.3,6.9c1.5,1.8,3.9,3.1,7.2,3.9l7.8,1.8c2.4,0.6,4.2,1.3,5.3,2.2c1.1,0.9,1.7,2.2,1.7,3.8c0,1.2-0.4,2.3-1.2,3.2
				c-0.8,0.9-1.8,1.5-3.2,2c-1.3,0.5-2.8,0.7-4.5,0.7c-1.9,0-3.5-0.4-5-1.1s-2.6-1.8-3.5-3.1C199.1,263.7,198.6,262.2,198.5,260.3
				 M185.5,274.3v-40h-7v25.2c0,3-1,5.3-3,7.1c-2,1.7-4.5,2.6-7.5,2.6h-0.2c-2.9,0-5.1-0.7-6.5-2c-1.5-1.3-2.2-3.5-2.2-6.5v-26.4h-7
				v27.4c0,3.5,0.7,6.2,2,8.2s3.1,3.4,5.2,4.2s4.4,1.2,6.9,1.2c3.3,0,6.1-0.9,8.6-2.8s4.3-4.4,5.6-7.7l0.5-1.3l1,0.3
				c-0.2,0.9-0.5,1.8-0.9,2.7c-0.4,0.9-0.7,1.7-1,2.4c-0.5,1.1-0.9,2-1.2,2.7c-0.2,0.7-0.4,1.4-0.4,2.1v0.6L185.5,274.3L185.5,274.3
				z M145.7,241.7c1.3,0.1,2.5,0.3,3.7,0.4l0.1-7.8h-1.4c-2.5,0-4.6,0.2-6.4,0.5c-1.8,0.3-3.7,1.1-5.4,2.4c-1.8,1.2-3.4,3.1-4.8,5.6
				c-0.2,0.4-0.4,0.7-0.6,1.1c-0.2,0.4-0.4,0.8-0.5,1.2l-1-0.3l0.6-1.4c0.8-2.1,1.4-3.7,1.8-5c0.4-1.3,0.6-2.5,0.6-3.9v-0.2h-7v40h7
				v-22.5c0-3.6,1-6.2,2.9-7.8s4.4-2.5,7.5-2.5C143.4,241.5,144.4,241.5,145.7,241.7 M101.2,244.2H87.1v-17h14.1
				c2.8,0,5.1,0.7,6.9,2.2s2.7,3.6,2.7,6.2c0,2.7-0.9,4.8-2.7,6.3C106.4,243.4,104,244.2,101.2,244.2 M102.8,268.2H87.1v-18.1h15.7
				c3.3,0,5.9,0.8,7.7,2.4c1.8,1.6,2.8,3.9,2.8,6.7c0,1.9-0.4,3.5-1.3,4.8s-2.1,2.4-3.6,3.1C106.8,267.8,105,268.2,102.8,268.2
				 M80.1,221.1v53.2h22.3c4,0,7.4-0.6,10.1-1.9s4.8-3,6.1-5.1c1.4-2.1,2-4.5,2-7.2c0-4-1.4-7.1-4.2-9.2c-2.8-2.1-6.5-3.3-11-3.4v-1
				c2.3-0.2,4.4-0.7,6.4-1.7c1.9-1,3.5-2.4,4.6-4.2s1.7-3.8,1.7-6.1c0-2.7-0.7-5.1-2.1-7.1s-3.4-3.5-6-4.6s-5.6-1.6-9.1-1.6
				L80.1,221.1L80.1,221.1z M18.7,234.3v40h7v-25.2c0-2,0.5-3.8,1.4-5.2s2.3-2.5,3.9-3.3c1.6-0.8,3.4-1.2,5.3-1.2h0.2
				c2.9,0,5.2,0.7,6.9,2s2.5,3.5,2.5,6.4v26.4h7v-27.4c0-3.5-0.7-6.2-2-8.2s-3.1-3.4-5.2-4.2c-2.1-0.8-4.4-1.2-6.9-1.2
				c-3.3,0-6.3,0.9-9.1,2.8c-2.7,1.9-4.7,4.4-5.9,7.6l-0.5,1.3l-1-0.3c0.2-0.9,0.5-1.8,0.9-2.7s0.7-1.7,1-2.4c0.5-1.1,0.9-2,1.2-2.7
				c0.2-0.7,0.4-1.4,0.4-2.1v-0.6h-7.1C18.7,234.1,18.7,234.3,18.7,234.3z M3.1,274.3h7v-40h-7C3.1,234.3,3.1,274.3,3.1,274.3z
				 M6.6,228c1.3,0,2.4-0.5,3.2-1.4c0.9-0.9,1.3-2,1.3-3.4c0-1.3-0.4-2.4-1.3-3.3c-0.9-0.9-2-1.4-3.2-1.4c-1.3,0-2.5,0.5-3.4,1.4
				s-1.4,2-1.4,3.3s0.5,2.5,1.4,3.4C4.1,227.6,5.2,228,6.6,228"/>
		</g>
	</g>
	<g>
		<g>
			<defs>
				<rect id="SVGID_00000011026118689357065850000003863617163760885126_" x="-0.9" y="1.8" width="804.5" height="273.4"/>
			</defs>
			<clipPath id="SVGID_00000052076396506193219520000017741780924032096937_">
				<use xlink:href="#SVGID_00000011026118689357065850000003863617163760885126_"  style="overflow:visible;"/>
			</clipPath>
			<path style="clip-path:url(#SVGID_00000052076396506193219520000017741780924032096937_);" d="M777.6,188.3h-7.4
				c0.1,2.6,0.7,5,2,7.2c1.3,2.3,3.2,4.1,5.8,5.5s5.8,2.1,9.6,2.1c3.3,0,6.2-0.5,8.6-1.5c2.4-1,4.3-2.4,5.6-4.2s1.9-4,1.9-6.6
				c0-3-1-5.4-2.9-7.2s-4.7-3.2-8.1-4l-8.2-1.9c-1.8-0.4-3.1-1.1-3.9-2c-0.8-0.9-1.2-2-1.2-3.2c0-1.7,0.7-3,2.1-3.9
				c1.4-1,3.3-1.4,5.6-1.4c1.5,0,2.9,0.3,4.2,0.8c1.3,0.6,2.4,1.5,3.3,2.7c0.9,1.2,1.4,2.8,1.5,4.6h7.4c-0.1-2.8-0.8-5.3-2.2-7.4
				c-1.4-2.1-3.3-3.7-5.8-4.9c-2.4-1.2-5.2-1.8-8.2-1.8c-2.9,0-5.6,0.5-7.9,1.4c-2.3,0.9-4.1,2.2-5.4,4c-1.3,1.8-2,3.8-2,6.2
				c0,2.8,0.8,5.1,2.3,6.9c1.5,1.8,3.9,3.1,7.2,3.9l7.8,1.8c2.4,0.6,4.2,1.3,5.3,2.2s1.7,2.2,1.7,3.8c0,1.2-0.4,2.3-1.2,3.2
				s-1.8,1.5-3.2,2c-1.3,0.5-2.8,0.7-4.5,0.7c-1.9,0-3.5-0.4-5-1.1c-1.5-0.7-2.6-1.8-3.5-3.1C778.2,191.7,777.7,190.2,777.6,188.3
				 M766.7,187.6h-7.3c-0.3,1.8-0.9,3.4-1.8,4.9c-0.9,1.4-2.2,2.6-3.8,3.5s-3.4,1.3-5.5,1.3h-0.8c-2.6,0-4.7-0.7-6.4-2.1
				c-1.7-1.4-3-3.3-3.8-5.6s-1.2-4.8-1.2-7.5s0.4-5.1,1.3-7.4c0.9-2.3,2.1-4.1,3.9-5.4c1.7-1.4,3.9-2,6.4-2h0.8
				c2.8,0,5.2,0.9,7.2,2.6c2,1.7,3.3,3.9,3.8,6.5h7.4c-0.6-3.4-1.9-6.2-3.6-8.4c-1.8-2.2-4-3.9-6.6-4.9c-2.6-1.1-5.5-1.6-8.6-1.6
				c-3.9,0-7.3,0.9-10.2,2.6c-2.9,1.7-5.1,4.2-6.7,7.3c-1.6,3.1-2.4,6.8-2.4,10.9c0,4.2,0.8,7.8,2.4,11c1.6,3.2,3.8,5.7,6.7,7.4
				c2.9,1.8,6.3,2.7,10.2,2.7c3.3,0,6.3-0.7,9-2s5-3.2,6.8-5.6C765.5,193.1,766.5,190.5,766.7,187.6 M715.5,202.3h7v-40h-7V202.3z
				 M719,156c1.3,0,2.4-0.5,3.2-1.4c0.9-0.9,1.3-2,1.3-3.4c0-1.3-0.4-2.4-1.3-3.3c-0.9-0.9-2-1.4-3.2-1.4c-1.3,0-2.5,0.5-3.4,1.4
				s-1.4,2-1.4,3.3s0.5,2.5,1.4,3.4C716.5,155.6,717.6,156,719,156 M705.4,166.6c-1.5-2-3.3-3.3-5.4-4.1c-2.1-0.8-4.1-1.2-6.1-1.2
				c-3.4,0-6.3,0.9-8.8,2.7s-4.3,4.7-5.3,8.6l-1-0.2c0.1-0.1,0.1-0.1,0.1-0.2V172c0.2-0.5,0.3-1.1,0.4-1.6c0.1-0.6,0.1-1.1,0.1-1.6
				c0-1.5-0.5-2.8-1.4-4c-1-1.1-2.2-2-3.8-2.6s-3.4-0.9-5.3-0.9c-3,0-5.7,0.8-7.8,2.3c-2.2,1.5-4,4.5-5.5,9l-0.2,0.5l-1-0.3l0.2-0.6
				c0.2-0.7,0.4-1.5,0.7-2.3s0.6-1.5,1-2.3c0.5-1.3,0.9-2.3,1.2-3s0.4-1.4,0.4-2.1v-0.2h-7.3v40h7v-24.6c0-3.5,0.8-6,2.5-7.7
				s3.7-2.5,6.1-2.5h0.6c2.6,0,4.7,0.6,6.4,1.9c1.7,1.3,2.5,3.5,2.5,6.7v26.2h7l-0.1-24.6c0-3.5,0.9-6,2.6-7.7
				c1.7-1.7,3.8-2.5,6.2-2.5h0.6c2.5,0,4.6,0.6,6.2,1.9c1.6,1.3,2.4,3.5,2.4,6.7v26.2h7v-27.8C707.6,171.2,706.9,168.6,705.4,166.6
				 M630.5,182.4c1.4-0.8,2.5-1.9,3.2-3.2v5.6c0,3-0.6,5.5-1.9,7.4c-1.3,1.9-2.9,3.2-4.8,4c-1.9,0.8-3.8,1.2-5.6,1.2
				c-2.3,0-4.2-0.6-5.5-1.8c-1.2-1-1.8-2.3-1.8-4c0-1.9,0.6-3.3,1.8-4.4c0.6-0.6,1.5-1.1,2.4-1.4c1-0.3,2.2-0.7,3.6-0.9l3.5-0.6
				C627.4,183.7,629.1,183.2,630.5,182.4 M636.6,164.4c-2.7-2.1-6.7-3.1-11.9-3.1c-3.3,0-6.2,0.6-8.6,1.8c-2.5,1.2-4.4,2.8-5.7,4.9
				c-1.4,2.1-2.1,4.6-2.2,7.4h7.2c0.2-1.7,0.7-3.2,1.5-4.4s1.9-2.2,3.3-2.8c1.4-0.6,3-1,4.7-1c2.7,0,4.9,0.5,6.4,1.5
				s2.3,2.4,2.3,4.2c0,1.2-0.3,2.2-1,3c-0.7,0.7-1.6,1.3-2.9,1.7c-1.3,0.4-2.9,0.7-5,1l-3.8,0.5c-4,0.5-7.1,1.5-9.4,3
				c-3.1,2.1-4.6,5.3-4.6,9.4c0,1.9,0.4,3.6,1.1,5.1c0.7,1.5,1.8,2.8,3.1,3.8c2.3,1.9,5.2,2.8,8.8,2.8c3.8,0,7-0.9,9.7-2.7
				s4.5-4.4,5.4-7.8l1,0.2c-0.1,0.2-0.1,0.3-0.1,0.4c0,0.1-0.1,0.3-0.1,0.4c-0.3,0.8-0.5,1.6-0.6,2.4c-0.2,0.8-0.2,1.6-0.2,2.3
				c0,1.3,0.4,2.3,1.3,3c0.9,0.6,2.3,1,4.4,1c1.3,0,2.7-0.1,4.4-0.3v-6c-0.5,0.1-1.1,0.2-1.7,0.2c-1.1,0-1.8-0.2-2-0.6
				c-0.2-0.4-0.4-1.3-0.4-2.6v-18.6C640.7,169.9,639.3,166.5,636.6,164.4 M602.9,169.7c1.3,0.1,2.5,0.3,3.7,0.4l0.1-7.8h-1.4
				c-2.5,0-4.6,0.2-6.4,0.5c-1.8,0.3-3.7,1.1-5.4,2.4c-1.8,1.2-3.4,3.1-4.8,5.6c-0.2,0.4-0.4,0.7-0.6,1.1c-0.2,0.4-0.4,0.8-0.5,1.2
				l-1-0.3l0.6-1.4c0.8-2.1,1.4-3.7,1.8-5c0.4-1.3,0.6-2.5,0.6-3.9v-0.2h-7v40h7v-22.5c0-3.6,1-6.2,2.9-7.8s4.4-2.5,7.5-2.5
				C600.6,169.5,601.6,169.5,602.9,169.7 M546.3,178.1c0.3-3,1.5-5.6,3.4-7.7c2-2.1,4.5-3.2,7.5-3.2h0.7c2.2,0,4.1,0.5,5.6,1.4
				c1.5,1,2.8,2.3,3.6,3.9c0.9,1.7,1.4,3.5,1.6,5.5h-22.4L546.3,178.1L546.3,178.1z M541.3,193.3c1.5,3.1,3.6,5.6,6.5,7.3
				s6.3,2.6,10.3,2.6c3.4,0,6.5-0.6,9.2-1.9c2.7-1.3,4.9-3,6.6-5.3c1.7-2.2,2.8-4.8,3.3-7.7h-7.3c-0.5,2.7-1.9,4.8-4,6.5
				s-4.6,2.5-7.4,2.5H558c-2.2,0-4.2-0.6-6-1.7c-1.8-1.1-3.1-2.7-4.2-4.6c-1-2-1.6-4.3-1.7-6.9l30.1-0.2v-1.8
				c0-4.4-0.7-8.1-2.2-11.2c-1.5-3.1-3.6-5.5-6.4-7.1c-2.8-1.6-6.1-2.4-9.8-2.4s-7,0.9-9.8,2.6c-2.8,1.7-5,4.2-6.6,7.4
				s-2.4,6.8-2.4,11C539.1,186.5,539.8,190.2,541.3,193.3 M535.4,187.6h-7.3c-0.3,1.8-0.9,3.4-1.8,4.9c-0.9,1.4-2.2,2.6-3.8,3.5
				s-3.4,1.3-5.5,1.3h-0.8c-2.6,0-4.7-0.7-6.4-2.1c-1.7-1.4-3-3.3-3.8-5.6s-1.2-4.8-1.2-7.5s0.4-5.1,1.3-7.4
				c0.9-2.3,2.1-4.1,3.9-5.4c1.7-1.4,3.9-2,6.4-2h0.8c2.8,0,5.2,0.9,7.2,2.6c2,1.7,3.3,3.9,3.8,6.5h7.4c-0.6-3.4-1.9-6.2-3.6-8.4
				c-1.8-2.2-4-3.9-6.6-4.9c-2.6-1.1-5.5-1.6-8.6-1.6c-3.9,0-7.3,0.9-10.2,2.6c-2.9,1.7-5.1,4.2-6.7,7.3s-2.4,6.8-2.4,10.9
				c0,4.2,0.8,7.8,2.4,11s3.8,5.7,6.7,7.4c2.9,1.8,6.3,2.7,10.2,2.7c3.3,0,6.3-0.7,9-2c2.7-1.4,5-3.2,6.8-5.6
				C534.1,193.1,535.1,190.5,535.4,187.6 M465.9,162.3v22.3c0,2.8-1,5.1-2.9,7c-1.9,1.8-4.4,2.7-7.2,2.7h-0.2c-2.8,0-5-0.7-6.6-2.1
				c-1.5-1.4-2.3-3.5-2.3-6.4v-23.5h-7v24.3c0,3.4,0.6,6.1,1.9,8.2c1.3,2,2.9,3.5,5,4.3c2,0.9,4.2,1.3,6.6,1.3c3.3,0,6.3-1,9.1-3
				c2.7-2,4.7-4.7,5.7-7.9l1,0.3c-0.1,0.6-0.3,1.2-0.5,1.7c-0.2,0.6-0.4,1.1-0.6,1.7c-0.3,0.6-0.5,1.3-0.8,2.1
				c-0.2,0.7-0.5,1.5-0.7,2.3c-0.1,0.1-0.1,0.2-0.1,0.4c0,0.1,0,0.3,0,0.4c-0.2,0.9-0.3,2.1-0.3,3.5c0,0.4,0,0.7,0,1.1
				c0,0.4-0.1,0.7-0.1,1.1c-0.4,2.9-1.5,5.1-3.5,6.6c-1.9,1.4-4.4,2.2-7.3,2.2h-0.6c-3,0-5.3-0.7-6.9-2.1c-1.6-1.4-2.6-3.4-3-6.1
				l-0.1-0.3h-7.3c0.4,4.5,2,8.1,4.8,10.6s7,3.8,12.6,3.8c5.7,0,10.2-1.5,13.5-4.6s4.9-7.5,4.9-13.3v-38.6L465.9,162.3L465.9,162.3z
				 M432.8,169.7c1.3,0.1,2.5,0.3,3.7,0.4l0.1-7.8h-1.4c-2.5,0-4.6,0.2-6.4,0.5s-3.7,1.1-5.4,2.4c-1.8,1.2-3.4,3.1-4.8,5.6
				c-0.2,0.4-0.4,0.7-0.6,1.1c-0.2,0.4-0.4,0.8-0.5,1.2l-1-0.3l0.6-1.4c0.8-2.1,1.4-3.7,1.8-5s0.6-2.5,0.6-3.9v-0.2h-7v40h7v-22.5
				c0-3.6,1-6.2,2.9-7.8s4.4-2.5,7.5-2.5C430.5,169.5,431.5,169.5,432.8,169.7 M392.3,182.4c1.4-0.8,2.5-1.9,3.2-3.2v5.6
				c0,3-0.6,5.5-1.9,7.4s-2.9,3.2-4.8,4s-3.8,1.2-5.6,1.2c-2.3,0-4.2-0.6-5.5-1.8c-1.2-1-1.8-2.3-1.8-4c0-1.9,0.6-3.3,1.8-4.4
				c0.6-0.6,1.5-1.1,2.4-1.4c1-0.3,2.2-0.7,3.6-0.9l3.5-0.6C389.2,183.7,390.9,183.2,392.3,182.4 M398.4,164.4
				c-2.7-2.1-6.7-3.1-11.9-3.1c-3.3,0-6.2,0.6-8.6,1.8c-2.5,1.2-4.4,2.8-5.7,4.9c-1.4,2.1-2.1,4.6-2.2,7.4h7.2
				c0.2-1.7,0.7-3.2,1.5-4.4s1.9-2.2,3.3-2.8s3-1,4.7-1c2.7,0,4.9,0.5,6.4,1.5s2.3,2.4,2.3,4.2c0,1.2-0.3,2.2-1,3
				c-0.7,0.7-1.6,1.3-2.9,1.7s-2.9,0.7-5,1l-3.8,0.5c-4,0.5-7.1,1.5-9.4,3c-3.1,2.1-4.6,5.3-4.6,9.4c0,1.9,0.4,3.6,1.1,5.1
				s1.8,2.8,3.1,3.8c2.3,1.9,5.2,2.8,8.8,2.8c3.8,0,7-0.9,9.7-2.7s4.5-4.4,5.4-7.8l1,0.2c-0.1,0.2-0.1,0.3-0.1,0.4
				c0,0.1-0.1,0.3-0.1,0.4c-0.3,0.8-0.5,1.6-0.6,2.4c-0.2,0.8-0.2,1.6-0.2,2.3c0,1.3,0.4,2.3,1.3,3c0.9,0.6,2.3,1,4.4,1
				c1.3,0,2.7-0.1,4.4-0.3v-6c-0.5,0.1-1.1,0.2-1.7,0.2c-1.1,0-1.8-0.2-2-0.6c-0.2-0.4-0.4-1.3-0.4-2.6v-18.6
				C402.5,169.9,401.1,166.5,398.4,164.4 M364.7,169.7c1.3,0.1,2.5,0.3,3.7,0.4l0.1-7.8h-1.4c-2.5,0-4.6,0.2-6.4,0.5
				s-3.7,1.1-5.4,2.4c-1.8,1.2-3.4,3.1-4.8,5.6c-0.2,0.4-0.4,0.7-0.6,1.1c-0.2,0.4-0.4,0.8-0.5,1.2l-1-0.3l0.6-1.4
				c0.8-2.1,1.4-3.7,1.8-5s0.6-2.5,0.6-3.9v-0.2h-7v40h7v-22.5c0-3.6,1-6.2,2.9-7.8s4.4-2.5,7.5-2.5
				C362.4,169.5,363.5,169.5,364.7,169.7 M319.8,197.3H319c-3.8,0-6.7-1.5-8.6-4.4c-1.9-3-2.9-6.5-2.9-10.8c0-2.7,0.4-5.1,1.3-7.4
				c0.9-2.3,2.1-4.1,3.9-5.4c1.7-1.4,3.9-2,6.4-2h0.8c2.6,0,4.7,0.7,6.4,2c1.7,1.3,3,3.1,3.8,5.4c0.9,2.2,1.3,4.7,1.3,7.5
				s-0.4,5.4-1.2,7.7c-0.8,2.3-2.1,4.1-3.8,5.5C324.5,196.6,322.3,197.3,319.8,197.3 M319.4,203.2c3.8,0,7.2-0.9,10.2-2.7
				c2.9-1.8,5.2-4.3,6.8-7.4c1.6-3.2,2.4-6.8,2.4-11c0-4.1-0.8-7.7-2.4-10.9c-1.6-3.1-3.8-5.6-6.7-7.3c-2.9-1.7-6.3-2.6-10.2-2.6
				c-3.9,0-7.3,0.9-10.2,2.6c-2.9,1.7-5.1,4.2-6.7,7.3s-2.4,6.8-2.4,10.9c0,4.2,0.8,7.8,2.4,11s3.8,5.7,6.7,7.4
				C312.1,202.3,315.5,203.2,319.4,203.2 M277.8,167.3c3.8,0,6.8,1.3,8.8,4s3,6.3,3,10.9c0,3-0.4,5.7-1.3,7.9s-2.2,4-4,5.2
				s-3.9,1.8-6.5,1.8h-0.6c-2.6,0-4.7-0.6-6.6-1.8c-1.8-1.2-3.2-3-4.1-5.2c-0.9-2.3-1.4-4.9-1.4-7.9s0.5-5.6,1.4-7.8s2.3-4,4.1-5.2
				c1.8-1.2,4-1.8,6.6-1.8L277.8,167.3L277.8,167.3z M294.4,170.7c-1.7-3.1-3.8-5.5-6.5-7s-5.6-2.3-8.7-2.3c-2.2,0-4.2,0.4-6.1,1.2
				s-3.5,1.8-4.8,3.2s-2.3,2.9-3,4.7l-0.2,0.6l-1-0.3c0.1-0.1,0.1-0.1,0.1-0.2c0-0.1,0-0.2,0.1-0.2c0.6-1.8,1-3.1,1.2-4
				s0.3-1.8,0.3-2.8v-1.1h-7v55.6h7v-14c0-1,0-1.7-0.1-2.1c-0.1-0.9-0.3-1.9-0.6-2.8c-0.3-1-0.6-2-0.8-2.9c-0.3-0.7-0.5-1.4-0.7-2.1
				c-0.2-0.7-0.4-1.4-0.6-2.2l1-0.2l0.3,0.9c0.9,2.5,2.1,4.5,3.6,6.1s3.2,2.8,5.1,3.6s4.1,1.2,6.4,1.2c3.1,0,6.1-0.8,8.7-2.4
				s4.8-3.9,6.5-7.1c1.7-3.2,2.5-7,2.5-11.6C296.9,177.6,296.1,173.8,294.4,170.7 M248.6,166.6c-1.5-2-3.3-3.3-5.4-4.1
				c-2.1-0.8-4.1-1.2-6.1-1.2c-3.4,0-6.3,0.9-8.8,2.7s-4.3,4.7-5.3,8.6l-1-0.2c0.1-0.1,0.1-0.1,0.1-0.2V172c0.2-0.5,0.3-1.1,0.4-1.6
				c0.1-0.6,0.1-1.1,0.1-1.6c0-1.5-0.5-2.8-1.4-4c-1-1.1-2.2-2-3.8-2.6s-3.4-0.9-5.3-0.9c-3,0-5.7,0.8-7.8,2.3c-2.2,1.5-4,4.5-5.5,9
				l-0.2,0.5l-1-0.3l0.2-0.6c0.2-0.7,0.4-1.5,0.7-2.3s0.6-1.5,1-2.3c0.5-1.3,0.9-2.3,1.2-3s0.4-1.4,0.4-2.1v-0.2h-7.3v40h7v-24.6
				c0-3.5,0.8-6,2.5-7.7s3.7-2.5,6.1-2.5h0.6c2.6,0,4.7,0.6,6.4,1.9c1.7,1.3,2.5,3.5,2.5,6.7v26.2h7l-0.1-24.6c0-3.5,0.9-6,2.6-7.7
				c1.7-1.7,3.8-2.5,6.2-2.5h0.6c2.5,0,4.6,0.6,6.2,1.9s2.4,3.5,2.4,6.7v26.2h7v-27.8C250.8,171.2,250.1,168.6,248.6,166.6
				 M157.6,178.1c0.3-3,1.5-5.6,3.4-7.7c2-2.1,4.5-3.2,7.5-3.2h0.7c2.2,0,4.1,0.5,5.6,1.4c1.5,1,2.8,2.3,3.6,3.9
				c0.9,1.7,1.4,3.5,1.6,5.5h-22.4L157.6,178.1L157.6,178.1z M152.5,193.3c1.5,3.1,3.6,5.6,6.5,7.3s6.3,2.6,10.3,2.6
				c3.4,0,6.5-0.6,9.2-1.9c2.7-1.3,4.9-3,6.6-5.3c1.7-2.2,2.8-4.8,3.3-7.7h-7.3c-0.5,2.7-1.9,4.8-4,6.5s-4.6,2.5-7.4,2.5h-0.5
				c-2.2,0-4.2-0.6-6-1.7c-1.8-1.1-3.1-2.7-4.2-4.6c-1-2-1.6-4.3-1.7-6.9l30.1-0.2v-1.8c0-4.4-0.7-8.1-2.2-11.2
				c-1.5-3.1-3.6-5.5-6.4-7.1c-2.8-1.6-6.1-2.4-9.8-2.4s-7,0.9-9.8,2.6c-2.8,1.7-5,4.2-6.6,7.4s-2.4,6.8-2.4,11
				C150.3,186.5,151.1,190.2,152.5,193.3 M147.9,195.5L147.9,195.5c-0.7,0.2-1.6,0.3-2.8,0.5s-2.3,0.2-3.2,0.2
				c-1.5,0-2.6-0.4-3.2-1.3c-0.6-0.9-0.9-2.1-0.9-3.8v-23h9.7v-5.8h-9.7v-11.2h-7v11.2h-6.6v5.8h6.6v22.1c0,4.2,0.7,7.3,2.2,9.4
				c1.5,2.1,4.1,3.2,7.8,3.2c1.6,0,3.9-0.3,6.8-0.8c0.1,0,0.1,0,0.1,0h0.1L147.9,195.5L147.9,195.5z M86,162.3v40h7v-25.2
				c0-2,0.5-3.8,1.4-5.2s2.3-2.5,3.9-3.3s3.4-1.2,5.3-1.2h0.2c2.9,0,5.2,0.7,6.9,2s2.5,3.5,2.5,6.4v26.4h7v-27.4
				c0-3.5-0.7-6.2-2-8.2c-1.4-2-3.1-3.4-5.2-4.2s-4.4-1.2-6.9-1.2c-3.3,0-6.3,0.9-9.1,2.8c-2.7,1.9-4.7,4.4-5.9,7.6l-0.5,1.3l-1-0.3
				c0.2-0.9,0.5-1.8,0.9-2.7s0.7-1.7,1-2.4c0.5-1.1,0.9-2,1.2-2.7c0.2-0.7,0.4-1.4,0.4-2.1v-0.6H86V162.3z M61.5,197.3h-0.8
				c-3.8,0-6.7-1.5-8.6-4.4c-1.9-3-2.9-6.5-2.9-10.8c0-2.7,0.4-5.1,1.3-7.4c0.9-2.3,2.1-4.1,3.9-5.4c1.7-1.4,3.9-2,6.4-2h0.8
				c2.6,0,4.7,0.7,6.4,2c1.7,1.3,3,3.1,3.8,5.4c0.9,2.2,1.3,4.7,1.3,7.5s-0.4,5.4-1.2,7.7c-0.8,2.3-2.1,4.1-3.8,5.5
				C66.2,196.6,64.1,197.3,61.5,197.3 M61.1,203.2c3.8,0,7.2-0.9,10.2-2.7c2.9-1.8,5.2-4.3,6.8-7.4c1.6-3.2,2.4-6.8,2.4-11
				c0-4.1-0.8-7.7-2.4-10.9c-1.6-3.1-3.8-5.6-6.7-7.3c-2.9-1.7-6.3-2.6-10.2-2.6s-7.3,0.9-10.2,2.6c-2.9,1.7-5.1,4.2-6.7,7.3
				c-1.6,3.1-2.4,6.8-2.4,10.9c0,4.2,0.8,7.8,2.4,11c1.6,3.2,3.8,5.7,6.7,7.4C53.8,202.3,57.2,203.2,61.1,203.2 M38.2,187.6h-7.3
				c-0.3,1.8-0.9,3.4-1.8,4.9c-0.9,1.4-2.2,2.6-3.8,3.5c-1.6,0.9-3.4,1.3-5.5,1.3H19c-2.6,0-4.7-0.7-6.4-2.1c-1.7-1.4-3-3.3-3.8-5.6
				s-1.2-4.8-1.2-7.5s0.4-5.1,1.3-7.4c0.9-2.3,2.1-4.1,3.9-5.4c1.7-1.4,3.9-2,6.4-2H20c2.8,0,5.2,0.9,7.2,2.6c2,1.7,3.3,3.9,3.8,6.5
				h7.4c-0.6-3.4-1.9-6.2-3.6-8.4c-1.8-2.2-4-3.9-6.6-4.9c-2.6-1.1-5.5-1.6-8.6-1.6c-3.9,0-7.3,0.9-10.2,2.6
				c-2.9,1.7-5.1,4.2-6.7,7.3s-2.4,6.8-2.4,10.9c0,4.2,0.8,7.8,2.4,11s3.8,5.7,6.7,7.4c2.9,1.8,6.3,2.7,10.2,2.7c3.3,0,6.3-0.7,9-2
				c2.7-1.4,5-3.2,6.8-5.6C36.9,193.1,37.9,190.5,38.2,187.6"/>
		</g>
	</g>
	<g>
		<g>
			<defs>
				<rect id="SVGID_00000169524124799433484160000013561946556734042500_" x="-0.9" y="1.8" width="804.5" height="273.4"/>
			</defs>
			<clipPath id="SVGID_00000061440158630392373230000001655384240134093209_">
				<use xlink:href="#SVGID_00000169524124799433484160000013561946556734042500_"  style="overflow:visible;"/>
			</clipPath>
			<path style="clip-path:url(#SVGID_00000061440158630392373230000001655384240134093209_);" d="M532.7,125.3h-0.8
				c-3.8,0-6.7-1.5-8.6-4.4c-1.9-3-2.9-6.5-2.9-10.8c0-2.7,0.4-5.1,1.3-7.4c0.9-2.3,2.1-4.1,3.9-5.4c1.7-1.4,3.9-2,6.4-2h0.8
				c2.6,0,4.7,0.7,6.4,2s3,3.1,3.8,5.4c0.9,2.2,1.3,4.7,1.3,7.5s-0.4,5.4-1.2,7.7c-0.8,2.3-2.1,4.1-3.8,5.5
				C537.4,124.6,535.3,125.3,532.7,125.3 M532.3,131.2c3.8,0,7.2-0.9,10.2-2.7c2.9-1.8,5.2-4.3,6.8-7.4c1.6-3.2,2.4-6.8,2.4-11
				c0-4.1-0.8-7.7-2.4-10.9c-1.6-3.1-3.8-5.6-6.7-7.3c-2.9-1.7-6.3-2.6-10.2-2.6s-7.3,0.9-10.2,2.6s-5.1,4.2-6.7,7.3
				c-1.6,3.1-2.4,6.8-2.4,10.9s0.8,7.8,2.4,11c1.6,3.2,3.8,5.7,6.7,7.4C525,130.3,528.4,131.2,532.3,131.2 M510.6,123.5L510.6,123.5
				c-0.7,0.2-1.6,0.3-2.8,0.5c-1.2,0.2-2.3,0.2-3.2,0.2c-1.5,0-2.6-0.4-3.2-1.3s-0.9-2.1-0.9-3.8v-23h9.7v-5.8h-9.7V79.1h-7v11.2
				H487v5.8h6.6v22.1c0,4.2,0.7,7.3,2.2,9.4s4.1,3.2,7.8,3.2c1.6,0,3.9-0.3,6.8-0.8c0.1,0,0.1,0,0.1,0h0.1V123.5z M442.7,125.2
				c-3.8,0-6.8-1.3-8.8-4s-3-6.3-3-10.9c0-3,0.4-5.7,1.3-7.9c0.9-2.2,2.2-4,4-5.2s3.9-1.8,6.5-1.8h0.6c2.6,0,4.7,0.6,6.6,1.8
				c1.8,1.2,3.2,3,4.1,5.2c0.9,2.3,1.4,4.9,1.4,7.9s-0.5,5.6-1.4,7.8c-0.9,2.2-2.3,4-4.1,5.2c-1.8,1.2-4,1.8-6.6,1.8L442.7,125.2
				L442.7,125.2z M426,121.9c1.7,3.1,3.8,5.5,6.5,7c2.7,1.5,5.6,2.3,8.7,2.3c2.2,0,4.2-0.4,6.1-1.2s3.5-1.8,4.8-3.2
				c1.3-1.4,2.3-2.9,3-4.7l0.2-0.6l1,0.3c-0.1,0.1-0.1,0.1-0.1,0.2s0,0.2-0.1,0.2c-0.6,1.8-1,3.1-1.2,4s-0.3,1.8-0.3,2.8v1.1h7V74.7
				h-7v14c0,1,0,1.7,0.1,2.1c0.1,0.9,0.3,1.9,0.6,2.8c0.3,1,0.6,2,0.8,2.9c0.3,0.7,0.5,1.4,0.7,2.1s0.4,1.4,0.6,2.2l-1,0.2l-0.3-0.9
				c-0.9-2.5-2.1-4.5-3.6-6.1s-3.2-2.8-5.1-3.6c-1.9-0.8-4.1-1.2-6.4-1.2c-3.1,0-6.1,0.8-8.7,2.4c-2.7,1.6-4.8,3.9-6.5,7.1
				s-2.5,7-2.5,11.6C423.5,114.9,424.4,118.7,426,121.9 M389.9,106.1c0.3-3,1.5-5.6,3.4-7.7c2-2.1,4.5-3.2,7.5-3.2h0.7
				c2.2,0,4.1,0.5,5.6,1.4c1.5,1,2.8,2.3,3.6,3.9c0.9,1.7,1.4,3.5,1.6,5.5L389.9,106.1L389.9,106.1z M384.8,121.3
				c1.5,3.1,3.6,5.6,6.5,7.3c2.9,1.7,6.3,2.6,10.3,2.6c3.4,0,6.5-0.6,9.2-1.9s4.9-3,6.6-5.3s2.8-4.8,3.3-7.7h-7.3
				c-0.5,2.7-1.9,4.8-4,6.5s-4.6,2.5-7.4,2.5h-0.5c-2.2,0-4.2-0.6-6-1.7s-3.1-2.7-4.2-4.6c-1-2-1.6-4.3-1.7-6.9l30.1-0.2v-1.8
				c0-4.4-0.7-8.1-2.2-11.2s-3.6-5.5-6.4-7.1s-6.1-2.4-9.8-2.4c-3.7,0-7,0.9-9.8,2.6s-5,4.2-6.6,7.4c-1.6,3.2-2.4,6.8-2.4,11
				C382.6,114.5,383.3,118.2,384.8,121.3 M380.1,123.5L380.1,123.5c-0.7,0.2-1.6,0.3-2.8,0.5s-2.3,0.2-3.2,0.2
				c-1.5,0-2.6-0.4-3.2-1.3s-0.9-2.1-0.9-3.8v-23h9.7v-5.8H370V79.1h-7v11.2h-6.6v5.8h6.6v22.1c0,4.2,0.7,7.3,2.2,9.4
				s4.1,3.2,7.8,3.2c1.6,0,3.9-0.3,6.8-0.8c0.1,0,0.1,0,0.1,0h0.1v-6.5H380.1z M341.5,110.4c1.4-0.8,2.5-1.9,3.2-3.2v5.6
				c0,3-0.6,5.5-1.9,7.4s-2.9,3.2-4.8,4s-3.8,1.2-5.6,1.2c-2.3,0-4.2-0.6-5.5-1.8c-1.2-1-1.8-2.3-1.8-4c0-1.9,0.6-3.3,1.8-4.4
				c0.6-0.6,1.5-1.1,2.4-1.4c1-0.3,2.2-0.7,3.6-0.9l3.5-0.6C338.4,111.7,340.1,111.2,341.5,110.4 M347.6,92.4
				c-2.7-2.1-6.7-3.1-11.9-3.1c-3.3,0-6.2,0.6-8.6,1.8c-2.5,1.2-4.4,2.8-5.7,4.9c-1.4,2.1-2.1,4.6-2.2,7.4h7.2
				c0.2-1.7,0.7-3.2,1.5-4.4c0.8-1.2,1.9-2.2,3.3-2.8c1.4-0.6,3-1,4.7-1c2.7,0,4.9,0.5,6.4,1.5s2.3,2.4,2.3,4.2c0,1.2-0.3,2.2-1,3
				c-0.7,0.7-1.6,1.3-2.9,1.7c-1.3,0.4-2.9,0.7-5,1l-3.8,0.5c-4,0.5-7.1,1.5-9.4,3c-3.1,2.1-4.6,5.3-4.6,9.4c0,1.9,0.4,3.6,1.1,5.1
				s1.8,2.8,3.1,3.8c2.3,1.9,5.2,2.8,8.8,2.8c3.8,0,7-0.9,9.7-2.7s4.5-4.4,5.4-7.8l1,0.2c-0.1,0.2-0.1,0.3-0.1,0.4s-0.1,0.3-0.1,0.4
				c-0.3,0.8-0.5,1.6-0.6,2.4c-0.2,0.8-0.2,1.6-0.2,2.3c0,1.3,0.4,2.3,1.3,3s2.3,1,4.4,1c1.3,0,2.7-0.1,4.4-0.3v-6
				c-0.5,0.1-1.1,0.2-1.7,0.2c-1.1,0-1.8-0.2-2-0.6s-0.4-1.3-0.4-2.6v-18.6C351.7,97.9,350.3,94.5,347.6,92.4 M314.5,115.6h-7.3
				c-0.3,1.8-0.9,3.4-1.8,4.9c-0.9,1.4-2.2,2.6-3.8,3.5c-1.6,0.9-3.4,1.3-5.5,1.3h-0.8c-2.6,0-4.7-0.7-6.4-2.1
				c-1.7-1.4-3-3.3-3.8-5.6c-0.8-2.3-1.2-4.8-1.2-7.5s0.4-5.1,1.3-7.4s2.1-4.1,3.9-5.4c1.7-1.4,3.9-2,6.4-2h0.8
				c2.8,0,5.2,0.9,7.2,2.6s3.3,3.9,3.8,6.5h7.4c-0.6-3.4-1.9-6.2-3.6-8.4c-1.8-2.2-4-3.9-6.6-4.9c-2.6-1.1-5.5-1.6-8.6-1.6
				c-3.9,0-7.3,0.9-10.2,2.6c-2.9,1.7-5.1,4.2-6.7,7.3c-1.6,3.1-2.4,6.8-2.4,10.9s0.8,7.8,2.4,11s3.8,5.7,6.7,7.4
				c2.9,1.8,6.3,2.7,10.2,2.7c3.3,0,6.3-0.7,9-2c2.7-1.4,5-3.2,6.8-5.6C313.2,121.1,314.2,118.5,314.5,115.6 M263.2,130.3h7v-40h-7
				V130.3z M266.7,84c1.3,0,2.4-0.5,3.2-1.4c0.9-0.9,1.3-2,1.3-3.4c0-1.3-0.4-2.4-1.3-3.3s-2-1.4-3.2-1.4c-1.3,0-2.5,0.5-3.4,1.4
				s-1.4,2-1.4,3.3s0.5,2.5,1.4,3.4C264.3,83.6,265.4,84,266.7,84 M235,125.2c-3.8,0-6.8-1.3-8.8-4s-3-6.3-3-10.9
				c0-3,0.4-5.7,1.3-7.9c0.9-2.2,2.2-4,4-5.2s3.9-1.8,6.5-1.8h0.6c2.6,0,4.7,0.6,6.6,1.8c1.8,1.2,3.2,3,4.1,5.2
				c0.9,2.3,1.4,4.9,1.4,7.9s-0.5,5.6-1.4,7.8c-0.9,2.2-2.3,4-4.1,5.2s-4,1.8-6.6,1.8L235,125.2L235,125.2z M218.3,121.9
				c1.7,3.1,3.8,5.5,6.5,7c2.7,1.5,5.6,2.3,8.7,2.3c2.2,0,4.2-0.4,6.1-1.2c1.9-0.8,3.5-1.8,4.8-3.2c1.3-1.4,2.3-2.9,3-4.7l0.2-0.6
				l1,0.3c-0.1,0.1-0.1,0.1-0.1,0.2s0,0.2-0.1,0.2c-0.6,1.8-1,3.1-1.2,4s-0.3,1.8-0.3,2.8v1.1h7V74.7h-7v14c0,1,0,1.7,0.1,2.1
				c0.1,0.9,0.3,1.9,0.6,2.8c0.3,1,0.6,2,0.8,2.9c0.3,0.7,0.5,1.4,0.7,2.1s0.4,1.4,0.6,2.2l-1,0.2l-0.3-0.9
				c-0.9-2.5-2.1-4.5-3.6-6.1s-3.2-2.8-5.1-3.6c-1.9-0.8-4.1-1.2-6.4-1.2c-3.1,0-6.1,0.8-8.7,2.4c-2.7,1.6-4.8,3.9-6.5,7.1
				s-2.5,7-2.5,11.6C215.9,114.9,216.7,118.7,218.3,121.9 M182.2,106.1c0.3-3,1.5-5.6,3.4-7.7c2-2.1,4.5-3.2,7.5-3.2h0.7
				c2.2,0,4.1,0.5,5.6,1.4s2.8,2.3,3.6,3.9c0.9,1.7,1.4,3.5,1.6,5.5L182.2,106.1L182.2,106.1z M177.1,121.3c1.5,3.1,3.6,5.6,6.5,7.3
				c2.9,1.7,6.3,2.6,10.3,2.6c3.4,0,6.5-0.6,9.2-1.9s4.9-3,6.6-5.3c1.7-2.2,2.8-4.8,3.3-7.7h-7.3c-0.5,2.7-1.9,4.8-4,6.5
				s-4.6,2.5-7.4,2.5h-0.5c-2.2,0-4.2-0.6-6-1.7s-3.1-2.7-4.2-4.6c-1-2-1.6-4.3-1.7-6.9l30.1-0.2v-1.8c0-4.4-0.7-8.1-2.2-11.2
				s-3.6-5.5-6.4-7.1c-2.8-1.6-6.1-2.4-9.8-2.4s-7,0.9-9.8,2.6s-5,4.2-6.6,7.4c-1.6,3.2-2.4,6.8-2.4,11
				C174.9,114.5,175.6,118.2,177.1,121.3 M149.6,125.2c-3.8,0-6.8-1.3-8.8-4s-3-6.3-3-10.9c0-3,0.4-5.7,1.3-7.9c0.9-2.2,2.2-4,4-5.2
				s3.9-1.8,6.5-1.8h0.6c2.6,0,4.7,0.6,6.6,1.8c1.8,1.2,3.2,3,4.1,5.2c0.9,2.3,1.4,4.9,1.4,7.9s-0.5,5.6-1.4,7.8
				c-0.9,2.2-2.3,4-4.1,5.2s-4,1.8-6.6,1.8L149.6,125.2L149.6,125.2z M133,121.9c1.7,3.1,3.8,5.5,6.5,7c2.7,1.5,5.6,2.3,8.7,2.3
				c2.2,0,4.2-0.4,6.1-1.2c1.9-0.8,3.5-1.8,4.8-3.2c1.3-1.4,2.3-2.9,3-4.7l0.2-0.6l1,0.3c-0.1,0.1-0.1,0.1-0.1,0.2s0,0.2-0.1,0.2
				c-0.6,1.8-1,3.1-1.2,4s-0.3,1.8-0.3,2.8v1.1h7V74.7h-7v14c0,1,0,1.7,0.1,2.1c0.1,0.9,0.3,1.9,0.6,2.8c0.3,1,0.6,2,0.8,2.9
				c0.3,0.7,0.5,1.4,0.7,2.1s0.4,1.4,0.6,2.2l-1,0.2l-0.3-0.9c-0.9-2.5-2.1-4.5-3.6-6.1s-3.2-2.8-5.1-3.6c-1.9-0.8-4.1-1.2-6.4-1.2
				c-3.1,0-6.1,0.8-8.7,2.4c-2.7,1.6-4.8,3.9-6.5,7.1s-2.5,7-2.5,11.6C130.5,114.9,131.3,118.7,133,121.9 M106.5,97.7
				c1.3,0.1,2.5,0.3,3.7,0.4l0.1-7.8h-1.4c-2.5,0-4.6,0.2-6.4,0.5s-3.7,1.1-5.4,2.4c-1.8,1.2-3.4,3.1-4.8,5.6
				c-0.2,0.4-0.4,0.7-0.6,1.1s-0.4,0.8-0.5,1.2l-1-0.3l0.6-1.4c0.8-2.1,1.4-3.7,1.8-5s0.6-2.5,0.6-3.9v-0.2h-7v40h7v-22.5
				c0-3.6,1-6.2,2.9-7.8c1.9-1.6,4.4-2.5,7.5-2.5C104.2,97.5,105.2,97.5,106.5,97.7 M70.4,130.3h7v-40h-7V130.3z M73.9,84
				c1.3,0,2.4-0.5,3.2-1.4c0.9-0.9,1.3-2,1.3-3.4c0-1.3-0.4-2.4-1.3-3.3s-2-1.4-3.2-1.4c-1.3,0-2.5,0.5-3.4,1.4s-1.4,2-1.4,3.3
				s0.5,2.5,1.4,3.4C71.5,83.6,72.6,84,73.9,84 M49.9,110.4c1.4-0.8,2.5-1.9,3.2-3.2v5.6c0,3-0.6,5.5-1.9,7.4
				c-1.3,1.9-2.9,3.2-4.8,4c-1.9,0.8-3.8,1.2-5.6,1.2c-2.3,0-4.2-0.6-5.5-1.8c-1.2-1-1.8-2.3-1.8-4c0-1.9,0.6-3.3,1.8-4.4
				c0.6-0.6,1.5-1.1,2.4-1.4c1-0.3,2.2-0.7,3.6-0.9l3.5-0.6C46.7,111.7,48.4,111.2,49.9,110.4 M55.9,92.4c-2.7-2.1-6.7-3.1-11.9-3.1
				c-3.3,0-6.2,0.6-8.6,1.8c-2.5,1.2-4.4,2.8-5.7,4.9c-1.4,2.1-2.1,4.6-2.2,7.4h7.2c0.2-1.7,0.7-3.2,1.5-4.4
				c0.8-1.2,1.9-2.2,3.3-2.8s3-1,4.7-1c2.7,0,4.9,0.5,6.4,1.5s2.3,2.4,2.3,4.2c0,1.2-0.3,2.2-1,3c-0.7,0.7-1.6,1.3-2.9,1.7
				c-1.3,0.4-2.9,0.7-5,1l-3.8,0.5c-4,0.5-7.1,1.5-9.4,3c-3.1,2.1-4.6,5.3-4.6,9.4c0,1.9,0.4,3.6,1.1,5.1s1.8,2.8,3.1,3.8
				c2.3,1.9,5.2,2.8,8.8,2.8c3.8,0,7-0.9,9.7-2.7s4.5-4.4,5.4-7.8l1,0.2c-0.1,0.2-0.1,0.3-0.1,0.4s-0.1,0.3-0.1,0.4
				c-0.3,0.8-0.5,1.6-0.6,2.4c-0.2,0.8-0.2,1.6-0.2,2.3c0,1.3,0.4,2.3,1.3,3c0.9,0.6,2.3,1,4.4,1c1.3,0,2.7-0.1,4.4-0.3v-6
				c-0.5,0.1-1.1,0.2-1.7,0.2c-1.1,0-1.8-0.2-2-0.6s-0.4-1.3-0.4-2.6v-18.6C60,97.9,58.7,94.5,55.9,92.4 M9.1,76.7
				c-2.1,1.9-3.2,4.7-3.2,8.4v5.2h-6.8v5.8h6.8v34.2h7V96.1h10.8v-5.8H13v-4.9c0-1.9,0.5-3.3,1.5-4.2c1-0.9,2.4-1.3,4.3-1.3
				c1.4,0,3.1,0.3,5.1,0.9v-6.3c-0.6-0.1-1.4-0.3-2.5-0.4c-1.1-0.2-2.1-0.3-3.2-0.3C14.2,73.8,11.2,74.7,9.1,76.7"/>
		</g>
	</g>
	<g>
		<g>
			<defs>
				<rect id="SVGID_00000060001250585058336600000010864599984551711673_" x="-0.9" y="1.8" width="804.5" height="273.4"/>
			</defs>
			<clipPath id="SVGID_00000011728449546187623870000014844010412116266170_">
				<use xlink:href="#SVGID_00000060001250585058336600000010864599984551711673_"  style="overflow:visible;"/>
			</clipPath>
			<path style="clip-path:url(#SVGID_00000011728449546187623870000014844010412116266170_);" d="M683.8,58.3h7V2.7h-7V58.3z
				 M664,38.4c1.4-0.8,2.5-1.9,3.2-3.2v5.6c0,3-0.6,5.5-1.9,7.4c-1.3,1.9-2.9,3.2-4.8,4c-1.9,0.8-3.8,1.2-5.6,1.2
				c-2.3,0-4.2-0.6-5.5-1.8c-1.2-1-1.8-2.3-1.8-4c0-1.9,0.6-3.3,1.8-4.4c0.6-0.6,1.5-1.1,2.4-1.4c1-0.3,2.2-0.7,3.6-0.9l3.5-0.6
				C660.9,39.7,662.6,39.2,664,38.4 M670.1,20.4c-2.7-2.1-6.7-3.1-11.9-3.1c-3.3,0-6.2,0.6-8.6,1.8c-2.5,1.2-4.4,2.8-5.7,4.9
				c-1.4,2.1-2.1,4.6-2.2,7.4h7.2c0.2-1.7,0.7-3.2,1.5-4.4c0.8-1.2,1.9-2.2,3.3-2.8c1.4-0.6,3-1,4.7-1c2.7,0,4.9,0.5,6.4,1.5
				s2.3,2.4,2.3,4.2c0,1.2-0.3,2.2-1,3c-0.7,0.7-1.6,1.3-2.9,1.7c-1.3,0.4-2.9,0.7-5,1l-3.8,0.5c-4,0.5-7.1,1.5-9.4,3
				c-3.1,2.1-4.6,5.3-4.6,9.4c0,1.9,0.4,3.6,1.1,5.1c0.7,1.5,1.8,2.8,3.1,3.8c2.3,1.9,5.2,2.8,8.8,2.8c3.8,0,7-0.9,9.7-2.7
				s4.5-4.4,5.4-7.8l1,0.2c-0.1,0.2-0.1,0.3-0.1,0.4c0,0.1-0.1,0.3-0.1,0.4c-0.3,0.8-0.5,1.6-0.6,2.4c-0.2,0.8-0.2,1.6-0.2,2.3
				c0,1.3,0.4,2.3,1.3,3s2.3,1,4.4,1c1.3,0,2.7-0.1,4.4-0.3v-6c-0.5,0.1-1.1,0.2-1.7,0.2c-1.1,0-1.8-0.2-2-0.6
				c-0.2-0.4-0.4-1.3-0.4-2.6V30.5C674.2,25.9,672.8,22.5,670.1,20.4 M599.8,18.3v40h7V33.1c0-2,0.5-3.8,1.4-5.2
				c1-1.4,2.3-2.5,3.9-3.3c1.6-0.8,3.4-1.2,5.3-1.2h0.2c2.9,0,5.2,0.7,6.9,2c1.7,1.4,2.5,3.5,2.5,6.4v26.4h7V30.8
				c0-3.5-0.7-6.2-2-8.2s-3.1-3.4-5.2-4.2c-2.1-0.8-4.4-1.2-6.9-1.2c-3.3,0-6.3,0.9-9.1,2.8c-2.7,1.9-4.7,4.4-5.9,7.6l-0.5,1.3
				l-1-0.3c0.2-0.9,0.5-1.8,0.9-2.7c0.4-0.9,0.7-1.7,1-2.4c0.5-1.1,0.9-2,1.2-2.7c0.2-0.7,0.4-1.4,0.4-2.1v-0.6h-7.1L599.8,18.3
				L599.8,18.3z M575.4,53.3h-0.8c-3.8,0-6.7-1.5-8.6-4.4c-1.9-3-2.9-6.5-2.9-10.8c0-2.7,0.4-5.1,1.3-7.4c0.9-2.3,2.1-4.1,3.9-5.4
				c1.7-1.4,3.9-2,6.4-2h0.8c2.6,0,4.7,0.7,6.4,2s3,3.1,3.8,5.4c0.9,2.2,1.3,4.7,1.3,7.5s-0.4,5.4-1.2,7.7s-2.1,4.1-3.8,5.5
				C580.1,52.6,577.9,53.3,575.4,53.3 M575,59.2c3.8,0,7.2-0.9,10.2-2.7c2.9-1.8,5.2-4.3,6.8-7.4c1.6-3.2,2.4-6.8,2.4-11
				c0-4.1-0.8-7.7-2.4-10.9c-1.6-3.1-3.8-5.6-6.7-7.3s-6.3-2.6-10.2-2.6s-7.3,0.9-10.2,2.6s-5.1,4.2-6.7,7.3
				c-1.6,3.1-2.4,6.8-2.4,10.9s0.8,7.8,2.4,11c1.6,3.2,3.8,5.7,6.7,7.4C567.7,58.3,571.1,59.2,575,59.2 M542.5,58.3h7v-40h-7V58.3z
				 M546,12c1.3,0,2.4-0.5,3.2-1.4c0.9-0.9,1.3-2,1.3-3.4c0-1.3-0.4-2.4-1.3-3.3c-0.9-0.9-2-1.4-3.2-1.4c-1.3,0-2.5,0.5-3.4,1.4
				s-1.4,2-1.4,3.3s0.5,2.5,1.4,3.4C543.6,11.6,544.7,12,546,12 M536.3,51.5L536.3,51.5c-0.7,0.2-1.6,0.3-2.8,0.5s-2.3,0.2-3.2,0.2
				c-1.5,0-2.6-0.4-3.2-1.3c-0.6-0.9-0.9-2.1-0.9-3.8v-23h9.7v-5.8h-9.7V7.1h-7v11.2h-6.6v5.8h6.6v22.1c0,4.2,0.7,7.3,2.2,9.4
				c1.5,2.1,4.1,3.2,7.8,3.2c1.6,0,3.9-0.3,6.8-0.8c0.1,0,0.1,0,0.1,0h0.1v-6.5H536.3z M497.7,38.4c1.4-0.8,2.5-1.9,3.2-3.2v5.6
				c0,3-0.6,5.5-1.9,7.4s-2.9,3.2-4.8,4s-3.8,1.2-5.6,1.2c-2.3,0-4.2-0.6-5.5-1.8c-1.2-1-1.8-2.3-1.8-4c0-1.9,0.6-3.3,1.8-4.4
				c0.6-0.6,1.5-1.1,2.4-1.4c1-0.3,2.2-0.7,3.6-0.9l3.5-0.6C494.5,39.7,496.3,39.2,497.7,38.4 M503.8,20.4
				c-2.7-2.1-6.7-3.1-11.9-3.1c-3.3,0-6.2,0.6-8.6,1.8c-2.5,1.2-4.4,2.8-5.7,4.9c-1.4,2.1-2.1,4.6-2.2,7.4h7.2
				c0.2-1.7,0.7-3.2,1.5-4.4c0.8-1.2,1.9-2.2,3.3-2.8c1.4-0.6,3-1,4.7-1c2.7,0,4.9,0.5,6.4,1.5s2.3,2.4,2.3,4.2c0,1.2-0.3,2.2-1,3
				c-0.7,0.7-1.6,1.3-2.9,1.7s-2.9,0.7-5,1l-3.8,0.5c-4,0.5-7.1,1.5-9.4,3c-3.1,2.1-4.6,5.3-4.6,9.4c0,1.9,0.4,3.6,1.1,5.1
				s1.8,2.8,3.1,3.8c2.3,1.9,5.2,2.8,8.8,2.8c3.8,0,7-0.9,9.7-2.7s4.5-4.4,5.4-7.8l1,0.2c-0.1,0.2-0.1,0.3-0.1,0.4
				c0,0.1-0.1,0.3-0.1,0.4c-0.3,0.8-0.5,1.6-0.6,2.4c-0.2,0.8-0.2,1.6-0.2,2.3c0,1.3,0.4,2.3,1.3,3c0.9,0.6,2.3,1,4.4,1
				c1.3,0,2.7-0.1,4.4-0.3v-6c-0.5,0.1-1.1,0.2-1.7,0.2c-1.1,0-1.8-0.2-2-0.6c-0.2-0.4-0.4-1.3-0.4-2.6V30.5
				C507.9,25.9,506.5,22.5,503.8,20.4 M433.5,18.3v40h7V33.1c0-2,0.5-3.8,1.4-5.2c1-1.4,2.3-2.5,3.9-3.3s3.4-1.2,5.3-1.2h0.2
				c2.9,0,5.2,0.7,6.9,2s2.5,3.5,2.5,6.4v26.4h7V30.8c0-3.5-0.7-6.2-2-8.2c-1.4-2-3.1-3.4-5.2-4.2c-2.1-0.8-4.4-1.2-6.9-1.2
				c-3.3,0-6.3,0.9-9.1,2.8c-2.7,1.9-4.7,4.4-5.9,7.6l-0.5,1.3l-1-0.3c0.2-0.9,0.5-1.8,0.9-2.7c0.4-0.9,0.7-1.7,1-2.4
				c0.5-1.1,0.9-2,1.2-2.7c0.2-0.7,0.4-1.4,0.4-2.1v-0.6h-7.1L433.5,18.3L433.5,18.3z M426.3,25.7c1.3,0.1,2.5,0.3,3.7,0.4l0.1-7.8
				h-1.4c-2.5,0-4.6,0.2-6.4,0.5s-3.7,1.1-5.4,2.4c-1.8,1.2-3.4,3.1-4.8,5.6c-0.2,0.4-0.4,0.7-0.6,1.1s-0.4,0.8-0.5,1.2l-1-0.3
				l0.6-1.4c0.8-2.1,1.4-3.7,1.8-5s0.6-2.5,0.6-3.9v-0.2h-7v40h7V35.8c0-3.6,1-6.2,2.9-7.8c1.9-1.6,4.4-2.5,7.5-2.5
				C424,25.5,425.1,25.5,426.3,25.7 M369.8,34.1c0.3-3,1.5-5.6,3.4-7.7c2-2.1,4.5-3.2,7.5-3.2h0.7c2.2,0,4.1,0.5,5.6,1.4
				c1.5,1,2.8,2.3,3.6,3.9c0.9,1.7,1.4,3.5,1.6,5.5h-22.4L369.8,34.1L369.8,34.1z M364.7,49.3c1.5,3.1,3.6,5.6,6.5,7.3
				s6.3,2.6,10.3,2.6c3.4,0,6.5-0.6,9.2-1.9s4.9-3,6.6-5.3c1.7-2.2,2.8-4.8,3.3-7.7h-7.3c-0.5,2.7-1.9,4.8-4,6.5s-4.6,2.5-7.4,2.5
				h-0.5c-2.2,0-4.2-0.6-6-1.7c-1.8-1.1-3.1-2.7-4.2-4.6c-1-2-1.6-4.3-1.7-6.9l30.1-0.2v-1.8c0-4.4-0.7-8.1-2.2-11.2
				s-3.6-5.5-6.4-7.1s-6.1-2.4-9.8-2.4c-3.7,0-7,0.9-9.8,2.6s-5,4.2-6.6,7.4s-2.4,6.8-2.4,11C362.5,42.5,363.2,46.2,364.7,49.3
				 M360,51.5L360,51.5c-0.7,0.2-1.6,0.3-2.8,0.5c-1.2,0.2-2.3,0.2-3.2,0.2c-1.5,0-2.6-0.4-3.2-1.3c-0.6-0.9-0.9-2.1-0.9-3.8v-23
				h9.7v-5.8H350V7.1h-7v11.2h-6.6v5.8h6.6v22.1c0,4.2,0.7,7.3,2.2,9.4c1.5,2.1,4.1,3.2,7.8,3.2c1.6,0,3.9-0.3,6.8-0.8
				c0.1,0,0.1,0,0.1,0h0.1V51.5z M298.2,18.3v40h7V33.1c0-2,0.5-3.8,1.4-5.2c1-1.4,2.3-2.5,3.9-3.3s3.4-1.2,5.3-1.2h0.2
				c2.9,0,5.2,0.7,6.9,2s2.5,3.5,2.5,6.4v26.4h7V30.8c0-3.5-0.7-6.2-2-8.2c-1.4-2-3.1-3.4-5.2-4.2c-2.1-0.8-4.4-1.2-6.9-1.2
				c-3.3,0-6.3,0.9-9.1,2.8c-2.7,1.9-4.7,4.4-5.9,7.6l-0.5,1.3l-1-0.3c0.2-0.9,0.5-1.8,0.9-2.7c0.4-0.9,0.7-1.7,1-2.4
				c0.5-1.1,0.9-2,1.2-2.7c0.2-0.7,0.4-1.4,0.4-2.1v-0.6h-7.1L298.2,18.3L298.2,18.3z M282.6,58.3h7v-40h-7V58.3z M286.1,12
				c1.3,0,2.4-0.5,3.2-1.4c0.9-0.9,1.3-2,1.3-3.4c0-1.3-0.4-2.4-1.3-3.3s-2-1.4-3.2-1.4c-1.3,0-2.5,0.5-3.4,1.4s-1.4,2-1.4,3.3
				s0.5,2.5,1.4,3.4C283.6,11.6,284.8,12,286.1,12 M257.1,51.5L257.1,51.5c-0.7,0.2-1.6,0.3-2.8,0.5s-2.3,0.2-3.2,0.2
				c-1.5,0-2.6-0.4-3.2-1.3c-0.6-0.9-0.9-2.1-0.9-3.8v-23h9.7v-5.8H247V7.1h-7v11.2h-6.6v5.8h6.6v22.1c0,4.2,0.7,7.3,2.2,9.4
				c1.5,2.1,4.1,3.2,7.8,3.2c1.6,0,3.9-0.3,6.8-0.8c0.1,0,0.1,0,0.1,0h0.1L257.1,51.5L257.1,51.5z M204.4,44.3H197
				c0.1,2.6,0.7,5,2,7.2c1.3,2.3,3.2,4.1,5.8,5.5s5.8,2.1,9.6,2.1c3.3,0,6.2-0.5,8.6-1.5c2.4-1,4.3-2.4,5.6-4.2s1.9-4,1.9-6.6
				c0-3-1-5.4-2.9-7.2s-4.7-3.2-8.1-4l-8.2-1.9c-1.8-0.4-3.1-1.1-3.9-2c-0.8-0.9-1.2-2-1.2-3.2c0-1.7,0.7-3,2.1-3.9
				c1.4-1,3.3-1.4,5.6-1.4c1.5,0,2.9,0.3,4.2,0.8c1.3,0.6,2.4,1.5,3.3,2.7c0.9,1.2,1.4,2.8,1.5,4.6h7.4c-0.1-2.8-0.8-5.3-2.2-7.4
				s-3.3-3.7-5.8-4.9c-2.4-1.2-5.2-1.8-8.2-1.8c-2.9,0-5.6,0.5-7.9,1.4c-2.3,0.9-4.1,2.2-5.4,4c-1.3,1.8-2,3.8-2,6.2
				c0,2.8,0.8,5.1,2.3,6.9c1.5,1.8,3.9,3.1,7.2,3.9l7.8,1.8c2.4,0.6,4.2,1.3,5.3,2.2s1.7,2.2,1.7,3.8c0,1.2-0.4,2.3-1.2,3.2
				s-1.8,1.5-3.2,2c-1.3,0.5-2.8,0.7-4.5,0.7c-1.9,0-3.5-0.4-5-1.1c-1.5-0.7-2.6-1.8-3.5-3.1C205,47.7,204.5,46.2,204.4,44.3
				 M192.4,25.7c1.3,0.1,2.5,0.3,3.7,0.4l0.1-7.8h-1.4c-2.5,0-4.6,0.2-6.4,0.5c-1.8,0.3-3.7,1.1-5.4,2.4c-1.8,1.2-3.4,3.1-4.8,5.6
				c-0.2,0.4-0.4,0.7-0.6,1.1c-0.2,0.4-0.4,0.8-0.5,1.2l-1-0.3l0.6-1.4c0.8-2.1,1.4-3.7,1.8-5c0.4-1.3,0.6-2.5,0.6-3.9v-0.2h-7v40h7
				V35.8c0-3.6,1-6.2,2.9-7.8c1.9-1.6,4.4-2.5,7.5-2.5C190.1,25.5,191.1,25.5,192.4,25.7 M156.3,58.3h7v-40h-7V58.3z M159.9,12
				c1.3,0,2.4-0.5,3.2-1.4c0.9-0.9,1.3-2,1.3-3.4c0-1.3-0.4-2.4-1.3-3.3c-0.9-0.9-2-1.4-3.2-1.4c-1.3,0-2.5,0.5-3.4,1.4
				s-1.4,2-1.4,3.3s0.5,2.5,1.4,3.4C157.4,11.6,158.5,12,159.9,12 M137.6,4.7c-2.1,1.9-3.2,4.7-3.2,8.4v5.2h-6.8v5.8h6.8v34.2h7
				V24.1h10.8v-5.8h-10.8v-4.9c0-1.9,0.5-3.3,1.5-4.2s2.4-1.3,4.3-1.3c1.4,0,3.1,0.3,5.1,0.9V2.5c-0.6-0.1-1.4-0.3-2.5-0.4
				c-1.1-0.2-2.1-0.3-3.2-0.3C142.7,1.8,139.7,2.7,137.6,4.7 M75.7,34.1c0.3-3,1.5-5.6,3.4-7.7c2-2.1,4.5-3.2,7.5-3.2h0.7
				c2.2,0,4.1,0.5,5.6,1.4c1.5,1,2.8,2.3,3.6,3.9c0.9,1.7,1.4,3.5,1.6,5.5H75.7V34.1z M70.6,49.3c1.5,3.1,3.6,5.6,6.5,7.3
				s6.3,2.6,10.3,2.6c3.4,0,6.5-0.6,9.2-1.9s4.9-3,6.6-5.3c1.7-2.2,2.8-4.8,3.3-7.7h-7.3c-0.5,2.7-1.9,4.8-4,6.5s-4.6,2.5-7.4,2.5
				h-0.5c-2.2,0-4.2-0.6-6-1.7S78.2,49,77.2,47s-1.6-4.3-1.7-6.9l30.1-0.2v-1.8c0-4.4-0.7-8.1-2.2-11.2s-3.6-5.5-6.4-7.1
				s-6.1-2.4-9.8-2.4c-3.7,0-7,0.9-9.8,2.6s-5,4.2-6.6,7.4s-2.4,6.8-2.4,11C68.4,42.5,69.2,46.2,70.6,49.3 M29.2,2.7v55.6h7V33.1
				c0-2,0.5-3.8,1.4-5.2c1-1.4,2.3-2.5,3.9-3.3c1.6-0.8,3.4-1.2,5.3-1.2H47c2.9,0,5.2,0.7,6.9,2c1.7,1.4,2.5,3.5,2.5,6.4v26.4h7
				V30.8c0-5-1.3-8.5-4-10.5s-6-3-10-3c-3.3,0-6.3,0.9-9.1,2.8c-2.7,1.9-4.7,4.4-5.9,7.6L34,29.1l-1-0.2c0.2-0.9,0.4-1.7,0.6-2.4
				c0.2-0.8,0.5-1.5,0.7-2.2c0.6-1.8,1.1-3.4,1.4-4.8c0.3-1.5,0.4-3.3,0.4-5.6v-11h-6.9C29.2,2.9,29.2,2.7,29.2,2.7z M23.5,51.5
				L23.5,51.5c-0.7,0.2-1.6,0.3-2.8,0.5c-1.2,0.2-2.3,0.2-3.2,0.2c-1.5,0-2.6-0.4-3.2-1.3c-0.6-0.9-0.9-2.1-0.9-3.8v-23h9.7v-5.8
				h-9.7V7.1h-7v11.2h-6.6v5.8h6.6v22.1c0,4.2,0.7,7.3,2.2,9.4c1.5,2.1,4.1,3.2,7.8,3.2c1.6,0,3.9-0.3,6.8-0.8c0.1,0,0.1,0,0.1,0
				h0.1L23.5,51.5L23.5,51.5z"/>
		</g>
	</g>
</g>
</svg>
