<?xml version="1.0" encoding="utf-8"?>
<!-- Generator: Adobe Illustrator 26.5.3, SVG Export Plug-In . SVG Version: 6.00 Build 0)  -->
<svg version="1.1" id="Layer_1" xmlns="http://www.w3.org/2000/svg" xmlns:xlink="http://www.w3.org/1999/xlink" x="0px" y="0px"
	 viewBox="0 0 21.2 128.8" style="enable-background:new 0 0 21.2 128.8;" xml:space="preserve">
<style type="text/css">
	.st0{clip-path:url(#SVGID_00000094584327530283008160000001158580176393261215_);}
</style>
<g>
	<defs>
		<rect id="SVGID_1_" width="21.2" height="128.8"/>
	</defs>
	<clipPath id="SVGID_00000145771584491548733700000011334106883644112829_">
		<use xlink:href="#SVGID_1_"  style="overflow:visible;"/>
	</clipPath>
	<path style="clip-path:url(#SVGID_00000145771584491548733700000011334106883644112829_);" d="M15.6,9.8v2.8c1,0,1.9-0.3,2.7-0.7
		c0.9-0.5,1.5-1.2,2.1-2.2c0.5-1,0.8-2.2,0.8-3.6c0-1.2-0.2-2.3-0.6-3.2c-0.4-0.9-0.9-1.6-1.6-2.1C18.4,0.2,17.5,0,16.6,0
		c-1.1,0-2,0.4-2.7,1.1c-0.7,0.7-1.2,1.7-1.5,3l-0.7,3.1c-0.2,0.7-0.4,1.2-0.8,1.5C10.6,9,10.2,9.1,9.7,9.1c-0.6,0-1.1-0.3-1.5-0.8
		C7.9,7.8,7.7,7.1,7.7,6.2c0-0.6,0.1-1.1,0.3-1.6c0.2-0.5,0.5-0.9,1-1.2c0.5-0.3,1-0.5,1.7-0.6V0.1c-1.1,0-2,0.3-2.8,0.8
		C7.2,1.4,6.6,2.1,6.1,3C5.7,4,5.5,5,5.5,6.1c0,1.1,0.2,2.1,0.5,3s0.8,1.6,1.5,2c0.7,0.5,1.4,0.7,2.3,0.7c1,0,1.9-0.3,2.6-0.9
		c0.7-0.6,1.2-1.5,1.5-2.7l0.7-2.9c0.2-0.9,0.5-1.6,0.8-2c0.3-0.4,0.8-0.6,1.4-0.6c0.5,0,0.9,0.1,1.2,0.4c0.3,0.3,0.6,0.7,0.8,1.2
		C18.9,4.8,19,5.4,19,6c0,0.7-0.1,1.3-0.4,1.9c-0.3,0.6-0.7,1-1.2,1.3C16.9,9.5,16.3,9.7,15.6,9.8 M5.9,17.5h15v-2.6h-15V17.5z
		 M3.5,16.2c0-0.5-0.2-0.9-0.5-1.2c-0.3-0.3-0.8-0.5-1.3-0.5c-0.5,0-0.9,0.2-1.2,0.5C0.2,15.3,0,15.8,0,16.2c0,0.5,0.2,0.9,0.5,1.3
		C0.9,17.8,1.3,18,1.7,18c0.5,0,0.9-0.2,1.3-0.5C3.3,17.1,3.5,16.7,3.5,16.2 M20.9,19.5l-7.7,6l-7.3-5.6v3.2l2.9,2.2l0.1,0.1
		c0.5,0.4,1,0.7,1.5,0.9c0.4,0.2,0.9,0.2,1.5,0l0.1,0.3c-0.6,0.4-1.1,0.7-1.6,1.1c-0.5,0.3-0.9,0.7-1.3,1c0,0-0.1,0.1-0.1,0.1
		c0,0-0.1,0.1-0.1,0.1L5.9,31v3.2l7.3-5.6l7.7,6v-3.2l-3.7-2.8c0,0-0.1,0-0.1-0.1c0,0-0.1,0-0.1-0.1c-0.4-0.3-0.8-0.5-1.1-0.6
		s-0.7-0.1-1.2,0.1l-0.2-0.3c0.2-0.2,0.5-0.3,0.7-0.5c0.2-0.1,0.4-0.3,0.6-0.4c0.2-0.2,0.5-0.3,0.7-0.5c0.2-0.2,0.4-0.3,0.6-0.5
		l3.7-2.9V19.5z M13.4,40.9c-0.3-0.5-0.7-0.9-1.2-1.2h2.1c1.1,0,2.1,0.2,2.8,0.7c0.7,0.5,1.2,1.1,1.5,1.8c0.3,0.7,0.4,1.4,0.4,2.1
		c0,0.9-0.2,1.6-0.7,2.1c-0.4,0.4-0.9,0.7-1.5,0.7c-0.7,0-1.2-0.2-1.6-0.7c-0.2-0.2-0.4-0.5-0.5-0.9c-0.1-0.4-0.2-0.8-0.3-1.3
		L14,42.8C13.9,42,13.7,41.4,13.4,40.9 M6.7,38.6c-0.8,1-1.2,2.5-1.2,4.5c0,1.2,0.2,2.3,0.7,3.2c0.4,0.9,1.1,1.6,1.8,2.1
		s1.7,0.8,2.8,0.8v-2.7c-0.6-0.1-1.2-0.2-1.7-0.6c-0.5-0.3-0.8-0.7-1.1-1.2c-0.2-0.5-0.4-1.1-0.4-1.8c0-1,0.2-1.8,0.6-2.4
		c0.4-0.6,0.9-0.9,1.6-0.9c0.5,0,0.8,0.1,1.1,0.4c0.3,0.3,0.5,0.6,0.6,1.1c0.2,0.5,0.3,1.1,0.4,1.9l0.2,1.4c0.2,1.5,0.6,2.7,1.1,3.5
		c0.8,1.2,2,1.7,3.5,1.7c0.7,0,1.3-0.1,1.9-0.4c0.6-0.3,1.1-0.7,1.4-1.2c0.7-0.9,1-2,1-3.3c0-1.4-0.3-2.6-1-3.6
		c-0.7-1-1.7-1.7-2.9-2l0.1-0.4c0.1,0,0.1,0,0.2,0c0.1,0,0.1,0,0.2,0c0.3,0.1,0.6,0.2,0.9,0.2c0.3,0.1,0.6,0.1,0.9,0.1
		c0.5,0,0.9-0.2,1.1-0.5c0.2-0.3,0.4-0.9,0.4-1.6c0-0.5,0-1-0.1-1.7h-2.3c0,0.2,0.1,0.4,0.1,0.6c0,0.4-0.1,0.7-0.2,0.8
		c-0.1,0.1-0.5,0.1-1,0.1h-7C8.7,37,7.4,37.6,6.7,38.6 M18.3,51.1L18.3,51.1c0.1,0.2,0.1,0.6,0.2,1c0.1,0.4,0.1,0.8,0.1,1.2
		c0,0.6-0.2,1-0.5,1.2c-0.3,0.2-0.8,0.3-1.4,0.3H8v-3.6H5.9v3.6H1.6v2.6h4.2V60H8v-2.5h8.3c1.6,0,2.7-0.3,3.5-0.8
		c0.8-0.6,1.2-1.5,1.2-2.9c0-0.6-0.1-1.4-0.3-2.5c0,0,0,0,0,0c0,0,0,0,0,0H18.3z M6.9,72.3c-0.6,0.4-1.2,0.6-1.8,0.6
		c-0.7,0-1.2-0.2-1.7-0.6c-0.4-0.4-0.6-1-0.6-1.6c0-0.4,0.1-0.8,0.3-1.2s0.4-0.6,0.8-0.8s0.7-0.3,1.1-0.3c0.7,0,1.4,0.2,1.9,0.6
		c0.5,0.4,1.1,1,1.6,1.8L8.6,71C8,71.5,7.4,72,6.9,72.3 M18,67.9c0.6,0.9,1,1.9,1,3c0,1-0.3,1.9-0.8,2.6c-0.6,0.7-1.4,1.1-2.4,1.1
		c-0.6,0-1.1-0.1-1.6-0.3c-0.5-0.2-1-0.5-1.5-1.1c-0.4-0.4-0.9-1-1.3-1.7l5.5-4.9C17.2,67.1,17.6,67.5,18,67.9 M20.9,59.8l-4.2,3.8
		c-0.1-0.1-0.2-0.2-0.4-0.2c-1.5-0.7-3.1-1.2-4.9-1.3v2.7c1.2,0.1,2.2,0.3,3.1,0.7l-4.3,3.9c-0.5-0.7-1-1.3-1.5-1.9
		c-0.6-0.6-1.2-1-1.8-1.3s-1.3-0.5-2-0.5c-1.3,0-2.4,0.5-3.2,1.4c-0.8,0.9-1.2,2.1-1.2,3.5c0,0.9,0.2,1.8,0.6,2.5
		c0.4,0.7,0.9,1.3,1.6,1.7c0.7,0.4,1.5,0.6,2.4,0.6c0.8,0,1.6-0.2,2.3-0.7c0.6-0.4,1.3-1,2.1-1.7c0.9,1.4,1.8,2.3,2.6,3
		c1.1,0.8,2.3,1.2,3.6,1.2c1,0,2-0.2,2.8-0.8s1.5-1.2,1.9-2.2c0.5-1,0.7-2.1,0.7-3.4c0-1.7-0.4-3.2-1.3-4.5c-0.4-0.5-0.8-1-1.3-1.4
		l2.2-2V59.8z M8.6,79c0.1-0.5,0.1-0.9,0.1-1.4l-2.9,0v0.5c0,0.9,0.1,1.7,0.2,2.4c0.1,0.7,0.4,1.4,0.9,2c0.5,0.7,1.2,1.3,2.1,1.8
		c0.1,0.1,0.3,0.2,0.4,0.2s0.3,0.1,0.4,0.2l-0.1,0.4l-0.5-0.2c-0.8-0.3-1.4-0.5-1.9-0.7S6.4,84,5.9,84H5.9v2.6h15V84h-8.4
		c-1.3,0-2.3-0.4-2.9-1.1c-0.6-0.7-0.9-1.7-0.9-2.8C8.6,79.8,8.6,79.5,8.6,79 M20.9,89.9h-15v2.6h9.4c1.1,0,2,0.4,2.7,1.1
		s1,1.7,1,2.8v0.1c0,1.1-0.2,1.9-0.8,2.4c-0.5,0.6-1.3,0.8-2.4,0.8H5.9v2.6h10.3c1.3,0,2.3-0.3,3.1-0.8c0.8-0.5,1.3-1.2,1.6-1.9
		c0.3-0.8,0.4-1.6,0.4-2.6c0-1.2-0.3-2.3-1-3.2s-1.7-1.6-2.9-2.1l-0.5-0.2l0.1-0.4c0.3,0.1,0.7,0.2,1,0.3s0.6,0.3,0.9,0.4
		c0.4,0.2,0.8,0.3,1,0.4c0.2,0.1,0.5,0.1,0.8,0.1h0.2V89.9z M19,111.4v0.3c0,1.4-0.6,2.5-1.7,3.2c-1.1,0.7-2.5,1.1-4,1.1
		c-1,0-1.9-0.2-2.8-0.5c-0.8-0.3-1.5-0.8-2-1.5c-0.5-0.7-0.8-1.4-0.8-2.4v-0.3c0-1,0.2-1.8,0.8-2.4s1.2-1.1,2-1.4
		c0.8-0.3,1.8-0.5,2.8-0.5c1.1,0,2,0.2,2.9,0.5c0.9,0.3,1.5,0.8,2.1,1.4S19,110.5,19,111.4 M21.2,111.6c0-1.4-0.3-2.7-1-3.8
		s-1.6-1.9-2.8-2.5c-1.2-0.6-2.6-0.9-4.1-0.9c-1.5,0-2.9,0.3-4.1,0.9c-1.2,0.6-2.1,1.4-2.7,2.5c-0.7,1.1-1,2.4-1,3.8
		c0,1.5,0.3,2.7,1,3.8c0.6,1.1,1.6,1.9,2.7,2.5c1.2,0.6,2.5,0.9,4.1,0.9s2.9-0.3,4.1-0.9c1.2-0.6,2.1-1.4,2.8-2.5
		C20.9,114.3,21.2,113.1,21.2,111.6 M18.3,119.9L18.3,119.9c0.1,0.2,0.1,0.6,0.2,1c0.1,0.5,0.1,0.8,0.1,1.2c0,0.6-0.2,1-0.5,1.2
		c-0.3,0.2-0.8,0.3-1.4,0.3H8V120H5.9v3.6H1.6v2.6h4.2v2.5H8v-2.5h8.3c1.6,0,2.7-0.3,3.5-0.8c0.8-0.6,1.2-1.5,1.2-2.9
		c0-0.6-0.1-1.5-0.3-2.6c0,0,0,0,0,0s0,0,0,0H18.3z"/>
</g>
</svg>
